0
SECTION
2
HEADER
9
$ACADVER
1
AC1006
0
ENDSEC
0
SECTION
2
TABLES
0
TABLE
2
LAYER
70
1
0
LAYER
70
0
62
1
6
CONTINUOUS
2
L0D0
0
ENDTAB
0
ENDSEC
0
SECTION
2
BLOCKS
0
ENDSEC
0
SECTION
2
ENTITIES
0
POLYLINE
8
L0D0
70
1
40
0
41
0
66
1
0
VERTEX
8
L0D0
10
-1212.5
20
16000
0
VERTEX
8
L0D0
10
-1212.5
20
17000
0
VERTEX
8
L0D0
10
-212.5
20
17000
0
VERTEX
8
L0D0
10
-212.5
20
16500
0
VERTEX
8
L0D0
10
-462.5
20
16500
0
VERTEX
8
L0D0
10
-462.5
20
16000
0
SEQEND
0
POLYLINE
8
L0D0
70
1
40
0
41
0
66
1
0
VERTEX
8
L0D0
10
462.5
20
16000
0
VERTEX
8
L0D0
10
462.5
20
16500
0
VERTEX
8
L0D0
10
212.5
20
16500
0
VERTEX
8
L0D0
10
212.5
20
17000
0
VERTEX
8
L0D0
10
1212.5
20
17000
0
VERTEX
8
L0D0
10
1212.5
20
16000
0
SEQEND
0
POLYLINE
8
L0D0
70
1
40
0
41
0
66
1
0
VERTEX
8
L0D0
10
2437.5
20
16000
0
VERTEX
8
L0D0
10
2437.5
20
17000
0
VERTEX
8
L0D0
10
3437.5
20
17000
0
VERTEX
8
L0D0
10
3437.5
20
16500
0
VERTEX
8
L0D0
10
3187.5
20
16500
0
VERTEX
8
L0D0
10
3187.5
20
16000
0
SEQEND
0
POLYLINE
8
L0D0
70
1
40
0
41
0
66
1
0
VERTEX
8
L0D0
10
4212.5
20
16000
0
VERTEX
8
L0D0
10
4212.5
20
16500
0
VERTEX
8
L0D0
10
3962.5
20
16500
0
VERTEX
8
L0D0
10
3962.5
20
17000
0
VERTEX
8
L0D0
10
4962.5
20
17000
0
VERTEX
8
L0D0
10
4962.5
20
16000
0
SEQEND
0
POLYLINE
8
L0D0
70
1
40
0
41
0
66
1
0
VERTEX
8
L0D0
10
6087.5
20
16000
0
VERTEX
8
L0D0
10
6087.5
20
17000
0
VERTEX
8
L0D0
10
7087.5
20
17000
0
VERTEX
8
L0D0
10
7087.5
20
16500
0
VERTEX
8
L0D0
10
6837.5
20
16500
0
VERTEX
8
L0D0
10
6837.5
20
16000
0
SEQEND
0
POLYLINE
8
L0D0
70
1
40
0
41
0
66
1
0
VERTEX
8
L0D0
10
7962.5
20
16000
0
VERTEX
8
L0D0
10
7962.5
20
16500
0
VERTEX
8
L0D0
10
7712.5
20
16500
0
VERTEX
8
L0D0
10
7712.5
20
17000
0
VERTEX
8
L0D0
10
8712.5
20
17000
0
VERTEX
8
L0D0
10
8712.5
20
16000
0
SEQEND
0
POLYLINE
8
L0D0
70
1
40
0
41
0
66
1
0
VERTEX
8
L0D0
10
9737.5
20
16000
0
VERTEX
8
L0D0
10
9737.5
20
17000
0
VERTEX
8
L0D0
10
10737.5
20
17000
0
VERTEX
8
L0D0
10
10737.5
20
16500
0
VERTEX
8
L0D0
10
10487.5
20
16500
0
VERTEX
8
L0D0
10
10487.5
20
16000
0
SEQEND
0
POLYLINE
8
L0D0
70
1
40
0
41
0
66
1
0
VERTEX
8
L0D0
10
11712.5
20
16000
0
VERTEX
8
L0D0
10
11712.5
20
16500
0
VERTEX
8
L0D0
10
11462.5
20
16500
0
VERTEX
8
L0D0
10
11462.5
20
17000
0
VERTEX
8
L0D0
10
12462.5
20
17000
0
VERTEX
8
L0D0
10
12462.5
20
16000
0
SEQEND
0
POLYLINE
8
L0D0
70
1
40
0
41
0
66
1
0
VERTEX
8
L0D0
10
15150
20
500
0
VERTEX
8
L0D0
10
15150
20
1000
0
VERTEX
8
L0D0
10
15400
20
1000
0
VERTEX
8
L0D0
10
15400
20
1500
0
VERTEX
8
L0D0
10
16150
20
1500
0
VERTEX
8
L0D0
10
16150
20
500
0
SEQEND
0
POLYLINE
8
L0D0
70
1
40
0
41
0
66
1
0
VERTEX
8
L0D0
10
15400
20
-1500
0
VERTEX
8
L0D0
10
15400
20
-1000
0
VERTEX
8
L0D0
10
15150
20
-1000
0
VERTEX
8
L0D0
10
15150
20
-500
0
VERTEX
8
L0D0
10
16150
20
-500
0
VERTEX
8
L0D0
10
16150
20
-1500
0
SEQEND
0
POLYLINE
8
L0D0
70
1
40
0
41
0
66
1
0
VERTEX
8
L0D0
10
15162.5
20
4000
0
VERTEX
8
L0D0
10
15162.5
20
4500
0
VERTEX
8
L0D0
10
15412.5
20
4500
0
VERTEX
8
L0D0
10
15412.5
20
5000
0
VERTEX
8
L0D0
10
16162.5
20
5000
0
VERTEX
8
L0D0
10
16162.5
20
4000
0
SEQEND
0
POLYLINE
8
L0D0
70
1
40
0
41
0
66
1
0
VERTEX
8
L0D0
10
15412.5
20
2000
0
VERTEX
8
L0D0
10
15412.5
20
2500
0
VERTEX
8
L0D0
10
15162.5
20
2500
0
VERTEX
8
L0D0
10
15162.5
20
3000
0
VERTEX
8
L0D0
10
16162.5
20
3000
0
VERTEX
8
L0D0
10
16162.5
20
2000
0
SEQEND
0
POLYLINE
8
L0D0
70
1
40
0
41
0
66
1
0
VERTEX
8
L0D0
10
15175
20
7500
0
VERTEX
8
L0D0
10
15175
20
8000
0
VERTEX
8
L0D0
10
15425
20
8000
0
VERTEX
8
L0D0
10
15425
20
8500
0
VERTEX
8
L0D0
10
16175
20
8500
0
VERTEX
8
L0D0
10
16175
20
7500
0
SEQEND
0
POLYLINE
8
L0D0
70
1
40
0
41
0
66
1
0
VERTEX
8
L0D0
10
15425
20
5500
0
VERTEX
8
L0D0
10
15425
20
6000
0
VERTEX
8
L0D0
10
15175
20
6000
0
VERTEX
8
L0D0
10
15175
20
6500
0
VERTEX
8
L0D0
10
16175
20
6500
0
VERTEX
8
L0D0
10
16175
20
5500
0
SEQEND
0
POLYLINE
8
L0D0
70
1
40
0
41
0
66
1
0
VERTEX
8
L0D0
10
15187.5
20
11000
0
VERTEX
8
L0D0
10
15187.5
20
11500
0
VERTEX
8
L0D0
10
15437.5
20
11500
0
VERTEX
8
L0D0
10
15437.5
20
12000
0
VERTEX
8
L0D0
10
16187.5
20
12000
0
VERTEX
8
L0D0
10
16187.5
20
11000
0
SEQEND
0
POLYLINE
8
L0D0
70
1
40
0
41
0
66
1
0
VERTEX
8
L0D0
10
15437.5
20
9000
0
VERTEX
8
L0D0
10
15437.5
20
9500
0
VERTEX
8
L0D0
10
15187.5
20
9500
0
VERTEX
8
L0D0
10
15187.5
20
10000
0
VERTEX
8
L0D0
10
16187.5
20
10000
0
VERTEX
8
L0D0
10
16187.5
20
9000
0
SEQEND
0
POLYLINE
8
L0D0
70
1
40
0
41
0
66
1
0
VERTEX
8
L0D0
10
15200
20
14500
0
VERTEX
8
L0D0
10
15200
20
15000
0
VERTEX
8
L0D0
10
15450
20
15000
0
VERTEX
8
L0D0
10
15450
20
15500
0
VERTEX
8
L0D0
10
16200
20
15500
0
VERTEX
8
L0D0
10
16200
20
14500
0
SEQEND
0
POLYLINE
8
L0D0
70
1
40
0
41
0
66
1
0
VERTEX
8
L0D0
10
15450
20
12500
0
VERTEX
8
L0D0
10
15450
20
13000
0
VERTEX
8
L0D0
10
15200
20
13000
0
VERTEX
8
L0D0
10
15200
20
13500
0
VERTEX
8
L0D0
10
16200
20
13500
0
VERTEX
8
L0D0
10
16200
20
12500
0
SEQEND
0
POLYLINE
8
L0D0
70
1
40
0
41
0
66
1
0
VERTEX
8
L0D0
10
13387.5
20
16000
0
VERTEX
8
L0D0
10
13387.5
20
17000
0
VERTEX
8
L0D0
10
14387.5
20
17000
0
VERTEX
8
L0D0
10
14387.5
20
16500
0
VERTEX
8
L0D0
10
14137.5
20
16500
0
VERTEX
8
L0D0
10
14137.5
20
16000
0
SEQEND
0
POLYLINE
8
L0D0
70
1
40
0
41
0
66
1
0
VERTEX
8
L0D0
10
15212.5
20
18000
0
VERTEX
8
L0D0
10
15212.5
20
18500
0
VERTEX
8
L0D0
10
15462.5
20
18500
0
VERTEX
8
L0D0
10
15462.5
20
19000
0
VERTEX
8
L0D0
10
16212.5
20
19000
0
VERTEX
8
L0D0
10
16212.5
20
18000
0
SEQEND
0
POLYLINE
8
L0D0
70
1
40
0
41
0
66
1
0
VERTEX
8
L0D0
10
15462.5
20
16000
0
VERTEX
8
L0D0
10
15462.5
20
16500
0
VERTEX
8
L0D0
10
15212.5
20
16500
0
VERTEX
8
L0D0
10
15212.5
20
17000
0
VERTEX
8
L0D0
10
16212.5
20
17000
0
VERTEX
8
L0D0
10
16212.5
20
16000
0
SEQEND
0
POLYLINE
8
L0D0
70
1
40
0
41
0
66
1
0
VERTEX
8
L0D0
10
15225
20
21500
0
VERTEX
8
L0D0
10
15225
20
22000
0
VERTEX
8
L0D0
10
15475
20
22000
0
VERTEX
8
L0D0
10
15475
20
22500
0
VERTEX
8
L0D0
10
16225
20
22500
0
VERTEX
8
L0D0
10
16225
20
21500
0
SEQEND
0
POLYLINE
8
L0D0
70
1
40
0
41
0
66
1
0
VERTEX
8
L0D0
10
15475
20
19500
0
VERTEX
8
L0D0
10
15475
20
20000
0
VERTEX
8
L0D0
10
15225
20
20000
0
VERTEX
8
L0D0
10
15225
20
20500
0
VERTEX
8
L0D0
10
16225
20
20500
0
VERTEX
8
L0D0
10
16225
20
19500
0
SEQEND
0
POLYLINE
8
L0D0
70
1
40
0
41
0
66
1
0
VERTEX
8
L0D0
10
15237.5
20
25000
0
VERTEX
8
L0D0
10
15237.5
20
25500
0
VERTEX
8
L0D0
10
15487.5
20
25500
0
VERTEX
8
L0D0
10
15487.5
20
26000
0
VERTEX
8
L0D0
10
16237.5
20
26000
0
VERTEX
8
L0D0
10
16237.5
20
25000
0
SEQEND
0
POLYLINE
8
L0D0
70
1
40
0
41
0
66
1
0
VERTEX
8
L0D0
10
15487.5
20
23000
0
VERTEX
8
L0D0
10
15487.5
20
23500
0
VERTEX
8
L0D0
10
15237.5
20
23500
0
VERTEX
8
L0D0
10
15237.5
20
24000
0
VERTEX
8
L0D0
10
16237.5
20
24000
0
VERTEX
8
L0D0
10
16237.5
20
23000
0
SEQEND
0
POLYLINE
8
L0D0
70
1
40
0
41
0
66
1
0
VERTEX
8
L0D0
10
15250
20
28500
0
VERTEX
8
L0D0
10
15250
20
29000
0
VERTEX
8
L0D0
10
15500
20
29000
0
VERTEX
8
L0D0
10
15500
20
29500
0
VERTEX
8
L0D0
10
16250
20
29500
0
VERTEX
8
L0D0
10
16250
20
28500
0
SEQEND
0
POLYLINE
8
L0D0
70
1
40
0
41
0
66
1
0
VERTEX
8
L0D0
10
15500
20
26500
0
VERTEX
8
L0D0
10
15500
20
27000
0
VERTEX
8
L0D0
10
15250
20
27000
0
VERTEX
8
L0D0
10
15250
20
27500
0
VERTEX
8
L0D0
10
16250
20
27500
0
VERTEX
8
L0D0
10
16250
20
26500
0
SEQEND
0
POLYLINE
8
L0D0
70
1
40
0
41
0
66
1
0
VERTEX
8
L0D0
10
15262.5
20
32000
0
VERTEX
8
L0D0
10
15262.5
20
32500
0
VERTEX
8
L0D0
10
15512.5
20
32500
0
VERTEX
8
L0D0
10
15512.5
20
33000
0
VERTEX
8
L0D0
10
16262.5
20
33000
0
VERTEX
8
L0D0
10
16262.5
20
32000
0
SEQEND
0
POLYLINE
8
L0D0
70
1
40
0
41
0
66
1
0
VERTEX
8
L0D0
10
15512.5
20
30000
0
VERTEX
8
L0D0
10
15512.5
20
30500
0
VERTEX
8
L0D0
10
15262.5
20
30500
0
VERTEX
8
L0D0
10
15262.5
20
31000
0
VERTEX
8
L0D0
10
16262.5
20
31000
0
VERTEX
8
L0D0
10
16262.5
20
30000
0
SEQEND
0
POLYLINE
8
L0D0
70
1
40
0
41
0
66
1
0
VERTEX
8
L0D0
10
17037.5
20
16000
0
VERTEX
8
L0D0
10
17037.5
20
17000
0
VERTEX
8
L0D0
10
18037.5
20
17000
0
VERTEX
8
L0D0
10
18037.5
20
16500
0
VERTEX
8
L0D0
10
17787.5
20
16500
0
VERTEX
8
L0D0
10
17787.5
20
16000
0
SEQEND
0
POLYLINE
8
L0D0
70
1
40
0
41
0
66
1
0
VERTEX
8
L0D0
10
19212.5
20
16000
0
VERTEX
8
L0D0
10
19212.5
20
16500
0
VERTEX
8
L0D0
10
18962.5
20
16500
0
VERTEX
8
L0D0
10
18962.5
20
17000
0
VERTEX
8
L0D0
10
19962.5
20
17000
0
VERTEX
8
L0D0
10
19962.5
20
16000
0
SEQEND
0
POLYLINE
8
L0D0
70
1
40
0
41
0
66
1
0
VERTEX
8
L0D0
10
20687.5
20
16000
0
VERTEX
8
L0D0
10
20687.5
20
17000
0
VERTEX
8
L0D0
10
21687.5
20
17000
0
VERTEX
8
L0D0
10
21687.5
20
16500
0
VERTEX
8
L0D0
10
21437.5
20
16500
0
VERTEX
8
L0D0
10
21437.5
20
16000
0
SEQEND
0
POLYLINE
8
L0D0
70
1
40
0
41
0
66
1
0
VERTEX
8
L0D0
10
22962.5
20
16000
0
VERTEX
8
L0D0
10
22962.5
20
16500
0
VERTEX
8
L0D0
10
22712.5
20
16500
0
VERTEX
8
L0D0
10
22712.5
20
17000
0
VERTEX
8
L0D0
10
23712.5
20
17000
0
VERTEX
8
L0D0
10
23712.5
20
16000
0
SEQEND
0
POLYLINE
8
L0D0
70
1
40
0
41
0
66
1
0
VERTEX
8
L0D0
10
24337.5
20
16000
0
VERTEX
8
L0D0
10
24337.5
20
17000
0
VERTEX
8
L0D0
10
25337.5
20
17000
0
VERTEX
8
L0D0
10
25337.5
20
16500
0
VERTEX
8
L0D0
10
25087.5
20
16500
0
VERTEX
8
L0D0
10
25087.5
20
16000
0
SEQEND
0
POLYLINE
8
L0D0
70
1
40
0
41
0
66
1
0
VERTEX
8
L0D0
10
26712.5
20
16000
0
VERTEX
8
L0D0
10
26712.5
20
16500
0
VERTEX
8
L0D0
10
26462.5
20
16500
0
VERTEX
8
L0D0
10
26462.5
20
17000
0
VERTEX
8
L0D0
10
27462.5
20
17000
0
VERTEX
8
L0D0
10
27462.5
20
16000
0
SEQEND
0
POLYLINE
8
L0D0
70
1
40
0
41
0
66
1
0
VERTEX
8
L0D0
10
27987.5
20
16000
0
VERTEX
8
L0D0
10
27987.5
20
17000
0
VERTEX
8
L0D0
10
28987.5
20
17000
0
VERTEX
8
L0D0
10
28987.5
20
16500
0
VERTEX
8
L0D0
10
28737.5
20
16500
0
VERTEX
8
L0D0
10
28737.5
20
16000
0
SEQEND
0
POLYLINE
8
L0D0
70
1
40
0
41
0
66
1
0
VERTEX
8
L0D0
10
30462.5
20
16000
0
VERTEX
8
L0D0
10
30462.5
20
16500
0
VERTEX
8
L0D0
10
30212.5
20
16500
0
VERTEX
8
L0D0
10
30212.5
20
17000
0
VERTEX
8
L0D0
10
31212.5
20
17000
0
VERTEX
8
L0D0
10
31212.5
20
16000
0
SEQEND
0
POLYLINE
8
L0D0
70
1
40
0
41
0
66
1
0
VERTEX
8
L0D0
10
31637.5
20
16000
0
VERTEX
8
L0D0
10
31637.5
20
17000
0
VERTEX
8
L0D0
10
32637.5
20
17000
0
VERTEX
8
L0D0
10
32637.5
20
16500
0
VERTEX
8
L0D0
10
32387.5
20
16500
0
VERTEX
8
L0D0
10
32387.5
20
16000
0
SEQEND
0
POLYLINE
8
L0D0
70
1
40
0
41
0
66
1
0
VERTEX
8
L0D0
10
34212.5
20
16000
0
VERTEX
8
L0D0
10
34212.5
20
16500
0
VERTEX
8
L0D0
10
33962.5
20
16500
0
VERTEX
8
L0D0
10
33962.5
20
17000
0
VERTEX
8
L0D0
10
34962.5
20
17000
0
VERTEX
8
L0D0
10
34962.5
20
16000
0
SEQEND
0
POLYLINE
8
L0D0
70
1
40
0
41
0
66
1
0
VERTEX
8
L0D0
10
15237.5
20
33744.444
0
VERTEX
8
L0D0
10
15237.5
20
33966.667
0
VERTEX
8
L0D0
10
15459.722
20
33966.667
0
VERTEX
8
L0D0
10
15681.944
20
33966.667
0
VERTEX
8
L0D0
10
15904.167
20
33966.667
0
VERTEX
8
L0D0
10
15904.167
20
33744.444
0
VERTEX
8
L0D0
10
15681.944
20
33744.444
0
VERTEX
8
L0D0
10
15459.722
20
33744.444
0
SEQEND
0
POLYLINE
8
L0D0
70
1
40
0
41
0
66
1
0
VERTEX
8
L0D0
10
15237.5
20
35077.778
0
VERTEX
8
L0D0
10
15237.5
20
35300
0
VERTEX
8
L0D0
10
15459.722
20
35300
0
VERTEX
8
L0D0
10
15681.944
20
35300
0
VERTEX
8
L0D0
10
15904.167
20
35300
0
VERTEX
8
L0D0
10
15904.167
20
35077.778
0
VERTEX
8
L0D0
10
15681.944
20
35077.778
0
VERTEX
8
L0D0
10
15459.722
20
35077.778
0
SEQEND
0
POLYLINE
8
L0D0
70
1
40
0
41
0
66
1
0
VERTEX
8
L0D0
10
15904.167
20
33966.667
0
VERTEX
8
L0D0
10
15904.167
20
34188.889
0
VERTEX
8
L0D0
10
15904.167
20
34411.111
0
VERTEX
8
L0D0
10
15904.167
20
34633.333
0
VERTEX
8
L0D0
10
15681.944
20
34633.333
0
VERTEX
8
L0D0
10
15681.944
20
34855.556
0
VERTEX
8
L0D0
10
15904.167
20
34855.556
0
VERTEX
8
L0D0
10
15904.167
20
35077.778
0
VERTEX
8
L0D0
10
16126.389
20
35077.778
0
VERTEX
8
L0D0
10
16126.389
20
34855.556
0
VERTEX
8
L0D0
10
16126.389
20
34633.333
0
VERTEX
8
L0D0
10
16126.389
20
34411.111
0
VERTEX
8
L0D0
10
16126.389
20
34188.889
0
VERTEX
8
L0D0
10
16126.389
20
33966.667
0
SEQEND
0
POLYLINE
8
L0D0
70
1
40
0
41
0
66
1
0
VERTEX
8
L0D0
10
20662.5
20
25000
0
VERTEX
8
L0D0
10
20662.5
20
26000
0
VERTEX
8
L0D0
10
21412.5
20
26000
0
VERTEX
8
L0D0
10
21412.5
20
25500
0
VERTEX
8
L0D0
10
21662.5
20
25500
0
VERTEX
8
L0D0
10
21662.5
20
25000
0
SEQEND
0
POLYLINE
8
L0D0
70
1
40
0
41
0
66
1
0
VERTEX
8
L0D0
10
22737.5
20
25000
0
VERTEX
8
L0D0
10
22737.5
20
25500
0
VERTEX
8
L0D0
10
22987.5
20
25500
0
VERTEX
8
L0D0
10
22987.5
20
26000
0
VERTEX
8
L0D0
10
23737.5
20
26000
0
VERTEX
8
L0D0
10
23737.5
20
25000
0
SEQEND
0
POLYLINE
8
L0D0
70
1
40
0
41
0
66
1
0
VERTEX
8
L0D0
10
24312.5
20
25000
0
VERTEX
8
L0D0
10
24312.5
20
26000
0
VERTEX
8
L0D0
10
25062.5
20
26000
0
VERTEX
8
L0D0
10
25062.5
20
25500
0
VERTEX
8
L0D0
10
25312.5
20
25500
0
VERTEX
8
L0D0
10
25312.5
20
25000
0
SEQEND
0
POLYLINE
8
L0D0
70
1
40
0
41
0
66
1
0
VERTEX
8
L0D0
10
26487.5
20
25000
0
VERTEX
8
L0D0
10
26487.5
20
25500
0
VERTEX
8
L0D0
10
26737.5
20
25500
0
VERTEX
8
L0D0
10
26737.5
20
26000
0
VERTEX
8
L0D0
10
27487.5
20
26000
0
VERTEX
8
L0D0
10
27487.5
20
25000
0
SEQEND
0
POLYLINE
8
L0D0
70
1
40
0
41
0
66
1
0
VERTEX
8
L0D0
10
27962.5
20
25000
0
VERTEX
8
L0D0
10
27962.5
20
26000
0
VERTEX
8
L0D0
10
28712.5
20
26000
0
VERTEX
8
L0D0
10
28712.5
20
25500
0
VERTEX
8
L0D0
10
28962.5
20
25500
0
VERTEX
8
L0D0
10
28962.5
20
25000
0
SEQEND
0
POLYLINE
8
L0D0
70
1
40
0
41
0
66
1
0
VERTEX
8
L0D0
10
30237.5
20
25000
0
VERTEX
8
L0D0
10
30237.5
20
25500
0
VERTEX
8
L0D0
10
30487.5
20
25500
0
VERTEX
8
L0D0
10
30487.5
20
26000
0
VERTEX
8
L0D0
10
31237.5
20
26000
0
VERTEX
8
L0D0
10
31237.5
20
25000
0
SEQEND
0
POLYLINE
8
L0D0
70
1
40
0
41
0
66
1
0
VERTEX
8
L0D0
10
17012.5
20
25000
0
VERTEX
8
L0D0
10
17012.5
20
26000
0
VERTEX
8
L0D0
10
17762.5
20
26000
0
VERTEX
8
L0D0
10
17762.5
20
25500
0
VERTEX
8
L0D0
10
18012.5
20
25500
0
VERTEX
8
L0D0
10
18012.5
20
25000
0
SEQEND
0
POLYLINE
8
L0D0
70
1
40
0
41
0
66
1
0
VERTEX
8
L0D0
10
31612.5
20
25000
0
VERTEX
8
L0D0
10
31612.5
20
26000
0
VERTEX
8
L0D0
10
32362.5
20
26000
0
VERTEX
8
L0D0
10
32362.5
20
25500
0
VERTEX
8
L0D0
10
32612.5
20
25500
0
VERTEX
8
L0D0
10
32612.5
20
25000
0
SEQEND
0
POLYLINE
8
L0D0
70
1
40
0
41
0
66
1
0
VERTEX
8
L0D0
10
33987.5
20
25000
0
VERTEX
8
L0D0
10
33987.5
20
25500
0
VERTEX
8
L0D0
10
34237.5
20
25500
0
VERTEX
8
L0D0
10
34237.5
20
26000
0
VERTEX
8
L0D0
10
34987.5
20
26000
0
VERTEX
8
L0D0
10
34987.5
20
25000
0
SEQEND
0
POLYLINE
8
L0D0
70
1
40
0
41
0
66
1
0
VERTEX
8
L0D0
10
18987.5
20
25000
0
VERTEX
8
L0D0
10
18987.5
20
25500
0
VERTEX
8
L0D0
10
19237.5
20
25500
0
VERTEX
8
L0D0
10
19237.5
20
26000
0
VERTEX
8
L0D0
10
19987.5
20
26000
0
VERTEX
8
L0D0
10
19987.5
20
25000
0
SEQEND
0
POLYLINE
8
L0D0
70
1
40
0
41
0
66
1
0
VERTEX
8
L0D0
10
25004.167
20
33744.444
0
VERTEX
8
L0D0
10
25004.167
20
33966.667
0
VERTEX
8
L0D0
10
25004.167
20
34188.889
0
VERTEX
8
L0D0
10
24781.944
20
34188.889
0
VERTEX
8
L0D0
10
24559.722
20
34188.889
0
VERTEX
8
L0D0
10
24337.5
20
34188.889
0
VERTEX
8
L0D0
10
24337.5
20
34411.111
0
VERTEX
8
L0D0
10
24337.5
20
34633.333
0
VERTEX
8
L0D0
10
24559.722
20
34633.333
0
VERTEX
8
L0D0
10
24559.722
20
34411.111
0
VERTEX
8
L0D0
10
24781.944
20
34411.111
0
VERTEX
8
L0D0
10
25004.167
20
34411.111
0
VERTEX
8
L0D0
10
25004.167
20
34633.333
0
VERTEX
8
L0D0
10
25004.167
20
34855.556
0
VERTEX
8
L0D0
10
25004.167
20
35077.778
0
VERTEX
8
L0D0
10
24781.944
20
35077.778
0
VERTEX
8
L0D0
10
24781.944
20
35300
0
VERTEX
8
L0D0
10
25004.167
20
35300
0
VERTEX
8
L0D0
10
25226.389
20
35300
0
VERTEX
8
L0D0
10
25226.389
20
35077.778
0
VERTEX
8
L0D0
10
25226.389
20
34855.556
0
VERTEX
8
L0D0
10
25226.389
20
34633.333
0
VERTEX
8
L0D0
10
25226.389
20
34411.111
0
VERTEX
8
L0D0
10
25448.611
20
34411.111
0
VERTEX
8
L0D0
10
25448.611
20
34188.889
0
VERTEX
8
L0D0
10
25226.389
20
34188.889
0
VERTEX
8
L0D0
10
25226.389
20
33966.667
0
VERTEX
8
L0D0
10
25226.389
20
33744.444
0
SEQEND
0
POLYLINE
8
L0D0
70
1
40
0
41
0
66
1
0
VERTEX
8
L0D0
10
27950
20
26500
0
VERTEX
8
L0D0
10
27950
20
27500
0
VERTEX
8
L0D0
10
28950
20
27500
0
VERTEX
8
L0D0
10
28950
20
27000
0
VERTEX
8
L0D0
10
28700
20
27000
0
VERTEX
8
L0D0
10
28700
20
26500
0
SEQEND
0
POLYLINE
8
L0D0
70
1
40
0
41
0
66
1
0
VERTEX
8
L0D0
10
30250
20
28500
0
VERTEX
8
L0D0
10
30250
20
29000
0
VERTEX
8
L0D0
10
30500
20
29000
0
VERTEX
8
L0D0
10
30500
20
29500
0
VERTEX
8
L0D0
10
31250
20
29500
0
VERTEX
8
L0D0
10
31250
20
28500
0
SEQEND
0
POLYLINE
8
L0D0
70
1
40
0
41
0
66
1
0
VERTEX
8
L0D0
10
30500
20
26500
0
VERTEX
8
L0D0
10
30500
20
27000
0
VERTEX
8
L0D0
10
30250
20
27000
0
VERTEX
8
L0D0
10
30250
20
27500
0
VERTEX
8
L0D0
10
31250
20
27500
0
VERTEX
8
L0D0
10
31250
20
26500
0
SEQEND
0
POLYLINE
8
L0D0
70
1
40
0
41
0
66
1
0
VERTEX
8
L0D0
10
27937.5
20
32000
0
VERTEX
8
L0D0
10
27937.5
20
33000
0
VERTEX
8
L0D0
10
28687.5
20
33000
0
VERTEX
8
L0D0
10
28687.5
20
32500
0
VERTEX
8
L0D0
10
28937.5
20
32500
0
VERTEX
8
L0D0
10
28937.5
20
32000
0
SEQEND
0
POLYLINE
8
L0D0
70
1
40
0
41
0
66
1
0
VERTEX
8
L0D0
10
27937.5
20
30000
0
VERTEX
8
L0D0
10
27937.5
20
31000
0
VERTEX
8
L0D0
10
28937.5
20
31000
0
VERTEX
8
L0D0
10
28937.5
20
30500
0
VERTEX
8
L0D0
10
28687.5
20
30500
0
VERTEX
8
L0D0
10
28687.5
20
30000
0
SEQEND
0
POLYLINE
8
L0D0
70
1
40
0
41
0
66
1
0
VERTEX
8
L0D0
10
30262.5
20
32000
0
VERTEX
8
L0D0
10
30262.5
20
32500
0
VERTEX
8
L0D0
10
30512.5
20
32500
0
VERTEX
8
L0D0
10
30512.5
20
33000
0
VERTEX
8
L0D0
10
31262.5
20
33000
0
VERTEX
8
L0D0
10
31262.5
20
32000
0
SEQEND
0
POLYLINE
8
L0D0
70
1
40
0
41
0
66
1
0
VERTEX
8
L0D0
10
30512.5
20
30000
0
VERTEX
8
L0D0
10
30512.5
20
30500
0
VERTEX
8
L0D0
10
30262.5
20
30500
0
VERTEX
8
L0D0
10
30262.5
20
31000
0
VERTEX
8
L0D0
10
31262.5
20
31000
0
VERTEX
8
L0D0
10
31262.5
20
30000
0
SEQEND
0
POLYLINE
8
L0D0
70
1
40
0
41
0
66
1
0
VERTEX
8
L0D0
10
26512.5
20
32000
0
VERTEX
8
L0D0
10
26512.5
20
32500
0
VERTEX
8
L0D0
10
26762.5
20
32500
0
VERTEX
8
L0D0
10
26762.5
20
33000
0
VERTEX
8
L0D0
10
27512.5
20
33000
0
VERTEX
8
L0D0
10
27512.5
20
32000
0
SEQEND
0
POLYLINE
8
L0D0
70
1
40
0
41
0
66
1
0
VERTEX
8
L0D0
10
26762.5
20
30000
0
VERTEX
8
L0D0
10
26762.5
20
30500
0
VERTEX
8
L0D0
10
26512.5
20
30500
0
VERTEX
8
L0D0
10
26512.5
20
31000
0
VERTEX
8
L0D0
10
27512.5
20
31000
0
VERTEX
8
L0D0
10
27512.5
20
30000
0
SEQEND
0
POLYLINE
8
L0D0
70
1
40
0
41
0
66
1
0
VERTEX
8
L0D0
10
26500
20
28500
0
VERTEX
8
L0D0
10
26500
20
29000
0
VERTEX
8
L0D0
10
26750
20
29000
0
VERTEX
8
L0D0
10
26750
20
29500
0
VERTEX
8
L0D0
10
27500
20
29500
0
VERTEX
8
L0D0
10
27500
20
28500
0
SEQEND
0
POLYLINE
8
L0D0
70
1
40
0
41
0
66
1
0
VERTEX
8
L0D0
10
31600
20
28500
0
VERTEX
8
L0D0
10
31600
20
29500
0
VERTEX
8
L0D0
10
32350
20
29500
0
VERTEX
8
L0D0
10
32350
20
29000
0
VERTEX
8
L0D0
10
32600
20
29000
0
VERTEX
8
L0D0
10
32600
20
28500
0
SEQEND
0
POLYLINE
8
L0D0
70
1
40
0
41
0
66
1
0
VERTEX
8
L0D0
10
31600
20
26500
0
VERTEX
8
L0D0
10
31600
20
27500
0
VERTEX
8
L0D0
10
32600
20
27500
0
VERTEX
8
L0D0
10
32600
20
27000
0
VERTEX
8
L0D0
10
32350
20
27000
0
VERTEX
8
L0D0
10
32350
20
26500
0
SEQEND
0
POLYLINE
8
L0D0
70
1
40
0
41
0
66
1
0
VERTEX
8
L0D0
10
34000
20
28500
0
VERTEX
8
L0D0
10
34000
20
29000
0
VERTEX
8
L0D0
10
34250
20
29000
0
VERTEX
8
L0D0
10
34250
20
29500
0
VERTEX
8
L0D0
10
35000
20
29500
0
VERTEX
8
L0D0
10
35000
20
28500
0
SEQEND
0
POLYLINE
8
L0D0
70
1
40
0
41
0
66
1
0
VERTEX
8
L0D0
10
34250
20
26500
0
VERTEX
8
L0D0
10
34250
20
27000
0
VERTEX
8
L0D0
10
34000
20
27000
0
VERTEX
8
L0D0
10
34000
20
27500
0
VERTEX
8
L0D0
10
35000
20
27500
0
VERTEX
8
L0D0
10
35000
20
26500
0
SEQEND
0
POLYLINE
8
L0D0
70
1
40
0
41
0
66
1
0
VERTEX
8
L0D0
10
31587.5
20
32000
0
VERTEX
8
L0D0
10
31587.5
20
33000
0
VERTEX
8
L0D0
10
32337.5
20
33000
0
VERTEX
8
L0D0
10
32337.5
20
32500
0
VERTEX
8
L0D0
10
32587.5
20
32500
0
VERTEX
8
L0D0
10
32587.5
20
32000
0
SEQEND
0
POLYLINE
8
L0D0
70
1
40
0
41
0
66
1
0
VERTEX
8
L0D0
10
31587.5
20
30000
0
VERTEX
8
L0D0
10
31587.5
20
31000
0
VERTEX
8
L0D0
10
32587.5
20
31000
0
VERTEX
8
L0D0
10
32587.5
20
30500
0
VERTEX
8
L0D0
10
32337.5
20
30500
0
VERTEX
8
L0D0
10
32337.5
20
30000
0
SEQEND
0
POLYLINE
8
L0D0
70
1
40
0
41
0
66
1
0
VERTEX
8
L0D0
10
34012.5
20
32000
0
VERTEX
8
L0D0
10
34012.5
20
32500
0
VERTEX
8
L0D0
10
34262.5
20
32500
0
VERTEX
8
L0D0
10
34262.5
20
33000
0
VERTEX
8
L0D0
10
35012.5
20
33000
0
VERTEX
8
L0D0
10
35012.5
20
32000
0
SEQEND
0
POLYLINE
8
L0D0
70
1
40
0
41
0
66
1
0
VERTEX
8
L0D0
10
34262.5
20
30000
0
VERTEX
8
L0D0
10
34262.5
20
30500
0
VERTEX
8
L0D0
10
34012.5
20
30500
0
VERTEX
8
L0D0
10
34012.5
20
31000
0
VERTEX
8
L0D0
10
35012.5
20
31000
0
VERTEX
8
L0D0
10
35012.5
20
30000
0
SEQEND
0
POLYLINE
8
L0D0
70
1
40
0
41
0
66
1
0
VERTEX
8
L0D0
10
26750
20
26500
0
VERTEX
8
L0D0
10
26750
20
27000
0
VERTEX
8
L0D0
10
26500
20
27000
0
VERTEX
8
L0D0
10
26500
20
27500
0
VERTEX
8
L0D0
10
27500
20
27500
0
VERTEX
8
L0D0
10
27500
20
26500
0
SEQEND
0
POLYLINE
8
L0D0
70
1
40
0
41
0
66
1
0
VERTEX
8
L0D0
10
27950
20
28500
0
VERTEX
8
L0D0
10
27950
20
29500
0
VERTEX
8
L0D0
10
28700
20
29500
0
VERTEX
8
L0D0
10
28700
20
29000
0
VERTEX
8
L0D0
10
28950
20
29000
0
VERTEX
8
L0D0
10
28950
20
28500
0
SEQEND
0
POLYLINE
8
L0D0
70
1
40
0
41
0
66
1
0
VERTEX
8
L0D0
10
26115.278
20
33744.444
0
VERTEX
8
L0D0
10
26115.278
20
33966.667
0
VERTEX
8
L0D0
10
26337.5
20
33966.667
0
VERTEX
8
L0D0
10
26559.722
20
33966.667
0
VERTEX
8
L0D0
10
26781.944
20
33966.667
0
VERTEX
8
L0D0
10
27004.167
20
33966.667
0
VERTEX
8
L0D0
10
27004.167
20
33744.444
0
VERTEX
8
L0D0
10
26781.944
20
33744.444
0
VERTEX
8
L0D0
10
26559.722
20
33744.444
0
VERTEX
8
L0D0
10
26337.5
20
33744.444
0
SEQEND
0
POLYLINE
8
L0D0
70
1
40
0
41
0
66
1
0
VERTEX
8
L0D0
10
26115.278
20
34411.111
0
VERTEX
8
L0D0
10
26115.278
20
34633.333
0
VERTEX
8
L0D0
10
26115.278
20
34855.556
0
VERTEX
8
L0D0
10
26115.278
20
35077.778
0
VERTEX
8
L0D0
10
26115.278
20
35300
0
VERTEX
8
L0D0
10
26337.5
20
35300
0
VERTEX
8
L0D0
10
26559.722
20
35300
0
VERTEX
8
L0D0
10
26781.944
20
35300
0
VERTEX
8
L0D0
10
27004.167
20
35300
0
VERTEX
8
L0D0
10
27226.389
20
35300
0
VERTEX
8
L0D0
10
27226.389
20
35077.778
0
VERTEX
8
L0D0
10
27004.167
20
35077.778
0
VERTEX
8
L0D0
10
26781.944
20
35077.778
0
VERTEX
8
L0D0
10
26559.722
20
35077.778
0
VERTEX
8
L0D0
10
26337.5
20
35077.778
0
VERTEX
8
L0D0
10
26337.5
20
34855.556
0
VERTEX
8
L0D0
10
26337.5
20
34633.333
0
VERTEX
8
L0D0
10
26559.722
20
34633.333
0
VERTEX
8
L0D0
10
26781.944
20
34633.333
0
VERTEX
8
L0D0
10
27004.167
20
34633.333
0
VERTEX
8
L0D0
10
27004.167
20
34411.111
0
VERTEX
8
L0D0
10
26781.944
20
34411.111
0
VERTEX
8
L0D0
10
26559.722
20
34411.111
0
VERTEX
8
L0D0
10
26337.5
20
34411.111
0
SEQEND
0
POLYLINE
8
L0D0
70
1
40
0
41
0
66
1
0
VERTEX
8
L0D0
10
27004.167
20
33966.667
0
VERTEX
8
L0D0
10
27004.167
20
34188.889
0
VERTEX
8
L0D0
10
27004.167
20
34411.111
0
VERTEX
8
L0D0
10
27226.389
20
34411.111
0
VERTEX
8
L0D0
10
27226.389
20
34188.889
0
VERTEX
8
L0D0
10
27226.389
20
33966.667
0
SEQEND
0
POLYLINE
8
L0D0
70
1
40
0
41
0
66
1
0
VERTEX
8
L0D0
10
28037.5
20
33744.444
0
VERTEX
8
L0D0
10
28037.5
20
33966.667
0
VERTEX
8
L0D0
10
28259.722
20
33966.667
0
VERTEX
8
L0D0
10
28481.944
20
33966.667
0
VERTEX
8
L0D0
10
28704.167
20
33966.667
0
VERTEX
8
L0D0
10
28926.389
20
33966.667
0
VERTEX
8
L0D0
10
28926.389
20
33744.444
0
VERTEX
8
L0D0
10
28704.167
20
33744.444
0
VERTEX
8
L0D0
10
28481.944
20
33744.444
0
VERTEX
8
L0D0
10
28259.722
20
33744.444
0
SEQEND
0
POLYLINE
8
L0D0
70
1
40
0
41
0
66
1
0
VERTEX
8
L0D0
10
28037.5
20
34411.111
0
VERTEX
8
L0D0
10
28037.5
20
34633.333
0
VERTEX
8
L0D0
10
28037.5
20
34855.556
0
VERTEX
8
L0D0
10
28037.5
20
35077.778
0
VERTEX
8
L0D0
10
28037.5
20
35300
0
VERTEX
8
L0D0
10
28259.722
20
35300
0
VERTEX
8
L0D0
10
28481.944
20
35300
0
VERTEX
8
L0D0
10
28704.167
20
35300
0
VERTEX
8
L0D0
10
28926.389
20
35300
0
VERTEX
8
L0D0
10
29148.611
20
35300
0
VERTEX
8
L0D0
10
29148.611
20
35077.778
0
VERTEX
8
L0D0
10
28926.389
20
35077.778
0
VERTEX
8
L0D0
10
28704.167
20
35077.778
0
VERTEX
8
L0D0
10
28481.944
20
35077.778
0
VERTEX
8
L0D0
10
28259.722
20
35077.778
0
VERTEX
8
L0D0
10
28259.722
20
34855.556
0
VERTEX
8
L0D0
10
28259.722
20
34633.333
0
VERTEX
8
L0D0
10
28481.944
20
34633.333
0
VERTEX
8
L0D0
10
28704.167
20
34633.333
0
VERTEX
8
L0D0
10
28926.389
20
34633.333
0
VERTEX
8
L0D0
10
28926.389
20
34411.111
0
VERTEX
8
L0D0
10
28704.167
20
34411.111
0
VERTEX
8
L0D0
10
28481.944
20
34411.111
0
VERTEX
8
L0D0
10
28259.722
20
34411.111
0
SEQEND
0
POLYLINE
8
L0D0
70
1
40
0
41
0
66
1
0
VERTEX
8
L0D0
10
28926.389
20
33966.667
0
VERTEX
8
L0D0
10
28926.389
20
34188.889
0
VERTEX
8
L0D0
10
28926.389
20
34411.111
0
VERTEX
8
L0D0
10
29148.611
20
34411.111
0
VERTEX
8
L0D0
10
29148.611
20
34188.889
0
VERTEX
8
L0D0
10
29148.611
20
33966.667
0
SEQEND
0
POLYLINE
8
L0D0
70
1
40
0
41
0
66
1
0
VERTEX
8
L0D0
10
29815.278
20
33966.667
0
VERTEX
8
L0D0
10
29815.278
20
34188.889
0
VERTEX
8
L0D0
10
29815.278
20
34411.111
0
VERTEX
8
L0D0
10
29815.278
20
34633.333
0
VERTEX
8
L0D0
10
29815.278
20
34855.556
0
VERTEX
8
L0D0
10
29815.278
20
35077.778
0
VERTEX
8
L0D0
10
30037.5
20
35077.778
0
VERTEX
8
L0D0
10
30037.5
20
34855.556
0
VERTEX
8
L0D0
10
30037.5
20
34633.333
0
VERTEX
8
L0D0
10
30037.5
20
34411.111
0
VERTEX
8
L0D0
10
30259.722
20
34411.111
0
VERTEX
8
L0D0
10
30259.722
20
34188.889
0
VERTEX
8
L0D0
10
30037.5
20
34188.889
0
VERTEX
8
L0D0
10
30037.5
20
33966.667
0
SEQEND
0
POLYLINE
8
L0D0
70
1
40
0
41
0
66
1
0
VERTEX
8
L0D0
10
30037.5
20
33744.444
0
VERTEX
8
L0D0
10
30037.5
20
33966.667
0
VERTEX
8
L0D0
10
30259.722
20
33966.667
0
VERTEX
8
L0D0
10
30481.944
20
33966.667
0
VERTEX
8
L0D0
10
30704.167
20
33966.667
0
VERTEX
8
L0D0
10
30704.167
20
33744.444
0
VERTEX
8
L0D0
10
30481.944
20
33744.444
0
VERTEX
8
L0D0
10
30259.722
20
33744.444
0
SEQEND
0
POLYLINE
8
L0D0
70
1
40
0
41
0
66
1
0
VERTEX
8
L0D0
10
30037.5
20
35077.778
0
VERTEX
8
L0D0
10
30037.5
20
35300
0
VERTEX
8
L0D0
10
30259.722
20
35300
0
VERTEX
8
L0D0
10
30481.944
20
35300
0
VERTEX
8
L0D0
10
30704.167
20
35300
0
VERTEX
8
L0D0
10
30704.167
20
35077.778
0
VERTEX
8
L0D0
10
30481.944
20
35077.778
0
VERTEX
8
L0D0
10
30259.722
20
35077.778
0
SEQEND
0
POLYLINE
8
L0D0
70
1
40
0
41
0
66
1
0
VERTEX
8
L0D0
10
30704.167
20
33966.667
0
VERTEX
8
L0D0
10
30704.167
20
34188.889
0
VERTEX
8
L0D0
10
30704.167
20
34411.111
0
VERTEX
8
L0D0
10
30704.167
20
34633.333
0
VERTEX
8
L0D0
10
30481.944
20
34633.333
0
VERTEX
8
L0D0
10
30481.944
20
34855.556
0
VERTEX
8
L0D0
10
30704.167
20
34855.556
0
VERTEX
8
L0D0
10
30704.167
20
35077.778
0
VERTEX
8
L0D0
10
30926.389
20
35077.778
0
VERTEX
8
L0D0
10
30926.389
20
34855.556
0
VERTEX
8
L0D0
10
30926.389
20
34633.333
0
VERTEX
8
L0D0
10
30926.389
20
34411.111
0
VERTEX
8
L0D0
10
30926.389
20
34188.889
0
VERTEX
8
L0D0
10
30926.389
20
33966.667
0
SEQEND
0
POLYLINE
8
L0D0
70
1
40
0
41
0
66
1
0
VERTEX
8
L0D0
10
31737.5
20
33744.444
0
VERTEX
8
L0D0
10
31737.5
20
33966.667
0
VERTEX
8
L0D0
10
31959.722
20
33966.667
0
VERTEX
8
L0D0
10
32181.944
20
33966.667
0
VERTEX
8
L0D0
10
32404.167
20
33966.667
0
VERTEX
8
L0D0
10
32626.389
20
33966.667
0
VERTEX
8
L0D0
10
32626.389
20
33744.444
0
VERTEX
8
L0D0
10
32404.167
20
33744.444
0
VERTEX
8
L0D0
10
32181.944
20
33744.444
0
VERTEX
8
L0D0
10
31959.722
20
33744.444
0
SEQEND
0
POLYLINE
8
L0D0
70
1
40
0
41
0
66
1
0
VERTEX
8
L0D0
10
31737.5
20
34411.111
0
VERTEX
8
L0D0
10
31737.5
20
34633.333
0
VERTEX
8
L0D0
10
31737.5
20
34855.556
0
VERTEX
8
L0D0
10
31737.5
20
35077.778
0
VERTEX
8
L0D0
10
31737.5
20
35300
0
VERTEX
8
L0D0
10
31959.722
20
35300
0
VERTEX
8
L0D0
10
32181.944
20
35300
0
VERTEX
8
L0D0
10
32404.167
20
35300
0
VERTEX
8
L0D0
10
32626.389
20
35300
0
VERTEX
8
L0D0
10
32848.611
20
35300
0
VERTEX
8
L0D0
10
32848.611
20
35077.778
0
VERTEX
8
L0D0
10
32626.389
20
35077.778
0
VERTEX
8
L0D0
10
32404.167
20
35077.778
0
VERTEX
8
L0D0
10
32181.944
20
35077.778
0
VERTEX
8
L0D0
10
31959.722
20
35077.778
0
VERTEX
8
L0D0
10
31959.722
20
34855.556
0
VERTEX
8
L0D0
10
31959.722
20
34633.333
0
VERTEX
8
L0D0
10
32181.944
20
34633.333
0
VERTEX
8
L0D0
10
32404.167
20
34633.333
0
VERTEX
8
L0D0
10
32626.389
20
34633.333
0
VERTEX
8
L0D0
10
32626.389
20
34411.111
0
VERTEX
8
L0D0
10
32404.167
20
34411.111
0
VERTEX
8
L0D0
10
32181.944
20
34411.111
0
VERTEX
8
L0D0
10
31959.722
20
34411.111
0
SEQEND
0
POLYLINE
8
L0D0
70
1
40
0
41
0
66
1
0
VERTEX
8
L0D0
10
32626.389
20
33966.667
0
VERTEX
8
L0D0
10
32626.389
20
34188.889
0
VERTEX
8
L0D0
10
32626.389
20
34411.111
0
VERTEX
8
L0D0
10
32848.611
20
34411.111
0
VERTEX
8
L0D0
10
32848.611
20
34188.889
0
VERTEX
8
L0D0
10
32848.611
20
33966.667
0
SEQEND
0
POLYLINE
8
L0D0
70
1
40
0
41
0
66
1
0
VERTEX
8
L0D0
10
33515.278
20
33744.444
0
VERTEX
8
L0D0
10
33515.278
20
33966.667
0
VERTEX
8
L0D0
10
33737.5
20
33966.667
0
VERTEX
8
L0D0
10
33959.722
20
33966.667
0
VERTEX
8
L0D0
10
34181.944
20
33966.667
0
VERTEX
8
L0D0
10
34404.167
20
33966.667
0
VERTEX
8
L0D0
10
34404.167
20
33744.444
0
VERTEX
8
L0D0
10
34181.944
20
33744.444
0
VERTEX
8
L0D0
10
33959.722
20
33744.444
0
VERTEX
8
L0D0
10
33737.5
20
33744.444
0
SEQEND
0
POLYLINE
8
L0D0
70
1
40
0
41
0
66
1
0
VERTEX
8
L0D0
10
33515.278
20
34411.111
0
VERTEX
8
L0D0
10
33515.278
20
34633.333
0
VERTEX
8
L0D0
10
33515.278
20
34855.556
0
VERTEX
8
L0D0
10
33515.278
20
35077.778
0
VERTEX
8
L0D0
10
33515.278
20
35300
0
VERTEX
8
L0D0
10
33737.5
20
35300
0
VERTEX
8
L0D0
10
33959.722
20
35300
0
VERTEX
8
L0D0
10
34181.944
20
35300
0
VERTEX
8
L0D0
10
34404.167
20
35300
0
VERTEX
8
L0D0
10
34626.389
20
35300
0
VERTEX
8
L0D0
10
34626.389
20
35077.778
0
VERTEX
8
L0D0
10
34404.167
20
35077.778
0
VERTEX
8
L0D0
10
34181.944
20
35077.778
0
VERTEX
8
L0D0
10
33959.722
20
35077.778
0
VERTEX
8
L0D0
10
33737.5
20
35077.778
0
VERTEX
8
L0D0
10
33737.5
20
34855.556
0
VERTEX
8
L0D0
10
33737.5
20
34633.333
0
VERTEX
8
L0D0
10
33959.722
20
34633.333
0
VERTEX
8
L0D0
10
34181.944
20
34633.333
0
VERTEX
8
L0D0
10
34404.167
20
34633.333
0
VERTEX
8
L0D0
10
34404.167
20
34411.111
0
VERTEX
8
L0D0
10
34181.944
20
34411.111
0
VERTEX
8
L0D0
10
33959.722
20
34411.111
0
VERTEX
8
L0D0
10
33737.5
20
34411.111
0
SEQEND
0
POLYLINE
8
L0D0
70
1
40
0
41
0
66
1
0
VERTEX
8
L0D0
10
34404.167
20
33966.667
0
VERTEX
8
L0D0
10
34404.167
20
34188.889
0
VERTEX
8
L0D0
10
34404.167
20
34411.111
0
VERTEX
8
L0D0
10
34626.389
20
34411.111
0
VERTEX
8
L0D0
10
34626.389
20
34188.889
0
VERTEX
8
L0D0
10
34626.389
20
33966.667
0
SEQEND
0
POLYLINE
8
L0D0
70
1
40
0
41
0
66
1
0
VERTEX
8
L0D0
10
20650
20
28500
0
VERTEX
8
L0D0
10
20650
20
29500
0
VERTEX
8
L0D0
10
21400
20
29500
0
VERTEX
8
L0D0
10
21400
20
29000
0
VERTEX
8
L0D0
10
21650
20
29000
0
VERTEX
8
L0D0
10
21650
20
28500
0
SEQEND
0
POLYLINE
8
L0D0
70
1
40
0
41
0
66
1
0
VERTEX
8
L0D0
10
20650
20
26500
0
VERTEX
8
L0D0
10
20650
20
27500
0
VERTEX
8
L0D0
10
21650
20
27500
0
VERTEX
8
L0D0
10
21650
20
27000
0
VERTEX
8
L0D0
10
21400
20
27000
0
VERTEX
8
L0D0
10
21400
20
26500
0
SEQEND
0
POLYLINE
8
L0D0
70
1
40
0
41
0
66
1
0
VERTEX
8
L0D0
10
17000
20
28500
0
VERTEX
8
L0D0
10
17000
20
29500
0
VERTEX
8
L0D0
10
17750
20
29500
0
VERTEX
8
L0D0
10
17750
20
29000
0
VERTEX
8
L0D0
10
18000
20
29000
0
VERTEX
8
L0D0
10
18000
20
28500
0
SEQEND
0
POLYLINE
8
L0D0
70
1
40
0
41
0
66
1
0
VERTEX
8
L0D0
10
16937.5
20
33744.444
0
VERTEX
8
L0D0
10
16937.5
20
33966.667
0
VERTEX
8
L0D0
10
17159.722
20
33966.667
0
VERTEX
8
L0D0
10
17381.944
20
33966.667
0
VERTEX
8
L0D0
10
17604.167
20
33966.667
0
VERTEX
8
L0D0
10
17826.389
20
33966.667
0
VERTEX
8
L0D0
10
17826.389
20
33744.444
0
VERTEX
8
L0D0
10
17604.167
20
33744.444
0
VERTEX
8
L0D0
10
17381.944
20
33744.444
0
VERTEX
8
L0D0
10
17159.722
20
33744.444
0
SEQEND
0
POLYLINE
8
L0D0
70
1
40
0
41
0
66
1
0
VERTEX
8
L0D0
10
16937.5
20
35077.778
0
VERTEX
8
L0D0
10
16937.5
20
35300
0
VERTEX
8
L0D0
10
17159.722
20
35300
0
VERTEX
8
L0D0
10
17381.944
20
35300
0
VERTEX
8
L0D0
10
17604.167
20
35300
0
VERTEX
8
L0D0
10
17826.389
20
35300
0
VERTEX
8
L0D0
10
17826.389
20
35077.778
0
VERTEX
8
L0D0
10
17604.167
20
35077.778
0
VERTEX
8
L0D0
10
17381.944
20
35077.778
0
VERTEX
8
L0D0
10
17159.722
20
35077.778
0
SEQEND
0
POLYLINE
8
L0D0
70
1
40
0
41
0
66
1
0
VERTEX
8
L0D0
10
17159.722
20
34411.111
0
VERTEX
8
L0D0
10
17159.722
20
34633.333
0
VERTEX
8
L0D0
10
17381.944
20
34633.333
0
VERTEX
8
L0D0
10
17604.167
20
34633.333
0
VERTEX
8
L0D0
10
17826.389
20
34633.333
0
VERTEX
8
L0D0
10
17826.389
20
34411.111
0
VERTEX
8
L0D0
10
17604.167
20
34411.111
0
VERTEX
8
L0D0
10
17381.944
20
34411.111
0
SEQEND
0
POLYLINE
8
L0D0
70
1
40
0
41
0
66
1
0
VERTEX
8
L0D0
10
17826.389
20
33966.667
0
VERTEX
8
L0D0
10
17826.389
20
34188.889
0
VERTEX
8
L0D0
10
17826.389
20
34411.111
0
VERTEX
8
L0D0
10
18048.611
20
34411.111
0
VERTEX
8
L0D0
10
18048.611
20
34188.889
0
VERTEX
8
L0D0
10
18048.611
20
33966.667
0
SEQEND
0
POLYLINE
8
L0D0
70
1
40
0
41
0
66
1
0
VERTEX
8
L0D0
10
17826.389
20
34633.333
0
VERTEX
8
L0D0
10
17826.389
20
34855.556
0
VERTEX
8
L0D0
10
17826.389
20
35077.778
0
VERTEX
8
L0D0
10
18048.611
20
35077.778
0
VERTEX
8
L0D0
10
18048.611
20
34855.556
0
VERTEX
8
L0D0
10
18048.611
20
34633.333
0
SEQEND
0
POLYLINE
8
L0D0
70
1
40
0
41
0
66
1
0
VERTEX
8
L0D0
10
18715.278
20
33744.444
0
VERTEX
8
L0D0
10
18715.278
20
33966.667
0
VERTEX
8
L0D0
10
18937.5
20
33966.667
0
VERTEX
8
L0D0
10
19159.722
20
33966.667
0
VERTEX
8
L0D0
10
19381.944
20
33966.667
0
VERTEX
8
L0D0
10
19604.167
20
33966.667
0
VERTEX
8
L0D0
10
19604.167
20
33744.444
0
VERTEX
8
L0D0
10
19381.944
20
33744.444
0
VERTEX
8
L0D0
10
19159.722
20
33744.444
0
VERTEX
8
L0D0
10
18937.5
20
33744.444
0
SEQEND
0
POLYLINE
8
L0D0
70
1
40
0
41
0
66
1
0
VERTEX
8
L0D0
10
18715.278
20
34411.111
0
VERTEX
8
L0D0
10
18715.278
20
34633.333
0
VERTEX
8
L0D0
10
18715.278
20
34855.556
0
VERTEX
8
L0D0
10
18715.278
20
35077.778
0
VERTEX
8
L0D0
10
18715.278
20
35300
0
VERTEX
8
L0D0
10
18937.5
20
35300
0
VERTEX
8
L0D0
10
19159.722
20
35300
0
VERTEX
8
L0D0
10
19381.944
20
35300
0
VERTEX
8
L0D0
10
19604.167
20
35300
0
VERTEX
8
L0D0
10
19826.389
20
35300
0
VERTEX
8
L0D0
10
19826.389
20
35077.778
0
VERTEX
8
L0D0
10
19604.167
20
35077.778
0
VERTEX
8
L0D0
10
19381.944
20
35077.778
0
VERTEX
8
L0D0
10
19159.722
20
35077.778
0
VERTEX
8
L0D0
10
18937.5
20
35077.778
0
VERTEX
8
L0D0
10
18937.5
20
34855.556
0
VERTEX
8
L0D0
10
18937.5
20
34633.333
0
VERTEX
8
L0D0
10
19159.722
20
34633.333
0
VERTEX
8
L0D0
10
19381.944
20
34633.333
0
VERTEX
8
L0D0
10
19604.167
20
34633.333
0
VERTEX
8
L0D0
10
19604.167
20
34411.111
0
VERTEX
8
L0D0
10
19381.944
20
34411.111
0
VERTEX
8
L0D0
10
19159.722
20
34411.111
0
VERTEX
8
L0D0
10
18937.5
20
34411.111
0
SEQEND
0
POLYLINE
8
L0D0
70
1
40
0
41
0
66
1
0
VERTEX
8
L0D0
10
19604.167
20
33966.667
0
VERTEX
8
L0D0
10
19604.167
20
34188.889
0
VERTEX
8
L0D0
10
19604.167
20
34411.111
0
VERTEX
8
L0D0
10
19826.389
20
34411.111
0
VERTEX
8
L0D0
10
19826.389
20
34188.889
0
VERTEX
8
L0D0
10
19826.389
20
33966.667
0
SEQEND
0
POLYLINE
8
L0D0
70
1
40
0
41
0
66
1
0
VERTEX
8
L0D0
10
21304.167
20
33744.444
0
VERTEX
8
L0D0
10
21304.167
20
33966.667
0
VERTEX
8
L0D0
10
21304.167
20
34188.889
0
VERTEX
8
L0D0
10
21081.944
20
34188.889
0
VERTEX
8
L0D0
10
20859.722
20
34188.889
0
VERTEX
8
L0D0
10
20637.5
20
34188.889
0
VERTEX
8
L0D0
10
20637.5
20
34411.111
0
VERTEX
8
L0D0
10
20637.5
20
34633.333
0
VERTEX
8
L0D0
10
20859.722
20
34633.333
0
VERTEX
8
L0D0
10
20859.722
20
34411.111
0
VERTEX
8
L0D0
10
21081.944
20
34411.111
0
VERTEX
8
L0D0
10
21304.167
20
34411.111
0
VERTEX
8
L0D0
10
21304.167
20
34633.333
0
VERTEX
8
L0D0
10
21304.167
20
34855.556
0
VERTEX
8
L0D0
10
21304.167
20
35077.778
0
VERTEX
8
L0D0
10
21081.944
20
35077.778
0
VERTEX
8
L0D0
10
21081.944
20
35300
0
VERTEX
8
L0D0
10
21304.167
20
35300
0
VERTEX
8
L0D0
10
21526.389
20
35300
0
VERTEX
8
L0D0
10
21526.389
20
35077.778
0
VERTEX
8
L0D0
10
21526.389
20
34855.556
0
VERTEX
8
L0D0
10
21526.389
20
34633.333
0
VERTEX
8
L0D0
10
21526.389
20
34411.111
0
VERTEX
8
L0D0
10
21748.611
20
34411.111
0
VERTEX
8
L0D0
10
21748.611
20
34188.889
0
VERTEX
8
L0D0
10
21526.389
20
34188.889
0
VERTEX
8
L0D0
10
21526.389
20
33966.667
0
VERTEX
8
L0D0
10
21526.389
20
33744.444
0
SEQEND
0
POLYLINE
8
L0D0
70
1
40
0
41
0
66
1
0
VERTEX
8
L0D0
10
20859.722
20
34633.333
0
VERTEX
8
L0D0
10
20859.722
20
34855.556
0
VERTEX
8
L0D0
10
20859.722
20
35077.778
0
VERTEX
8
L0D0
10
21081.944
20
35077.778
0
VERTEX
8
L0D0
10
21081.944
20
34855.556
0
VERTEX
8
L0D0
10
21081.944
20
34633.333
0
SEQEND
0
POLYLINE
8
L0D0
70
1
40
0
41
0
66
1
0
VERTEX
8
L0D0
10
22415.278
20
33966.667
0
VERTEX
8
L0D0
10
22415.278
20
34188.889
0
VERTEX
8
L0D0
10
22415.278
20
34411.111
0
VERTEX
8
L0D0
10
22415.278
20
34633.333
0
VERTEX
8
L0D0
10
22415.278
20
34855.556
0
VERTEX
8
L0D0
10
22415.278
20
35077.778
0
VERTEX
8
L0D0
10
22637.5
20
35077.778
0
VERTEX
8
L0D0
10
22637.5
20
34855.556
0
VERTEX
8
L0D0
10
22637.5
20
34633.333
0
VERTEX
8
L0D0
10
22637.5
20
34411.111
0
VERTEX
8
L0D0
10
22859.722
20
34411.111
0
VERTEX
8
L0D0
10
22859.722
20
34188.889
0
VERTEX
8
L0D0
10
22637.5
20
34188.889
0
VERTEX
8
L0D0
10
22637.5
20
33966.667
0
SEQEND
0
POLYLINE
8
L0D0
70
1
40
0
41
0
66
1
0
VERTEX
8
L0D0
10
22637.5
20
33744.444
0
VERTEX
8
L0D0
10
22637.5
20
33966.667
0
VERTEX
8
L0D0
10
22859.722
20
33966.667
0
VERTEX
8
L0D0
10
23081.944
20
33966.667
0
VERTEX
8
L0D0
10
23304.167
20
33966.667
0
VERTEX
8
L0D0
10
23304.167
20
33744.444
0
VERTEX
8
L0D0
10
23081.944
20
33744.444
0
VERTEX
8
L0D0
10
22859.722
20
33744.444
0
SEQEND
0
POLYLINE
8
L0D0
70
1
40
0
41
0
66
1
0
VERTEX
8
L0D0
10
22637.5
20
35077.778
0
VERTEX
8
L0D0
10
22637.5
20
35300
0
VERTEX
8
L0D0
10
22859.722
20
35300
0
VERTEX
8
L0D0
10
23081.944
20
35300
0
VERTEX
8
L0D0
10
23304.167
20
35300
0
VERTEX
8
L0D0
10
23304.167
20
35077.778
0
VERTEX
8
L0D0
10
23081.944
20
35077.778
0
VERTEX
8
L0D0
10
22859.722
20
35077.778
0
SEQEND
0
POLYLINE
8
L0D0
70
1
40
0
41
0
66
1
0
VERTEX
8
L0D0
10
23304.167
20
33966.667
0
VERTEX
8
L0D0
10
23304.167
20
34188.889
0
VERTEX
8
L0D0
10
23304.167
20
34411.111
0
VERTEX
8
L0D0
10
23304.167
20
34633.333
0
VERTEX
8
L0D0
10
23081.944
20
34633.333
0
VERTEX
8
L0D0
10
23081.944
20
34855.556
0
VERTEX
8
L0D0
10
23304.167
20
34855.556
0
VERTEX
8
L0D0
10
23304.167
20
35077.778
0
VERTEX
8
L0D0
10
23526.389
20
35077.778
0
VERTEX
8
L0D0
10
23526.389
20
34855.556
0
VERTEX
8
L0D0
10
23526.389
20
34633.333
0
VERTEX
8
L0D0
10
23526.389
20
34411.111
0
VERTEX
8
L0D0
10
23526.389
20
34188.889
0
VERTEX
8
L0D0
10
23526.389
20
33966.667
0
SEQEND
0
POLYLINE
8
L0D0
70
1
40
0
41
0
66
1
0
VERTEX
8
L0D0
10
22750
20
28500
0
VERTEX
8
L0D0
10
22750
20
29000
0
VERTEX
8
L0D0
10
23000
20
29000
0
VERTEX
8
L0D0
10
23000
20
29500
0
VERTEX
8
L0D0
10
23750
20
29500
0
VERTEX
8
L0D0
10
23750
20
28500
0
SEQEND
0
POLYLINE
8
L0D0
70
1
40
0
41
0
66
1
0
VERTEX
8
L0D0
10
24559.722
20
34633.333
0
VERTEX
8
L0D0
10
24559.722
20
34855.556
0
VERTEX
8
L0D0
10
24559.722
20
35077.778
0
VERTEX
8
L0D0
10
24781.944
20
35077.778
0
VERTEX
8
L0D0
10
24781.944
20
34855.556
0
VERTEX
8
L0D0
10
24781.944
20
34633.333
0
SEQEND
0
POLYLINE
8
L0D0
70
1
40
0
41
0
66
1
0
VERTEX
8
L0D0
10
23000
20
26500
0
VERTEX
8
L0D0
10
23000
20
27000
0
VERTEX
8
L0D0
10
22750
20
27000
0
VERTEX
8
L0D0
10
22750
20
27500
0
VERTEX
8
L0D0
10
23750
20
27500
0
VERTEX
8
L0D0
10
23750
20
26500
0
SEQEND
0
POLYLINE
8
L0D0
70
1
40
0
41
0
66
1
0
VERTEX
8
L0D0
10
20637.5
20
32000
0
VERTEX
8
L0D0
10
20637.5
20
33000
0
VERTEX
8
L0D0
10
21387.5
20
33000
0
VERTEX
8
L0D0
10
21387.5
20
32500
0
VERTEX
8
L0D0
10
21637.5
20
32500
0
VERTEX
8
L0D0
10
21637.5
20
32000
0
SEQEND
0
POLYLINE
8
L0D0
70
1
40
0
41
0
66
1
0
VERTEX
8
L0D0
10
20637.5
20
30000
0
VERTEX
8
L0D0
10
20637.5
20
31000
0
VERTEX
8
L0D0
10
21637.5
20
31000
0
VERTEX
8
L0D0
10
21637.5
20
30500
0
VERTEX
8
L0D0
10
21387.5
20
30500
0
VERTEX
8
L0D0
10
21387.5
20
30000
0
SEQEND
0
POLYLINE
8
L0D0
70
1
40
0
41
0
66
1
0
VERTEX
8
L0D0
10
22762.5
20
32000
0
VERTEX
8
L0D0
10
22762.5
20
32500
0
VERTEX
8
L0D0
10
23012.5
20
32500
0
VERTEX
8
L0D0
10
23012.5
20
33000
0
VERTEX
8
L0D0
10
23762.5
20
33000
0
VERTEX
8
L0D0
10
23762.5
20
32000
0
SEQEND
0
POLYLINE
8
L0D0
70
1
40
0
41
0
66
1
0
VERTEX
8
L0D0
10
23012.5
20
30000
0
VERTEX
8
L0D0
10
23012.5
20
30500
0
VERTEX
8
L0D0
10
22762.5
20
30500
0
VERTEX
8
L0D0
10
22762.5
20
31000
0
VERTEX
8
L0D0
10
23762.5
20
31000
0
VERTEX
8
L0D0
10
23762.5
20
30000
0
SEQEND
0
POLYLINE
8
L0D0
70
1
40
0
41
0
66
1
0
VERTEX
8
L0D0
10
19250
20
26500
0
VERTEX
8
L0D0
10
19250
20
27000
0
VERTEX
8
L0D0
10
19000
20
27000
0
VERTEX
8
L0D0
10
19000
20
27500
0
VERTEX
8
L0D0
10
20000
20
27500
0
VERTEX
8
L0D0
10
20000
20
26500
0
SEQEND
0
POLYLINE
8
L0D0
70
1
40
0
41
0
66
1
0
VERTEX
8
L0D0
10
16987.5
20
32000
0
VERTEX
8
L0D0
10
16987.5
20
33000
0
VERTEX
8
L0D0
10
17737.5
20
33000
0
VERTEX
8
L0D0
10
17737.5
20
32500
0
VERTEX
8
L0D0
10
17987.5
20
32500
0
VERTEX
8
L0D0
10
17987.5
20
32000
0
SEQEND
0
POLYLINE
8
L0D0
70
1
40
0
41
0
66
1
0
VERTEX
8
L0D0
10
24300
20
28500
0
VERTEX
8
L0D0
10
24300
20
29500
0
VERTEX
8
L0D0
10
25050
20
29500
0
VERTEX
8
L0D0
10
25050
20
29000
0
VERTEX
8
L0D0
10
25300
20
29000
0
VERTEX
8
L0D0
10
25300
20
28500
0
SEQEND
0
POLYLINE
8
L0D0
70
1
40
0
41
0
66
1
0
VERTEX
8
L0D0
10
24300
20
26500
0
VERTEX
8
L0D0
10
24300
20
27500
0
VERTEX
8
L0D0
10
25300
20
27500
0
VERTEX
8
L0D0
10
25300
20
27000
0
VERTEX
8
L0D0
10
25050
20
27000
0
VERTEX
8
L0D0
10
25050
20
26500
0
SEQEND
0
POLYLINE
8
L0D0
70
1
40
0
41
0
66
1
0
VERTEX
8
L0D0
10
16987.5
20
30000
0
VERTEX
8
L0D0
10
16987.5
20
31000
0
VERTEX
8
L0D0
10
17987.5
20
31000
0
VERTEX
8
L0D0
10
17987.5
20
30500
0
VERTEX
8
L0D0
10
17737.5
20
30500
0
VERTEX
8
L0D0
10
17737.5
20
30000
0
SEQEND
0
POLYLINE
8
L0D0
70
1
40
0
41
0
66
1
0
VERTEX
8
L0D0
10
19012.5
20
32000
0
VERTEX
8
L0D0
10
19012.5
20
32500
0
VERTEX
8
L0D0
10
19262.5
20
32500
0
VERTEX
8
L0D0
10
19262.5
20
33000
0
VERTEX
8
L0D0
10
20012.5
20
33000
0
VERTEX
8
L0D0
10
20012.5
20
32000
0
SEQEND
0
POLYLINE
8
L0D0
70
1
40
0
41
0
66
1
0
VERTEX
8
L0D0
10
24287.5
20
32000
0
VERTEX
8
L0D0
10
24287.5
20
33000
0
VERTEX
8
L0D0
10
25037.5
20
33000
0
VERTEX
8
L0D0
10
25037.5
20
32500
0
VERTEX
8
L0D0
10
25287.5
20
32500
0
VERTEX
8
L0D0
10
25287.5
20
32000
0
SEQEND
0
POLYLINE
8
L0D0
70
1
40
0
41
0
66
1
0
VERTEX
8
L0D0
10
24287.5
20
30000
0
VERTEX
8
L0D0
10
24287.5
20
31000
0
VERTEX
8
L0D0
10
25287.5
20
31000
0
VERTEX
8
L0D0
10
25287.5
20
30500
0
VERTEX
8
L0D0
10
25037.5
20
30500
0
VERTEX
8
L0D0
10
25037.5
20
30000
0
SEQEND
0
POLYLINE
8
L0D0
70
1
40
0
41
0
66
1
0
VERTEX
8
L0D0
10
19262.5
20
30000
0
VERTEX
8
L0D0
10
19262.5
20
30500
0
VERTEX
8
L0D0
10
19012.5
20
30500
0
VERTEX
8
L0D0
10
19012.5
20
31000
0
VERTEX
8
L0D0
10
20012.5
20
31000
0
VERTEX
8
L0D0
10
20012.5
20
30000
0
SEQEND
0
POLYLINE
8
L0D0
70
1
40
0
41
0
66
1
0
VERTEX
8
L0D0
10
17000
20
26500
0
VERTEX
8
L0D0
10
17000
20
27500
0
VERTEX
8
L0D0
10
18000
20
27500
0
VERTEX
8
L0D0
10
18000
20
27000
0
VERTEX
8
L0D0
10
17750
20
27000
0
VERTEX
8
L0D0
10
17750
20
26500
0
SEQEND
0
POLYLINE
8
L0D0
70
1
40
0
41
0
66
1
0
VERTEX
8
L0D0
10
19000
20
28500
0
VERTEX
8
L0D0
10
19000
20
29000
0
VERTEX
8
L0D0
10
19250
20
29000
0
VERTEX
8
L0D0
10
19250
20
29500
0
VERTEX
8
L0D0
10
20000
20
29500
0
VERTEX
8
L0D0
10
20000
20
28500
0
SEQEND
0
POLYLINE
8
L0D0
70
1
40
0
41
0
66
1
0
VERTEX
8
L0D0
10
18975
20
21500
0
VERTEX
8
L0D0
10
18975
20
22000
0
VERTEX
8
L0D0
10
19225
20
22000
0
VERTEX
8
L0D0
10
19225
20
22500
0
VERTEX
8
L0D0
10
19975
20
22500
0
VERTEX
8
L0D0
10
19975
20
21500
0
SEQEND
0
POLYLINE
8
L0D0
70
1
40
0
41
0
66
1
0
VERTEX
8
L0D0
10
19225
20
19500
0
VERTEX
8
L0D0
10
19225
20
20000
0
VERTEX
8
L0D0
10
18975
20
20000
0
VERTEX
8
L0D0
10
18975
20
20500
0
VERTEX
8
L0D0
10
19975
20
20500
0
VERTEX
8
L0D0
10
19975
20
19500
0
SEQEND
0
POLYLINE
8
L0D0
70
1
40
0
41
0
66
1
0
VERTEX
8
L0D0
10
24337.5
20
18000
0
VERTEX
8
L0D0
10
24337.5
20
19000
0
VERTEX
8
L0D0
10
25087.5
20
19000
0
VERTEX
8
L0D0
10
25087.5
20
18500
0
VERTEX
8
L0D0
10
25337.5
20
18500
0
VERTEX
8
L0D0
10
25337.5
20
18000
0
SEQEND
0
POLYLINE
8
L0D0
70
1
40
0
41
0
66
1
0
VERTEX
8
L0D0
10
17025
20
21500
0
VERTEX
8
L0D0
10
17025
20
22500
0
VERTEX
8
L0D0
10
17775
20
22500
0
VERTEX
8
L0D0
10
17775
20
22000
0
VERTEX
8
L0D0
10
18025
20
22000
0
VERTEX
8
L0D0
10
18025
20
21500
0
SEQEND
0
POLYLINE
8
L0D0
70
1
40
0
41
0
66
1
0
VERTEX
8
L0D0
10
17025
20
19500
0
VERTEX
8
L0D0
10
17025
20
20500
0
VERTEX
8
L0D0
10
18025
20
20500
0
VERTEX
8
L0D0
10
18025
20
20000
0
VERTEX
8
L0D0
10
17775
20
20000
0
VERTEX
8
L0D0
10
17775
20
19500
0
SEQEND
0
POLYLINE
8
L0D0
70
1
40
0
41
0
66
1
0
VERTEX
8
L0D0
10
24325
20
21500
0
VERTEX
8
L0D0
10
24325
20
22500
0
VERTEX
8
L0D0
10
25075
20
22500
0
VERTEX
8
L0D0
10
25075
20
22000
0
VERTEX
8
L0D0
10
25325
20
22000
0
VERTEX
8
L0D0
10
25325
20
21500
0
SEQEND
0
POLYLINE
8
L0D0
70
1
40
0
41
0
66
1
0
VERTEX
8
L0D0
10
19237.5
20
23000
0
VERTEX
8
L0D0
10
19237.5
20
23500
0
VERTEX
8
L0D0
10
18987.5
20
23500
0
VERTEX
8
L0D0
10
18987.5
20
24000
0
VERTEX
8
L0D0
10
19987.5
20
24000
0
VERTEX
8
L0D0
10
19987.5
20
23000
0
SEQEND
0
POLYLINE
8
L0D0
70
1
40
0
41
0
66
1
0
VERTEX
8
L0D0
10
24325
20
19500
0
VERTEX
8
L0D0
10
24325
20
20500
0
VERTEX
8
L0D0
10
25325
20
20500
0
VERTEX
8
L0D0
10
25325
20
20000
0
VERTEX
8
L0D0
10
25075
20
20000
0
VERTEX
8
L0D0
10
25075
20
19500
0
SEQEND
0
POLYLINE
8
L0D0
70
1
40
0
41
0
66
1
0
VERTEX
8
L0D0
10
18962.5
20
18000
0
VERTEX
8
L0D0
10
18962.5
20
18500
0
VERTEX
8
L0D0
10
19212.5
20
18500
0
VERTEX
8
L0D0
10
19212.5
20
19000
0
VERTEX
8
L0D0
10
19962.5
20
19000
0
VERTEX
8
L0D0
10
19962.5
20
18000
0
SEQEND
0
POLYLINE
8
L0D0
70
1
40
0
41
0
66
1
0
VERTEX
8
L0D0
10
24312.5
20
23000
0
VERTEX
8
L0D0
10
24312.5
20
24000
0
VERTEX
8
L0D0
10
25312.5
20
24000
0
VERTEX
8
L0D0
10
25312.5
20
23500
0
VERTEX
8
L0D0
10
25062.5
20
23500
0
VERTEX
8
L0D0
10
25062.5
20
23000
0
SEQEND
0
POLYLINE
8
L0D0
70
1
40
0
41
0
66
1
0
VERTEX
8
L0D0
10
22987.5
20
23000
0
VERTEX
8
L0D0
10
22987.5
20
23500
0
VERTEX
8
L0D0
10
22737.5
20
23500
0
VERTEX
8
L0D0
10
22737.5
20
24000
0
VERTEX
8
L0D0
10
23737.5
20
24000
0
VERTEX
8
L0D0
10
23737.5
20
23000
0
SEQEND
0
POLYLINE
8
L0D0
70
1
40
0
41
0
66
1
0
VERTEX
8
L0D0
10
22712.5
20
18000
0
VERTEX
8
L0D0
10
22712.5
20
18500
0
VERTEX
8
L0D0
10
22962.5
20
18500
0
VERTEX
8
L0D0
10
22962.5
20
19000
0
VERTEX
8
L0D0
10
23712.5
20
19000
0
VERTEX
8
L0D0
10
23712.5
20
18000
0
SEQEND
0
POLYLINE
8
L0D0
70
1
40
0
41
0
66
1
0
VERTEX
8
L0D0
10
17037.5
20
18000
0
VERTEX
8
L0D0
10
17037.5
20
19000
0
VERTEX
8
L0D0
10
17787.5
20
19000
0
VERTEX
8
L0D0
10
17787.5
20
18500
0
VERTEX
8
L0D0
10
18037.5
20
18500
0
VERTEX
8
L0D0
10
18037.5
20
18000
0
SEQEND
0
POLYLINE
8
L0D0
70
1
40
0
41
0
66
1
0
VERTEX
8
L0D0
10
20675
20
21500
0
VERTEX
8
L0D0
10
20675
20
22500
0
VERTEX
8
L0D0
10
21425
20
22500
0
VERTEX
8
L0D0
10
21425
20
22000
0
VERTEX
8
L0D0
10
21675
20
22000
0
VERTEX
8
L0D0
10
21675
20
21500
0
SEQEND
0
POLYLINE
8
L0D0
70
1
40
0
41
0
66
1
0
VERTEX
8
L0D0
10
17012.5
20
23000
0
VERTEX
8
L0D0
10
17012.5
20
24000
0
VERTEX
8
L0D0
10
18012.5
20
24000
0
VERTEX
8
L0D0
10
18012.5
20
23500
0
VERTEX
8
L0D0
10
17762.5
20
23500
0
VERTEX
8
L0D0
10
17762.5
20
23000
0
SEQEND
0
POLYLINE
8
L0D0
70
1
40
0
41
0
66
1
0
VERTEX
8
L0D0
10
20675
20
19500
0
VERTEX
8
L0D0
10
20675
20
20500
0
VERTEX
8
L0D0
10
21675
20
20500
0
VERTEX
8
L0D0
10
21675
20
20000
0
VERTEX
8
L0D0
10
21425
20
20000
0
VERTEX
8
L0D0
10
21425
20
19500
0
SEQEND
0
POLYLINE
8
L0D0
70
1
40
0
41
0
66
1
0
VERTEX
8
L0D0
10
22725
20
21500
0
VERTEX
8
L0D0
10
22725
20
22000
0
VERTEX
8
L0D0
10
22975
20
22000
0
VERTEX
8
L0D0
10
22975
20
22500
0
VERTEX
8
L0D0
10
23725
20
22500
0
VERTEX
8
L0D0
10
23725
20
21500
0
SEQEND
0
POLYLINE
8
L0D0
70
1
40
0
41
0
66
1
0
VERTEX
8
L0D0
10
22975
20
19500
0
VERTEX
8
L0D0
10
22975
20
20000
0
VERTEX
8
L0D0
10
22725
20
20000
0
VERTEX
8
L0D0
10
22725
20
20500
0
VERTEX
8
L0D0
10
23725
20
20500
0
VERTEX
8
L0D0
10
23725
20
19500
0
SEQEND
0
POLYLINE
8
L0D0
70
1
40
0
41
0
66
1
0
VERTEX
8
L0D0
10
20687.5
20
18000
0
VERTEX
8
L0D0
10
20687.5
20
19000
0
VERTEX
8
L0D0
10
21437.5
20
19000
0
VERTEX
8
L0D0
10
21437.5
20
18500
0
VERTEX
8
L0D0
10
21687.5
20
18500
0
VERTEX
8
L0D0
10
21687.5
20
18000
0
SEQEND
0
POLYLINE
8
L0D0
70
1
40
0
41
0
66
1
0
VERTEX
8
L0D0
10
20662.5
20
23000
0
VERTEX
8
L0D0
10
20662.5
20
24000
0
VERTEX
8
L0D0
10
21662.5
20
24000
0
VERTEX
8
L0D0
10
21662.5
20
23500
0
VERTEX
8
L0D0
10
21412.5
20
23500
0
VERTEX
8
L0D0
10
21412.5
20
23000
0
SEQEND
0
POLYLINE
8
L0D0
70
1
40
0
41
0
66
1
0
VERTEX
8
L0D0
10
26475
20
21500
0
VERTEX
8
L0D0
10
26475
20
22000
0
VERTEX
8
L0D0
10
26725
20
22000
0
VERTEX
8
L0D0
10
26725
20
22500
0
VERTEX
8
L0D0
10
27475
20
22500
0
VERTEX
8
L0D0
10
27475
20
21500
0
SEQEND
0
POLYLINE
8
L0D0
70
1
40
0
41
0
66
1
0
VERTEX
8
L0D0
10
27975
20
21500
0
VERTEX
8
L0D0
10
27975
20
22500
0
VERTEX
8
L0D0
10
28725
20
22500
0
VERTEX
8
L0D0
10
28725
20
22000
0
VERTEX
8
L0D0
10
28975
20
22000
0
VERTEX
8
L0D0
10
28975
20
21500
0
SEQEND
0
POLYLINE
8
L0D0
70
1
40
0
41
0
66
1
0
VERTEX
8
L0D0
10
27975
20
19500
0
VERTEX
8
L0D0
10
27975
20
20500
0
VERTEX
8
L0D0
10
28975
20
20500
0
VERTEX
8
L0D0
10
28975
20
20000
0
VERTEX
8
L0D0
10
28725
20
20000
0
VERTEX
8
L0D0
10
28725
20
19500
0
SEQEND
0
POLYLINE
8
L0D0
70
1
40
0
41
0
66
1
0
VERTEX
8
L0D0
10
30225
20
21500
0
VERTEX
8
L0D0
10
30225
20
22000
0
VERTEX
8
L0D0
10
30475
20
22000
0
VERTEX
8
L0D0
10
30475
20
22500
0
VERTEX
8
L0D0
10
31225
20
22500
0
VERTEX
8
L0D0
10
31225
20
21500
0
SEQEND
0
POLYLINE
8
L0D0
70
1
40
0
41
0
66
1
0
VERTEX
8
L0D0
10
30475
20
19500
0
VERTEX
8
L0D0
10
30475
20
20000
0
VERTEX
8
L0D0
10
30225
20
20000
0
VERTEX
8
L0D0
10
30225
20
20500
0
VERTEX
8
L0D0
10
31225
20
20500
0
VERTEX
8
L0D0
10
31225
20
19500
0
SEQEND
0
POLYLINE
8
L0D0
70
1
40
0
41
0
66
1
0
VERTEX
8
L0D0
10
31637.5
20
18000
0
VERTEX
8
L0D0
10
31637.5
20
19000
0
VERTEX
8
L0D0
10
32387.5
20
19000
0
VERTEX
8
L0D0
10
32387.5
20
18500
0
VERTEX
8
L0D0
10
32637.5
20
18500
0
VERTEX
8
L0D0
10
32637.5
20
18000
0
SEQEND
0
POLYLINE
8
L0D0
70
1
40
0
41
0
66
1
0
VERTEX
8
L0D0
10
26725
20
19500
0
VERTEX
8
L0D0
10
26725
20
20000
0
VERTEX
8
L0D0
10
26475
20
20000
0
VERTEX
8
L0D0
10
26475
20
20500
0
VERTEX
8
L0D0
10
27475
20
20500
0
VERTEX
8
L0D0
10
27475
20
19500
0
SEQEND
0
POLYLINE
8
L0D0
70
1
40
0
41
0
66
1
0
VERTEX
8
L0D0
10
33962.5
20
18000
0
VERTEX
8
L0D0
10
33962.5
20
18500
0
VERTEX
8
L0D0
10
34212.5
20
18500
0
VERTEX
8
L0D0
10
34212.5
20
19000
0
VERTEX
8
L0D0
10
34962.5
20
19000
0
VERTEX
8
L0D0
10
34962.5
20
18000
0
SEQEND
0
POLYLINE
8
L0D0
70
1
40
0
41
0
66
1
0
VERTEX
8
L0D0
10
27962.5
20
23000
0
VERTEX
8
L0D0
10
27962.5
20
24000
0
VERTEX
8
L0D0
10
28962.5
20
24000
0
VERTEX
8
L0D0
10
28962.5
20
23500
0
VERTEX
8
L0D0
10
28712.5
20
23500
0
VERTEX
8
L0D0
10
28712.5
20
23000
0
SEQEND
0
POLYLINE
8
L0D0
70
1
40
0
41
0
66
1
0
VERTEX
8
L0D0
10
31625
20
21500
0
VERTEX
8
L0D0
10
31625
20
22500
0
VERTEX
8
L0D0
10
32375
20
22500
0
VERTEX
8
L0D0
10
32375
20
22000
0
VERTEX
8
L0D0
10
32625
20
22000
0
VERTEX
8
L0D0
10
32625
20
21500
0
SEQEND
0
POLYLINE
8
L0D0
70
1
40
0
41
0
66
1
0
VERTEX
8
L0D0
10
31625
20
19500
0
VERTEX
8
L0D0
10
31625
20
20500
0
VERTEX
8
L0D0
10
32625
20
20500
0
VERTEX
8
L0D0
10
32625
20
20000
0
VERTEX
8
L0D0
10
32375
20
20000
0
VERTEX
8
L0D0
10
32375
20
19500
0
SEQEND
0
POLYLINE
8
L0D0
70
1
40
0
41
0
66
1
0
VERTEX
8
L0D0
10
33975
20
21500
0
VERTEX
8
L0D0
10
33975
20
22000
0
VERTEX
8
L0D0
10
34225
20
22000
0
VERTEX
8
L0D0
10
34225
20
22500
0
VERTEX
8
L0D0
10
34975
20
22500
0
VERTEX
8
L0D0
10
34975
20
21500
0
SEQEND
0
POLYLINE
8
L0D0
70
1
40
0
41
0
66
1
0
VERTEX
8
L0D0
10
34225
20
19500
0
VERTEX
8
L0D0
10
34225
20
20000
0
VERTEX
8
L0D0
10
33975
20
20000
0
VERTEX
8
L0D0
10
33975
20
20500
0
VERTEX
8
L0D0
10
34975
20
20500
0
VERTEX
8
L0D0
10
34975
20
19500
0
SEQEND
0
POLYLINE
8
L0D0
70
1
40
0
41
0
66
1
0
VERTEX
8
L0D0
10
26737.5
20
23000
0
VERTEX
8
L0D0
10
26737.5
20
23500
0
VERTEX
8
L0D0
10
26487.5
20
23500
0
VERTEX
8
L0D0
10
26487.5
20
24000
0
VERTEX
8
L0D0
10
27487.5
20
24000
0
VERTEX
8
L0D0
10
27487.5
20
23000
0
SEQEND
0
POLYLINE
8
L0D0
70
1
40
0
41
0
66
1
0
VERTEX
8
L0D0
10
31612.5
20
23000
0
VERTEX
8
L0D0
10
31612.5
20
24000
0
VERTEX
8
L0D0
10
32612.5
20
24000
0
VERTEX
8
L0D0
10
32612.5
20
23500
0
VERTEX
8
L0D0
10
32362.5
20
23500
0
VERTEX
8
L0D0
10
32362.5
20
23000
0
SEQEND
0
POLYLINE
8
L0D0
70
1
40
0
41
0
66
1
0
VERTEX
8
L0D0
10
30487.5
20
23000
0
VERTEX
8
L0D0
10
30487.5
20
23500
0
VERTEX
8
L0D0
10
30237.5
20
23500
0
VERTEX
8
L0D0
10
30237.5
20
24000
0
VERTEX
8
L0D0
10
31237.5
20
24000
0
VERTEX
8
L0D0
10
31237.5
20
23000
0
SEQEND
0
POLYLINE
8
L0D0
70
1
40
0
41
0
66
1
0
VERTEX
8
L0D0
10
34237.5
20
23000
0
VERTEX
8
L0D0
10
34237.5
20
23500
0
VERTEX
8
L0D0
10
33987.5
20
23500
0
VERTEX
8
L0D0
10
33987.5
20
24000
0
VERTEX
8
L0D0
10
34987.5
20
24000
0
VERTEX
8
L0D0
10
34987.5
20
23000
0
SEQEND
0
POLYLINE
8
L0D0
70
1
40
0
41
0
66
1
0
VERTEX
8
L0D0
10
27987.5
20
18000
0
VERTEX
8
L0D0
10
27987.5
20
19000
0
VERTEX
8
L0D0
10
28737.5
20
19000
0
VERTEX
8
L0D0
10
28737.5
20
18500
0
VERTEX
8
L0D0
10
28987.5
20
18500
0
VERTEX
8
L0D0
10
28987.5
20
18000
0
SEQEND
0
POLYLINE
8
L0D0
70
1
40
0
41
0
66
1
0
VERTEX
8
L0D0
10
26462.5
20
18000
0
VERTEX
8
L0D0
10
26462.5
20
18500
0
VERTEX
8
L0D0
10
26712.5
20
18500
0
VERTEX
8
L0D0
10
26712.5
20
19000
0
VERTEX
8
L0D0
10
27462.5
20
19000
0
VERTEX
8
L0D0
10
27462.5
20
18000
0
SEQEND
0
POLYLINE
8
L0D0
70
1
40
0
41
0
66
1
0
VERTEX
8
L0D0
10
30212.5
20
18000
0
VERTEX
8
L0D0
10
30212.5
20
18500
0
VERTEX
8
L0D0
10
30462.5
20
18500
0
VERTEX
8
L0D0
10
30462.5
20
19000
0
VERTEX
8
L0D0
10
31212.5
20
19000
0
VERTEX
8
L0D0
10
31212.5
20
18000
0
SEQEND
0
POLYLINE
8
L0D0
70
1
40
0
41
0
66
1
0
VERTEX
8
L0D0
10
13362.5
20
25000
0
VERTEX
8
L0D0
10
13362.5
20
26000
0
VERTEX
8
L0D0
10
14112.5
20
26000
0
VERTEX
8
L0D0
10
14112.5
20
25500
0
VERTEX
8
L0D0
10
14362.5
20
25500
0
VERTEX
8
L0D0
10
14362.5
20
25000
0
SEQEND
0
POLYLINE
8
L0D0
70
1
40
0
41
0
66
1
0
VERTEX
8
L0D0
10
2412.5
20
25000
0
VERTEX
8
L0D0
10
2412.5
20
26000
0
VERTEX
8
L0D0
10
3162.5
20
26000
0
VERTEX
8
L0D0
10
3162.5
20
25500
0
VERTEX
8
L0D0
10
3412.5
20
25500
0
VERTEX
8
L0D0
10
3412.5
20
25000
0
SEQEND
0
POLYLINE
8
L0D0
70
1
40
0
41
0
66
1
0
VERTEX
8
L0D0
10
3987.5
20
25000
0
VERTEX
8
L0D0
10
3987.5
20
25500
0
VERTEX
8
L0D0
10
4237.5
20
25500
0
VERTEX
8
L0D0
10
4237.5
20
26000
0
VERTEX
8
L0D0
10
4987.5
20
26000
0
VERTEX
8
L0D0
10
4987.5
20
25000
0
SEQEND
0
POLYLINE
8
L0D0
70
1
40
0
41
0
66
1
0
VERTEX
8
L0D0
10
6087.5
20
18000
0
VERTEX
8
L0D0
10
6087.5
20
19000
0
VERTEX
8
L0D0
10
6837.5
20
19000
0
VERTEX
8
L0D0
10
6837.5
20
18500
0
VERTEX
8
L0D0
10
7087.5
20
18500
0
VERTEX
8
L0D0
10
7087.5
20
18000
0
SEQEND
0
POLYLINE
8
L0D0
70
1
40
0
41
0
66
1
0
VERTEX
8
L0D0
10
6075
20
21500
0
VERTEX
8
L0D0
10
6075
20
22500
0
VERTEX
8
L0D0
10
6825
20
22500
0
VERTEX
8
L0D0
10
6825
20
22000
0
VERTEX
8
L0D0
10
7075
20
22000
0
VERTEX
8
L0D0
10
7075
20
21500
0
SEQEND
0
POLYLINE
8
L0D0
70
1
40
0
41
0
66
1
0
VERTEX
8
L0D0
10
6075
20
19500
0
VERTEX
8
L0D0
10
6075
20
20500
0
VERTEX
8
L0D0
10
7075
20
20500
0
VERTEX
8
L0D0
10
7075
20
20000
0
VERTEX
8
L0D0
10
6825
20
20000
0
VERTEX
8
L0D0
10
6825
20
19500
0
SEQEND
0
POLYLINE
8
L0D0
70
1
40
0
41
0
66
1
0
VERTEX
8
L0D0
10
5837.5
20
33744.444
0
VERTEX
8
L0D0
10
5837.5
20
33966.667
0
VERTEX
8
L0D0
10
5837.5
20
34188.889
0
VERTEX
8
L0D0
10
6059.722
20
34188.889
0
VERTEX
8
L0D0
10
6059.722
20
33966.667
0
VERTEX
8
L0D0
10
6281.944
20
33966.667
0
VERTEX
8
L0D0
10
6504.167
20
33966.667
0
VERTEX
8
L0D0
10
6726.389
20
33966.667
0
VERTEX
8
L0D0
10
6948.611
20
33966.667
0
VERTEX
8
L0D0
10
6948.611
20
33744.444
0
VERTEX
8
L0D0
10
6726.389
20
33744.444
0
VERTEX
8
L0D0
10
6504.167
20
33744.444
0
VERTEX
8
L0D0
10
6281.944
20
33744.444
0
VERTEX
8
L0D0
10
6059.722
20
33744.444
0
SEQEND
0
POLYLINE
8
L0D0
70
1
40
0
41
0
66
1
0
VERTEX
8
L0D0
10
6059.722
20
34188.889
0
VERTEX
8
L0D0
10
6059.722
20
34411.111
0
VERTEX
8
L0D0
10
6281.944
20
34411.111
0
VERTEX
8
L0D0
10
6504.167
20
34411.111
0
VERTEX
8
L0D0
10
6504.167
20
34188.889
0
VERTEX
8
L0D0
10
6281.944
20
34188.889
0
SEQEND
0
POLYLINE
8
L0D0
70
1
40
0
41
0
66
1
0
VERTEX
8
L0D0
10
6059.722
20
35077.778
0
VERTEX
8
L0D0
10
6059.722
20
35300
0
VERTEX
8
L0D0
10
6281.944
20
35300
0
VERTEX
8
L0D0
10
6504.167
20
35300
0
VERTEX
8
L0D0
10
6726.389
20
35300
0
VERTEX
8
L0D0
10
6726.389
20
35077.778
0
VERTEX
8
L0D0
10
6504.167
20
35077.778
0
VERTEX
8
L0D0
10
6281.944
20
35077.778
0
SEQEND
0
POLYLINE
8
L0D0
70
1
40
0
41
0
66
1
0
VERTEX
8
L0D0
10
6062.5
20
25000
0
VERTEX
8
L0D0
10
6062.5
20
26000
0
VERTEX
8
L0D0
10
6812.5
20
26000
0
VERTEX
8
L0D0
10
6812.5
20
25500
0
VERTEX
8
L0D0
10
7062.5
20
25500
0
VERTEX
8
L0D0
10
7062.5
20
25000
0
SEQEND
0
POLYLINE
8
L0D0
70
1
40
0
41
0
66
1
0
VERTEX
8
L0D0
10
6062.5
20
23000
0
VERTEX
8
L0D0
10
6062.5
20
24000
0
VERTEX
8
L0D0
10
7062.5
20
24000
0
VERTEX
8
L0D0
10
7062.5
20
23500
0
VERTEX
8
L0D0
10
6812.5
20
23500
0
VERTEX
8
L0D0
10
6812.5
20
23000
0
SEQEND
0
POLYLINE
8
L0D0
70
1
40
0
41
0
66
1
0
VERTEX
8
L0D0
10
7737.5
20
25000
0
VERTEX
8
L0D0
10
7737.5
20
25500
0
VERTEX
8
L0D0
10
7987.5
20
25500
0
VERTEX
8
L0D0
10
7987.5
20
26000
0
VERTEX
8
L0D0
10
8737.5
20
26000
0
VERTEX
8
L0D0
10
8737.5
20
25000
0
SEQEND
0
POLYLINE
8
L0D0
70
1
40
0
41
0
66
1
0
VERTEX
8
L0D0
10
6050
20
28500
0
VERTEX
8
L0D0
10
6050
20
29500
0
VERTEX
8
L0D0
10
6800
20
29500
0
VERTEX
8
L0D0
10
6800
20
29000
0
VERTEX
8
L0D0
10
7050
20
29000
0
VERTEX
8
L0D0
10
7050
20
28500
0
SEQEND
0
POLYLINE
8
L0D0
70
1
40
0
41
0
66
1
0
VERTEX
8
L0D0
10
6050
20
26500
0
VERTEX
8
L0D0
10
6050
20
27500
0
VERTEX
8
L0D0
10
7050
20
27500
0
VERTEX
8
L0D0
10
7050
20
27000
0
VERTEX
8
L0D0
10
6800
20
27000
0
VERTEX
8
L0D0
10
6800
20
26500
0
SEQEND
0
POLYLINE
8
L0D0
70
1
40
0
41
0
66
1
0
VERTEX
8
L0D0
10
6037.5
20
32000
0
VERTEX
8
L0D0
10
6037.5
20
33000
0
VERTEX
8
L0D0
10
6787.5
20
33000
0
VERTEX
8
L0D0
10
6787.5
20
32500
0
VERTEX
8
L0D0
10
7037.5
20
32500
0
VERTEX
8
L0D0
10
7037.5
20
32000
0
SEQEND
0
POLYLINE
8
L0D0
70
1
40
0
41
0
66
1
0
VERTEX
8
L0D0
10
6037.5
20
30000
0
VERTEX
8
L0D0
10
6037.5
20
31000
0
VERTEX
8
L0D0
10
7037.5
20
31000
0
VERTEX
8
L0D0
10
7037.5
20
30500
0
VERTEX
8
L0D0
10
6787.5
20
30500
0
VERTEX
8
L0D0
10
6787.5
20
30000
0
SEQEND
0
POLYLINE
8
L0D0
70
1
40
0
41
0
66
1
0
VERTEX
8
L0D0
10
9712.5
20
25000
0
VERTEX
8
L0D0
10
9712.5
20
26000
0
VERTEX
8
L0D0
10
10462.5
20
26000
0
VERTEX
8
L0D0
10
10462.5
20
25500
0
VERTEX
8
L0D0
10
10712.5
20
25500
0
VERTEX
8
L0D0
10
10712.5
20
25000
0
SEQEND
0
POLYLINE
8
L0D0
70
1
40
0
41
0
66
1
0
VERTEX
8
L0D0
10
11487.5
20
25000
0
VERTEX
8
L0D0
10
11487.5
20
25500
0
VERTEX
8
L0D0
10
11737.5
20
25500
0
VERTEX
8
L0D0
10
11737.5
20
26000
0
VERTEX
8
L0D0
10
12487.5
20
26000
0
VERTEX
8
L0D0
10
12487.5
20
25000
0
SEQEND
0
POLYLINE
8
L0D0
70
1
40
0
41
0
66
1
0
VERTEX
8
L0D0
10
-1237.5
20
25000
0
VERTEX
8
L0D0
10
-1237.5
20
26000
0
VERTEX
8
L0D0
10
-487.5
20
26000
0
VERTEX
8
L0D0
10
-487.5
20
25500
0
VERTEX
8
L0D0
10
-237.5
20
25500
0
VERTEX
8
L0D0
10
-237.5
20
25000
0
SEQEND
0
POLYLINE
8
L0D0
70
1
40
0
41
0
66
1
0
VERTEX
8
L0D0
10
237.5
20
25000
0
VERTEX
8
L0D0
10
237.5
20
25500
0
VERTEX
8
L0D0
10
487.5
20
25500
0
VERTEX
8
L0D0
10
487.5
20
26000
0
VERTEX
8
L0D0
10
1237.5
20
26000
0
VERTEX
8
L0D0
10
1237.5
20
25000
0
SEQEND
0
POLYLINE
8
L0D0
70
1
40
0
41
0
66
1
0
VERTEX
8
L0D0
10
9759.722
20
35077.778
0
VERTEX
8
L0D0
10
9759.722
20
35300
0
VERTEX
8
L0D0
10
9981.944
20
35300
0
VERTEX
8
L0D0
10
10204.167
20
35300
0
VERTEX
8
L0D0
10
10426.389
20
35300
0
VERTEX
8
L0D0
10
10426.389
20
35077.778
0
VERTEX
8
L0D0
10
10204.167
20
35077.778
0
VERTEX
8
L0D0
10
9981.944
20
35077.778
0
SEQEND
0
POLYLINE
8
L0D0
70
1
40
0
41
0
66
1
0
VERTEX
8
L0D0
10
10426.389
20
34633.333
0
VERTEX
8
L0D0
10
10426.389
20
34855.556
0
VERTEX
8
L0D0
10
10426.389
20
35077.778
0
VERTEX
8
L0D0
10
10648.611
20
35077.778
0
VERTEX
8
L0D0
10
10648.611
20
34855.556
0
VERTEX
8
L0D0
10
10648.611
20
34633.333
0
SEQEND
0
POLYLINE
8
L0D0
70
1
40
0
41
0
66
1
0
VERTEX
8
L0D0
10
11315.278
20
33744.444
0
VERTEX
8
L0D0
10
11315.278
20
33966.667
0
VERTEX
8
L0D0
10
11537.5
20
33966.667
0
VERTEX
8
L0D0
10
11759.722
20
33966.667
0
VERTEX
8
L0D0
10
11981.944
20
33966.667
0
VERTEX
8
L0D0
10
12204.167
20
33966.667
0
VERTEX
8
L0D0
10
12204.167
20
33744.444
0
VERTEX
8
L0D0
10
11981.944
20
33744.444
0
VERTEX
8
L0D0
10
11759.722
20
33744.444
0
VERTEX
8
L0D0
10
11537.5
20
33744.444
0
SEQEND
0
POLYLINE
8
L0D0
70
1
40
0
41
0
66
1
0
VERTEX
8
L0D0
10
11315.278
20
34411.111
0
VERTEX
8
L0D0
10
11315.278
20
34633.333
0
VERTEX
8
L0D0
10
11315.278
20
34855.556
0
VERTEX
8
L0D0
10
11315.278
20
35077.778
0
VERTEX
8
L0D0
10
11315.278
20
35300
0
VERTEX
8
L0D0
10
11537.5
20
35300
0
VERTEX
8
L0D0
10
11759.722
20
35300
0
VERTEX
8
L0D0
10
11981.944
20
35300
0
VERTEX
8
L0D0
10
12204.167
20
35300
0
VERTEX
8
L0D0
10
12426.389
20
35300
0
VERTEX
8
L0D0
10
12426.389
20
35077.778
0
VERTEX
8
L0D0
10
12204.167
20
35077.778
0
VERTEX
8
L0D0
10
11981.944
20
35077.778
0
VERTEX
8
L0D0
10
11759.722
20
35077.778
0
VERTEX
8
L0D0
10
11537.5
20
35077.778
0
VERTEX
8
L0D0
10
11537.5
20
34855.556
0
VERTEX
8
L0D0
10
11537.5
20
34633.333
0
VERTEX
8
L0D0
10
11759.722
20
34633.333
0
VERTEX
8
L0D0
10
11981.944
20
34633.333
0
VERTEX
8
L0D0
10
12204.167
20
34633.333
0
VERTEX
8
L0D0
10
12204.167
20
34411.111
0
VERTEX
8
L0D0
10
11981.944
20
34411.111
0
VERTEX
8
L0D0
10
11759.722
20
34411.111
0
VERTEX
8
L0D0
10
11537.5
20
34411.111
0
SEQEND
0
POLYLINE
8
L0D0
70
1
40
0
41
0
66
1
0
VERTEX
8
L0D0
10
12204.167
20
33966.667
0
VERTEX
8
L0D0
10
12204.167
20
34188.889
0
VERTEX
8
L0D0
10
12204.167
20
34411.111
0
VERTEX
8
L0D0
10
12426.389
20
34411.111
0
VERTEX
8
L0D0
10
12426.389
20
34188.889
0
VERTEX
8
L0D0
10
12426.389
20
33966.667
0
SEQEND
0
POLYLINE
8
L0D0
70
1
40
0
41
0
66
1
0
VERTEX
8
L0D0
10
13237.5
20
33744.444
0
VERTEX
8
L0D0
10
13237.5
20
33966.667
0
VERTEX
8
L0D0
10
13459.722
20
33966.667
0
VERTEX
8
L0D0
10
13681.944
20
33966.667
0
VERTEX
8
L0D0
10
13904.167
20
33966.667
0
VERTEX
8
L0D0
10
14126.389
20
33966.667
0
VERTEX
8
L0D0
10
14126.389
20
33744.444
0
VERTEX
8
L0D0
10
13904.167
20
33744.444
0
VERTEX
8
L0D0
10
13681.944
20
33744.444
0
VERTEX
8
L0D0
10
13459.722
20
33744.444
0
SEQEND
0
POLYLINE
8
L0D0
70
1
40
0
41
0
66
1
0
VERTEX
8
L0D0
10
13237.5
20
35077.778
0
VERTEX
8
L0D0
10
13237.5
20
35300
0
VERTEX
8
L0D0
10
13459.722
20
35300
0
VERTEX
8
L0D0
10
13681.944
20
35300
0
VERTEX
8
L0D0
10
13904.167
20
35300
0
VERTEX
8
L0D0
10
14126.389
20
35300
0
VERTEX
8
L0D0
10
14126.389
20
35077.778
0
VERTEX
8
L0D0
10
13904.167
20
35077.778
0
VERTEX
8
L0D0
10
13681.944
20
35077.778
0
VERTEX
8
L0D0
10
13459.722
20
35077.778
0
SEQEND
0
POLYLINE
8
L0D0
70
1
40
0
41
0
66
1
0
VERTEX
8
L0D0
10
13459.722
20
34411.111
0
VERTEX
8
L0D0
10
13459.722
20
34633.333
0
VERTEX
8
L0D0
10
13681.944
20
34633.333
0
VERTEX
8
L0D0
10
13904.167
20
34633.333
0
VERTEX
8
L0D0
10
14126.389
20
34633.333
0
VERTEX
8
L0D0
10
14126.389
20
34411.111
0
VERTEX
8
L0D0
10
13904.167
20
34411.111
0
VERTEX
8
L0D0
10
13681.944
20
34411.111
0
SEQEND
0
POLYLINE
8
L0D0
70
1
40
0
41
0
66
1
0
VERTEX
8
L0D0
10
14126.389
20
33966.667
0
VERTEX
8
L0D0
10
14126.389
20
34188.889
0
VERTEX
8
L0D0
10
14126.389
20
34411.111
0
VERTEX
8
L0D0
10
14348.611
20
34411.111
0
VERTEX
8
L0D0
10
14348.611
20
34188.889
0
VERTEX
8
L0D0
10
14348.611
20
33966.667
0
SEQEND
0
POLYLINE
8
L0D0
70
1
40
0
41
0
66
1
0
VERTEX
8
L0D0
10
14126.389
20
34633.333
0
VERTEX
8
L0D0
10
14126.389
20
34855.556
0
VERTEX
8
L0D0
10
14126.389
20
35077.778
0
VERTEX
8
L0D0
10
14348.611
20
35077.778
0
VERTEX
8
L0D0
10
14348.611
20
34855.556
0
VERTEX
8
L0D0
10
14348.611
20
34633.333
0
SEQEND
0
POLYLINE
8
L0D0
70
1
40
0
41
0
66
1
0
VERTEX
8
L0D0
10
15015.278
20
33966.667
0
VERTEX
8
L0D0
10
15015.278
20
34188.889
0
VERTEX
8
L0D0
10
15015.278
20
34411.111
0
VERTEX
8
L0D0
10
15015.278
20
34633.333
0
VERTEX
8
L0D0
10
15015.278
20
34855.556
0
VERTEX
8
L0D0
10
15015.278
20
35077.778
0
VERTEX
8
L0D0
10
15237.5
20
35077.778
0
VERTEX
8
L0D0
10
15237.5
20
34855.556
0
VERTEX
8
L0D0
10
15237.5
20
34633.333
0
VERTEX
8
L0D0
10
15237.5
20
34411.111
0
VERTEX
8
L0D0
10
15459.722
20
34411.111
0
VERTEX
8
L0D0
10
15459.722
20
34188.889
0
VERTEX
8
L0D0
10
15237.5
20
34188.889
0
VERTEX
8
L0D0
10
15237.5
20
33966.667
0
SEQEND
0
POLYLINE
8
L0D0
70
1
40
0
41
0
66
1
0
VERTEX
8
L0D0
10
13350
20
28500
0
VERTEX
8
L0D0
10
13350
20
29500
0
VERTEX
8
L0D0
10
14100
20
29500
0
VERTEX
8
L0D0
10
14100
20
29000
0
VERTEX
8
L0D0
10
14350
20
29000
0
VERTEX
8
L0D0
10
14350
20
28500
0
SEQEND
0
POLYLINE
8
L0D0
70
1
40
0
41
0
66
1
0
VERTEX
8
L0D0
10
13350
20
26500
0
VERTEX
8
L0D0
10
13350
20
27500
0
VERTEX
8
L0D0
10
14350
20
27500
0
VERTEX
8
L0D0
10
14350
20
27000
0
VERTEX
8
L0D0
10
14100
20
27000
0
VERTEX
8
L0D0
10
14100
20
26500
0
SEQEND
0
POLYLINE
8
L0D0
70
1
40
0
41
0
66
1
0
VERTEX
8
L0D0
10
13337.5
20
32000
0
VERTEX
8
L0D0
10
13337.5
20
33000
0
VERTEX
8
L0D0
10
14087.5
20
33000
0
VERTEX
8
L0D0
10
14087.5
20
32500
0
VERTEX
8
L0D0
10
14337.5
20
32500
0
VERTEX
8
L0D0
10
14337.5
20
32000
0
SEQEND
0
POLYLINE
8
L0D0
70
1
40
0
41
0
66
1
0
VERTEX
8
L0D0
10
13337.5
20
30000
0
VERTEX
8
L0D0
10
13337.5
20
31000
0
VERTEX
8
L0D0
10
14337.5
20
31000
0
VERTEX
8
L0D0
10
14337.5
20
30500
0
VERTEX
8
L0D0
10
14087.5
20
30500
0
VERTEX
8
L0D0
10
14087.5
20
30000
0
SEQEND
0
POLYLINE
8
L0D0
70
1
40
0
41
0
66
1
0
VERTEX
8
L0D0
10
6726.389
20
34633.333
0
VERTEX
8
L0D0
10
6726.389
20
34855.556
0
VERTEX
8
L0D0
10
6726.389
20
35077.778
0
VERTEX
8
L0D0
10
6948.611
20
35077.778
0
VERTEX
8
L0D0
10
6948.611
20
34855.556
0
VERTEX
8
L0D0
10
6948.611
20
34633.333
0
SEQEND
0
POLYLINE
8
L0D0
70
1
40
0
41
0
66
1
0
VERTEX
8
L0D0
10
7750
20
28500
0
VERTEX
8
L0D0
10
7750
20
29000
0
VERTEX
8
L0D0
10
8000
20
29000
0
VERTEX
8
L0D0
10
8000
20
29500
0
VERTEX
8
L0D0
10
8750
20
29500
0
VERTEX
8
L0D0
10
8750
20
28500
0
SEQEND
0
POLYLINE
8
L0D0
70
1
40
0
41
0
66
1
0
VERTEX
8
L0D0
10
8000
20
26500
0
VERTEX
8
L0D0
10
8000
20
27000
0
VERTEX
8
L0D0
10
7750
20
27000
0
VERTEX
8
L0D0
10
7750
20
27500
0
VERTEX
8
L0D0
10
8750
20
27500
0
VERTEX
8
L0D0
10
8750
20
26500
0
SEQEND
0
POLYLINE
8
L0D0
70
1
40
0
41
0
66
1
0
VERTEX
8
L0D0
10
7615.278
20
33966.667
0
VERTEX
8
L0D0
10
7615.278
20
34188.889
0
VERTEX
8
L0D0
10
7615.278
20
34411.111
0
VERTEX
8
L0D0
10
7615.278
20
34633.333
0
VERTEX
8
L0D0
10
7615.278
20
34855.556
0
VERTEX
8
L0D0
10
7615.278
20
35077.778
0
VERTEX
8
L0D0
10
7837.5
20
35077.778
0
VERTEX
8
L0D0
10
7837.5
20
34855.556
0
VERTEX
8
L0D0
10
7837.5
20
34633.333
0
VERTEX
8
L0D0
10
7837.5
20
34411.111
0
VERTEX
8
L0D0
10
8059.722
20
34411.111
0
VERTEX
8
L0D0
10
8059.722
20
34188.889
0
VERTEX
8
L0D0
10
7837.5
20
34188.889
0
VERTEX
8
L0D0
10
7837.5
20
33966.667
0
SEQEND
0
POLYLINE
8
L0D0
70
1
40
0
41
0
66
1
0
VERTEX
8
L0D0
10
7837.5
20
33744.444
0
VERTEX
8
L0D0
10
7837.5
20
33966.667
0
VERTEX
8
L0D0
10
8059.722
20
33966.667
0
VERTEX
8
L0D0
10
8281.944
20
33966.667
0
VERTEX
8
L0D0
10
8504.167
20
33966.667
0
VERTEX
8
L0D0
10
8504.167
20
33744.444
0
VERTEX
8
L0D0
10
8281.944
20
33744.444
0
VERTEX
8
L0D0
10
8059.722
20
33744.444
0
SEQEND
0
POLYLINE
8
L0D0
70
1
40
0
41
0
66
1
0
VERTEX
8
L0D0
10
7762.5
20
32000
0
VERTEX
8
L0D0
10
7762.5
20
32500
0
VERTEX
8
L0D0
10
8012.5
20
32500
0
VERTEX
8
L0D0
10
8012.5
20
33000
0
VERTEX
8
L0D0
10
8762.5
20
33000
0
VERTEX
8
L0D0
10
8762.5
20
32000
0
SEQEND
0
POLYLINE
8
L0D0
70
1
40
0
41
0
66
1
0
VERTEX
8
L0D0
10
8012.5
20
30000
0
VERTEX
8
L0D0
10
8012.5
20
30500
0
VERTEX
8
L0D0
10
7762.5
20
30500
0
VERTEX
8
L0D0
10
7762.5
20
31000
0
VERTEX
8
L0D0
10
8762.5
20
31000
0
VERTEX
8
L0D0
10
8762.5
20
30000
0
SEQEND
0
POLYLINE
8
L0D0
70
1
40
0
41
0
66
1
0
VERTEX
8
L0D0
10
7837.5
20
35077.778
0
VERTEX
8
L0D0
10
7837.5
20
35300
0
VERTEX
8
L0D0
10
8059.722
20
35300
0
VERTEX
8
L0D0
10
8281.944
20
35300
0
VERTEX
8
L0D0
10
8504.167
20
35300
0
VERTEX
8
L0D0
10
8504.167
20
35077.778
0
VERTEX
8
L0D0
10
8281.944
20
35077.778
0
VERTEX
8
L0D0
10
8059.722
20
35077.778
0
SEQEND
0
POLYLINE
8
L0D0
70
1
40
0
41
0
66
1
0
VERTEX
8
L0D0
10
8504.167
20
33966.667
0
VERTEX
8
L0D0
10
8504.167
20
34188.889
0
VERTEX
8
L0D0
10
8504.167
20
34411.111
0
VERTEX
8
L0D0
10
8504.167
20
34633.333
0
VERTEX
8
L0D0
10
8281.944
20
34633.333
0
VERTEX
8
L0D0
10
8281.944
20
34855.556
0
VERTEX
8
L0D0
10
8504.167
20
34855.556
0
VERTEX
8
L0D0
10
8504.167
20
35077.778
0
VERTEX
8
L0D0
10
8726.389
20
35077.778
0
VERTEX
8
L0D0
10
8726.389
20
34855.556
0
VERTEX
8
L0D0
10
8726.389
20
34633.333
0
VERTEX
8
L0D0
10
8726.389
20
34411.111
0
VERTEX
8
L0D0
10
8726.389
20
34188.889
0
VERTEX
8
L0D0
10
8726.389
20
33966.667
0
SEQEND
0
POLYLINE
8
L0D0
70
1
40
0
41
0
66
1
0
VERTEX
8
L0D0
10
9700
20
28500
0
VERTEX
8
L0D0
10
9700
20
29500
0
VERTEX
8
L0D0
10
10450
20
29500
0
VERTEX
8
L0D0
10
10450
20
29000
0
VERTEX
8
L0D0
10
10700
20
29000
0
VERTEX
8
L0D0
10
10700
20
28500
0
SEQEND
0
POLYLINE
8
L0D0
70
1
40
0
41
0
66
1
0
VERTEX
8
L0D0
10
9700
20
26500
0
VERTEX
8
L0D0
10
9700
20
27500
0
VERTEX
8
L0D0
10
10700
20
27500
0
VERTEX
8
L0D0
10
10700
20
27000
0
VERTEX
8
L0D0
10
10450
20
27000
0
VERTEX
8
L0D0
10
10450
20
26500
0
SEQEND
0
POLYLINE
8
L0D0
70
1
40
0
41
0
66
1
0
VERTEX
8
L0D0
10
11500
20
28500
0
VERTEX
8
L0D0
10
11500
20
29000
0
VERTEX
8
L0D0
10
11750
20
29000
0
VERTEX
8
L0D0
10
11750
20
29500
0
VERTEX
8
L0D0
10
12500
20
29500
0
VERTEX
8
L0D0
10
12500
20
28500
0
SEQEND
0
POLYLINE
8
L0D0
70
1
40
0
41
0
66
1
0
VERTEX
8
L0D0
10
11750
20
26500
0
VERTEX
8
L0D0
10
11750
20
27000
0
VERTEX
8
L0D0
10
11500
20
27000
0
VERTEX
8
L0D0
10
11500
20
27500
0
VERTEX
8
L0D0
10
12500
20
27500
0
VERTEX
8
L0D0
10
12500
20
26500
0
SEQEND
0
POLYLINE
8
L0D0
70
1
40
0
41
0
66
1
0
VERTEX
8
L0D0
10
9687.5
20
32000
0
VERTEX
8
L0D0
10
9687.5
20
33000
0
VERTEX
8
L0D0
10
10437.5
20
33000
0
VERTEX
8
L0D0
10
10437.5
20
32500
0
VERTEX
8
L0D0
10
10687.5
20
32500
0
VERTEX
8
L0D0
10
10687.5
20
32000
0
SEQEND
0
POLYLINE
8
L0D0
70
1
40
0
41
0
66
1
0
VERTEX
8
L0D0
10
9687.5
20
30000
0
VERTEX
8
L0D0
10
9687.5
20
31000
0
VERTEX
8
L0D0
10
10687.5
20
31000
0
VERTEX
8
L0D0
10
10687.5
20
30500
0
VERTEX
8
L0D0
10
10437.5
20
30500
0
VERTEX
8
L0D0
10
10437.5
20
30000
0
SEQEND
0
POLYLINE
8
L0D0
70
1
40
0
41
0
66
1
0
VERTEX
8
L0D0
10
11512.5
20
32000
0
VERTEX
8
L0D0
10
11512.5
20
32500
0
VERTEX
8
L0D0
10
11762.5
20
32500
0
VERTEX
8
L0D0
10
11762.5
20
33000
0
VERTEX
8
L0D0
10
12512.5
20
33000
0
VERTEX
8
L0D0
10
12512.5
20
32000
0
SEQEND
0
POLYLINE
8
L0D0
70
1
40
0
41
0
66
1
0
VERTEX
8
L0D0
10
11762.5
20
30000
0
VERTEX
8
L0D0
10
11762.5
20
30500
0
VERTEX
8
L0D0
10
11512.5
20
30500
0
VERTEX
8
L0D0
10
11512.5
20
31000
0
VERTEX
8
L0D0
10
12512.5
20
31000
0
VERTEX
8
L0D0
10
12512.5
20
30000
0
SEQEND
0
POLYLINE
8
L0D0
70
1
40
0
41
0
66
1
0
VERTEX
8
L0D0
10
9537.5
20
33744.444
0
VERTEX
8
L0D0
10
9537.5
20
33966.667
0
VERTEX
8
L0D0
10
9537.5
20
34188.889
0
VERTEX
8
L0D0
10
9759.722
20
34188.889
0
VERTEX
8
L0D0
10
9759.722
20
33966.667
0
VERTEX
8
L0D0
10
9981.944
20
33966.667
0
VERTEX
8
L0D0
10
10204.167
20
33966.667
0
VERTEX
8
L0D0
10
10426.389
20
33966.667
0
VERTEX
8
L0D0
10
10648.611
20
33966.667
0
VERTEX
8
L0D0
10
10648.611
20
33744.444
0
VERTEX
8
L0D0
10
10426.389
20
33744.444
0
VERTEX
8
L0D0
10
10204.167
20
33744.444
0
VERTEX
8
L0D0
10
9981.944
20
33744.444
0
VERTEX
8
L0D0
10
9759.722
20
33744.444
0
SEQEND
0
POLYLINE
8
L0D0
70
1
40
0
41
0
66
1
0
VERTEX
8
L0D0
10
9759.722
20
34188.889
0
VERTEX
8
L0D0
10
9759.722
20
34411.111
0
VERTEX
8
L0D0
10
9981.944
20
34411.111
0
VERTEX
8
L0D0
10
10204.167
20
34411.111
0
VERTEX
8
L0D0
10
10204.167
20
34188.889
0
VERTEX
8
L0D0
10
9981.944
20
34188.889
0
SEQEND
0
POLYLINE
8
L0D0
70
1
40
0
41
0
66
1
0
VERTEX
8
L0D0
10
437.5
20
35077.778
0
VERTEX
8
L0D0
10
437.5
20
35300
0
VERTEX
8
L0D0
10
659.722
20
35300
0
VERTEX
8
L0D0
10
881.944
20
35300
0
VERTEX
8
L0D0
10
1104.167
20
35300
0
VERTEX
8
L0D0
10
1104.167
20
35077.778
0
VERTEX
8
L0D0
10
881.944
20
35077.778
0
VERTEX
8
L0D0
10
659.722
20
35077.778
0
SEQEND
0
POLYLINE
8
L0D0
70
1
40
0
41
0
66
1
0
VERTEX
8
L0D0
10
1104.167
20
33966.667
0
VERTEX
8
L0D0
10
1104.167
20
34188.889
0
VERTEX
8
L0D0
10
1104.167
20
34411.111
0
VERTEX
8
L0D0
10
1104.167
20
34633.333
0
VERTEX
8
L0D0
10
881.944
20
34633.333
0
VERTEX
8
L0D0
10
881.944
20
34855.556
0
VERTEX
8
L0D0
10
1104.167
20
34855.556
0
VERTEX
8
L0D0
10
1104.167
20
35077.778
0
VERTEX
8
L0D0
10
1326.389
20
35077.778
0
VERTEX
8
L0D0
10
1326.389
20
34855.556
0
VERTEX
8
L0D0
10
1326.389
20
34633.333
0
VERTEX
8
L0D0
10
1326.389
20
34411.111
0
VERTEX
8
L0D0
10
1326.389
20
34188.889
0
VERTEX
8
L0D0
10
1326.389
20
33966.667
0
SEQEND
0
POLYLINE
8
L0D0
70
1
40
0
41
0
66
1
0
VERTEX
8
L0D0
10
2359.722
20
33744.444
0
VERTEX
8
L0D0
10
2359.722
20
33966.667
0
VERTEX
8
L0D0
10
2581.944
20
33966.667
0
VERTEX
8
L0D0
10
2581.944
20
34188.889
0
VERTEX
8
L0D0
10
2581.944
20
34411.111
0
VERTEX
8
L0D0
10
2581.944
20
34633.333
0
VERTEX
8
L0D0
10
2581.944
20
34855.556
0
VERTEX
8
L0D0
10
2359.722
20
34855.556
0
VERTEX
8
L0D0
10
2359.722
20
35077.778
0
VERTEX
8
L0D0
10
2581.944
20
35077.778
0
VERTEX
8
L0D0
10
2581.944
20
35300
0
VERTEX
8
L0D0
10
2804.167
20
35300
0
VERTEX
8
L0D0
10
2804.167
20
35077.778
0
VERTEX
8
L0D0
10
2804.167
20
34855.556
0
VERTEX
8
L0D0
10
2804.167
20
34633.333
0
VERTEX
8
L0D0
10
2804.167
20
34411.111
0
VERTEX
8
L0D0
10
2804.167
20
34188.889
0
VERTEX
8
L0D0
10
2804.167
20
33966.667
0
VERTEX
8
L0D0
10
3026.389
20
33966.667
0
VERTEX
8
L0D0
10
3026.389
20
33744.444
0
VERTEX
8
L0D0
10
2804.167
20
33744.444
0
VERTEX
8
L0D0
10
2581.944
20
33744.444
0
SEQEND
0
POLYLINE
8
L0D0
70
1
40
0
41
0
66
1
0
VERTEX
8
L0D0
10
3915.278
20
33744.444
0
VERTEX
8
L0D0
10
3915.278
20
33966.667
0
VERTEX
8
L0D0
10
4137.5
20
33966.667
0
VERTEX
8
L0D0
10
4359.722
20
33966.667
0
VERTEX
8
L0D0
10
4581.944
20
33966.667
0
VERTEX
8
L0D0
10
4804.167
20
33966.667
0
VERTEX
8
L0D0
10
4804.167
20
33744.444
0
VERTEX
8
L0D0
10
4581.944
20
33744.444
0
VERTEX
8
L0D0
10
4359.722
20
33744.444
0
VERTEX
8
L0D0
10
4137.5
20
33744.444
0
SEQEND
0
POLYLINE
8
L0D0
70
1
40
0
41
0
66
1
0
VERTEX
8
L0D0
10
3915.278
20
34411.111
0
VERTEX
8
L0D0
10
3915.278
20
34633.333
0
VERTEX
8
L0D0
10
3915.278
20
34855.556
0
VERTEX
8
L0D0
10
3915.278
20
35077.778
0
VERTEX
8
L0D0
10
3915.278
20
35300
0
VERTEX
8
L0D0
10
4137.5
20
35300
0
VERTEX
8
L0D0
10
4359.722
20
35300
0
VERTEX
8
L0D0
10
4581.944
20
35300
0
VERTEX
8
L0D0
10
4804.167
20
35300
0
VERTEX
8
L0D0
10
5026.389
20
35300
0
VERTEX
8
L0D0
10
5026.389
20
35077.778
0
VERTEX
8
L0D0
10
4804.167
20
35077.778
0
VERTEX
8
L0D0
10
4581.944
20
35077.778
0
VERTEX
8
L0D0
10
4359.722
20
35077.778
0
VERTEX
8
L0D0
10
4137.5
20
35077.778
0
VERTEX
8
L0D0
10
4137.5
20
34855.556
0
VERTEX
8
L0D0
10
4137.5
20
34633.333
0
VERTEX
8
L0D0
10
4359.722
20
34633.333
0
VERTEX
8
L0D0
10
4581.944
20
34633.333
0
VERTEX
8
L0D0
10
4804.167
20
34633.333
0
VERTEX
8
L0D0
10
4804.167
20
34411.111
0
VERTEX
8
L0D0
10
4581.944
20
34411.111
0
VERTEX
8
L0D0
10
4359.722
20
34411.111
0
VERTEX
8
L0D0
10
4137.5
20
34411.111
0
SEQEND
0
POLYLINE
8
L0D0
70
1
40
0
41
0
66
1
0
VERTEX
8
L0D0
10
4804.167
20
33966.667
0
VERTEX
8
L0D0
10
4804.167
20
34188.889
0
VERTEX
8
L0D0
10
4804.167
20
34411.111
0
VERTEX
8
L0D0
10
5026.389
20
34411.111
0
VERTEX
8
L0D0
10
5026.389
20
34188.889
0
VERTEX
8
L0D0
10
5026.389
20
33966.667
0
SEQEND
0
POLYLINE
8
L0D0
70
1
40
0
41
0
66
1
0
VERTEX
8
L0D0
10
250
20
28500
0
VERTEX
8
L0D0
10
250
20
29000
0
VERTEX
8
L0D0
10
500
20
29000
0
VERTEX
8
L0D0
10
500
20
29500
0
VERTEX
8
L0D0
10
1250
20
29500
0
VERTEX
8
L0D0
10
1250
20
28500
0
SEQEND
0
POLYLINE
8
L0D0
70
1
40
0
41
0
66
1
0
VERTEX
8
L0D0
10
500
20
26500
0
VERTEX
8
L0D0
10
500
20
27000
0
VERTEX
8
L0D0
10
250
20
27000
0
VERTEX
8
L0D0
10
250
20
27500
0
VERTEX
8
L0D0
10
1250
20
27500
0
VERTEX
8
L0D0
10
1250
20
26500
0
SEQEND
0
POLYLINE
8
L0D0
70
1
40
0
41
0
66
1
0
VERTEX
8
L0D0
10
-1262.5
20
32000
0
VERTEX
8
L0D0
10
-1262.5
20
33000
0
VERTEX
8
L0D0
10
-512.5
20
33000
0
VERTEX
8
L0D0
10
-512.5
20
32500
0
VERTEX
8
L0D0
10
-262.5
20
32500
0
VERTEX
8
L0D0
10
-262.5
20
32000
0
SEQEND
0
POLYLINE
8
L0D0
70
1
40
0
41
0
66
1
0
VERTEX
8
L0D0
10
-1262.5
20
30000
0
VERTEX
8
L0D0
10
-1262.5
20
31000
0
VERTEX
8
L0D0
10
-262.5
20
31000
0
VERTEX
8
L0D0
10
-262.5
20
30500
0
VERTEX
8
L0D0
10
-512.5
20
30500
0
VERTEX
8
L0D0
10
-512.5
20
30000
0
SEQEND
0
POLYLINE
8
L0D0
70
1
40
0
41
0
66
1
0
VERTEX
8
L0D0
10
262.5
20
32000
0
VERTEX
8
L0D0
10
262.5
20
32500
0
VERTEX
8
L0D0
10
512.5
20
32500
0
VERTEX
8
L0D0
10
512.5
20
33000
0
VERTEX
8
L0D0
10
1262.5
20
33000
0
VERTEX
8
L0D0
10
1262.5
20
32000
0
SEQEND
0
POLYLINE
8
L0D0
70
1
40
0
41
0
66
1
0
VERTEX
8
L0D0
10
2400
20
28500
0
VERTEX
8
L0D0
10
2400
20
29500
0
VERTEX
8
L0D0
10
3150
20
29500
0
VERTEX
8
L0D0
10
3150
20
29000
0
VERTEX
8
L0D0
10
3400
20
29000
0
VERTEX
8
L0D0
10
3400
20
28500
0
SEQEND
0
POLYLINE
8
L0D0
70
1
40
0
41
0
66
1
0
VERTEX
8
L0D0
10
2400
20
26500
0
VERTEX
8
L0D0
10
2400
20
27500
0
VERTEX
8
L0D0
10
3400
20
27500
0
VERTEX
8
L0D0
10
3400
20
27000
0
VERTEX
8
L0D0
10
3150
20
27000
0
VERTEX
8
L0D0
10
3150
20
26500
0
SEQEND
0
POLYLINE
8
L0D0
70
1
40
0
41
0
66
1
0
VERTEX
8
L0D0
10
4000
20
28500
0
VERTEX
8
L0D0
10
4000
20
29000
0
VERTEX
8
L0D0
10
4250
20
29000
0
VERTEX
8
L0D0
10
4250
20
29500
0
VERTEX
8
L0D0
10
5000
20
29500
0
VERTEX
8
L0D0
10
5000
20
28500
0
SEQEND
0
POLYLINE
8
L0D0
70
1
40
0
41
0
66
1
0
VERTEX
8
L0D0
10
4250
20
26500
0
VERTEX
8
L0D0
10
4250
20
27000
0
VERTEX
8
L0D0
10
4000
20
27000
0
VERTEX
8
L0D0
10
4000
20
27500
0
VERTEX
8
L0D0
10
5000
20
27500
0
VERTEX
8
L0D0
10
5000
20
26500
0
SEQEND
0
POLYLINE
8
L0D0
70
1
40
0
41
0
66
1
0
VERTEX
8
L0D0
10
2387.5
20
32000
0
VERTEX
8
L0D0
10
2387.5
20
33000
0
VERTEX
8
L0D0
10
3137.5
20
33000
0
VERTEX
8
L0D0
10
3137.5
20
32500
0
VERTEX
8
L0D0
10
3387.5
20
32500
0
VERTEX
8
L0D0
10
3387.5
20
32000
0
SEQEND
0
POLYLINE
8
L0D0
70
1
40
0
41
0
66
1
0
VERTEX
8
L0D0
10
2387.5
20
30000
0
VERTEX
8
L0D0
10
2387.5
20
31000
0
VERTEX
8
L0D0
10
3387.5
20
31000
0
VERTEX
8
L0D0
10
3387.5
20
30500
0
VERTEX
8
L0D0
10
3137.5
20
30500
0
VERTEX
8
L0D0
10
3137.5
20
30000
0
SEQEND
0
POLYLINE
8
L0D0
70
1
40
0
41
0
66
1
0
VERTEX
8
L0D0
10
4012.5
20
32000
0
VERTEX
8
L0D0
10
4012.5
20
32500
0
VERTEX
8
L0D0
10
4262.5
20
32500
0
VERTEX
8
L0D0
10
4262.5
20
33000
0
VERTEX
8
L0D0
10
5012.5
20
33000
0
VERTEX
8
L0D0
10
5012.5
20
32000
0
SEQEND
0
POLYLINE
8
L0D0
70
1
40
0
41
0
66
1
0
VERTEX
8
L0D0
10
4262.5
20
30000
0
VERTEX
8
L0D0
10
4262.5
20
30500
0
VERTEX
8
L0D0
10
4012.5
20
30500
0
VERTEX
8
L0D0
10
4012.5
20
31000
0
VERTEX
8
L0D0
10
5012.5
20
31000
0
VERTEX
8
L0D0
10
5012.5
20
30000
0
SEQEND
0
POLYLINE
8
L0D0
70
1
40
0
41
0
66
1
0
VERTEX
8
L0D0
10
512.5
20
30000
0
VERTEX
8
L0D0
10
512.5
20
30500
0
VERTEX
8
L0D0
10
262.5
20
30500
0
VERTEX
8
L0D0
10
262.5
20
31000
0
VERTEX
8
L0D0
10
1262.5
20
31000
0
VERTEX
8
L0D0
10
1262.5
20
30000
0
SEQEND
0
POLYLINE
8
L0D0
70
1
40
0
41
0
66
1
0
VERTEX
8
L0D0
10
-1250
20
28500
0
VERTEX
8
L0D0
10
-1250
20
29500
0
VERTEX
8
L0D0
10
-500
20
29500
0
VERTEX
8
L0D0
10
-500
20
29000
0
VERTEX
8
L0D0
10
-250
20
29000
0
VERTEX
8
L0D0
10
-250
20
28500
0
SEQEND
0
POLYLINE
8
L0D0
70
1
40
0
41
0
66
1
0
VERTEX
8
L0D0
10
-1250
20
26500
0
VERTEX
8
L0D0
10
-1250
20
27500
0
VERTEX
8
L0D0
10
-250
20
27500
0
VERTEX
8
L0D0
10
-250
20
27000
0
VERTEX
8
L0D0
10
-500
20
27000
0
VERTEX
8
L0D0
10
-500
20
26500
0
SEQEND
0
POLYLINE
8
L0D0
70
1
40
0
41
0
66
1
0
VERTEX
8
L0D0
10
-1340.278
20
33744.444
0
VERTEX
8
L0D0
10
-1340.278
20
33966.667
0
VERTEX
8
L0D0
10
-1118.056
20
33966.667
0
VERTEX
8
L0D0
10
-1118.056
20
34188.889
0
VERTEX
8
L0D0
10
-1118.056
20
34411.111
0
VERTEX
8
L0D0
10
-1118.056
20
34633.333
0
VERTEX
8
L0D0
10
-1118.056
20
34855.556
0
VERTEX
8
L0D0
10
-1340.278
20
34855.556
0
VERTEX
8
L0D0
10
-1340.278
20
35077.778
0
VERTEX
8
L0D0
10
-1118.056
20
35077.778
0
VERTEX
8
L0D0
10
-1118.056
20
35300
0
VERTEX
8
L0D0
10
-895.833
20
35300
0
VERTEX
8
L0D0
10
-895.833
20
35077.778
0
VERTEX
8
L0D0
10
-895.833
20
34855.556
0
VERTEX
8
L0D0
10
-895.833
20
34633.333
0
VERTEX
8
L0D0
10
-895.833
20
34411.111
0
VERTEX
8
L0D0
10
-895.833
20
34188.889
0
VERTEX
8
L0D0
10
-895.833
20
33966.667
0
VERTEX
8
L0D0
10
-673.611
20
33966.667
0
VERTEX
8
L0D0
10
-673.611
20
33744.444
0
VERTEX
8
L0D0
10
-895.833
20
33744.444
0
VERTEX
8
L0D0
10
-1118.056
20
33744.444
0
SEQEND
0
POLYLINE
8
L0D0
70
1
40
0
41
0
66
1
0
VERTEX
8
L0D0
10
215.278
20
33966.667
0
VERTEX
8
L0D0
10
215.278
20
34188.889
0
VERTEX
8
L0D0
10
215.278
20
34411.111
0
VERTEX
8
L0D0
10
215.278
20
34633.333
0
VERTEX
8
L0D0
10
215.278
20
34855.556
0
VERTEX
8
L0D0
10
215.278
20
35077.778
0
VERTEX
8
L0D0
10
437.5
20
35077.778
0
VERTEX
8
L0D0
10
437.5
20
34855.556
0
VERTEX
8
L0D0
10
437.5
20
34633.333
0
VERTEX
8
L0D0
10
437.5
20
34411.111
0
VERTEX
8
L0D0
10
659.722
20
34411.111
0
VERTEX
8
L0D0
10
659.722
20
34188.889
0
VERTEX
8
L0D0
10
437.5
20
34188.889
0
VERTEX
8
L0D0
10
437.5
20
33966.667
0
SEQEND
0
POLYLINE
8
L0D0
70
1
40
0
41
0
66
1
0
VERTEX
8
L0D0
10
437.5
20
33744.444
0
VERTEX
8
L0D0
10
437.5
20
33966.667
0
VERTEX
8
L0D0
10
659.722
20
33966.667
0
VERTEX
8
L0D0
10
881.944
20
33966.667
0
VERTEX
8
L0D0
10
1104.167
20
33966.667
0
VERTEX
8
L0D0
10
1104.167
20
33744.444
0
VERTEX
8
L0D0
10
881.944
20
33744.444
0
VERTEX
8
L0D0
10
659.722
20
33744.444
0
SEQEND
0
POLYLINE
8
L0D0
70
1
40
0
41
0
66
1
0
VERTEX
8
L0D0
10
-3262.5
20
28444.444
0
VERTEX
8
L0D0
10
-3262.5
20
28666.667
0
VERTEX
8
L0D0
10
-3040.278
20
28666.667
0
VERTEX
8
L0D0
10
-2818.056
20
28666.667
0
VERTEX
8
L0D0
10
-2595.833
20
28666.667
0
VERTEX
8
L0D0
10
-2373.611
20
28666.667
0
VERTEX
8
L0D0
10
-2373.611
20
28444.444
0
VERTEX
8
L0D0
10
-2595.833
20
28444.444
0
VERTEX
8
L0D0
10
-2818.056
20
28444.444
0
VERTEX
8
L0D0
10
-3040.278
20
28444.444
0
SEQEND
0
POLYLINE
8
L0D0
70
1
40
0
41
0
66
1
0
VERTEX
8
L0D0
10
-3262.5
20
29777.778
0
VERTEX
8
L0D0
10
-3262.5
20
30000
0
VERTEX
8
L0D0
10
-3040.278
20
30000
0
VERTEX
8
L0D0
10
-2818.056
20
30000
0
VERTEX
8
L0D0
10
-2595.833
20
30000
0
VERTEX
8
L0D0
10
-2373.611
20
30000
0
VERTEX
8
L0D0
10
-2373.611
20
29777.778
0
VERTEX
8
L0D0
10
-2595.833
20
29777.778
0
VERTEX
8
L0D0
10
-2818.056
20
29777.778
0
VERTEX
8
L0D0
10
-3040.278
20
29777.778
0
SEQEND
0
POLYLINE
8
L0D0
70
1
40
0
41
0
66
1
0
VERTEX
8
L0D0
10
-3040.278
20
29111.111
0
VERTEX
8
L0D0
10
-3040.278
20
29333.333
0
VERTEX
8
L0D0
10
-2818.056
20
29333.333
0
VERTEX
8
L0D0
10
-2595.833
20
29333.333
0
VERTEX
8
L0D0
10
-2373.611
20
29333.333
0
VERTEX
8
L0D0
10
-2373.611
20
29111.111
0
VERTEX
8
L0D0
10
-2595.833
20
29111.111
0
VERTEX
8
L0D0
10
-2818.056
20
29111.111
0
SEQEND
0
POLYLINE
8
L0D0
70
1
40
0
41
0
66
1
0
VERTEX
8
L0D0
10
-2373.611
20
28666.667
0
VERTEX
8
L0D0
10
-2373.611
20
28888.889
0
VERTEX
8
L0D0
10
-2373.611
20
29111.111
0
VERTEX
8
L0D0
10
-2151.389
20
29111.111
0
VERTEX
8
L0D0
10
-2151.389
20
28888.889
0
VERTEX
8
L0D0
10
-2151.389
20
28666.667
0
SEQEND
0
POLYLINE
8
L0D0
70
1
40
0
41
0
66
1
0
VERTEX
8
L0D0
10
-2373.611
20
29333.333
0
VERTEX
8
L0D0
10
-2373.611
20
29555.556
0
VERTEX
8
L0D0
10
-2373.611
20
29777.778
0
VERTEX
8
L0D0
10
-2151.389
20
29777.778
0
VERTEX
8
L0D0
10
-2151.389
20
29555.556
0
VERTEX
8
L0D0
10
-2151.389
20
29333.333
0
SEQEND
0
POLYLINE
8
L0D0
70
1
40
0
41
0
66
1
0
VERTEX
8
L0D0
10
-3262.5
20
26222.222
0
VERTEX
8
L0D0
10
-3262.5
20
26444.444
0
VERTEX
8
L0D0
10
-3262.5
20
26666.667
0
VERTEX
8
L0D0
10
-3262.5
20
26888.889
0
VERTEX
8
L0D0
10
-3262.5
20
27111.111
0
VERTEX
8
L0D0
10
-3262.5
20
27333.333
0
VERTEX
8
L0D0
10
-3040.278
20
27333.333
0
VERTEX
8
L0D0
10
-3040.278
20
27111.111
0
VERTEX
8
L0D0
10
-3040.278
20
26888.889
0
VERTEX
8
L0D0
10
-3040.278
20
26666.667
0
VERTEX
8
L0D0
10
-2818.056
20
26666.667
0
VERTEX
8
L0D0
10
-2818.056
20
26444.444
0
VERTEX
8
L0D0
10
-3040.278
20
26444.444
0
VERTEX
8
L0D0
10
-3040.278
20
26222.222
0
SEQEND
0
POLYLINE
8
L0D0
70
1
40
0
41
0
66
1
0
VERTEX
8
L0D0
10
-3040.278
20
26000
0
VERTEX
8
L0D0
10
-3040.278
20
26222.222
0
VERTEX
8
L0D0
10
-2818.056
20
26222.222
0
VERTEX
8
L0D0
10
-2595.833
20
26222.222
0
VERTEX
8
L0D0
10
-2373.611
20
26222.222
0
VERTEX
8
L0D0
10
-2373.611
20
26000
0
VERTEX
8
L0D0
10
-2595.833
20
26000
0
VERTEX
8
L0D0
10
-2818.056
20
26000
0
SEQEND
0
POLYLINE
8
L0D0
70
1
40
0
41
0
66
1
0
VERTEX
8
L0D0
10
-3040.278
20
27333.333
0
VERTEX
8
L0D0
10
-3040.278
20
27555.556
0
VERTEX
8
L0D0
10
-2818.056
20
27555.556
0
VERTEX
8
L0D0
10
-2595.833
20
27555.556
0
VERTEX
8
L0D0
10
-2373.611
20
27555.556
0
VERTEX
8
L0D0
10
-2373.611
20
27333.333
0
VERTEX
8
L0D0
10
-2595.833
20
27333.333
0
VERTEX
8
L0D0
10
-2818.056
20
27333.333
0
SEQEND
0
POLYLINE
8
L0D0
70
1
40
0
41
0
66
1
0
VERTEX
8
L0D0
10
-2373.611
20
26222.222
0
VERTEX
8
L0D0
10
-2373.611
20
26444.444
0
VERTEX
8
L0D0
10
-2373.611
20
26666.667
0
VERTEX
8
L0D0
10
-2373.611
20
26888.889
0
VERTEX
8
L0D0
10
-2595.833
20
26888.889
0
VERTEX
8
L0D0
10
-2595.833
20
27111.111
0
VERTEX
8
L0D0
10
-2373.611
20
27111.111
0
VERTEX
8
L0D0
10
-2373.611
20
27333.333
0
VERTEX
8
L0D0
10
-2151.389
20
27333.333
0
VERTEX
8
L0D0
10
-2151.389
20
27111.111
0
VERTEX
8
L0D0
10
-2151.389
20
26888.889
0
VERTEX
8
L0D0
10
-2151.389
20
26666.667
0
VERTEX
8
L0D0
10
-2151.389
20
26444.444
0
VERTEX
8
L0D0
10
-2151.389
20
26222.222
0
SEQEND
0
POLYLINE
8
L0D0
70
1
40
0
41
0
66
1
0
VERTEX
8
L0D0
10
2412.5
20
23000
0
VERTEX
8
L0D0
10
2412.5
20
24000
0
VERTEX
8
L0D0
10
3412.5
20
24000
0
VERTEX
8
L0D0
10
3412.5
20
23500
0
VERTEX
8
L0D0
10
3162.5
20
23500
0
VERTEX
8
L0D0
10
3162.5
20
23000
0
SEQEND
0
POLYLINE
8
L0D0
70
1
40
0
41
0
66
1
0
VERTEX
8
L0D0
10
-1225
20
21500
0
VERTEX
8
L0D0
10
-1225
20
22500
0
VERTEX
8
L0D0
10
-475
20
22500
0
VERTEX
8
L0D0
10
-475
20
22000
0
VERTEX
8
L0D0
10
-225
20
22000
0
VERTEX
8
L0D0
10
-225
20
21500
0
SEQEND
0
POLYLINE
8
L0D0
70
1
40
0
41
0
66
1
0
VERTEX
8
L0D0
10
-1225
20
19500
0
VERTEX
8
L0D0
10
-1225
20
20500
0
VERTEX
8
L0D0
10
-225
20
20500
0
VERTEX
8
L0D0
10
-225
20
20000
0
VERTEX
8
L0D0
10
-475
20
20000
0
VERTEX
8
L0D0
10
-475
20
19500
0
SEQEND
0
POLYLINE
8
L0D0
70
1
40
0
41
0
66
1
0
VERTEX
8
L0D0
10
2425
20
21500
0
VERTEX
8
L0D0
10
2425
20
22500
0
VERTEX
8
L0D0
10
3175
20
22500
0
VERTEX
8
L0D0
10
3175
20
22000
0
VERTEX
8
L0D0
10
3425
20
22000
0
VERTEX
8
L0D0
10
3425
20
21500
0
SEQEND
0
POLYLINE
8
L0D0
70
1
40
0
41
0
66
1
0
VERTEX
8
L0D0
10
4237.5
20
23000
0
VERTEX
8
L0D0
10
4237.5
20
23500
0
VERTEX
8
L0D0
10
3987.5
20
23500
0
VERTEX
8
L0D0
10
3987.5
20
24000
0
VERTEX
8
L0D0
10
4987.5
20
24000
0
VERTEX
8
L0D0
10
4987.5
20
23000
0
SEQEND
0
POLYLINE
8
L0D0
70
1
40
0
41
0
66
1
0
VERTEX
8
L0D0
10
-1237.5
20
23000
0
VERTEX
8
L0D0
10
-1237.5
20
24000
0
VERTEX
8
L0D0
10
-237.5
20
24000
0
VERTEX
8
L0D0
10
-237.5
20
23500
0
VERTEX
8
L0D0
10
-487.5
20
23500
0
VERTEX
8
L0D0
10
-487.5
20
23000
0
SEQEND
0
POLYLINE
8
L0D0
70
1
40
0
41
0
66
1
0
VERTEX
8
L0D0
10
2437.5
20
18000
0
VERTEX
8
L0D0
10
2437.5
20
19000
0
VERTEX
8
L0D0
10
3187.5
20
19000
0
VERTEX
8
L0D0
10
3187.5
20
18500
0
VERTEX
8
L0D0
10
3437.5
20
18500
0
VERTEX
8
L0D0
10
3437.5
20
18000
0
SEQEND
0
POLYLINE
8
L0D0
70
1
40
0
41
0
66
1
0
VERTEX
8
L0D0
10
-3262.5
20
21444.444
0
VERTEX
8
L0D0
10
-3262.5
20
21666.667
0
VERTEX
8
L0D0
10
-3262.5
20
21888.889
0
VERTEX
8
L0D0
10
-3040.278
20
21888.889
0
VERTEX
8
L0D0
10
-3040.278
20
21666.667
0
VERTEX
8
L0D0
10
-2818.056
20
21666.667
0
VERTEX
8
L0D0
10
-2595.833
20
21666.667
0
VERTEX
8
L0D0
10
-2373.611
20
21666.667
0
VERTEX
8
L0D0
10
-2151.389
20
21666.667
0
VERTEX
8
L0D0
10
-2151.389
20
21444.444
0
VERTEX
8
L0D0
10
-2373.611
20
21444.444
0
VERTEX
8
L0D0
10
-2595.833
20
21444.444
0
VERTEX
8
L0D0
10
-2818.056
20
21444.444
0
VERTEX
8
L0D0
10
-3040.278
20
21444.444
0
SEQEND
0
POLYLINE
8
L0D0
70
1
40
0
41
0
66
1
0
VERTEX
8
L0D0
10
-3040.278
20
21888.889
0
VERTEX
8
L0D0
10
-3040.278
20
22111.111
0
VERTEX
8
L0D0
10
-2818.056
20
22111.111
0
VERTEX
8
L0D0
10
-2595.833
20
22111.111
0
VERTEX
8
L0D0
10
-2595.833
20
21888.889
0
VERTEX
8
L0D0
10
-2818.056
20
21888.889
0
SEQEND
0
POLYLINE
8
L0D0
70
1
40
0
41
0
66
1
0
VERTEX
8
L0D0
10
-3040.278
20
22777.778
0
VERTEX
8
L0D0
10
-3040.278
20
23000
0
VERTEX
8
L0D0
10
-2818.056
20
23000
0
VERTEX
8
L0D0
10
-2595.833
20
23000
0
VERTEX
8
L0D0
10
-2373.611
20
23000
0
VERTEX
8
L0D0
10
-2373.611
20
22777.778
0
VERTEX
8
L0D0
10
-2595.833
20
22777.778
0
VERTEX
8
L0D0
10
-2818.056
20
22777.778
0
SEQEND
0
POLYLINE
8
L0D0
70
1
40
0
41
0
66
1
0
VERTEX
8
L0D0
10
-2373.611
20
22333.333
0
VERTEX
8
L0D0
10
-2373.611
20
22555.556
0
VERTEX
8
L0D0
10
-2373.611
20
22777.778
0
VERTEX
8
L0D0
10
-2151.389
20
22777.778
0
VERTEX
8
L0D0
10
-2151.389
20
22555.556
0
VERTEX
8
L0D0
10
-2151.389
20
22333.333
0
SEQEND
0
POLYLINE
8
L0D0
70
1
40
0
41
0
66
1
0
VERTEX
8
L0D0
10
-3262.5
20
19000
0
VERTEX
8
L0D0
10
-3262.5
20
19222.222
0
VERTEX
8
L0D0
10
-3040.278
20
19222.222
0
VERTEX
8
L0D0
10
-2818.056
20
19222.222
0
VERTEX
8
L0D0
10
-2595.833
20
19222.222
0
VERTEX
8
L0D0
10
-2373.611
20
19222.222
0
VERTEX
8
L0D0
10
-2373.611
20
19000
0
VERTEX
8
L0D0
10
-2595.833
20
19000
0
VERTEX
8
L0D0
10
-2818.056
20
19000
0
VERTEX
8
L0D0
10
-3040.278
20
19000
0
SEQEND
0
POLYLINE
8
L0D0
70
1
40
0
41
0
66
1
0
VERTEX
8
L0D0
10
-3262.5
20
19666.667
0
VERTEX
8
L0D0
10
-3262.5
20
19888.889
0
VERTEX
8
L0D0
10
-3262.5
20
20111.111
0
VERTEX
8
L0D0
10
-3262.5
20
20333.333
0
VERTEX
8
L0D0
10
-3262.5
20
20555.556
0
VERTEX
8
L0D0
10
-3040.278
20
20555.556
0
VERTEX
8
L0D0
10
-2818.056
20
20555.556
0
VERTEX
8
L0D0
10
-2595.833
20
20555.556
0
VERTEX
8
L0D0
10
-2373.611
20
20555.556
0
VERTEX
8
L0D0
10
-2151.389
20
20555.556
0
VERTEX
8
L0D0
10
-2151.389
20
20333.333
0
VERTEX
8
L0D0
10
-2373.611
20
20333.333
0
VERTEX
8
L0D0
10
-2595.833
20
20333.333
0
VERTEX
8
L0D0
10
-2818.056
20
20333.333
0
VERTEX
8
L0D0
10
-3040.278
20
20333.333
0
VERTEX
8
L0D0
10
-3040.278
20
20111.111
0
VERTEX
8
L0D0
10
-3040.278
20
19888.889
0
VERTEX
8
L0D0
10
-2818.056
20
19888.889
0
VERTEX
8
L0D0
10
-2595.833
20
19888.889
0
VERTEX
8
L0D0
10
-2373.611
20
19888.889
0
VERTEX
8
L0D0
10
-2373.611
20
19666.667
0
VERTEX
8
L0D0
10
-2595.833
20
19666.667
0
VERTEX
8
L0D0
10
-2818.056
20
19666.667
0
VERTEX
8
L0D0
10
-3040.278
20
19666.667
0
SEQEND
0
POLYLINE
8
L0D0
70
1
40
0
41
0
66
1
0
VERTEX
8
L0D0
10
-2373.611
20
19222.222
0
VERTEX
8
L0D0
10
-2373.611
20
19444.444
0
VERTEX
8
L0D0
10
-2373.611
20
19666.667
0
VERTEX
8
L0D0
10
-2151.389
20
19666.667
0
VERTEX
8
L0D0
10
-2151.389
20
19444.444
0
VERTEX
8
L0D0
10
-2151.389
20
19222.222
0
SEQEND
0
POLYLINE
8
L0D0
70
1
40
0
41
0
66
1
0
VERTEX
8
L0D0
10
212.5
20
18000
0
VERTEX
8
L0D0
10
212.5
20
18500
0
VERTEX
8
L0D0
10
462.5
20
18500
0
VERTEX
8
L0D0
10
462.5
20
19000
0
VERTEX
8
L0D0
10
1212.5
20
19000
0
VERTEX
8
L0D0
10
1212.5
20
18000
0
SEQEND
0
POLYLINE
8
L0D0
70
1
40
0
41
0
66
1
0
VERTEX
8
L0D0
10
225
20
21500
0
VERTEX
8
L0D0
10
225
20
22000
0
VERTEX
8
L0D0
10
475
20
22000
0
VERTEX
8
L0D0
10
475
20
22500
0
VERTEX
8
L0D0
10
1225
20
22500
0
VERTEX
8
L0D0
10
1225
20
21500
0
SEQEND
0
POLYLINE
8
L0D0
70
1
40
0
41
0
66
1
0
VERTEX
8
L0D0
10
475
20
19500
0
VERTEX
8
L0D0
10
475
20
20000
0
VERTEX
8
L0D0
10
225
20
20000
0
VERTEX
8
L0D0
10
225
20
20500
0
VERTEX
8
L0D0
10
1225
20
20500
0
VERTEX
8
L0D0
10
1225
20
19500
0
SEQEND
0
POLYLINE
8
L0D0
70
1
40
0
41
0
66
1
0
VERTEX
8
L0D0
10
2425
20
19500
0
VERTEX
8
L0D0
10
2425
20
20500
0
VERTEX
8
L0D0
10
3425
20
20500
0
VERTEX
8
L0D0
10
3425
20
20000
0
VERTEX
8
L0D0
10
3175
20
20000
0
VERTEX
8
L0D0
10
3175
20
19500
0
SEQEND
0
POLYLINE
8
L0D0
70
1
40
0
41
0
66
1
0
VERTEX
8
L0D0
10
3975
20
21500
0
VERTEX
8
L0D0
10
3975
20
22000
0
VERTEX
8
L0D0
10
4225
20
22000
0
VERTEX
8
L0D0
10
4225
20
22500
0
VERTEX
8
L0D0
10
4975
20
22500
0
VERTEX
8
L0D0
10
4975
20
21500
0
SEQEND
0
POLYLINE
8
L0D0
70
1
40
0
41
0
66
1
0
VERTEX
8
L0D0
10
3962.5
20
18000
0
VERTEX
8
L0D0
10
3962.5
20
18500
0
VERTEX
8
L0D0
10
4212.5
20
18500
0
VERTEX
8
L0D0
10
4212.5
20
19000
0
VERTEX
8
L0D0
10
4962.5
20
19000
0
VERTEX
8
L0D0
10
4962.5
20
18000
0
SEQEND
0
POLYLINE
8
L0D0
70
1
40
0
41
0
66
1
0
VERTEX
8
L0D0
10
487.5
20
23000
0
VERTEX
8
L0D0
10
487.5
20
23500
0
VERTEX
8
L0D0
10
237.5
20
23500
0
VERTEX
8
L0D0
10
237.5
20
24000
0
VERTEX
8
L0D0
10
1237.5
20
24000
0
VERTEX
8
L0D0
10
1237.5
20
23000
0
SEQEND
0
POLYLINE
8
L0D0
70
1
40
0
41
0
66
1
0
VERTEX
8
L0D0
10
4225
20
19500
0
VERTEX
8
L0D0
10
4225
20
20000
0
VERTEX
8
L0D0
10
3975
20
20000
0
VERTEX
8
L0D0
10
3975
20
20500
0
VERTEX
8
L0D0
10
4975
20
20500
0
VERTEX
8
L0D0
10
4975
20
19500
0
SEQEND
0
POLYLINE
8
L0D0
70
1
40
0
41
0
66
1
0
VERTEX
8
L0D0
10
-1212.5
20
18000
0
VERTEX
8
L0D0
10
-1212.5
20
19000
0
VERTEX
8
L0D0
10
-462.5
20
19000
0
VERTEX
8
L0D0
10
-462.5
20
18500
0
VERTEX
8
L0D0
10
-212.5
20
18500
0
VERTEX
8
L0D0
10
-212.5
20
18000
0
SEQEND
0
POLYLINE
8
L0D0
70
1
40
0
41
0
66
1
0
VERTEX
8
L0D0
10
11725
20
19500
0
VERTEX
8
L0D0
10
11725
20
20000
0
VERTEX
8
L0D0
10
11475
20
20000
0
VERTEX
8
L0D0
10
11475
20
20500
0
VERTEX
8
L0D0
10
12475
20
20500
0
VERTEX
8
L0D0
10
12475
20
19500
0
SEQEND
0
POLYLINE
8
L0D0
70
1
40
0
41
0
66
1
0
VERTEX
8
L0D0
10
13375
20
19500
0
VERTEX
8
L0D0
10
13375
20
20500
0
VERTEX
8
L0D0
10
14375
20
20500
0
VERTEX
8
L0D0
10
14375
20
20000
0
VERTEX
8
L0D0
10
14125
20
20000
0
VERTEX
8
L0D0
10
14125
20
19500
0
SEQEND
0
POLYLINE
8
L0D0
70
1
40
0
41
0
66
1
0
VERTEX
8
L0D0
10
9712.5
20
23000
0
VERTEX
8
L0D0
10
9712.5
20
24000
0
VERTEX
8
L0D0
10
10712.5
20
24000
0
VERTEX
8
L0D0
10
10712.5
20
23500
0
VERTEX
8
L0D0
10
10462.5
20
23500
0
VERTEX
8
L0D0
10
10462.5
20
23000
0
SEQEND
0
POLYLINE
8
L0D0
70
1
40
0
41
0
66
1
0
VERTEX
8
L0D0
10
7712.5
20
18000
0
VERTEX
8
L0D0
10
7712.5
20
18500
0
VERTEX
8
L0D0
10
7962.5
20
18500
0
VERTEX
8
L0D0
10
7962.5
20
19000
0
VERTEX
8
L0D0
10
8712.5
20
19000
0
VERTEX
8
L0D0
10
8712.5
20
18000
0
SEQEND
0
POLYLINE
8
L0D0
70
1
40
0
41
0
66
1
0
VERTEX
8
L0D0
10
11737.5
20
23000
0
VERTEX
8
L0D0
10
11737.5
20
23500
0
VERTEX
8
L0D0
10
11487.5
20
23500
0
VERTEX
8
L0D0
10
11487.5
20
24000
0
VERTEX
8
L0D0
10
12487.5
20
24000
0
VERTEX
8
L0D0
10
12487.5
20
23000
0
SEQEND
0
POLYLINE
8
L0D0
70
1
40
0
41
0
66
1
0
VERTEX
8
L0D0
10
13362.5
20
23000
0
VERTEX
8
L0D0
10
13362.5
20
24000
0
VERTEX
8
L0D0
10
14362.5
20
24000
0
VERTEX
8
L0D0
10
14362.5
20
23500
0
VERTEX
8
L0D0
10
14112.5
20
23500
0
VERTEX
8
L0D0
10
14112.5
20
23000
0
SEQEND
0
POLYLINE
8
L0D0
70
1
40
0
41
0
66
1
0
VERTEX
8
L0D0
10
13387.5
20
18000
0
VERTEX
8
L0D0
10
13387.5
20
19000
0
VERTEX
8
L0D0
10
14137.5
20
19000
0
VERTEX
8
L0D0
10
14137.5
20
18500
0
VERTEX
8
L0D0
10
14387.5
20
18500
0
VERTEX
8
L0D0
10
14387.5
20
18000
0
SEQEND
0
POLYLINE
8
L0D0
70
1
40
0
41
0
66
1
0
VERTEX
8
L0D0
10
13375
20
21500
0
VERTEX
8
L0D0
10
13375
20
22500
0
VERTEX
8
L0D0
10
14125
20
22500
0
VERTEX
8
L0D0
10
14125
20
22000
0
VERTEX
8
L0D0
10
14375
20
22000
0
VERTEX
8
L0D0
10
14375
20
21500
0
SEQEND
0
POLYLINE
8
L0D0
70
1
40
0
41
0
66
1
0
VERTEX
8
L0D0
10
7987.5
20
23000
0
VERTEX
8
L0D0
10
7987.5
20
23500
0
VERTEX
8
L0D0
10
7737.5
20
23500
0
VERTEX
8
L0D0
10
7737.5
20
24000
0
VERTEX
8
L0D0
10
8737.5
20
24000
0
VERTEX
8
L0D0
10
8737.5
20
23000
0
SEQEND
0
POLYLINE
8
L0D0
70
1
40
0
41
0
66
1
0
VERTEX
8
L0D0
10
9737.5
20
18000
0
VERTEX
8
L0D0
10
9737.5
20
19000
0
VERTEX
8
L0D0
10
10487.5
20
19000
0
VERTEX
8
L0D0
10
10487.5
20
18500
0
VERTEX
8
L0D0
10
10737.5
20
18500
0
VERTEX
8
L0D0
10
10737.5
20
18000
0
SEQEND
0
POLYLINE
8
L0D0
70
1
40
0
41
0
66
1
0
VERTEX
8
L0D0
10
7725
20
21500
0
VERTEX
8
L0D0
10
7725
20
22000
0
VERTEX
8
L0D0
10
7975
20
22000
0
VERTEX
8
L0D0
10
7975
20
22500
0
VERTEX
8
L0D0
10
8725
20
22500
0
VERTEX
8
L0D0
10
8725
20
21500
0
SEQEND
0
POLYLINE
8
L0D0
70
1
40
0
41
0
66
1
0
VERTEX
8
L0D0
10
11462.5
20
18000
0
VERTEX
8
L0D0
10
11462.5
20
18500
0
VERTEX
8
L0D0
10
11712.5
20
18500
0
VERTEX
8
L0D0
10
11712.5
20
19000
0
VERTEX
8
L0D0
10
12462.5
20
19000
0
VERTEX
8
L0D0
10
12462.5
20
18000
0
SEQEND
0
POLYLINE
8
L0D0
70
1
40
0
41
0
66
1
0
VERTEX
8
L0D0
10
7975
20
19500
0
VERTEX
8
L0D0
10
7975
20
20000
0
VERTEX
8
L0D0
10
7725
20
20000
0
VERTEX
8
L0D0
10
7725
20
20500
0
VERTEX
8
L0D0
10
8725
20
20500
0
VERTEX
8
L0D0
10
8725
20
19500
0
SEQEND
0
POLYLINE
8
L0D0
70
1
40
0
41
0
66
1
0
VERTEX
8
L0D0
10
9725
20
21500
0
VERTEX
8
L0D0
10
9725
20
22500
0
VERTEX
8
L0D0
10
10475
20
22500
0
VERTEX
8
L0D0
10
10475
20
22000
0
VERTEX
8
L0D0
10
10725
20
22000
0
VERTEX
8
L0D0
10
10725
20
21500
0
SEQEND
0
POLYLINE
8
L0D0
70
1
40
0
41
0
66
1
0
VERTEX
8
L0D0
10
9725
20
19500
0
VERTEX
8
L0D0
10
9725
20
20500
0
VERTEX
8
L0D0
10
10725
20
20500
0
VERTEX
8
L0D0
10
10725
20
20000
0
VERTEX
8
L0D0
10
10475
20
20000
0
VERTEX
8
L0D0
10
10475
20
19500
0
SEQEND
0
POLYLINE
8
L0D0
70
1
40
0
41
0
66
1
0
VERTEX
8
L0D0
10
11475
20
21500
0
VERTEX
8
L0D0
10
11475
20
22000
0
VERTEX
8
L0D0
10
11725
20
22000
0
VERTEX
8
L0D0
10
11725
20
22500
0
VERTEX
8
L0D0
10
12475
20
22500
0
VERTEX
8
L0D0
10
12475
20
21500
0
SEQEND
0
POLYLINE
8
L0D0
70
1
40
0
41
0
66
1
0
VERTEX
8
L0D0
10
6150
20
500
0
VERTEX
8
L0D0
10
6150
20
1500
0
VERTEX
8
L0D0
10
6900
20
1500
0
VERTEX
8
L0D0
10
6900
20
1000
0
VERTEX
8
L0D0
10
7150
20
1000
0
VERTEX
8
L0D0
10
7150
20
500
0
SEQEND
0
POLYLINE
8
L0D0
70
1
40
0
41
0
66
1
0
VERTEX
8
L0D0
10
6150
20
-1500
0
VERTEX
8
L0D0
10
6150
20
-500
0
VERTEX
8
L0D0
10
7150
20
-500
0
VERTEX
8
L0D0
10
7150
20
-1000
0
VERTEX
8
L0D0
10
6900
20
-1000
0
VERTEX
8
L0D0
10
6900
20
-1500
0
SEQEND
0
POLYLINE
8
L0D0
70
1
40
0
41
0
66
1
0
VERTEX
8
L0D0
10
6137.5
20
4000
0
VERTEX
8
L0D0
10
6137.5
20
5000
0
VERTEX
8
L0D0
10
6887.5
20
5000
0
VERTEX
8
L0D0
10
6887.5
20
4500
0
VERTEX
8
L0D0
10
7137.5
20
4500
0
VERTEX
8
L0D0
10
7137.5
20
4000
0
SEQEND
0
POLYLINE
8
L0D0
70
1
40
0
41
0
66
1
0
VERTEX
8
L0D0
10
6137.5
20
2000
0
VERTEX
8
L0D0
10
6137.5
20
3000
0
VERTEX
8
L0D0
10
7137.5
20
3000
0
VERTEX
8
L0D0
10
7137.5
20
2500
0
VERTEX
8
L0D0
10
6887.5
20
2500
0
VERTEX
8
L0D0
10
6887.5
20
2000
0
SEQEND
0
POLYLINE
8
L0D0
70
1
40
0
41
0
66
1
0
VERTEX
8
L0D0
10
6125
20
7500
0
VERTEX
8
L0D0
10
6125
20
8500
0
VERTEX
8
L0D0
10
6875
20
8500
0
VERTEX
8
L0D0
10
6875
20
8000
0
VERTEX
8
L0D0
10
7125
20
8000
0
VERTEX
8
L0D0
10
7125
20
7500
0
SEQEND
0
POLYLINE
8
L0D0
70
1
40
0
41
0
66
1
0
VERTEX
8
L0D0
10
6125
20
5500
0
VERTEX
8
L0D0
10
6125
20
6500
0
VERTEX
8
L0D0
10
7125
20
6500
0
VERTEX
8
L0D0
10
7125
20
6000
0
VERTEX
8
L0D0
10
6875
20
6000
0
VERTEX
8
L0D0
10
6875
20
5500
0
SEQEND
0
POLYLINE
8
L0D0
70
1
40
0
41
0
66
1
0
VERTEX
8
L0D0
10
6112.5
20
11000
0
VERTEX
8
L0D0
10
6112.5
20
12000
0
VERTEX
8
L0D0
10
6862.5
20
12000
0
VERTEX
8
L0D0
10
6862.5
20
11500
0
VERTEX
8
L0D0
10
7112.5
20
11500
0
VERTEX
8
L0D0
10
7112.5
20
11000
0
SEQEND
0
POLYLINE
8
L0D0
70
1
40
0
41
0
66
1
0
VERTEX
8
L0D0
10
6112.5
20
9000
0
VERTEX
8
L0D0
10
6112.5
20
10000
0
VERTEX
8
L0D0
10
7112.5
20
10000
0
VERTEX
8
L0D0
10
7112.5
20
9500
0
VERTEX
8
L0D0
10
6862.5
20
9500
0
VERTEX
8
L0D0
10
6862.5
20
9000
0
SEQEND
0
POLYLINE
8
L0D0
70
1
40
0
41
0
66
1
0
VERTEX
8
L0D0
10
6100
20
14500
0
VERTEX
8
L0D0
10
6100
20
15500
0
VERTEX
8
L0D0
10
6850
20
15500
0
VERTEX
8
L0D0
10
6850
20
15000
0
VERTEX
8
L0D0
10
7100
20
15000
0
VERTEX
8
L0D0
10
7100
20
14500
0
SEQEND
0
POLYLINE
8
L0D0
70
1
40
0
41
0
66
1
0
VERTEX
8
L0D0
10
6100
20
12500
0
VERTEX
8
L0D0
10
6100
20
13500
0
VERTEX
8
L0D0
10
7100
20
13500
0
VERTEX
8
L0D0
10
7100
20
13000
0
VERTEX
8
L0D0
10
6850
20
13000
0
VERTEX
8
L0D0
10
6850
20
12500
0
SEQEND
0
POLYLINE
8
L0D0
70
1
40
0
41
0
66
1
0
VERTEX
8
L0D0
10
9775
20
7500
0
VERTEX
8
L0D0
10
9775
20
8500
0
VERTEX
8
L0D0
10
10525
20
8500
0
VERTEX
8
L0D0
10
10525
20
8000
0
VERTEX
8
L0D0
10
10775
20
8000
0
VERTEX
8
L0D0
10
10775
20
7500
0
SEQEND
0
POLYLINE
8
L0D0
70
1
40
0
41
0
66
1
0
VERTEX
8
L0D0
10
11425
20
7500
0
VERTEX
8
L0D0
10
11425
20
8000
0
VERTEX
8
L0D0
10
11675
20
8000
0
VERTEX
8
L0D0
10
11675
20
8500
0
VERTEX
8
L0D0
10
12425
20
8500
0
VERTEX
8
L0D0
10
12425
20
7500
0
SEQEND
0
POLYLINE
8
L0D0
70
1
40
0
41
0
66
1
0
VERTEX
8
L0D0
10
13425
20
7500
0
VERTEX
8
L0D0
10
13425
20
8500
0
VERTEX
8
L0D0
10
14175
20
8500
0
VERTEX
8
L0D0
10
14175
20
8000
0
VERTEX
8
L0D0
10
14425
20
8000
0
VERTEX
8
L0D0
10
14425
20
7500
0
SEQEND
0
POLYLINE
8
L0D0
70
1
40
0
41
0
66
1
0
VERTEX
8
L0D0
10
9762.5
20
11000
0
VERTEX
8
L0D0
10
9762.5
20
12000
0
VERTEX
8
L0D0
10
10512.5
20
12000
0
VERTEX
8
L0D0
10
10512.5
20
11500
0
VERTEX
8
L0D0
10
10762.5
20
11500
0
VERTEX
8
L0D0
10
10762.5
20
11000
0
SEQEND
0
POLYLINE
8
L0D0
70
1
40
0
41
0
66
1
0
VERTEX
8
L0D0
10
9762.5
20
9000
0
VERTEX
8
L0D0
10
9762.5
20
10000
0
VERTEX
8
L0D0
10
10762.5
20
10000
0
VERTEX
8
L0D0
10
10762.5
20
9500
0
VERTEX
8
L0D0
10
10512.5
20
9500
0
VERTEX
8
L0D0
10
10512.5
20
9000
0
SEQEND
0
POLYLINE
8
L0D0
70
1
40
0
41
0
66
1
0
VERTEX
8
L0D0
10
13412.5
20
11000
0
VERTEX
8
L0D0
10
13412.5
20
12000
0
VERTEX
8
L0D0
10
14162.5
20
12000
0
VERTEX
8
L0D0
10
14162.5
20
11500
0
VERTEX
8
L0D0
10
14412.5
20
11500
0
VERTEX
8
L0D0
10
14412.5
20
11000
0
SEQEND
0
POLYLINE
8
L0D0
70
1
40
0
41
0
66
1
0
VERTEX
8
L0D0
10
13412.5
20
9000
0
VERTEX
8
L0D0
10
13412.5
20
10000
0
VERTEX
8
L0D0
10
14412.5
20
10000
0
VERTEX
8
L0D0
10
14412.5
20
9500
0
VERTEX
8
L0D0
10
14162.5
20
9500
0
VERTEX
8
L0D0
10
14162.5
20
9000
0
SEQEND
0
POLYLINE
8
L0D0
70
1
40
0
41
0
66
1
0
VERTEX
8
L0D0
10
13400
20
14500
0
VERTEX
8
L0D0
10
13400
20
15500
0
VERTEX
8
L0D0
10
14150
20
15500
0
VERTEX
8
L0D0
10
14150
20
15000
0
VERTEX
8
L0D0
10
14400
20
15000
0
VERTEX
8
L0D0
10
14400
20
14500
0
SEQEND
0
POLYLINE
8
L0D0
70
1
40
0
41
0
66
1
0
VERTEX
8
L0D0
10
13400
20
12500
0
VERTEX
8
L0D0
10
13400
20
13500
0
VERTEX
8
L0D0
10
14400
20
13500
0
VERTEX
8
L0D0
10
14400
20
13000
0
VERTEX
8
L0D0
10
14150
20
13000
0
VERTEX
8
L0D0
10
14150
20
12500
0
SEQEND
0
POLYLINE
8
L0D0
70
1
40
0
41
0
66
1
0
VERTEX
8
L0D0
10
11437.5
20
11000
0
VERTEX
8
L0D0
10
11437.5
20
11500
0
VERTEX
8
L0D0
10
11687.5
20
11500
0
VERTEX
8
L0D0
10
11687.5
20
12000
0
VERTEX
8
L0D0
10
12437.5
20
12000
0
VERTEX
8
L0D0
10
12437.5
20
11000
0
SEQEND
0
POLYLINE
8
L0D0
70
1
40
0
41
0
66
1
0
VERTEX
8
L0D0
10
11687.5
20
9000
0
VERTEX
8
L0D0
10
11687.5
20
9500
0
VERTEX
8
L0D0
10
11437.5
20
9500
0
VERTEX
8
L0D0
10
11437.5
20
10000
0
VERTEX
8
L0D0
10
12437.5
20
10000
0
VERTEX
8
L0D0
10
12437.5
20
9000
0
SEQEND
0
POLYLINE
8
L0D0
70
1
40
0
41
0
66
1
0
VERTEX
8
L0D0
10
7675
20
7500
0
VERTEX
8
L0D0
10
7675
20
8000
0
VERTEX
8
L0D0
10
7925
20
8000
0
VERTEX
8
L0D0
10
7925
20
8500
0
VERTEX
8
L0D0
10
8675
20
8500
0
VERTEX
8
L0D0
10
8675
20
7500
0
SEQEND
0
POLYLINE
8
L0D0
70
1
40
0
41
0
66
1
0
VERTEX
8
L0D0
10
9750
20
14500
0
VERTEX
8
L0D0
10
9750
20
15500
0
VERTEX
8
L0D0
10
10500
20
15500
0
VERTEX
8
L0D0
10
10500
20
15000
0
VERTEX
8
L0D0
10
10750
20
15000
0
VERTEX
8
L0D0
10
10750
20
14500
0
SEQEND
0
POLYLINE
8
L0D0
70
1
40
0
41
0
66
1
0
VERTEX
8
L0D0
10
9750
20
12500
0
VERTEX
8
L0D0
10
9750
20
13500
0
VERTEX
8
L0D0
10
10750
20
13500
0
VERTEX
8
L0D0
10
10750
20
13000
0
VERTEX
8
L0D0
10
10500
20
13000
0
VERTEX
8
L0D0
10
10500
20
12500
0
SEQEND
0
POLYLINE
8
L0D0
70
1
40
0
41
0
66
1
0
VERTEX
8
L0D0
10
7687.5
20
11000
0
VERTEX
8
L0D0
10
7687.5
20
11500
0
VERTEX
8
L0D0
10
7937.5
20
11500
0
VERTEX
8
L0D0
10
7937.5
20
12000
0
VERTEX
8
L0D0
10
8687.5
20
12000
0
VERTEX
8
L0D0
10
8687.5
20
11000
0
SEQEND
0
POLYLINE
8
L0D0
70
1
40
0
41
0
66
1
0
VERTEX
8
L0D0
10
7937.5
20
9000
0
VERTEX
8
L0D0
10
7937.5
20
9500
0
VERTEX
8
L0D0
10
7687.5
20
9500
0
VERTEX
8
L0D0
10
7687.5
20
10000
0
VERTEX
8
L0D0
10
8687.5
20
10000
0
VERTEX
8
L0D0
10
8687.5
20
9000
0
SEQEND
0
POLYLINE
8
L0D0
70
1
40
0
41
0
66
1
0
VERTEX
8
L0D0
10
11450
20
14500
0
VERTEX
8
L0D0
10
11450
20
15000
0
VERTEX
8
L0D0
10
11700
20
15000
0
VERTEX
8
L0D0
10
11700
20
15500
0
VERTEX
8
L0D0
10
12450
20
15500
0
VERTEX
8
L0D0
10
12450
20
14500
0
SEQEND
0
POLYLINE
8
L0D0
70
1
40
0
41
0
66
1
0
VERTEX
8
L0D0
10
11700
20
12500
0
VERTEX
8
L0D0
10
11700
20
13000
0
VERTEX
8
L0D0
10
11450
20
13000
0
VERTEX
8
L0D0
10
11450
20
13500
0
VERTEX
8
L0D0
10
12450
20
13500
0
VERTEX
8
L0D0
10
12450
20
12500
0
SEQEND
0
POLYLINE
8
L0D0
70
1
40
0
41
0
66
1
0
VERTEX
8
L0D0
10
7700
20
14500
0
VERTEX
8
L0D0
10
7700
20
15000
0
VERTEX
8
L0D0
10
7950
20
15000
0
VERTEX
8
L0D0
10
7950
20
15500
0
VERTEX
8
L0D0
10
8700
20
15500
0
VERTEX
8
L0D0
10
8700
20
14500
0
SEQEND
0
POLYLINE
8
L0D0
70
1
40
0
41
0
66
1
0
VERTEX
8
L0D0
10
7950
20
12500
0
VERTEX
8
L0D0
10
7950
20
13000
0
VERTEX
8
L0D0
10
7700
20
13000
0
VERTEX
8
L0D0
10
7700
20
13500
0
VERTEX
8
L0D0
10
8700
20
13500
0
VERTEX
8
L0D0
10
8700
20
12500
0
SEQEND
0
POLYLINE
8
L0D0
70
1
40
0
41
0
66
1
0
VERTEX
8
L0D0
10
2450
20
14500
0
VERTEX
8
L0D0
10
2450
20
15500
0
VERTEX
8
L0D0
10
3200
20
15500
0
VERTEX
8
L0D0
10
3200
20
15000
0
VERTEX
8
L0D0
10
3450
20
15000
0
VERTEX
8
L0D0
10
3450
20
14500
0
SEQEND
0
POLYLINE
8
L0D0
70
1
40
0
41
0
66
1
0
VERTEX
8
L0D0
10
2450
20
12500
0
VERTEX
8
L0D0
10
2450
20
13500
0
VERTEX
8
L0D0
10
3450
20
13500
0
VERTEX
8
L0D0
10
3450
20
13000
0
VERTEX
8
L0D0
10
3200
20
13000
0
VERTEX
8
L0D0
10
3200
20
12500
0
SEQEND
0
POLYLINE
8
L0D0
70
1
40
0
41
0
66
1
0
VERTEX
8
L0D0
10
3950
20
14500
0
VERTEX
8
L0D0
10
3950
20
15000
0
VERTEX
8
L0D0
10
4200
20
15000
0
VERTEX
8
L0D0
10
4200
20
15500
0
VERTEX
8
L0D0
10
4950
20
15500
0
VERTEX
8
L0D0
10
4950
20
14500
0
SEQEND
0
POLYLINE
8
L0D0
70
1
40
0
41
0
66
1
0
VERTEX
8
L0D0
10
4200
20
12500
0
VERTEX
8
L0D0
10
4200
20
13000
0
VERTEX
8
L0D0
10
3950
20
13000
0
VERTEX
8
L0D0
10
3950
20
13500
0
VERTEX
8
L0D0
10
4950
20
13500
0
VERTEX
8
L0D0
10
4950
20
12500
0
SEQEND
0
POLYLINE
8
L0D0
70
1
40
0
41
0
66
1
0
VERTEX
8
L0D0
10
2462.5
20
11000
0
VERTEX
8
L0D0
10
2462.5
20
12000
0
VERTEX
8
L0D0
10
3212.5
20
12000
0
VERTEX
8
L0D0
10
3212.5
20
11500
0
VERTEX
8
L0D0
10
3462.5
20
11500
0
VERTEX
8
L0D0
10
3462.5
20
11000
0
SEQEND
0
POLYLINE
8
L0D0
70
1
40
0
41
0
66
1
0
VERTEX
8
L0D0
10
2462.5
20
9000
0
VERTEX
8
L0D0
10
2462.5
20
10000
0
VERTEX
8
L0D0
10
3462.5
20
10000
0
VERTEX
8
L0D0
10
3462.5
20
9500
0
VERTEX
8
L0D0
10
3212.5
20
9500
0
VERTEX
8
L0D0
10
3212.5
20
9000
0
SEQEND
0
POLYLINE
8
L0D0
70
1
40
0
41
0
66
1
0
VERTEX
8
L0D0
10
-1175
20
7500
0
VERTEX
8
L0D0
10
-1175
20
8500
0
VERTEX
8
L0D0
10
-425
20
8500
0
VERTEX
8
L0D0
10
-425
20
8000
0
VERTEX
8
L0D0
10
-175
20
8000
0
VERTEX
8
L0D0
10
-175
20
7500
0
SEQEND
0
POLYLINE
8
L0D0
70
1
40
0
41
0
66
1
0
VERTEX
8
L0D0
10
175
20
7500
0
VERTEX
8
L0D0
10
175
20
8000
0
VERTEX
8
L0D0
10
425
20
8000
0
VERTEX
8
L0D0
10
425
20
8500
0
VERTEX
8
L0D0
10
1175
20
8500
0
VERTEX
8
L0D0
10
1175
20
7500
0
SEQEND
0
POLYLINE
8
L0D0
70
1
40
0
41
0
66
1
0
VERTEX
8
L0D0
10
-1187.5
20
11000
0
VERTEX
8
L0D0
10
-1187.5
20
12000
0
VERTEX
8
L0D0
10
-437.5
20
12000
0
VERTEX
8
L0D0
10
-437.5
20
11500
0
VERTEX
8
L0D0
10
-187.5
20
11500
0
VERTEX
8
L0D0
10
-187.5
20
11000
0
SEQEND
0
POLYLINE
8
L0D0
70
1
40
0
41
0
66
1
0
VERTEX
8
L0D0
10
-1187.5
20
9000
0
VERTEX
8
L0D0
10
-1187.5
20
10000
0
VERTEX
8
L0D0
10
-187.5
20
10000
0
VERTEX
8
L0D0
10
-187.5
20
9500
0
VERTEX
8
L0D0
10
-437.5
20
9500
0
VERTEX
8
L0D0
10
-437.5
20
9000
0
SEQEND
0
POLYLINE
8
L0D0
70
1
40
0
41
0
66
1
0
VERTEX
8
L0D0
10
187.5
20
11000
0
VERTEX
8
L0D0
10
187.5
20
11500
0
VERTEX
8
L0D0
10
437.5
20
11500
0
VERTEX
8
L0D0
10
437.5
20
12000
0
VERTEX
8
L0D0
10
1187.5
20
12000
0
VERTEX
8
L0D0
10
1187.5
20
11000
0
SEQEND
0
POLYLINE
8
L0D0
70
1
40
0
41
0
66
1
0
VERTEX
8
L0D0
10
437.5
20
9000
0
VERTEX
8
L0D0
10
437.5
20
9500
0
VERTEX
8
L0D0
10
187.5
20
9500
0
VERTEX
8
L0D0
10
187.5
20
10000
0
VERTEX
8
L0D0
10
1187.5
20
10000
0
VERTEX
8
L0D0
10
1187.5
20
9000
0
SEQEND
0
POLYLINE
8
L0D0
70
1
40
0
41
0
66
1
0
VERTEX
8
L0D0
10
-1200
20
14500
0
VERTEX
8
L0D0
10
-1200
20
15500
0
VERTEX
8
L0D0
10
-450
20
15500
0
VERTEX
8
L0D0
10
-450
20
15000
0
VERTEX
8
L0D0
10
-200
20
15000
0
VERTEX
8
L0D0
10
-200
20
14500
0
SEQEND
0
POLYLINE
8
L0D0
70
1
40
0
41
0
66
1
0
VERTEX
8
L0D0
10
-3040.278
20
7444.444
0
VERTEX
8
L0D0
10
-3040.278
20
7666.667
0
VERTEX
8
L0D0
10
-2818.056
20
7666.667
0
VERTEX
8
L0D0
10
-2818.056
20
7888.889
0
VERTEX
8
L0D0
10
-2818.056
20
8111.111
0
VERTEX
8
L0D0
10
-2818.056
20
8333.333
0
VERTEX
8
L0D0
10
-2818.056
20
8555.556
0
VERTEX
8
L0D0
10
-3040.278
20
8555.556
0
VERTEX
8
L0D0
10
-3040.278
20
8777.778
0
VERTEX
8
L0D0
10
-2818.056
20
8777.778
0
VERTEX
8
L0D0
10
-2818.056
20
9000
0
VERTEX
8
L0D0
10
-2595.833
20
9000
0
VERTEX
8
L0D0
10
-2595.833
20
8777.778
0
VERTEX
8
L0D0
10
-2595.833
20
8555.556
0
VERTEX
8
L0D0
10
-2595.833
20
8333.333
0
VERTEX
8
L0D0
10
-2595.833
20
8111.111
0
VERTEX
8
L0D0
10
-2595.833
20
7888.889
0
VERTEX
8
L0D0
10
-2595.833
20
7666.667
0
VERTEX
8
L0D0
10
-2373.611
20
7666.667
0
VERTEX
8
L0D0
10
-2373.611
20
7444.444
0
VERTEX
8
L0D0
10
-2595.833
20
7444.444
0
VERTEX
8
L0D0
10
-2818.056
20
7444.444
0
SEQEND
0
POLYLINE
8
L0D0
70
1
40
0
41
0
66
1
0
VERTEX
8
L0D0
10
-3262.5
20
14444.444
0
VERTEX
8
L0D0
10
-3262.5
20
14666.667
0
VERTEX
8
L0D0
10
-3262.5
20
14888.889
0
VERTEX
8
L0D0
10
-3040.278
20
14888.889
0
VERTEX
8
L0D0
10
-3040.278
20
14666.667
0
VERTEX
8
L0D0
10
-2818.056
20
14666.667
0
VERTEX
8
L0D0
10
-2595.833
20
14666.667
0
VERTEX
8
L0D0
10
-2373.611
20
14666.667
0
VERTEX
8
L0D0
10
-2151.389
20
14666.667
0
VERTEX
8
L0D0
10
-2151.389
20
14444.444
0
VERTEX
8
L0D0
10
-2373.611
20
14444.444
0
VERTEX
8
L0D0
10
-2595.833
20
14444.444
0
VERTEX
8
L0D0
10
-2818.056
20
14444.444
0
VERTEX
8
L0D0
10
-3040.278
20
14444.444
0
SEQEND
0
POLYLINE
8
L0D0
70
1
40
0
41
0
66
1
0
VERTEX
8
L0D0
10
-3040.278
20
14888.889
0
VERTEX
8
L0D0
10
-3040.278
20
15111.111
0
VERTEX
8
L0D0
10
-2818.056
20
15111.111
0
VERTEX
8
L0D0
10
-2595.833
20
15111.111
0
VERTEX
8
L0D0
10
-2595.833
20
14888.889
0
VERTEX
8
L0D0
10
-2818.056
20
14888.889
0
SEQEND
0
POLYLINE
8
L0D0
70
1
40
0
41
0
66
1
0
VERTEX
8
L0D0
10
-3040.278
20
15777.778
0
VERTEX
8
L0D0
10
-3040.278
20
16000
0
VERTEX
8
L0D0
10
-2818.056
20
16000
0
VERTEX
8
L0D0
10
-2595.833
20
16000
0
VERTEX
8
L0D0
10
-2373.611
20
16000
0
VERTEX
8
L0D0
10
-2373.611
20
15777.778
0
VERTEX
8
L0D0
10
-2595.833
20
15777.778
0
VERTEX
8
L0D0
10
-2818.056
20
15777.778
0
SEQEND
0
POLYLINE
8
L0D0
70
1
40
0
41
0
66
1
0
VERTEX
8
L0D0
10
-2373.611
20
15333.333
0
VERTEX
8
L0D0
10
-2373.611
20
15555.556
0
VERTEX
8
L0D0
10
-2373.611
20
15777.778
0
VERTEX
8
L0D0
10
-2151.389
20
15777.778
0
VERTEX
8
L0D0
10
-2151.389
20
15555.556
0
VERTEX
8
L0D0
10
-2151.389
20
15333.333
0
SEQEND
0
POLYLINE
8
L0D0
70
1
40
0
41
0
66
1
0
VERTEX
8
L0D0
10
-3262.5
20
12222.222
0
VERTEX
8
L0D0
10
-3262.5
20
12444.444
0
VERTEX
8
L0D0
10
-3262.5
20
12666.667
0
VERTEX
8
L0D0
10
-3262.5
20
12888.889
0
VERTEX
8
L0D0
10
-3262.5
20
13111.111
0
VERTEX
8
L0D0
10
-3262.5
20
13333.333
0
VERTEX
8
L0D0
10
-3040.278
20
13333.333
0
VERTEX
8
L0D0
10
-3040.278
20
13111.111
0
VERTEX
8
L0D0
10
-3040.278
20
12888.889
0
VERTEX
8
L0D0
10
-3040.278
20
12666.667
0
VERTEX
8
L0D0
10
-2818.056
20
12666.667
0
VERTEX
8
L0D0
10
-2818.056
20
12444.444
0
VERTEX
8
L0D0
10
-3040.278
20
12444.444
0
VERTEX
8
L0D0
10
-3040.278
20
12222.222
0
SEQEND
0
POLYLINE
8
L0D0
70
1
40
0
41
0
66
1
0
VERTEX
8
L0D0
10
-3040.278
20
12000
0
VERTEX
8
L0D0
10
-3040.278
20
12222.222
0
VERTEX
8
L0D0
10
-2818.056
20
12222.222
0
VERTEX
8
L0D0
10
-2595.833
20
12222.222
0
VERTEX
8
L0D0
10
-2373.611
20
12222.222
0
VERTEX
8
L0D0
10
-2373.611
20
12000
0
VERTEX
8
L0D0
10
-2595.833
20
12000
0
VERTEX
8
L0D0
10
-2818.056
20
12000
0
SEQEND
0
POLYLINE
8
L0D0
70
1
40
0
41
0
66
1
0
VERTEX
8
L0D0
10
-3040.278
20
13333.333
0
VERTEX
8
L0D0
10
-3040.278
20
13555.556
0
VERTEX
8
L0D0
10
-2818.056
20
13555.556
0
VERTEX
8
L0D0
10
-2595.833
20
13555.556
0
VERTEX
8
L0D0
10
-2373.611
20
13555.556
0
VERTEX
8
L0D0
10
-2373.611
20
13333.333
0
VERTEX
8
L0D0
10
-2595.833
20
13333.333
0
VERTEX
8
L0D0
10
-2818.056
20
13333.333
0
SEQEND
0
POLYLINE
8
L0D0
70
1
40
0
41
0
66
1
0
VERTEX
8
L0D0
10
-2373.611
20
12222.222
0
VERTEX
8
L0D0
10
-2373.611
20
12444.444
0
VERTEX
8
L0D0
10
-2373.611
20
12666.667
0
VERTEX
8
L0D0
10
-2373.611
20
12888.889
0
VERTEX
8
L0D0
10
-2595.833
20
12888.889
0
VERTEX
8
L0D0
10
-2595.833
20
13111.111
0
VERTEX
8
L0D0
10
-2373.611
20
13111.111
0
VERTEX
8
L0D0
10
-2373.611
20
13333.333
0
VERTEX
8
L0D0
10
-2151.389
20
13333.333
0
VERTEX
8
L0D0
10
-2151.389
20
13111.111
0
VERTEX
8
L0D0
10
-2151.389
20
12888.889
0
VERTEX
8
L0D0
10
-2151.389
20
12666.667
0
VERTEX
8
L0D0
10
-2151.389
20
12444.444
0
VERTEX
8
L0D0
10
-2151.389
20
12222.222
0
SEQEND
0
POLYLINE
8
L0D0
70
1
40
0
41
0
66
1
0
VERTEX
8
L0D0
10
-1200
20
12500
0
VERTEX
8
L0D0
10
-1200
20
13500
0
VERTEX
8
L0D0
10
-200
20
13500
0
VERTEX
8
L0D0
10
-200
20
13000
0
VERTEX
8
L0D0
10
-450
20
13000
0
VERTEX
8
L0D0
10
-450
20
12500
0
SEQEND
0
POLYLINE
8
L0D0
70
1
40
0
41
0
66
1
0
VERTEX
8
L0D0
10
200
20
14500
0
VERTEX
8
L0D0
10
200
20
15000
0
VERTEX
8
L0D0
10
450
20
15000
0
VERTEX
8
L0D0
10
450
20
15500
0
VERTEX
8
L0D0
10
1200
20
15500
0
VERTEX
8
L0D0
10
1200
20
14500
0
SEQEND
0
POLYLINE
8
L0D0
70
1
40
0
41
0
66
1
0
VERTEX
8
L0D0
10
450
20
12500
0
VERTEX
8
L0D0
10
450
20
13000
0
VERTEX
8
L0D0
10
200
20
13000
0
VERTEX
8
L0D0
10
200
20
13500
0
VERTEX
8
L0D0
10
1200
20
13500
0
VERTEX
8
L0D0
10
1200
20
12500
0
SEQEND
0
POLYLINE
8
L0D0
70
1
40
0
41
0
66
1
0
VERTEX
8
L0D0
10
3937.5
20
11000
0
VERTEX
8
L0D0
10
3937.5
20
11500
0
VERTEX
8
L0D0
10
4187.5
20
11500
0
VERTEX
8
L0D0
10
4187.5
20
12000
0
VERTEX
8
L0D0
10
4937.5
20
12000
0
VERTEX
8
L0D0
10
4937.5
20
11000
0
SEQEND
0
POLYLINE
8
L0D0
70
1
40
0
41
0
66
1
0
VERTEX
8
L0D0
10
4187.5
20
9000
0
VERTEX
8
L0D0
10
4187.5
20
9500
0
VERTEX
8
L0D0
10
3937.5
20
9500
0
VERTEX
8
L0D0
10
3937.5
20
10000
0
VERTEX
8
L0D0
10
4937.5
20
10000
0
VERTEX
8
L0D0
10
4937.5
20
9000
0
SEQEND
0
POLYLINE
8
L0D0
70
1
40
0
41
0
66
1
0
VERTEX
8
L0D0
10
2475
20
7500
0
VERTEX
8
L0D0
10
2475
20
8500
0
VERTEX
8
L0D0
10
3225
20
8500
0
VERTEX
8
L0D0
10
3225
20
8000
0
VERTEX
8
L0D0
10
3475
20
8000
0
VERTEX
8
L0D0
10
3475
20
7500
0
SEQEND
0
POLYLINE
8
L0D0
70
1
40
0
41
0
66
1
0
VERTEX
8
L0D0
10
3925
20
7500
0
VERTEX
8
L0D0
10
3925
20
8000
0
VERTEX
8
L0D0
10
4175
20
8000
0
VERTEX
8
L0D0
10
4175
20
8500
0
VERTEX
8
L0D0
10
4925
20
8500
0
VERTEX
8
L0D0
10
4925
20
7500
0
SEQEND
0
POLYLINE
8
L0D0
70
1
40
0
41
0
66
1
0
VERTEX
8
L0D0
10
150
20
500
0
VERTEX
8
L0D0
10
150
20
1000
0
VERTEX
8
L0D0
10
400
20
1000
0
VERTEX
8
L0D0
10
400
20
1500
0
VERTEX
8
L0D0
10
1150
20
1500
0
VERTEX
8
L0D0
10
1150
20
500
0
SEQEND
0
POLYLINE
8
L0D0
70
1
40
0
41
0
66
1
0
VERTEX
8
L0D0
10
-3262.5
20
5000
0
VERTEX
8
L0D0
10
-3262.5
20
5222.222
0
VERTEX
8
L0D0
10
-3040.278
20
5222.222
0
VERTEX
8
L0D0
10
-2818.056
20
5222.222
0
VERTEX
8
L0D0
10
-2595.833
20
5222.222
0
VERTEX
8
L0D0
10
-2373.611
20
5222.222
0
VERTEX
8
L0D0
10
-2373.611
20
5000
0
VERTEX
8
L0D0
10
-2595.833
20
5000
0
VERTEX
8
L0D0
10
-2818.056
20
5000
0
VERTEX
8
L0D0
10
-3040.278
20
5000
0
SEQEND
0
POLYLINE
8
L0D0
70
1
40
0
41
0
66
1
0
VERTEX
8
L0D0
10
-3262.5
20
5666.667
0
VERTEX
8
L0D0
10
-3262.5
20
5888.889
0
VERTEX
8
L0D0
10
-3262.5
20
6111.111
0
VERTEX
8
L0D0
10
-3262.5
20
6333.333
0
VERTEX
8
L0D0
10
-3262.5
20
6555.556
0
VERTEX
8
L0D0
10
-3040.278
20
6555.556
0
VERTEX
8
L0D0
10
-2818.056
20
6555.556
0
VERTEX
8
L0D0
10
-2595.833
20
6555.556
0
VERTEX
8
L0D0
10
-2373.611
20
6555.556
0
VERTEX
8
L0D0
10
-2151.389
20
6555.556
0
VERTEX
8
L0D0
10
-2151.389
20
6333.333
0
VERTEX
8
L0D0
10
-2373.611
20
6333.333
0
VERTEX
8
L0D0
10
-2595.833
20
6333.333
0
VERTEX
8
L0D0
10
-2818.056
20
6333.333
0
VERTEX
8
L0D0
10
-3040.278
20
6333.333
0
VERTEX
8
L0D0
10
-3040.278
20
6111.111
0
VERTEX
8
L0D0
10
-3040.278
20
5888.889
0
VERTEX
8
L0D0
10
-2818.056
20
5888.889
0
VERTEX
8
L0D0
10
-2595.833
20
5888.889
0
VERTEX
8
L0D0
10
-2373.611
20
5888.889
0
VERTEX
8
L0D0
10
-2373.611
20
5666.667
0
VERTEX
8
L0D0
10
-2595.833
20
5666.667
0
VERTEX
8
L0D0
10
-2818.056
20
5666.667
0
VERTEX
8
L0D0
10
-3040.278
20
5666.667
0
SEQEND
0
POLYLINE
8
L0D0
70
1
40
0
41
0
66
1
0
VERTEX
8
L0D0
10
-2373.611
20
5222.222
0
VERTEX
8
L0D0
10
-2373.611
20
5444.444
0
VERTEX
8
L0D0
10
-2373.611
20
5666.667
0
VERTEX
8
L0D0
10
-2151.389
20
5666.667
0
VERTEX
8
L0D0
10
-2151.389
20
5444.444
0
VERTEX
8
L0D0
10
-2151.389
20
5222.222
0
SEQEND
0
POLYLINE
8
L0D0
70
1
40
0
41
0
66
1
0
VERTEX
8
L0D0
10
400
20
-1500
0
VERTEX
8
L0D0
10
400
20
-1000
0
VERTEX
8
L0D0
10
150
20
-1000
0
VERTEX
8
L0D0
10
150
20
-500
0
VERTEX
8
L0D0
10
1150
20
-500
0
VERTEX
8
L0D0
10
1150
20
-1500
0
SEQEND
0
POLYLINE
8
L0D0
70
1
40
0
41
0
66
1
0
VERTEX
8
L0D0
10
-1162.5
20
4000
0
VERTEX
8
L0D0
10
-1162.5
20
5000
0
VERTEX
8
L0D0
10
-412.5
20
5000
0
VERTEX
8
L0D0
10
-412.5
20
4500
0
VERTEX
8
L0D0
10
-162.5
20
4500
0
VERTEX
8
L0D0
10
-162.5
20
4000
0
SEQEND
0
POLYLINE
8
L0D0
70
1
40
0
41
0
66
1
0
VERTEX
8
L0D0
10
-1162.5
20
2000
0
VERTEX
8
L0D0
10
-1162.5
20
3000
0
VERTEX
8
L0D0
10
-162.5
20
3000
0
VERTEX
8
L0D0
10
-162.5
20
2500
0
VERTEX
8
L0D0
10
-412.5
20
2500
0
VERTEX
8
L0D0
10
-412.5
20
2000
0
SEQEND
0
POLYLINE
8
L0D0
70
1
40
0
41
0
66
1
0
VERTEX
8
L0D0
10
162.5
20
4000
0
VERTEX
8
L0D0
10
162.5
20
4500
0
VERTEX
8
L0D0
10
412.5
20
4500
0
VERTEX
8
L0D0
10
412.5
20
5000
0
VERTEX
8
L0D0
10
1162.5
20
5000
0
VERTEX
8
L0D0
10
1162.5
20
4000
0
SEQEND
0
POLYLINE
8
L0D0
70
1
40
0
41
0
66
1
0
VERTEX
8
L0D0
10
412.5
20
2000
0
VERTEX
8
L0D0
10
412.5
20
2500
0
VERTEX
8
L0D0
10
162.5
20
2500
0
VERTEX
8
L0D0
10
162.5
20
3000
0
VERTEX
8
L0D0
10
1162.5
20
3000
0
VERTEX
8
L0D0
10
1162.5
20
2000
0
SEQEND
0
POLYLINE
8
L0D0
70
1
40
0
41
0
66
1
0
VERTEX
8
L0D0
10
4175
20
5500
0
VERTEX
8
L0D0
10
4175
20
6000
0
VERTEX
8
L0D0
10
3925
20
6000
0
VERTEX
8
L0D0
10
3925
20
6500
0
VERTEX
8
L0D0
10
4925
20
6500
0
VERTEX
8
L0D0
10
4925
20
5500
0
SEQEND
0
POLYLINE
8
L0D0
70
1
40
0
41
0
66
1
0
VERTEX
8
L0D0
10
-1175
20
5500
0
VERTEX
8
L0D0
10
-1175
20
6500
0
VERTEX
8
L0D0
10
-175
20
6500
0
VERTEX
8
L0D0
10
-175
20
6000
0
VERTEX
8
L0D0
10
-425
20
6000
0
VERTEX
8
L0D0
10
-425
20
5500
0
SEQEND
0
POLYLINE
8
L0D0
70
1
40
0
41
0
66
1
0
VERTEX
8
L0D0
10
-1150
20
500
0
VERTEX
8
L0D0
10
-1150
20
1500
0
VERTEX
8
L0D0
10
-400
20
1500
0
VERTEX
8
L0D0
10
-400
20
1000
0
VERTEX
8
L0D0
10
-150
20
1000
0
VERTEX
8
L0D0
10
-150
20
500
0
SEQEND
0
POLYLINE
8
L0D0
70
1
40
0
41
0
66
1
0
VERTEX
8
L0D0
10
425
20
5500
0
VERTEX
8
L0D0
10
425
20
6000
0
VERTEX
8
L0D0
10
175
20
6000
0
VERTEX
8
L0D0
10
175
20
6500
0
VERTEX
8
L0D0
10
1175
20
6500
0
VERTEX
8
L0D0
10
1175
20
5500
0
SEQEND
0
POLYLINE
8
L0D0
70
1
40
0
41
0
66
1
0
VERTEX
8
L0D0
10
-1150
20
-1500
0
VERTEX
8
L0D0
10
-1150
20
-500
0
VERTEX
8
L0D0
10
-150
20
-500
0
VERTEX
8
L0D0
10
-150
20
-1000
0
VERTEX
8
L0D0
10
-400
20
-1000
0
VERTEX
8
L0D0
10
-400
20
-1500
0
SEQEND
0
POLYLINE
8
L0D0
70
1
40
0
41
0
66
1
0
VERTEX
8
L0D0
10
-3040.278
20
444.444
0
VERTEX
8
L0D0
10
-3040.278
20
666.667
0
VERTEX
8
L0D0
10
-2818.056
20
666.667
0
VERTEX
8
L0D0
10
-2818.056
20
888.889
0
VERTEX
8
L0D0
10
-2818.056
20
1111.111
0
VERTEX
8
L0D0
10
-2818.056
20
1333.333
0
VERTEX
8
L0D0
10
-2818.056
20
1555.556
0
VERTEX
8
L0D0
10
-3040.278
20
1555.556
0
VERTEX
8
L0D0
10
-3040.278
20
1777.778
0
VERTEX
8
L0D0
10
-2818.056
20
1777.778
0
VERTEX
8
L0D0
10
-2818.056
20
2000
0
VERTEX
8
L0D0
10
-2595.833
20
2000
0
VERTEX
8
L0D0
10
-2595.833
20
1777.778
0
VERTEX
8
L0D0
10
-2595.833
20
1555.556
0
VERTEX
8
L0D0
10
-2595.833
20
1333.333
0
VERTEX
8
L0D0
10
-2595.833
20
1111.111
0
VERTEX
8
L0D0
10
-2595.833
20
888.889
0
VERTEX
8
L0D0
10
-2595.833
20
666.667
0
VERTEX
8
L0D0
10
-2373.611
20
666.667
0
VERTEX
8
L0D0
10
-2373.611
20
444.444
0
VERTEX
8
L0D0
10
-2595.833
20
444.444
0
VERTEX
8
L0D0
10
-2818.056
20
444.444
0
SEQEND
0
POLYLINE
8
L0D0
70
1
40
0
41
0
66
1
0
VERTEX
8
L0D0
10
-3262.5
20
-1777.778
0
VERTEX
8
L0D0
10
-3262.5
20
-1555.556
0
VERTEX
8
L0D0
10
-3262.5
20
-1333.333
0
VERTEX
8
L0D0
10
-3262.5
20
-1111.111
0
VERTEX
8
L0D0
10
-3262.5
20
-888.889
0
VERTEX
8
L0D0
10
-3262.5
20
-666.667
0
VERTEX
8
L0D0
10
-3040.278
20
-666.667
0
VERTEX
8
L0D0
10
-3040.278
20
-888.889
0
VERTEX
8
L0D0
10
-3040.278
20
-1111.111
0
VERTEX
8
L0D0
10
-3040.278
20
-1333.333
0
VERTEX
8
L0D0
10
-2818.056
20
-1333.333
0
VERTEX
8
L0D0
10
-2818.056
20
-1555.556
0
VERTEX
8
L0D0
10
-3040.278
20
-1555.556
0
VERTEX
8
L0D0
10
-3040.278
20
-1777.778
0
SEQEND
0
POLYLINE
8
L0D0
70
1
40
0
41
0
66
1
0
VERTEX
8
L0D0
10
-3040.278
20
-2000
0
VERTEX
8
L0D0
10
-3040.278
20
-1777.778
0
VERTEX
8
L0D0
10
-2818.056
20
-1777.778
0
VERTEX
8
L0D0
10
-2595.833
20
-1777.778
0
VERTEX
8
L0D0
10
-2373.611
20
-1777.778
0
VERTEX
8
L0D0
10
-2373.611
20
-2000
0
VERTEX
8
L0D0
10
-2595.833
20
-2000
0
VERTEX
8
L0D0
10
-2818.056
20
-2000
0
SEQEND
0
POLYLINE
8
L0D0
70
1
40
0
41
0
66
1
0
VERTEX
8
L0D0
10
2500
20
500
0
VERTEX
8
L0D0
10
2500
20
1500
0
VERTEX
8
L0D0
10
3250
20
1500
0
VERTEX
8
L0D0
10
3250
20
1000
0
VERTEX
8
L0D0
10
3500
20
1000
0
VERTEX
8
L0D0
10
3500
20
500
0
SEQEND
0
POLYLINE
8
L0D0
70
1
40
0
41
0
66
1
0
VERTEX
8
L0D0
10
2500
20
-1500
0
VERTEX
8
L0D0
10
2500
20
-500
0
VERTEX
8
L0D0
10
3500
20
-500
0
VERTEX
8
L0D0
10
3500
20
-1000
0
VERTEX
8
L0D0
10
3250
20
-1000
0
VERTEX
8
L0D0
10
3250
20
-1500
0
SEQEND
0
POLYLINE
8
L0D0
70
1
40
0
41
0
66
1
0
VERTEX
8
L0D0
10
3900
20
500
0
VERTEX
8
L0D0
10
3900
20
1000
0
VERTEX
8
L0D0
10
4150
20
1000
0
VERTEX
8
L0D0
10
4150
20
1500
0
VERTEX
8
L0D0
10
4900
20
1500
0
VERTEX
8
L0D0
10
4900
20
500
0
SEQEND
0
POLYLINE
8
L0D0
70
1
40
0
41
0
66
1
0
VERTEX
8
L0D0
10
4150
20
-1500
0
VERTEX
8
L0D0
10
4150
20
-1000
0
VERTEX
8
L0D0
10
3900
20
-1000
0
VERTEX
8
L0D0
10
3900
20
-500
0
VERTEX
8
L0D0
10
4900
20
-500
0
VERTEX
8
L0D0
10
4900
20
-1500
0
SEQEND
0
POLYLINE
8
L0D0
70
1
40
0
41
0
66
1
0
VERTEX
8
L0D0
10
2487.5
20
4000
0
VERTEX
8
L0D0
10
2487.5
20
5000
0
VERTEX
8
L0D0
10
3237.5
20
5000
0
VERTEX
8
L0D0
10
3237.5
20
4500
0
VERTEX
8
L0D0
10
3487.5
20
4500
0
VERTEX
8
L0D0
10
3487.5
20
4000
0
SEQEND
0
POLYLINE
8
L0D0
70
1
40
0
41
0
66
1
0
VERTEX
8
L0D0
10
2487.5
20
2000
0
VERTEX
8
L0D0
10
2487.5
20
3000
0
VERTEX
8
L0D0
10
3487.5
20
3000
0
VERTEX
8
L0D0
10
3487.5
20
2500
0
VERTEX
8
L0D0
10
3237.5
20
2500
0
VERTEX
8
L0D0
10
3237.5
20
2000
0
SEQEND
0
POLYLINE
8
L0D0
70
1
40
0
41
0
66
1
0
VERTEX
8
L0D0
10
3912.5
20
4000
0
VERTEX
8
L0D0
10
3912.5
20
4500
0
VERTEX
8
L0D0
10
4162.5
20
4500
0
VERTEX
8
L0D0
10
4162.5
20
5000
0
VERTEX
8
L0D0
10
4912.5
20
5000
0
VERTEX
8
L0D0
10
4912.5
20
4000
0
SEQEND
0
POLYLINE
8
L0D0
70
1
40
0
41
0
66
1
0
VERTEX
8
L0D0
10
4162.5
20
2000
0
VERTEX
8
L0D0
10
4162.5
20
2500
0
VERTEX
8
L0D0
10
3912.5
20
2500
0
VERTEX
8
L0D0
10
3912.5
20
3000
0
VERTEX
8
L0D0
10
4912.5
20
3000
0
VERTEX
8
L0D0
10
4912.5
20
2000
0
SEQEND
0
POLYLINE
8
L0D0
70
1
40
0
41
0
66
1
0
VERTEX
8
L0D0
10
-3040.278
20
-666.667
0
VERTEX
8
L0D0
10
-3040.278
20
-444.444
0
VERTEX
8
L0D0
10
-2818.056
20
-444.444
0
VERTEX
8
L0D0
10
-2595.833
20
-444.444
0
VERTEX
8
L0D0
10
-2373.611
20
-444.444
0
VERTEX
8
L0D0
10
-2373.611
20
-666.667
0
VERTEX
8
L0D0
10
-2595.833
20
-666.667
0
VERTEX
8
L0D0
10
-2818.056
20
-666.667
0
SEQEND
0
POLYLINE
8
L0D0
70
1
40
0
41
0
66
1
0
VERTEX
8
L0D0
10
2475
20
5500
0
VERTEX
8
L0D0
10
2475
20
6500
0
VERTEX
8
L0D0
10
3475
20
6500
0
VERTEX
8
L0D0
10
3475
20
6000
0
VERTEX
8
L0D0
10
3225
20
6000
0
VERTEX
8
L0D0
10
3225
20
5500
0
SEQEND
0
POLYLINE
8
L0D0
70
1
40
0
41
0
66
1
0
VERTEX
8
L0D0
10
-2373.611
20
-1777.778
0
VERTEX
8
L0D0
10
-2373.611
20
-1555.556
0
VERTEX
8
L0D0
10
-2373.611
20
-1333.333
0
VERTEX
8
L0D0
10
-2373.611
20
-1111.111
0
VERTEX
8
L0D0
10
-2595.833
20
-1111.111
0
VERTEX
8
L0D0
10
-2595.833
20
-888.889
0
VERTEX
8
L0D0
10
-2373.611
20
-888.889
0
VERTEX
8
L0D0
10
-2373.611
20
-666.667
0
VERTEX
8
L0D0
10
-2151.389
20
-666.667
0
VERTEX
8
L0D0
10
-2151.389
20
-888.889
0
VERTEX
8
L0D0
10
-2151.389
20
-1111.111
0
VERTEX
8
L0D0
10
-2151.389
20
-1333.333
0
VERTEX
8
L0D0
10
-2151.389
20
-1555.556
0
VERTEX
8
L0D0
10
-2151.389
20
-1777.778
0
SEQEND
0
POLYLINE
8
L0D0
70
1
40
0
41
0
66
1
0
VERTEX
8
L0D0
10
9775
20
5500
0
VERTEX
8
L0D0
10
9775
20
6500
0
VERTEX
8
L0D0
10
10775
20
6500
0
VERTEX
8
L0D0
10
10775
20
6000
0
VERTEX
8
L0D0
10
10525
20
6000
0
VERTEX
8
L0D0
10
10525
20
5500
0
SEQEND
0
POLYLINE
8
L0D0
70
1
40
0
41
0
66
1
0
VERTEX
8
L0D0
10
13450
20
500
0
VERTEX
8
L0D0
10
13450
20
1500
0
VERTEX
8
L0D0
10
14200
20
1500
0
VERTEX
8
L0D0
10
14200
20
1000
0
VERTEX
8
L0D0
10
14450
20
1000
0
VERTEX
8
L0D0
10
14450
20
500
0
SEQEND
0
POLYLINE
8
L0D0
70
1
40
0
41
0
66
1
0
VERTEX
8
L0D0
10
13450
20
-1500
0
VERTEX
8
L0D0
10
13450
20
-500
0
VERTEX
8
L0D0
10
14450
20
-500
0
VERTEX
8
L0D0
10
14450
20
-1000
0
VERTEX
8
L0D0
10
14200
20
-1000
0
VERTEX
8
L0D0
10
14200
20
-1500
0
SEQEND
0
POLYLINE
8
L0D0
70
1
40
0
41
0
66
1
0
VERTEX
8
L0D0
10
7925
20
5500
0
VERTEX
8
L0D0
10
7925
20
6000
0
VERTEX
8
L0D0
10
7675
20
6000
0
VERTEX
8
L0D0
10
7675
20
6500
0
VERTEX
8
L0D0
10
8675
20
6500
0
VERTEX
8
L0D0
10
8675
20
5500
0
SEQEND
0
POLYLINE
8
L0D0
70
1
40
0
41
0
66
1
0
VERTEX
8
L0D0
10
9800
20
-1500
0
VERTEX
8
L0D0
10
9800
20
-500
0
VERTEX
8
L0D0
10
10800
20
-500
0
VERTEX
8
L0D0
10
10800
20
-1000
0
VERTEX
8
L0D0
10
10550
20
-1000
0
VERTEX
8
L0D0
10
10550
20
-1500
0
SEQEND
0
POLYLINE
8
L0D0
70
1
40
0
41
0
66
1
0
VERTEX
8
L0D0
10
11675
20
5500
0
VERTEX
8
L0D0
10
11675
20
6000
0
VERTEX
8
L0D0
10
11425
20
6000
0
VERTEX
8
L0D0
10
11425
20
6500
0
VERTEX
8
L0D0
10
12425
20
6500
0
VERTEX
8
L0D0
10
12425
20
5500
0
SEQEND
0
POLYLINE
8
L0D0
70
1
40
0
41
0
66
1
0
VERTEX
8
L0D0
10
13437.5
20
4000
0
VERTEX
8
L0D0
10
13437.5
20
5000
0
VERTEX
8
L0D0
10
14187.5
20
5000
0
VERTEX
8
L0D0
10
14187.5
20
4500
0
VERTEX
8
L0D0
10
14437.5
20
4500
0
VERTEX
8
L0D0
10
14437.5
20
4000
0
SEQEND
0
POLYLINE
8
L0D0
70
1
40
0
41
0
66
1
0
VERTEX
8
L0D0
10
13437.5
20
2000
0
VERTEX
8
L0D0
10
13437.5
20
3000
0
VERTEX
8
L0D0
10
14437.5
20
3000
0
VERTEX
8
L0D0
10
14437.5
20
2500
0
VERTEX
8
L0D0
10
14187.5
20
2500
0
VERTEX
8
L0D0
10
14187.5
20
2000
0
SEQEND
0
POLYLINE
8
L0D0
70
1
40
0
41
0
66
1
0
VERTEX
8
L0D0
10
7650
20
500
0
VERTEX
8
L0D0
10
7650
20
1000
0
VERTEX
8
L0D0
10
7900
20
1000
0
VERTEX
8
L0D0
10
7900
20
1500
0
VERTEX
8
L0D0
10
8650
20
1500
0
VERTEX
8
L0D0
10
8650
20
500
0
SEQEND
0
POLYLINE
8
L0D0
70
1
40
0
41
0
66
1
0
VERTEX
8
L0D0
10
7900
20
-1500
0
VERTEX
8
L0D0
10
7900
20
-1000
0
VERTEX
8
L0D0
10
7650
20
-1000
0
VERTEX
8
L0D0
10
7650
20
-500
0
VERTEX
8
L0D0
10
8650
20
-500
0
VERTEX
8
L0D0
10
8650
20
-1500
0
SEQEND
0
POLYLINE
8
L0D0
70
1
40
0
41
0
66
1
0
VERTEX
8
L0D0
10
11400
20
500
0
VERTEX
8
L0D0
10
11400
20
1000
0
VERTEX
8
L0D0
10
11650
20
1000
0
VERTEX
8
L0D0
10
11650
20
1500
0
VERTEX
8
L0D0
10
12400
20
1500
0
VERTEX
8
L0D0
10
12400
20
500
0
SEQEND
0
POLYLINE
8
L0D0
70
1
40
0
41
0
66
1
0
VERTEX
8
L0D0
10
13425
20
5500
0
VERTEX
8
L0D0
10
13425
20
6500
0
VERTEX
8
L0D0
10
14425
20
6500
0
VERTEX
8
L0D0
10
14425
20
6000
0
VERTEX
8
L0D0
10
14175
20
6000
0
VERTEX
8
L0D0
10
14175
20
5500
0
SEQEND
0
POLYLINE
8
L0D0
70
1
40
0
41
0
66
1
0
VERTEX
8
L0D0
10
11650
20
-1500
0
VERTEX
8
L0D0
10
11650
20
-1000
0
VERTEX
8
L0D0
10
11400
20
-1000
0
VERTEX
8
L0D0
10
11400
20
-500
0
VERTEX
8
L0D0
10
12400
20
-500
0
VERTEX
8
L0D0
10
12400
20
-1500
0
SEQEND
0
POLYLINE
8
L0D0
70
1
40
0
41
0
66
1
0
VERTEX
8
L0D0
10
9787.5
20
4000
0
VERTEX
8
L0D0
10
9787.5
20
5000
0
VERTEX
8
L0D0
10
10537.5
20
5000
0
VERTEX
8
L0D0
10
10537.5
20
4500
0
VERTEX
8
L0D0
10
10787.5
20
4500
0
VERTEX
8
L0D0
10
10787.5
20
4000
0
SEQEND
0
POLYLINE
8
L0D0
70
1
40
0
41
0
66
1
0
VERTEX
8
L0D0
10
9787.5
20
2000
0
VERTEX
8
L0D0
10
9787.5
20
3000
0
VERTEX
8
L0D0
10
10787.5
20
3000
0
VERTEX
8
L0D0
10
10787.5
20
2500
0
VERTEX
8
L0D0
10
10537.5
20
2500
0
VERTEX
8
L0D0
10
10537.5
20
2000
0
SEQEND
0
POLYLINE
8
L0D0
70
1
40
0
41
0
66
1
0
VERTEX
8
L0D0
10
11412.5
20
4000
0
VERTEX
8
L0D0
10
11412.5
20
4500
0
VERTEX
8
L0D0
10
11662.5
20
4500
0
VERTEX
8
L0D0
10
11662.5
20
5000
0
VERTEX
8
L0D0
10
12412.5
20
5000
0
VERTEX
8
L0D0
10
12412.5
20
4000
0
SEQEND
0
POLYLINE
8
L0D0
70
1
40
0
41
0
66
1
0
VERTEX
8
L0D0
10
7662.5
20
4000
0
VERTEX
8
L0D0
10
7662.5
20
4500
0
VERTEX
8
L0D0
10
7912.5
20
4500
0
VERTEX
8
L0D0
10
7912.5
20
5000
0
VERTEX
8
L0D0
10
8662.5
20
5000
0
VERTEX
8
L0D0
10
8662.5
20
4000
0
SEQEND
0
POLYLINE
8
L0D0
70
1
40
0
41
0
66
1
0
VERTEX
8
L0D0
10
7912.5
20
2000
0
VERTEX
8
L0D0
10
7912.5
20
2500
0
VERTEX
8
L0D0
10
7662.5
20
2500
0
VERTEX
8
L0D0
10
7662.5
20
3000
0
VERTEX
8
L0D0
10
8662.5
20
3000
0
VERTEX
8
L0D0
10
8662.5
20
2000
0
SEQEND
0
POLYLINE
8
L0D0
70
1
40
0
41
0
66
1
0
VERTEX
8
L0D0
10
11662.5
20
2000
0
VERTEX
8
L0D0
10
11662.5
20
2500
0
VERTEX
8
L0D0
10
11412.5
20
2500
0
VERTEX
8
L0D0
10
11412.5
20
3000
0
VERTEX
8
L0D0
10
12412.5
20
3000
0
VERTEX
8
L0D0
10
12412.5
20
2000
0
SEQEND
0
POLYLINE
8
L0D0
70
1
40
0
41
0
66
1
0
VERTEX
8
L0D0
10
9800
20
500
0
VERTEX
8
L0D0
10
9800
20
1500
0
VERTEX
8
L0D0
10
10550
20
1500
0
VERTEX
8
L0D0
10
10550
20
1000
0
VERTEX
8
L0D0
10
10800
20
1000
0
VERTEX
8
L0D0
10
10800
20
500
0
SEQEND
0
POLYLINE
8
L0D0
70
1
40
0
41
0
66
1
0
VERTEX
8
L0D0
10
26450
20
14500
0
VERTEX
8
L0D0
10
26450
20
15000
0
VERTEX
8
L0D0
10
26700
20
15000
0
VERTEX
8
L0D0
10
26700
20
15500
0
VERTEX
8
L0D0
10
27450
20
15500
0
VERTEX
8
L0D0
10
27450
20
14500
0
SEQEND
0
POLYLINE
8
L0D0
70
1
40
0
41
0
66
1
0
VERTEX
8
L0D0
10
26700
20
12500
0
VERTEX
8
L0D0
10
26700
20
13000
0
VERTEX
8
L0D0
10
26450
20
13000
0
VERTEX
8
L0D0
10
26450
20
13500
0
VERTEX
8
L0D0
10
27450
20
13500
0
VERTEX
8
L0D0
10
27450
20
12500
0
SEQEND
0
POLYLINE
8
L0D0
70
1
40
0
41
0
66
1
0
VERTEX
8
L0D0
10
20750
20
500
0
VERTEX
8
L0D0
10
20750
20
1500
0
VERTEX
8
L0D0
10
21500
20
1500
0
VERTEX
8
L0D0
10
21500
20
1000
0
VERTEX
8
L0D0
10
21750
20
1000
0
VERTEX
8
L0D0
10
21750
20
500
0
SEQEND
0
POLYLINE
8
L0D0
70
1
40
0
41
0
66
1
0
VERTEX
8
L0D0
10
20750
20
-1500
0
VERTEX
8
L0D0
10
20750
20
-500
0
VERTEX
8
L0D0
10
21750
20
-500
0
VERTEX
8
L0D0
10
21750
20
-1000
0
VERTEX
8
L0D0
10
21500
20
-1000
0
VERTEX
8
L0D0
10
21500
20
-1500
0
SEQEND
0
POLYLINE
8
L0D0
70
1
40
0
41
0
66
1
0
VERTEX
8
L0D0
10
22650
20
500
0
VERTEX
8
L0D0
10
22650
20
1000
0
VERTEX
8
L0D0
10
22900
20
1000
0
VERTEX
8
L0D0
10
22900
20
1500
0
VERTEX
8
L0D0
10
23650
20
1500
0
VERTEX
8
L0D0
10
23650
20
500
0
SEQEND
0
POLYLINE
8
L0D0
70
1
40
0
41
0
66
1
0
VERTEX
8
L0D0
10
22900
20
-1500
0
VERTEX
8
L0D0
10
22900
20
-1000
0
VERTEX
8
L0D0
10
22650
20
-1000
0
VERTEX
8
L0D0
10
22650
20
-500
0
VERTEX
8
L0D0
10
23650
20
-500
0
VERTEX
8
L0D0
10
23650
20
-1500
0
SEQEND
0
POLYLINE
8
L0D0
70
1
40
0
41
0
66
1
0
VERTEX
8
L0D0
10
20737.5
20
4000
0
VERTEX
8
L0D0
10
20737.5
20
5000
0
VERTEX
8
L0D0
10
21487.5
20
5000
0
VERTEX
8
L0D0
10
21487.5
20
4500
0
VERTEX
8
L0D0
10
21737.5
20
4500
0
VERTEX
8
L0D0
10
21737.5
20
4000
0
SEQEND
0
POLYLINE
8
L0D0
70
1
40
0
41
0
66
1
0
VERTEX
8
L0D0
10
20737.5
20
2000
0
VERTEX
8
L0D0
10
20737.5
20
3000
0
VERTEX
8
L0D0
10
21737.5
20
3000
0
VERTEX
8
L0D0
10
21737.5
20
2500
0
VERTEX
8
L0D0
10
21487.5
20
2500
0
VERTEX
8
L0D0
10
21487.5
20
2000
0
SEQEND
0
POLYLINE
8
L0D0
70
1
40
0
41
0
66
1
0
VERTEX
8
L0D0
10
22662.5
20
4000
0
VERTEX
8
L0D0
10
22662.5
20
4500
0
VERTEX
8
L0D0
10
22912.5
20
4500
0
VERTEX
8
L0D0
10
22912.5
20
5000
0
VERTEX
8
L0D0
10
23662.5
20
5000
0
VERTEX
8
L0D0
10
23662.5
20
4000
0
SEQEND
0
POLYLINE
8
L0D0
70
1
40
0
41
0
66
1
0
VERTEX
8
L0D0
10
22912.5
20
2000
0
VERTEX
8
L0D0
10
22912.5
20
2500
0
VERTEX
8
L0D0
10
22662.5
20
2500
0
VERTEX
8
L0D0
10
22662.5
20
3000
0
VERTEX
8
L0D0
10
23662.5
20
3000
0
VERTEX
8
L0D0
10
23662.5
20
2000
0
SEQEND
0
POLYLINE
8
L0D0
70
1
40
0
41
0
66
1
0
VERTEX
8
L0D0
10
20725
20
7500
0
VERTEX
8
L0D0
10
20725
20
8500
0
VERTEX
8
L0D0
10
21475
20
8500
0
VERTEX
8
L0D0
10
21475
20
8000
0
VERTEX
8
L0D0
10
21725
20
8000
0
VERTEX
8
L0D0
10
21725
20
7500
0
SEQEND
0
POLYLINE
8
L0D0
70
1
40
0
41
0
66
1
0
VERTEX
8
L0D0
10
20725
20
5500
0
VERTEX
8
L0D0
10
20725
20
6500
0
VERTEX
8
L0D0
10
21725
20
6500
0
VERTEX
8
L0D0
10
21725
20
6000
0
VERTEX
8
L0D0
10
21475
20
6000
0
VERTEX
8
L0D0
10
21475
20
5500
0
SEQEND
0
POLYLINE
8
L0D0
70
1
40
0
41
0
66
1
0
VERTEX
8
L0D0
10
22675
20
7500
0
VERTEX
8
L0D0
10
22675
20
8000
0
VERTEX
8
L0D0
10
22925
20
8000
0
VERTEX
8
L0D0
10
22925
20
8500
0
VERTEX
8
L0D0
10
23675
20
8500
0
VERTEX
8
L0D0
10
23675
20
7500
0
SEQEND
0
POLYLINE
8
L0D0
70
1
40
0
41
0
66
1
0
VERTEX
8
L0D0
10
22925
20
5500
0
VERTEX
8
L0D0
10
22925
20
6000
0
VERTEX
8
L0D0
10
22675
20
6000
0
VERTEX
8
L0D0
10
22675
20
6500
0
VERTEX
8
L0D0
10
23675
20
6500
0
VERTEX
8
L0D0
10
23675
20
5500
0
SEQEND
0
POLYLINE
8
L0D0
70
1
40
0
41
0
66
1
0
VERTEX
8
L0D0
10
20712.5
20
11000
0
VERTEX
8
L0D0
10
20712.5
20
12000
0
VERTEX
8
L0D0
10
21462.5
20
12000
0
VERTEX
8
L0D0
10
21462.5
20
11500
0
VERTEX
8
L0D0
10
21712.5
20
11500
0
VERTEX
8
L0D0
10
21712.5
20
11000
0
SEQEND
0
POLYLINE
8
L0D0
70
1
40
0
41
0
66
1
0
VERTEX
8
L0D0
10
20712.5
20
9000
0
VERTEX
8
L0D0
10
20712.5
20
10000
0
VERTEX
8
L0D0
10
21712.5
20
10000
0
VERTEX
8
L0D0
10
21712.5
20
9500
0
VERTEX
8
L0D0
10
21462.5
20
9500
0
VERTEX
8
L0D0
10
21462.5
20
9000
0
SEQEND
0
POLYLINE
8
L0D0
70
1
40
0
41
0
66
1
0
VERTEX
8
L0D0
10
22687.5
20
11000
0
VERTEX
8
L0D0
10
22687.5
20
11500
0
VERTEX
8
L0D0
10
22937.5
20
11500
0
VERTEX
8
L0D0
10
22937.5
20
12000
0
VERTEX
8
L0D0
10
23687.5
20
12000
0
VERTEX
8
L0D0
10
23687.5
20
11000
0
SEQEND
0
POLYLINE
8
L0D0
70
1
40
0
41
0
66
1
0
VERTEX
8
L0D0
10
22937.5
20
9000
0
VERTEX
8
L0D0
10
22937.5
20
9500
0
VERTEX
8
L0D0
10
22687.5
20
9500
0
VERTEX
8
L0D0
10
22687.5
20
10000
0
VERTEX
8
L0D0
10
23687.5
20
10000
0
VERTEX
8
L0D0
10
23687.5
20
9000
0
SEQEND
0
POLYLINE
8
L0D0
70
1
40
0
41
0
66
1
0
VERTEX
8
L0D0
10
20700
20
14500
0
VERTEX
8
L0D0
10
20700
20
15500
0
VERTEX
8
L0D0
10
21450
20
15500
0
VERTEX
8
L0D0
10
21450
20
15000
0
VERTEX
8
L0D0
10
21700
20
15000
0
VERTEX
8
L0D0
10
21700
20
14500
0
SEQEND
0
POLYLINE
8
L0D0
70
1
40
0
41
0
66
1
0
VERTEX
8
L0D0
10
20700
20
12500
0
VERTEX
8
L0D0
10
20700
20
13500
0
VERTEX
8
L0D0
10
21700
20
13500
0
VERTEX
8
L0D0
10
21700
20
13000
0
VERTEX
8
L0D0
10
21450
20
13000
0
VERTEX
8
L0D0
10
21450
20
12500
0
SEQEND
0
POLYLINE
8
L0D0
70
1
40
0
41
0
66
1
0
VERTEX
8
L0D0
10
22700
20
14500
0
VERTEX
8
L0D0
10
22700
20
15000
0
VERTEX
8
L0D0
10
22950
20
15000
0
VERTEX
8
L0D0
10
22950
20
15500
0
VERTEX
8
L0D0
10
23700
20
15500
0
VERTEX
8
L0D0
10
23700
20
14500
0
SEQEND
0
POLYLINE
8
L0D0
70
1
40
0
41
0
66
1
0
VERTEX
8
L0D0
10
22950
20
12500
0
VERTEX
8
L0D0
10
22950
20
13000
0
VERTEX
8
L0D0
10
22700
20
13000
0
VERTEX
8
L0D0
10
22700
20
13500
0
VERTEX
8
L0D0
10
23700
20
13500
0
VERTEX
8
L0D0
10
23700
20
12500
0
SEQEND
0
POLYLINE
8
L0D0
70
1
40
0
41
0
66
1
0
VERTEX
8
L0D0
10
28050
20
500
0
VERTEX
8
L0D0
10
28050
20
1500
0
VERTEX
8
L0D0
10
28800
20
1500
0
VERTEX
8
L0D0
10
28800
20
1000
0
VERTEX
8
L0D0
10
29050
20
1000
0
VERTEX
8
L0D0
10
29050
20
500
0
SEQEND
0
POLYLINE
8
L0D0
70
1
40
0
41
0
66
1
0
VERTEX
8
L0D0
10
28050
20
-1500
0
VERTEX
8
L0D0
10
28050
20
-500
0
VERTEX
8
L0D0
10
29050
20
-500
0
VERTEX
8
L0D0
10
29050
20
-1000
0
VERTEX
8
L0D0
10
28800
20
-1000
0
VERTEX
8
L0D0
10
28800
20
-1500
0
SEQEND
0
POLYLINE
8
L0D0
70
1
40
0
41
0
66
1
0
VERTEX
8
L0D0
10
30150
20
500
0
VERTEX
8
L0D0
10
30150
20
1000
0
VERTEX
8
L0D0
10
30400
20
1000
0
VERTEX
8
L0D0
10
30400
20
1500
0
VERTEX
8
L0D0
10
31150
20
1500
0
VERTEX
8
L0D0
10
31150
20
500
0
SEQEND
0
POLYLINE
8
L0D0
70
1
40
0
41
0
66
1
0
VERTEX
8
L0D0
10
30400
20
-1500
0
VERTEX
8
L0D0
10
30400
20
-1000
0
VERTEX
8
L0D0
10
30150
20
-1000
0
VERTEX
8
L0D0
10
30150
20
-500
0
VERTEX
8
L0D0
10
31150
20
-500
0
VERTEX
8
L0D0
10
31150
20
-1500
0
SEQEND
0
POLYLINE
8
L0D0
70
1
40
0
41
0
66
1
0
VERTEX
8
L0D0
10
28037.5
20
4000
0
VERTEX
8
L0D0
10
28037.5
20
5000
0
VERTEX
8
L0D0
10
28787.5
20
5000
0
VERTEX
8
L0D0
10
28787.5
20
4500
0
VERTEX
8
L0D0
10
29037.5
20
4500
0
VERTEX
8
L0D0
10
29037.5
20
4000
0
SEQEND
0
POLYLINE
8
L0D0
70
1
40
0
41
0
66
1
0
VERTEX
8
L0D0
10
28037.5
20
2000
0
VERTEX
8
L0D0
10
28037.5
20
3000
0
VERTEX
8
L0D0
10
29037.5
20
3000
0
VERTEX
8
L0D0
10
29037.5
20
2500
0
VERTEX
8
L0D0
10
28787.5
20
2500
0
VERTEX
8
L0D0
10
28787.5
20
2000
0
SEQEND
0
POLYLINE
8
L0D0
70
1
40
0
41
0
66
1
0
VERTEX
8
L0D0
10
30162.5
20
4000
0
VERTEX
8
L0D0
10
30162.5
20
4500
0
VERTEX
8
L0D0
10
30412.5
20
4500
0
VERTEX
8
L0D0
10
30412.5
20
5000
0
VERTEX
8
L0D0
10
31162.5
20
5000
0
VERTEX
8
L0D0
10
31162.5
20
4000
0
SEQEND
0
POLYLINE
8
L0D0
70
1
40
0
41
0
66
1
0
VERTEX
8
L0D0
10
30412.5
20
2000
0
VERTEX
8
L0D0
10
30412.5
20
2500
0
VERTEX
8
L0D0
10
30162.5
20
2500
0
VERTEX
8
L0D0
10
30162.5
20
3000
0
VERTEX
8
L0D0
10
31162.5
20
3000
0
VERTEX
8
L0D0
10
31162.5
20
2000
0
SEQEND
0
POLYLINE
8
L0D0
70
1
40
0
41
0
66
1
0
VERTEX
8
L0D0
10
28025
20
7500
0
VERTEX
8
L0D0
10
28025
20
8500
0
VERTEX
8
L0D0
10
28775
20
8500
0
VERTEX
8
L0D0
10
28775
20
8000
0
VERTEX
8
L0D0
10
29025
20
8000
0
VERTEX
8
L0D0
10
29025
20
7500
0
SEQEND
0
POLYLINE
8
L0D0
70
1
40
0
41
0
66
1
0
VERTEX
8
L0D0
10
28025
20
5500
0
VERTEX
8
L0D0
10
28025
20
6500
0
VERTEX
8
L0D0
10
29025
20
6500
0
VERTEX
8
L0D0
10
29025
20
6000
0
VERTEX
8
L0D0
10
28775
20
6000
0
VERTEX
8
L0D0
10
28775
20
5500
0
SEQEND
0
POLYLINE
8
L0D0
70
1
40
0
41
0
66
1
0
VERTEX
8
L0D0
10
30175
20
7500
0
VERTEX
8
L0D0
10
30175
20
8000
0
VERTEX
8
L0D0
10
30425
20
8000
0
VERTEX
8
L0D0
10
30425
20
8500
0
VERTEX
8
L0D0
10
31175
20
8500
0
VERTEX
8
L0D0
10
31175
20
7500
0
SEQEND
0
POLYLINE
8
L0D0
70
1
40
0
41
0
66
1
0
VERTEX
8
L0D0
10
30425
20
5500
0
VERTEX
8
L0D0
10
30425
20
6000
0
VERTEX
8
L0D0
10
30175
20
6000
0
VERTEX
8
L0D0
10
30175
20
6500
0
VERTEX
8
L0D0
10
31175
20
6500
0
VERTEX
8
L0D0
10
31175
20
5500
0
SEQEND
0
POLYLINE
8
L0D0
70
1
40
0
41
0
66
1
0
VERTEX
8
L0D0
10
28012.5
20
11000
0
VERTEX
8
L0D0
10
28012.5
20
12000
0
VERTEX
8
L0D0
10
28762.5
20
12000
0
VERTEX
8
L0D0
10
28762.5
20
11500
0
VERTEX
8
L0D0
10
29012.5
20
11500
0
VERTEX
8
L0D0
10
29012.5
20
11000
0
SEQEND
0
POLYLINE
8
L0D0
70
1
40
0
41
0
66
1
0
VERTEX
8
L0D0
10
28012.5
20
9000
0
VERTEX
8
L0D0
10
28012.5
20
10000
0
VERTEX
8
L0D0
10
29012.5
20
10000
0
VERTEX
8
L0D0
10
29012.5
20
9500
0
VERTEX
8
L0D0
10
28762.5
20
9500
0
VERTEX
8
L0D0
10
28762.5
20
9000
0
SEQEND
0
POLYLINE
8
L0D0
70
1
40
0
41
0
66
1
0
VERTEX
8
L0D0
10
30187.5
20
11000
0
VERTEX
8
L0D0
10
30187.5
20
11500
0
VERTEX
8
L0D0
10
30437.5
20
11500
0
VERTEX
8
L0D0
10
30437.5
20
12000
0
VERTEX
8
L0D0
10
31187.5
20
12000
0
VERTEX
8
L0D0
10
31187.5
20
11000
0
SEQEND
0
POLYLINE
8
L0D0
70
1
40
0
41
0
66
1
0
VERTEX
8
L0D0
10
30437.5
20
9000
0
VERTEX
8
L0D0
10
30437.5
20
9500
0
VERTEX
8
L0D0
10
30187.5
20
9500
0
VERTEX
8
L0D0
10
30187.5
20
10000
0
VERTEX
8
L0D0
10
31187.5
20
10000
0
VERTEX
8
L0D0
10
31187.5
20
9000
0
SEQEND
0
POLYLINE
8
L0D0
70
1
40
0
41
0
66
1
0
VERTEX
8
L0D0
10
28000
20
14500
0
VERTEX
8
L0D0
10
28000
20
15500
0
VERTEX
8
L0D0
10
28750
20
15500
0
VERTEX
8
L0D0
10
28750
20
15000
0
VERTEX
8
L0D0
10
29000
20
15000
0
VERTEX
8
L0D0
10
29000
20
14500
0
SEQEND
0
POLYLINE
8
L0D0
70
1
40
0
41
0
66
1
0
VERTEX
8
L0D0
10
28000
20
12500
0
VERTEX
8
L0D0
10
28000
20
13500
0
VERTEX
8
L0D0
10
29000
20
13500
0
VERTEX
8
L0D0
10
29000
20
13000
0
VERTEX
8
L0D0
10
28750
20
13000
0
VERTEX
8
L0D0
10
28750
20
12500
0
SEQEND
0
POLYLINE
8
L0D0
70
1
40
0
41
0
66
1
0
VERTEX
8
L0D0
10
30200
20
14500
0
VERTEX
8
L0D0
10
30200
20
15000
0
VERTEX
8
L0D0
10
30450
20
15000
0
VERTEX
8
L0D0
10
30450
20
15500
0
VERTEX
8
L0D0
10
31200
20
15500
0
VERTEX
8
L0D0
10
31200
20
14500
0
SEQEND
0
POLYLINE
8
L0D0
70
1
40
0
41
0
66
1
0
VERTEX
8
L0D0
10
30450
20
12500
0
VERTEX
8
L0D0
10
30450
20
13000
0
VERTEX
8
L0D0
10
30200
20
13000
0
VERTEX
8
L0D0
10
30200
20
13500
0
VERTEX
8
L0D0
10
31200
20
13500
0
VERTEX
8
L0D0
10
31200
20
12500
0
SEQEND
0
POLYLINE
8
L0D0
70
1
40
0
41
0
66
1
0
VERTEX
8
L0D0
10
17100
20
500
0
VERTEX
8
L0D0
10
17100
20
1500
0
VERTEX
8
L0D0
10
17850
20
1500
0
VERTEX
8
L0D0
10
17850
20
1000
0
VERTEX
8
L0D0
10
18100
20
1000
0
VERTEX
8
L0D0
10
18100
20
500
0
SEQEND
0
POLYLINE
8
L0D0
70
1
40
0
41
0
66
1
0
VERTEX
8
L0D0
10
17100
20
-1500
0
VERTEX
8
L0D0
10
17100
20
-500
0
VERTEX
8
L0D0
10
18100
20
-500
0
VERTEX
8
L0D0
10
18100
20
-1000
0
VERTEX
8
L0D0
10
17850
20
-1000
0
VERTEX
8
L0D0
10
17850
20
-1500
0
SEQEND
0
POLYLINE
8
L0D0
70
1
40
0
41
0
66
1
0
VERTEX
8
L0D0
10
18900
20
500
0
VERTEX
8
L0D0
10
18900
20
1000
0
VERTEX
8
L0D0
10
19150
20
1000
0
VERTEX
8
L0D0
10
19150
20
1500
0
VERTEX
8
L0D0
10
19900
20
1500
0
VERTEX
8
L0D0
10
19900
20
500
0
SEQEND
0
POLYLINE
8
L0D0
70
1
40
0
41
0
66
1
0
VERTEX
8
L0D0
10
19150
20
-1500
0
VERTEX
8
L0D0
10
19150
20
-1000
0
VERTEX
8
L0D0
10
18900
20
-1000
0
VERTEX
8
L0D0
10
18900
20
-500
0
VERTEX
8
L0D0
10
19900
20
-500
0
VERTEX
8
L0D0
10
19900
20
-1500
0
SEQEND
0
POLYLINE
8
L0D0
70
1
40
0
41
0
66
1
0
VERTEX
8
L0D0
10
17087.5
20
4000
0
VERTEX
8
L0D0
10
17087.5
20
5000
0
VERTEX
8
L0D0
10
17837.5
20
5000
0
VERTEX
8
L0D0
10
17837.5
20
4500
0
VERTEX
8
L0D0
10
18087.5
20
4500
0
VERTEX
8
L0D0
10
18087.5
20
4000
0
SEQEND
0
POLYLINE
8
L0D0
70
1
40
0
41
0
66
1
0
VERTEX
8
L0D0
10
17087.5
20
2000
0
VERTEX
8
L0D0
10
17087.5
20
3000
0
VERTEX
8
L0D0
10
18087.5
20
3000
0
VERTEX
8
L0D0
10
18087.5
20
2500
0
VERTEX
8
L0D0
10
17837.5
20
2500
0
VERTEX
8
L0D0
10
17837.5
20
2000
0
SEQEND
0
POLYLINE
8
L0D0
70
1
40
0
41
0
66
1
0
VERTEX
8
L0D0
10
18912.5
20
4000
0
VERTEX
8
L0D0
10
18912.5
20
4500
0
VERTEX
8
L0D0
10
19162.5
20
4500
0
VERTEX
8
L0D0
10
19162.5
20
5000
0
VERTEX
8
L0D0
10
19912.5
20
5000
0
VERTEX
8
L0D0
10
19912.5
20
4000
0
SEQEND
0
POLYLINE
8
L0D0
70
1
40
0
41
0
66
1
0
VERTEX
8
L0D0
10
19162.5
20
2000
0
VERTEX
8
L0D0
10
19162.5
20
2500
0
VERTEX
8
L0D0
10
18912.5
20
2500
0
VERTEX
8
L0D0
10
18912.5
20
3000
0
VERTEX
8
L0D0
10
19912.5
20
3000
0
VERTEX
8
L0D0
10
19912.5
20
2000
0
SEQEND
0
POLYLINE
8
L0D0
70
1
40
0
41
0
66
1
0
VERTEX
8
L0D0
10
17075
20
7500
0
VERTEX
8
L0D0
10
17075
20
8500
0
VERTEX
8
L0D0
10
17825
20
8500
0
VERTEX
8
L0D0
10
17825
20
8000
0
VERTEX
8
L0D0
10
18075
20
8000
0
VERTEX
8
L0D0
10
18075
20
7500
0
SEQEND
0
POLYLINE
8
L0D0
70
1
40
0
41
0
66
1
0
VERTEX
8
L0D0
10
17075
20
5500
0
VERTEX
8
L0D0
10
17075
20
6500
0
VERTEX
8
L0D0
10
18075
20
6500
0
VERTEX
8
L0D0
10
18075
20
6000
0
VERTEX
8
L0D0
10
17825
20
6000
0
VERTEX
8
L0D0
10
17825
20
5500
0
SEQEND
0
POLYLINE
8
L0D0
70
1
40
0
41
0
66
1
0
VERTEX
8
L0D0
10
18925
20
7500
0
VERTEX
8
L0D0
10
18925
20
8000
0
VERTEX
8
L0D0
10
19175
20
8000
0
VERTEX
8
L0D0
10
19175
20
8500
0
VERTEX
8
L0D0
10
19925
20
8500
0
VERTEX
8
L0D0
10
19925
20
7500
0
SEQEND
0
POLYLINE
8
L0D0
70
1
40
0
41
0
66
1
0
VERTEX
8
L0D0
10
19175
20
5500
0
VERTEX
8
L0D0
10
19175
20
6000
0
VERTEX
8
L0D0
10
18925
20
6000
0
VERTEX
8
L0D0
10
18925
20
6500
0
VERTEX
8
L0D0
10
19925
20
6500
0
VERTEX
8
L0D0
10
19925
20
5500
0
SEQEND
0
POLYLINE
8
L0D0
70
1
40
0
41
0
66
1
0
VERTEX
8
L0D0
10
17062.5
20
11000
0
VERTEX
8
L0D0
10
17062.5
20
12000
0
VERTEX
8
L0D0
10
17812.5
20
12000
0
VERTEX
8
L0D0
10
17812.5
20
11500
0
VERTEX
8
L0D0
10
18062.5
20
11500
0
VERTEX
8
L0D0
10
18062.5
20
11000
0
SEQEND
0
POLYLINE
8
L0D0
70
1
40
0
41
0
66
1
0
VERTEX
8
L0D0
10
17062.5
20
9000
0
VERTEX
8
L0D0
10
17062.5
20
10000
0
VERTEX
8
L0D0
10
18062.5
20
10000
0
VERTEX
8
L0D0
10
18062.5
20
9500
0
VERTEX
8
L0D0
10
17812.5
20
9500
0
VERTEX
8
L0D0
10
17812.5
20
9000
0
SEQEND
0
POLYLINE
8
L0D0
70
1
40
0
41
0
66
1
0
VERTEX
8
L0D0
10
18937.5
20
11000
0
VERTEX
8
L0D0
10
18937.5
20
11500
0
VERTEX
8
L0D0
10
19187.5
20
11500
0
VERTEX
8
L0D0
10
19187.5
20
12000
0
VERTEX
8
L0D0
10
19937.5
20
12000
0
VERTEX
8
L0D0
10
19937.5
20
11000
0
SEQEND
0
POLYLINE
8
L0D0
70
1
40
0
41
0
66
1
0
VERTEX
8
L0D0
10
19187.5
20
9000
0
VERTEX
8
L0D0
10
19187.5
20
9500
0
VERTEX
8
L0D0
10
18937.5
20
9500
0
VERTEX
8
L0D0
10
18937.5
20
10000
0
VERTEX
8
L0D0
10
19937.5
20
10000
0
VERTEX
8
L0D0
10
19937.5
20
9000
0
SEQEND
0
POLYLINE
8
L0D0
70
1
40
0
41
0
66
1
0
VERTEX
8
L0D0
10
17050
20
14500
0
VERTEX
8
L0D0
10
17050
20
15500
0
VERTEX
8
L0D0
10
17800
20
15500
0
VERTEX
8
L0D0
10
17800
20
15000
0
VERTEX
8
L0D0
10
18050
20
15000
0
VERTEX
8
L0D0
10
18050
20
14500
0
SEQEND
0
POLYLINE
8
L0D0
70
1
40
0
41
0
66
1
0
VERTEX
8
L0D0
10
17050
20
12500
0
VERTEX
8
L0D0
10
17050
20
13500
0
VERTEX
8
L0D0
10
18050
20
13500
0
VERTEX
8
L0D0
10
18050
20
13000
0
VERTEX
8
L0D0
10
17800
20
13000
0
VERTEX
8
L0D0
10
17800
20
12500
0
SEQEND
0
POLYLINE
8
L0D0
70
1
40
0
41
0
66
1
0
VERTEX
8
L0D0
10
18950
20
14500
0
VERTEX
8
L0D0
10
18950
20
15000
0
VERTEX
8
L0D0
10
19200
20
15000
0
VERTEX
8
L0D0
10
19200
20
15500
0
VERTEX
8
L0D0
10
19950
20
15500
0
VERTEX
8
L0D0
10
19950
20
14500
0
SEQEND
0
POLYLINE
8
L0D0
70
1
40
0
41
0
66
1
0
VERTEX
8
L0D0
10
19200
20
12500
0
VERTEX
8
L0D0
10
19200
20
13000
0
VERTEX
8
L0D0
10
18950
20
13000
0
VERTEX
8
L0D0
10
18950
20
13500
0
VERTEX
8
L0D0
10
19950
20
13500
0
VERTEX
8
L0D0
10
19950
20
12500
0
SEQEND
0
POLYLINE
8
L0D0
70
1
40
0
41
0
66
1
0
VERTEX
8
L0D0
10
31700
20
500
0
VERTEX
8
L0D0
10
31700
20
1500
0
VERTEX
8
L0D0
10
32450
20
1500
0
VERTEX
8
L0D0
10
32450
20
1000
0
VERTEX
8
L0D0
10
32700
20
1000
0
VERTEX
8
L0D0
10
32700
20
500
0
SEQEND
0
POLYLINE
8
L0D0
70
1
40
0
41
0
66
1
0
VERTEX
8
L0D0
10
31700
20
-1500
0
VERTEX
8
L0D0
10
31700
20
-500
0
VERTEX
8
L0D0
10
32700
20
-500
0
VERTEX
8
L0D0
10
32700
20
-1000
0
VERTEX
8
L0D0
10
32450
20
-1000
0
VERTEX
8
L0D0
10
32450
20
-1500
0
SEQEND
0
POLYLINE
8
L0D0
70
1
40
0
41
0
66
1
0
VERTEX
8
L0D0
10
33900
20
500
0
VERTEX
8
L0D0
10
33900
20
1000
0
VERTEX
8
L0D0
10
34150
20
1000
0
VERTEX
8
L0D0
10
34150
20
1500
0
VERTEX
8
L0D0
10
34900
20
1500
0
VERTEX
8
L0D0
10
34900
20
500
0
SEQEND
0
POLYLINE
8
L0D0
70
1
40
0
41
0
66
1
0
VERTEX
8
L0D0
10
34150
20
-1500
0
VERTEX
8
L0D0
10
34150
20
-1000
0
VERTEX
8
L0D0
10
33900
20
-1000
0
VERTEX
8
L0D0
10
33900
20
-500
0
VERTEX
8
L0D0
10
34900
20
-500
0
VERTEX
8
L0D0
10
34900
20
-1500
0
SEQEND
0
POLYLINE
8
L0D0
70
1
40
0
41
0
66
1
0
VERTEX
8
L0D0
10
31687.5
20
4000
0
VERTEX
8
L0D0
10
31687.5
20
5000
0
VERTEX
8
L0D0
10
32437.5
20
5000
0
VERTEX
8
L0D0
10
32437.5
20
4500
0
VERTEX
8
L0D0
10
32687.5
20
4500
0
VERTEX
8
L0D0
10
32687.5
20
4000
0
SEQEND
0
POLYLINE
8
L0D0
70
1
40
0
41
0
66
1
0
VERTEX
8
L0D0
10
31687.5
20
2000
0
VERTEX
8
L0D0
10
31687.5
20
3000
0
VERTEX
8
L0D0
10
32687.5
20
3000
0
VERTEX
8
L0D0
10
32687.5
20
2500
0
VERTEX
8
L0D0
10
32437.5
20
2500
0
VERTEX
8
L0D0
10
32437.5
20
2000
0
SEQEND
0
POLYLINE
8
L0D0
70
1
40
0
41
0
66
1
0
VERTEX
8
L0D0
10
33912.5
20
4000
0
VERTEX
8
L0D0
10
33912.5
20
4500
0
VERTEX
8
L0D0
10
34162.5
20
4500
0
VERTEX
8
L0D0
10
34162.5
20
5000
0
VERTEX
8
L0D0
10
34912.5
20
5000
0
VERTEX
8
L0D0
10
34912.5
20
4000
0
SEQEND
0
POLYLINE
8
L0D0
70
1
40
0
41
0
66
1
0
VERTEX
8
L0D0
10
34162.5
20
2000
0
VERTEX
8
L0D0
10
34162.5
20
2500
0
VERTEX
8
L0D0
10
33912.5
20
2500
0
VERTEX
8
L0D0
10
33912.5
20
3000
0
VERTEX
8
L0D0
10
34912.5
20
3000
0
VERTEX
8
L0D0
10
34912.5
20
2000
0
SEQEND
0
POLYLINE
8
L0D0
70
1
40
0
41
0
66
1
0
VERTEX
8
L0D0
10
31675
20
7500
0
VERTEX
8
L0D0
10
31675
20
8500
0
VERTEX
8
L0D0
10
32425
20
8500
0
VERTEX
8
L0D0
10
32425
20
8000
0
VERTEX
8
L0D0
10
32675
20
8000
0
VERTEX
8
L0D0
10
32675
20
7500
0
SEQEND
0
POLYLINE
8
L0D0
70
1
40
0
41
0
66
1
0
VERTEX
8
L0D0
10
31675
20
5500
0
VERTEX
8
L0D0
10
31675
20
6500
0
VERTEX
8
L0D0
10
32675
20
6500
0
VERTEX
8
L0D0
10
32675
20
6000
0
VERTEX
8
L0D0
10
32425
20
6000
0
VERTEX
8
L0D0
10
32425
20
5500
0
SEQEND
0
POLYLINE
8
L0D0
70
1
40
0
41
0
66
1
0
VERTEX
8
L0D0
10
33925
20
7500
0
VERTEX
8
L0D0
10
33925
20
8000
0
VERTEX
8
L0D0
10
34175
20
8000
0
VERTEX
8
L0D0
10
34175
20
8500
0
VERTEX
8
L0D0
10
34925
20
8500
0
VERTEX
8
L0D0
10
34925
20
7500
0
SEQEND
0
POLYLINE
8
L0D0
70
1
40
0
41
0
66
1
0
VERTEX
8
L0D0
10
34175
20
5500
0
VERTEX
8
L0D0
10
34175
20
6000
0
VERTEX
8
L0D0
10
33925
20
6000
0
VERTEX
8
L0D0
10
33925
20
6500
0
VERTEX
8
L0D0
10
34925
20
6500
0
VERTEX
8
L0D0
10
34925
20
5500
0
SEQEND
0
POLYLINE
8
L0D0
70
1
40
0
41
0
66
1
0
VERTEX
8
L0D0
10
31662.5
20
11000
0
VERTEX
8
L0D0
10
31662.5
20
12000
0
VERTEX
8
L0D0
10
32412.5
20
12000
0
VERTEX
8
L0D0
10
32412.5
20
11500
0
VERTEX
8
L0D0
10
32662.5
20
11500
0
VERTEX
8
L0D0
10
32662.5
20
11000
0
SEQEND
0
POLYLINE
8
L0D0
70
1
40
0
41
0
66
1
0
VERTEX
8
L0D0
10
31662.5
20
9000
0
VERTEX
8
L0D0
10
31662.5
20
10000
0
VERTEX
8
L0D0
10
32662.5
20
10000
0
VERTEX
8
L0D0
10
32662.5
20
9500
0
VERTEX
8
L0D0
10
32412.5
20
9500
0
VERTEX
8
L0D0
10
32412.5
20
9000
0
SEQEND
0
POLYLINE
8
L0D0
70
1
40
0
41
0
66
1
0
VERTEX
8
L0D0
10
33937.5
20
11000
0
VERTEX
8
L0D0
10
33937.5
20
11500
0
VERTEX
8
L0D0
10
34187.5
20
11500
0
VERTEX
8
L0D0
10
34187.5
20
12000
0
VERTEX
8
L0D0
10
34937.5
20
12000
0
VERTEX
8
L0D0
10
34937.5
20
11000
0
SEQEND
0
POLYLINE
8
L0D0
70
1
40
0
41
0
66
1
0
VERTEX
8
L0D0
10
34187.5
20
9000
0
VERTEX
8
L0D0
10
34187.5
20
9500
0
VERTEX
8
L0D0
10
33937.5
20
9500
0
VERTEX
8
L0D0
10
33937.5
20
10000
0
VERTEX
8
L0D0
10
34937.5
20
10000
0
VERTEX
8
L0D0
10
34937.5
20
9000
0
SEQEND
0
POLYLINE
8
L0D0
70
1
40
0
41
0
66
1
0
VERTEX
8
L0D0
10
31650
20
14500
0
VERTEX
8
L0D0
10
31650
20
15500
0
VERTEX
8
L0D0
10
32400
20
15500
0
VERTEX
8
L0D0
10
32400
20
15000
0
VERTEX
8
L0D0
10
32650
20
15000
0
VERTEX
8
L0D0
10
32650
20
14500
0
SEQEND
0
POLYLINE
8
L0D0
70
1
40
0
41
0
66
1
0
VERTEX
8
L0D0
10
31650
20
12500
0
VERTEX
8
L0D0
10
31650
20
13500
0
VERTEX
8
L0D0
10
32650
20
13500
0
VERTEX
8
L0D0
10
32650
20
13000
0
VERTEX
8
L0D0
10
32400
20
13000
0
VERTEX
8
L0D0
10
32400
20
12500
0
SEQEND
0
POLYLINE
8
L0D0
70
1
40
0
41
0
66
1
0
VERTEX
8
L0D0
10
33950
20
14500
0
VERTEX
8
L0D0
10
33950
20
15000
0
VERTEX
8
L0D0
10
34200
20
15000
0
VERTEX
8
L0D0
10
34200
20
15500
0
VERTEX
8
L0D0
10
34950
20
15500
0
VERTEX
8
L0D0
10
34950
20
14500
0
SEQEND
0
POLYLINE
8
L0D0
70
1
40
0
41
0
66
1
0
VERTEX
8
L0D0
10
34200
20
12500
0
VERTEX
8
L0D0
10
34200
20
13000
0
VERTEX
8
L0D0
10
33950
20
13000
0
VERTEX
8
L0D0
10
33950
20
13500
0
VERTEX
8
L0D0
10
34950
20
13500
0
VERTEX
8
L0D0
10
34950
20
12500
0
SEQEND
0
POLYLINE
8
L0D0
70
1
40
0
41
0
66
1
0
VERTEX
8
L0D0
10
24400
20
500
0
VERTEX
8
L0D0
10
24400
20
1500
0
VERTEX
8
L0D0
10
25150
20
1500
0
VERTEX
8
L0D0
10
25150
20
1000
0
VERTEX
8
L0D0
10
25400
20
1000
0
VERTEX
8
L0D0
10
25400
20
500
0
SEQEND
0
POLYLINE
8
L0D0
70
1
40
0
41
0
66
1
0
VERTEX
8
L0D0
10
24400
20
-1500
0
VERTEX
8
L0D0
10
24400
20
-500
0
VERTEX
8
L0D0
10
25400
20
-500
0
VERTEX
8
L0D0
10
25400
20
-1000
0
VERTEX
8
L0D0
10
25150
20
-1000
0
VERTEX
8
L0D0
10
25150
20
-1500
0
SEQEND
0
POLYLINE
8
L0D0
70
1
40
0
41
0
66
1
0
VERTEX
8
L0D0
10
26400
20
500
0
VERTEX
8
L0D0
10
26400
20
1000
0
VERTEX
8
L0D0
10
26650
20
1000
0
VERTEX
8
L0D0
10
26650
20
1500
0
VERTEX
8
L0D0
10
27400
20
1500
0
VERTEX
8
L0D0
10
27400
20
500
0
SEQEND
0
POLYLINE
8
L0D0
70
1
40
0
41
0
66
1
0
VERTEX
8
L0D0
10
26650
20
-1500
0
VERTEX
8
L0D0
10
26650
20
-1000
0
VERTEX
8
L0D0
10
26400
20
-1000
0
VERTEX
8
L0D0
10
26400
20
-500
0
VERTEX
8
L0D0
10
27400
20
-500
0
VERTEX
8
L0D0
10
27400
20
-1500
0
SEQEND
0
POLYLINE
8
L0D0
70
1
40
0
41
0
66
1
0
VERTEX
8
L0D0
10
24387.5
20
4000
0
VERTEX
8
L0D0
10
24387.5
20
5000
0
VERTEX
8
L0D0
10
25137.5
20
5000
0
VERTEX
8
L0D0
10
25137.5
20
4500
0
VERTEX
8
L0D0
10
25387.5
20
4500
0
VERTEX
8
L0D0
10
25387.5
20
4000
0
SEQEND
0
POLYLINE
8
L0D0
70
1
40
0
41
0
66
1
0
VERTEX
8
L0D0
10
24387.5
20
2000
0
VERTEX
8
L0D0
10
24387.5
20
3000
0
VERTEX
8
L0D0
10
25387.5
20
3000
0
VERTEX
8
L0D0
10
25387.5
20
2500
0
VERTEX
8
L0D0
10
25137.5
20
2500
0
VERTEX
8
L0D0
10
25137.5
20
2000
0
SEQEND
0
POLYLINE
8
L0D0
70
1
40
0
41
0
66
1
0
VERTEX
8
L0D0
10
26412.5
20
4000
0
VERTEX
8
L0D0
10
26412.5
20
4500
0
VERTEX
8
L0D0
10
26662.5
20
4500
0
VERTEX
8
L0D0
10
26662.5
20
5000
0
VERTEX
8
L0D0
10
27412.5
20
5000
0
VERTEX
8
L0D0
10
27412.5
20
4000
0
SEQEND
0
POLYLINE
8
L0D0
70
1
40
0
41
0
66
1
0
VERTEX
8
L0D0
10
26662.5
20
2000
0
VERTEX
8
L0D0
10
26662.5
20
2500
0
VERTEX
8
L0D0
10
26412.5
20
2500
0
VERTEX
8
L0D0
10
26412.5
20
3000
0
VERTEX
8
L0D0
10
27412.5
20
3000
0
VERTEX
8
L0D0
10
27412.5
20
2000
0
SEQEND
0
POLYLINE
8
L0D0
70
1
40
0
41
0
66
1
0
VERTEX
8
L0D0
10
24375
20
7500
0
VERTEX
8
L0D0
10
24375
20
8500
0
VERTEX
8
L0D0
10
25125
20
8500
0
VERTEX
8
L0D0
10
25125
20
8000
0
VERTEX
8
L0D0
10
25375
20
8000
0
VERTEX
8
L0D0
10
25375
20
7500
0
SEQEND
0
POLYLINE
8
L0D0
70
1
40
0
41
0
66
1
0
VERTEX
8
L0D0
10
24375
20
5500
0
VERTEX
8
L0D0
10
24375
20
6500
0
VERTEX
8
L0D0
10
25375
20
6500
0
VERTEX
8
L0D0
10
25375
20
6000
0
VERTEX
8
L0D0
10
25125
20
6000
0
VERTEX
8
L0D0
10
25125
20
5500
0
SEQEND
0
POLYLINE
8
L0D0
70
1
40
0
41
0
66
1
0
VERTEX
8
L0D0
10
26425
20
7500
0
VERTEX
8
L0D0
10
26425
20
8000
0
VERTEX
8
L0D0
10
26675
20
8000
0
VERTEX
8
L0D0
10
26675
20
8500
0
VERTEX
8
L0D0
10
27425
20
8500
0
VERTEX
8
L0D0
10
27425
20
7500
0
SEQEND
0
POLYLINE
8
L0D0
70
1
40
0
41
0
66
1
0
VERTEX
8
L0D0
10
26675
20
5500
0
VERTEX
8
L0D0
10
26675
20
6000
0
VERTEX
8
L0D0
10
26425
20
6000
0
VERTEX
8
L0D0
10
26425
20
6500
0
VERTEX
8
L0D0
10
27425
20
6500
0
VERTEX
8
L0D0
10
27425
20
5500
0
SEQEND
0
POLYLINE
8
L0D0
70
1
40
0
41
0
66
1
0
VERTEX
8
L0D0
10
24362.5
20
11000
0
VERTEX
8
L0D0
10
24362.5
20
12000
0
VERTEX
8
L0D0
10
25112.5
20
12000
0
VERTEX
8
L0D0
10
25112.5
20
11500
0
VERTEX
8
L0D0
10
25362.5
20
11500
0
VERTEX
8
L0D0
10
25362.5
20
11000
0
SEQEND
0
POLYLINE
8
L0D0
70
1
40
0
41
0
66
1
0
VERTEX
8
L0D0
10
24362.5
20
9000
0
VERTEX
8
L0D0
10
24362.5
20
10000
0
VERTEX
8
L0D0
10
25362.5
20
10000
0
VERTEX
8
L0D0
10
25362.5
20
9500
0
VERTEX
8
L0D0
10
25112.5
20
9500
0
VERTEX
8
L0D0
10
25112.5
20
9000
0
SEQEND
0
POLYLINE
8
L0D0
70
1
40
0
41
0
66
1
0
VERTEX
8
L0D0
10
26437.5
20
11000
0
VERTEX
8
L0D0
10
26437.5
20
11500
0
VERTEX
8
L0D0
10
26687.5
20
11500
0
VERTEX
8
L0D0
10
26687.5
20
12000
0
VERTEX
8
L0D0
10
27437.5
20
12000
0
VERTEX
8
L0D0
10
27437.5
20
11000
0
SEQEND
0
POLYLINE
8
L0D0
70
1
40
0
41
0
66
1
0
VERTEX
8
L0D0
10
26687.5
20
9000
0
VERTEX
8
L0D0
10
26687.5
20
9500
0
VERTEX
8
L0D0
10
26437.5
20
9500
0
VERTEX
8
L0D0
10
26437.5
20
10000
0
VERTEX
8
L0D0
10
27437.5
20
10000
0
VERTEX
8
L0D0
10
27437.5
20
9000
0
SEQEND
0
POLYLINE
8
L0D0
70
1
40
0
41
0
66
1
0
VERTEX
8
L0D0
10
24350
20
14500
0
VERTEX
8
L0D0
10
24350
20
15500
0
VERTEX
8
L0D0
10
25100
20
15500
0
VERTEX
8
L0D0
10
25100
20
15000
0
VERTEX
8
L0D0
10
25350
20
15000
0
VERTEX
8
L0D0
10
25350
20
14500
0
SEQEND
0
POLYLINE
8
L0D0
70
1
40
0
41
0
66
1
0
VERTEX
8
L0D0
10
24350
20
12500
0
VERTEX
8
L0D0
10
24350
20
13500
0
VERTEX
8
L0D0
10
25350
20
13500
0
VERTEX
8
L0D0
10
25350
20
13000
0
VERTEX
8
L0D0
10
25100
20
13000
0
VERTEX
8
L0D0
10
25100
20
12500
0
SEQEND
0
POLYLINE
8
L0D0
70
1
40
0
41
0
66
1
0
VERTEX
8
L0D0
10
-212.5
20
16000
0
VERTEX
8
L0D0
10
-212.5
20
19000
0
VERTEX
8
L0D0
10
-112.5
20
19000
0
VERTEX
8
L0D0
10
-112.5
20
16000
0
SEQEND
0
POLYLINE
8
L0D0
70
1
40
0
41
0
66
1
0
VERTEX
8
L0D0
10
112.5
20
16000
0
VERTEX
8
L0D0
10
112.5
20
19000
0
VERTEX
8
L0D0
10
212.5
20
19000
0
VERTEX
8
L0D0
10
212.5
20
16000
0
SEQEND
0
POLYLINE
8
L0D0
70
1
40
0
41
0
66
1
0
VERTEX
8
L0D0
10
3437.5
20
16000
0
VERTEX
8
L0D0
10
3437.5
20
19000
0
VERTEX
8
L0D0
10
3587.5
20
19000
0
VERTEX
8
L0D0
10
3587.5
20
16000
0
SEQEND
0
POLYLINE
8
L0D0
70
1
40
0
41
0
66
1
0
VERTEX
8
L0D0
10
3812.5
20
16000
0
VERTEX
8
L0D0
10
3812.5
20
19000
0
VERTEX
8
L0D0
10
3962.5
20
19000
0
VERTEX
8
L0D0
10
3962.5
20
16000
0
SEQEND
0
POLYLINE
8
L0D0
70
1
40
0
41
0
66
1
0
VERTEX
8
L0D0
10
7087.5
20
16000
0
VERTEX
8
L0D0
10
7087.5
20
19000
0
VERTEX
8
L0D0
10
7287.5
20
19000
0
VERTEX
8
L0D0
10
7287.5
20
16000
0
SEQEND
0
POLYLINE
8
L0D0
70
1
40
0
41
0
66
1
0
VERTEX
8
L0D0
10
7512.5
20
16000
0
VERTEX
8
L0D0
10
7512.5
20
19000
0
VERTEX
8
L0D0
10
7712.5
20
19000
0
VERTEX
8
L0D0
10
7712.5
20
16000
0
SEQEND
0
POLYLINE
8
L0D0
70
1
40
0
41
0
66
1
0
VERTEX
8
L0D0
10
10737.5
20
16000
0
VERTEX
8
L0D0
10
10737.5
20
19000
0
VERTEX
8
L0D0
10
10987.5
20
19000
0
VERTEX
8
L0D0
10
10987.5
20
16000
0
SEQEND
0
POLYLINE
8
L0D0
70
1
40
0
41
0
66
1
0
VERTEX
8
L0D0
10
11212.5
20
16000
0
VERTEX
8
L0D0
10
11212.5
20
19000
0
VERTEX
8
L0D0
10
11462.5
20
19000
0
VERTEX
8
L0D0
10
11462.5
20
16000
0
SEQEND
0
POLYLINE
8
L0D0
70
1
40
0
41
0
66
1
0
VERTEX
8
L0D0
10
14387.5
20
16000
0
VERTEX
8
L0D0
10
14387.5
20
19000
0
VERTEX
8
L0D0
10
14687.5
20
19000
0
VERTEX
8
L0D0
10
14687.5
20
16000
0
SEQEND
0
POLYLINE
8
L0D0
70
1
40
0
41
0
66
1
0
VERTEX
8
L0D0
10
14912.5
20
16000
0
VERTEX
8
L0D0
10
14912.5
20
19000
0
VERTEX
8
L0D0
10
15212.5
20
19000
0
VERTEX
8
L0D0
10
15212.5
20
16000
0
SEQEND
0
POLYLINE
8
L0D0
70
1
40
0
41
0
66
1
0
VERTEX
8
L0D0
10
18037.5
20
16000
0
VERTEX
8
L0D0
10
18037.5
20
19000
0
VERTEX
8
L0D0
10
18387.5
20
19000
0
VERTEX
8
L0D0
10
18387.5
20
16000
0
SEQEND
0
POLYLINE
8
L0D0
70
1
40
0
41
0
66
1
0
VERTEX
8
L0D0
10
18612.5
20
16000
0
VERTEX
8
L0D0
10
18612.5
20
19000
0
VERTEX
8
L0D0
10
18962.5
20
19000
0
VERTEX
8
L0D0
10
18962.5
20
16000
0
SEQEND
0
POLYLINE
8
L0D0
70
1
40
0
41
0
66
1
0
VERTEX
8
L0D0
10
21687.5
20
16000
0
VERTEX
8
L0D0
10
21687.5
20
19000
0
VERTEX
8
L0D0
10
22087.5
20
19000
0
VERTEX
8
L0D0
10
22087.5
20
16000
0
SEQEND
0
POLYLINE
8
L0D0
70
1
40
0
41
0
66
1
0
VERTEX
8
L0D0
10
22312.5
20
16000
0
VERTEX
8
L0D0
10
22312.5
20
19000
0
VERTEX
8
L0D0
10
22712.5
20
19000
0
VERTEX
8
L0D0
10
22712.5
20
16000
0
SEQEND
0
POLYLINE
8
L0D0
70
1
40
0
41
0
66
1
0
VERTEX
8
L0D0
10
25337.5
20
16000
0
VERTEX
8
L0D0
10
25337.5
20
19000
0
VERTEX
8
L0D0
10
25787.5
20
19000
0
VERTEX
8
L0D0
10
25787.5
20
16000
0
SEQEND
0
POLYLINE
8
L0D0
70
1
40
0
41
0
66
1
0
VERTEX
8
L0D0
10
26012.5
20
16000
0
VERTEX
8
L0D0
10
26012.5
20
19000
0
VERTEX
8
L0D0
10
26462.5
20
19000
0
VERTEX
8
L0D0
10
26462.5
20
16000
0
SEQEND
0
POLYLINE
8
L0D0
70
1
40
0
41
0
66
1
0
VERTEX
8
L0D0
10
28987.5
20
16000
0
VERTEX
8
L0D0
10
28987.5
20
19000
0
VERTEX
8
L0D0
10
29487.5
20
19000
0
VERTEX
8
L0D0
10
29487.5
20
16000
0
SEQEND
0
POLYLINE
8
L0D0
70
1
40
0
41
0
66
1
0
VERTEX
8
L0D0
10
29712.5
20
16000
0
VERTEX
8
L0D0
10
29712.5
20
19000
0
VERTEX
8
L0D0
10
30212.5
20
19000
0
VERTEX
8
L0D0
10
30212.5
20
16000
0
SEQEND
0
POLYLINE
8
L0D0
70
1
40
0
41
0
66
1
0
VERTEX
8
L0D0
10
32637.5
20
16000
0
VERTEX
8
L0D0
10
32637.5
20
19000
0
VERTEX
8
L0D0
10
33187.5
20
19000
0
VERTEX
8
L0D0
10
33187.5
20
16000
0
SEQEND
0
POLYLINE
8
L0D0
70
1
40
0
41
0
66
1
0
VERTEX
8
L0D0
10
33412.5
20
16000
0
VERTEX
8
L0D0
10
33412.5
20
19000
0
VERTEX
8
L0D0
10
33962.5
20
19000
0
VERTEX
8
L0D0
10
33962.5
20
16000
0
SEQEND
0
POLYLINE
8
L0D0
70
1
40
0
41
0
66
1
0
VERTEX
8
L0D0
10
18025
20
19500
0
VERTEX
8
L0D0
10
18025
20
22500
0
VERTEX
8
L0D0
10
18375
20
22500
0
VERTEX
8
L0D0
10
18375
20
19500
0
SEQEND
0
POLYLINE
8
L0D0
70
1
40
0
41
0
66
1
0
VERTEX
8
L0D0
10
18625
20
19500
0
VERTEX
8
L0D0
10
18625
20
22500
0
VERTEX
8
L0D0
10
18975
20
22500
0
VERTEX
8
L0D0
10
18975
20
19500
0
SEQEND
0
POLYLINE
8
L0D0
70
1
40
0
41
0
66
1
0
VERTEX
8
L0D0
10
21675
20
19500
0
VERTEX
8
L0D0
10
21675
20
22500
0
VERTEX
8
L0D0
10
22075
20
22500
0
VERTEX
8
L0D0
10
22075
20
19500
0
SEQEND
0
POLYLINE
8
L0D0
70
1
40
0
41
0
66
1
0
VERTEX
8
L0D0
10
22325
20
19500
0
VERTEX
8
L0D0
10
22325
20
22500
0
VERTEX
8
L0D0
10
22725
20
22500
0
VERTEX
8
L0D0
10
22725
20
19500
0
SEQEND
0
POLYLINE
8
L0D0
70
1
40
0
41
0
66
1
0
VERTEX
8
L0D0
10
21662.5
20
23000
0
VERTEX
8
L0D0
10
21662.5
20
26000
0
VERTEX
8
L0D0
10
22062.5
20
26000
0
VERTEX
8
L0D0
10
22062.5
20
23000
0
SEQEND
0
POLYLINE
8
L0D0
70
1
40
0
41
0
66
1
0
VERTEX
8
L0D0
10
22337.5
20
23000
0
VERTEX
8
L0D0
10
22337.5
20
26000
0
VERTEX
8
L0D0
10
22737.5
20
26000
0
VERTEX
8
L0D0
10
22737.5
20
23000
0
SEQEND
0
POLYLINE
8
L0D0
70
1
40
0
41
0
66
1
0
VERTEX
8
L0D0
10
21650
20
26500
0
VERTEX
8
L0D0
10
21650
20
29500
0
VERTEX
8
L0D0
10
22050
20
29500
0
VERTEX
8
L0D0
10
22050
20
26500
0
SEQEND
0
POLYLINE
8
L0D0
70
1
40
0
41
0
66
1
0
VERTEX
8
L0D0
10
22350
20
26500
0
VERTEX
8
L0D0
10
22350
20
29500
0
VERTEX
8
L0D0
10
22750
20
29500
0
VERTEX
8
L0D0
10
22750
20
26500
0
SEQEND
0
POLYLINE
8
L0D0
70
1
40
0
41
0
66
1
0
VERTEX
8
L0D0
10
21637.5
20
30000
0
VERTEX
8
L0D0
10
21637.5
20
33000
0
VERTEX
8
L0D0
10
22037.5
20
33000
0
VERTEX
8
L0D0
10
22037.5
20
30000
0
SEQEND
0
POLYLINE
8
L0D0
70
1
40
0
41
0
66
1
0
VERTEX
8
L0D0
10
22362.5
20
30000
0
VERTEX
8
L0D0
10
22362.5
20
33000
0
VERTEX
8
L0D0
10
22762.5
20
33000
0
VERTEX
8
L0D0
10
22762.5
20
30000
0
SEQEND
0
POLYLINE
8
L0D0
70
1
40
0
41
0
66
1
0
VERTEX
8
L0D0
10
18012.5
20
23000
0
VERTEX
8
L0D0
10
18012.5
20
26000
0
VERTEX
8
L0D0
10
18362.5
20
26000
0
VERTEX
8
L0D0
10
18362.5
20
23000
0
SEQEND
0
POLYLINE
8
L0D0
70
1
40
0
41
0
66
1
0
VERTEX
8
L0D0
10
18637.5
20
23000
0
VERTEX
8
L0D0
10
18637.5
20
26000
0
VERTEX
8
L0D0
10
18987.5
20
26000
0
VERTEX
8
L0D0
10
18987.5
20
23000
0
SEQEND
0
POLYLINE
8
L0D0
70
1
40
0
41
0
66
1
0
VERTEX
8
L0D0
10
25325
20
19500
0
VERTEX
8
L0D0
10
25325
20
22500
0
VERTEX
8
L0D0
10
25775
20
22500
0
VERTEX
8
L0D0
10
25775
20
19500
0
SEQEND
0
POLYLINE
8
L0D0
70
1
40
0
41
0
66
1
0
VERTEX
8
L0D0
10
26025
20
19500
0
VERTEX
8
L0D0
10
26025
20
22500
0
VERTEX
8
L0D0
10
26475
20
22500
0
VERTEX
8
L0D0
10
26475
20
19500
0
SEQEND
0
POLYLINE
8
L0D0
70
1
40
0
41
0
66
1
0
VERTEX
8
L0D0
10
25312.5
20
23000
0
VERTEX
8
L0D0
10
25312.5
20
26000
0
VERTEX
8
L0D0
10
25762.5
20
26000
0
VERTEX
8
L0D0
10
25762.5
20
23000
0
SEQEND
0
POLYLINE
8
L0D0
70
1
40
0
41
0
66
1
0
VERTEX
8
L0D0
10
26037.5
20
23000
0
VERTEX
8
L0D0
10
26037.5
20
26000
0
VERTEX
8
L0D0
10
26487.5
20
26000
0
VERTEX
8
L0D0
10
26487.5
20
23000
0
SEQEND
0
POLYLINE
8
L0D0
70
1
40
0
41
0
66
1
0
VERTEX
8
L0D0
10
25300
20
26500
0
VERTEX
8
L0D0
10
25300
20
29500
0
VERTEX
8
L0D0
10
25750
20
29500
0
VERTEX
8
L0D0
10
25750
20
26500
0
SEQEND
0
POLYLINE
8
L0D0
70
1
40
0
41
0
66
1
0
VERTEX
8
L0D0
10
26050
20
26500
0
VERTEX
8
L0D0
10
26050
20
29500
0
VERTEX
8
L0D0
10
26500
20
29500
0
VERTEX
8
L0D0
10
26500
20
26500
0
SEQEND
0
POLYLINE
8
L0D0
70
1
40
0
41
0
66
1
0
VERTEX
8
L0D0
10
25287.5
20
30000
0
VERTEX
8
L0D0
10
25287.5
20
33000
0
VERTEX
8
L0D0
10
25737.5
20
33000
0
VERTEX
8
L0D0
10
25737.5
20
30000
0
SEQEND
0
POLYLINE
8
L0D0
70
1
40
0
41
0
66
1
0
VERTEX
8
L0D0
10
26062.5
20
30000
0
VERTEX
8
L0D0
10
26062.5
20
33000
0
VERTEX
8
L0D0
10
26512.5
20
33000
0
VERTEX
8
L0D0
10
26512.5
20
30000
0
SEQEND
0
POLYLINE
8
L0D0
70
1
40
0
41
0
66
1
0
VERTEX
8
L0D0
10
18000
20
26500
0
VERTEX
8
L0D0
10
18000
20
29500
0
VERTEX
8
L0D0
10
18350
20
29500
0
VERTEX
8
L0D0
10
18350
20
26500
0
SEQEND
0
POLYLINE
8
L0D0
70
1
40
0
41
0
66
1
0
VERTEX
8
L0D0
10
18650
20
26500
0
VERTEX
8
L0D0
10
18650
20
29500
0
VERTEX
8
L0D0
10
19000
20
29500
0
VERTEX
8
L0D0
10
19000
20
26500
0
SEQEND
0
POLYLINE
8
L0D0
70
1
40
0
41
0
66
1
0
VERTEX
8
L0D0
10
28975
20
19500
0
VERTEX
8
L0D0
10
28975
20
22500
0
VERTEX
8
L0D0
10
29475
20
22500
0
VERTEX
8
L0D0
10
29475
20
19500
0
SEQEND
0
POLYLINE
8
L0D0
70
1
40
0
41
0
66
1
0
VERTEX
8
L0D0
10
29725
20
19500
0
VERTEX
8
L0D0
10
29725
20
22500
0
VERTEX
8
L0D0
10
30225
20
22500
0
VERTEX
8
L0D0
10
30225
20
19500
0
SEQEND
0
POLYLINE
8
L0D0
70
1
40
0
41
0
66
1
0
VERTEX
8
L0D0
10
28962.5
20
23000
0
VERTEX
8
L0D0
10
28962.5
20
26000
0
VERTEX
8
L0D0
10
29462.5
20
26000
0
VERTEX
8
L0D0
10
29462.5
20
23000
0
SEQEND
0
POLYLINE
8
L0D0
70
1
40
0
41
0
66
1
0
VERTEX
8
L0D0
10
29737.5
20
23000
0
VERTEX
8
L0D0
10
29737.5
20
26000
0
VERTEX
8
L0D0
10
30237.5
20
26000
0
VERTEX
8
L0D0
10
30237.5
20
23000
0
SEQEND
0
POLYLINE
8
L0D0
70
1
40
0
41
0
66
1
0
VERTEX
8
L0D0
10
28950
20
26500
0
VERTEX
8
L0D0
10
28950
20
29500
0
VERTEX
8
L0D0
10
29450
20
29500
0
VERTEX
8
L0D0
10
29450
20
26500
0
SEQEND
0
POLYLINE
8
L0D0
70
1
40
0
41
0
66
1
0
VERTEX
8
L0D0
10
29750
20
26500
0
VERTEX
8
L0D0
10
29750
20
29500
0
VERTEX
8
L0D0
10
30250
20
29500
0
VERTEX
8
L0D0
10
30250
20
26500
0
SEQEND
0
POLYLINE
8
L0D0
70
1
40
0
41
0
66
1
0
VERTEX
8
L0D0
10
28937.5
20
30000
0
VERTEX
8
L0D0
10
28937.5
20
33000
0
VERTEX
8
L0D0
10
29437.5
20
33000
0
VERTEX
8
L0D0
10
29437.5
20
30000
0
SEQEND
0
POLYLINE
8
L0D0
70
1
40
0
41
0
66
1
0
VERTEX
8
L0D0
10
29762.5
20
30000
0
VERTEX
8
L0D0
10
29762.5
20
33000
0
VERTEX
8
L0D0
10
30262.5
20
33000
0
VERTEX
8
L0D0
10
30262.5
20
30000
0
SEQEND
0
POLYLINE
8
L0D0
70
1
40
0
41
0
66
1
0
VERTEX
8
L0D0
10
17987.5
20
30000
0
VERTEX
8
L0D0
10
17987.5
20
33000
0
VERTEX
8
L0D0
10
18337.5
20
33000
0
VERTEX
8
L0D0
10
18337.5
20
30000
0
SEQEND
0
POLYLINE
8
L0D0
70
1
40
0
41
0
66
1
0
VERTEX
8
L0D0
10
18662.5
20
30000
0
VERTEX
8
L0D0
10
18662.5
20
33000
0
VERTEX
8
L0D0
10
19012.5
20
33000
0
VERTEX
8
L0D0
10
19012.5
20
30000
0
SEQEND
0
POLYLINE
8
L0D0
70
1
40
0
41
0
66
1
0
VERTEX
8
L0D0
10
32625
20
19500
0
VERTEX
8
L0D0
10
32625
20
22500
0
VERTEX
8
L0D0
10
33175
20
22500
0
VERTEX
8
L0D0
10
33175
20
19500
0
SEQEND
0
POLYLINE
8
L0D0
70
1
40
0
41
0
66
1
0
VERTEX
8
L0D0
10
33425
20
19500
0
VERTEX
8
L0D0
10
33425
20
22500
0
VERTEX
8
L0D0
10
33975
20
22500
0
VERTEX
8
L0D0
10
33975
20
19500
0
SEQEND
0
POLYLINE
8
L0D0
70
1
40
0
41
0
66
1
0
VERTEX
8
L0D0
10
32612.5
20
23000
0
VERTEX
8
L0D0
10
32612.5
20
26000
0
VERTEX
8
L0D0
10
33162.5
20
26000
0
VERTEX
8
L0D0
10
33162.5
20
23000
0
SEQEND
0
POLYLINE
8
L0D0
70
1
40
0
41
0
66
1
0
VERTEX
8
L0D0
10
33437.5
20
23000
0
VERTEX
8
L0D0
10
33437.5
20
26000
0
VERTEX
8
L0D0
10
33987.5
20
26000
0
VERTEX
8
L0D0
10
33987.5
20
23000
0
SEQEND
0
POLYLINE
8
L0D0
70
1
40
0
41
0
66
1
0
VERTEX
8
L0D0
10
32600
20
26500
0
VERTEX
8
L0D0
10
32600
20
29500
0
VERTEX
8
L0D0
10
33150
20
29500
0
VERTEX
8
L0D0
10
33150
20
26500
0
SEQEND
0
POLYLINE
8
L0D0
70
1
40
0
41
0
66
1
0
VERTEX
8
L0D0
10
33450
20
26500
0
VERTEX
8
L0D0
10
33450
20
29500
0
VERTEX
8
L0D0
10
34000
20
29500
0
VERTEX
8
L0D0
10
34000
20
26500
0
SEQEND
0
POLYLINE
8
L0D0
70
1
40
0
41
0
66
1
0
VERTEX
8
L0D0
10
32587.5
20
30000
0
VERTEX
8
L0D0
10
32587.5
20
33000
0
VERTEX
8
L0D0
10
33137.5
20
33000
0
VERTEX
8
L0D0
10
33137.5
20
30000
0
SEQEND
0
POLYLINE
8
L0D0
70
1
40
0
41
0
66
1
0
VERTEX
8
L0D0
10
33462.5
20
30000
0
VERTEX
8
L0D0
10
33462.5
20
33000
0
VERTEX
8
L0D0
10
34012.5
20
33000
0
VERTEX
8
L0D0
10
34012.5
20
30000
0
SEQEND
0
POLYLINE
8
L0D0
70
1
40
0
41
0
66
1
0
VERTEX
8
L0D0
10
15459.722
20
34411.111
0
VERTEX
8
L0D0
10
15459.722
20
34633.333
0
VERTEX
8
L0D0
10
15681.944
20
34633.333
0
VERTEX
8
L0D0
10
15681.944
20
34411.111
0
SEQEND
0
POLYLINE
8
L0D0
70
1
40
0
41
0
66
1
0
VERTEX
8
L0D0
10
22859.722
20
34411.111
0
VERTEX
8
L0D0
10
22859.722
20
34633.333
0
VERTEX
8
L0D0
10
23081.944
20
34633.333
0
VERTEX
8
L0D0
10
23081.944
20
34411.111
0
SEQEND
0
POLYLINE
8
L0D0
70
1
40
0
41
0
66
1
0
VERTEX
8
L0D0
10
30259.722
20
34411.111
0
VERTEX
8
L0D0
10
30259.722
20
34633.333
0
VERTEX
8
L0D0
10
30481.944
20
34633.333
0
VERTEX
8
L0D0
10
30481.944
20
34411.111
0
SEQEND
0
POLYLINE
8
L0D0
70
1
40
0
41
0
66
1
0
VERTEX
8
L0D0
10
7525
20
19500
0
VERTEX
8
L0D0
10
7525
20
22500
0
VERTEX
8
L0D0
10
7725
20
22500
0
VERTEX
8
L0D0
10
7725
20
19500
0
SEQEND
0
POLYLINE
8
L0D0
70
1
40
0
41
0
66
1
0
VERTEX
8
L0D0
10
7062.5
20
23000
0
VERTEX
8
L0D0
10
7062.5
20
26000
0
VERTEX
8
L0D0
10
7262.5
20
26000
0
VERTEX
8
L0D0
10
7262.5
20
23000
0
SEQEND
0
POLYLINE
8
L0D0
70
1
40
0
41
0
66
1
0
VERTEX
8
L0D0
10
7537.5
20
23000
0
VERTEX
8
L0D0
10
7537.5
20
26000
0
VERTEX
8
L0D0
10
7737.5
20
26000
0
VERTEX
8
L0D0
10
7737.5
20
23000
0
SEQEND
0
POLYLINE
8
L0D0
70
1
40
0
41
0
66
1
0
VERTEX
8
L0D0
10
7050
20
26500
0
VERTEX
8
L0D0
10
7050
20
29500
0
VERTEX
8
L0D0
10
7250
20
29500
0
VERTEX
8
L0D0
10
7250
20
26500
0
SEQEND
0
POLYLINE
8
L0D0
70
1
40
0
41
0
66
1
0
VERTEX
8
L0D0
10
7550
20
26500
0
VERTEX
8
L0D0
10
7550
20
29500
0
VERTEX
8
L0D0
10
7750
20
29500
0
VERTEX
8
L0D0
10
7750
20
26500
0
SEQEND
0
POLYLINE
8
L0D0
70
1
40
0
41
0
66
1
0
VERTEX
8
L0D0
10
7037.5
20
30000
0
VERTEX
8
L0D0
10
7037.5
20
33000
0
VERTEX
8
L0D0
10
7237.5
20
33000
0
VERTEX
8
L0D0
10
7237.5
20
30000
0
SEQEND
0
POLYLINE
8
L0D0
70
1
40
0
41
0
66
1
0
VERTEX
8
L0D0
10
7562.5
20
30000
0
VERTEX
8
L0D0
10
7562.5
20
33000
0
VERTEX
8
L0D0
10
7762.5
20
33000
0
VERTEX
8
L0D0
10
7762.5
20
30000
0
SEQEND
0
POLYLINE
8
L0D0
70
1
40
0
41
0
66
1
0
VERTEX
8
L0D0
10
-250
20
26500
0
VERTEX
8
L0D0
10
-250
20
29500
0
VERTEX
8
L0D0
10
-150
20
29500
0
VERTEX
8
L0D0
10
-150
20
26500
0
SEQEND
0
POLYLINE
8
L0D0
70
1
40
0
41
0
66
1
0
VERTEX
8
L0D0
10
150
20
26500
0
VERTEX
8
L0D0
10
150
20
29500
0
VERTEX
8
L0D0
10
250
20
29500
0
VERTEX
8
L0D0
10
250
20
26500
0
SEQEND
0
POLYLINE
8
L0D0
70
1
40
0
41
0
66
1
0
VERTEX
8
L0D0
10
10725
20
19500
0
VERTEX
8
L0D0
10
10725
20
22500
0
VERTEX
8
L0D0
10
10975
20
22500
0
VERTEX
8
L0D0
10
10975
20
19500
0
SEQEND
0
POLYLINE
8
L0D0
70
1
40
0
41
0
66
1
0
VERTEX
8
L0D0
10
11225
20
19500
0
VERTEX
8
L0D0
10
11225
20
22500
0
VERTEX
8
L0D0
10
11475
20
22500
0
VERTEX
8
L0D0
10
11475
20
19500
0
SEQEND
0
POLYLINE
8
L0D0
70
1
40
0
41
0
66
1
0
VERTEX
8
L0D0
10
10712.5
20
23000
0
VERTEX
8
L0D0
10
10712.5
20
26000
0
VERTEX
8
L0D0
10
10962.5
20
26000
0
VERTEX
8
L0D0
10
10962.5
20
23000
0
SEQEND
0
POLYLINE
8
L0D0
70
1
40
0
41
0
66
1
0
VERTEX
8
L0D0
10
11237.5
20
23000
0
VERTEX
8
L0D0
10
11237.5
20
26000
0
VERTEX
8
L0D0
10
11487.5
20
26000
0
VERTEX
8
L0D0
10
11487.5
20
23000
0
SEQEND
0
POLYLINE
8
L0D0
70
1
40
0
41
0
66
1
0
VERTEX
8
L0D0
10
10700
20
26500
0
VERTEX
8
L0D0
10
10700
20
29500
0
VERTEX
8
L0D0
10
10950
20
29500
0
VERTEX
8
L0D0
10
10950
20
26500
0
SEQEND
0
POLYLINE
8
L0D0
70
1
40
0
41
0
66
1
0
VERTEX
8
L0D0
10
11250
20
26500
0
VERTEX
8
L0D0
10
11250
20
29500
0
VERTEX
8
L0D0
10
11500
20
29500
0
VERTEX
8
L0D0
10
11500
20
26500
0
SEQEND
0
POLYLINE
8
L0D0
70
1
40
0
41
0
66
1
0
VERTEX
8
L0D0
10
10687.5
20
30000
0
VERTEX
8
L0D0
10
10687.5
20
33000
0
VERTEX
8
L0D0
10
10937.5
20
33000
0
VERTEX
8
L0D0
10
10937.5
20
30000
0
SEQEND
0
POLYLINE
8
L0D0
70
1
40
0
41
0
66
1
0
VERTEX
8
L0D0
10
11262.5
20
30000
0
VERTEX
8
L0D0
10
11262.5
20
33000
0
VERTEX
8
L0D0
10
11512.5
20
33000
0
VERTEX
8
L0D0
10
11512.5
20
30000
0
SEQEND
0
POLYLINE
8
L0D0
70
1
40
0
41
0
66
1
0
VERTEX
8
L0D0
10
-262.5
20
30000
0
VERTEX
8
L0D0
10
-262.5
20
33000
0
VERTEX
8
L0D0
10
-162.5
20
33000
0
VERTEX
8
L0D0
10
-162.5
20
30000
0
SEQEND
0
POLYLINE
8
L0D0
70
1
40
0
41
0
66
1
0
VERTEX
8
L0D0
10
162.5
20
30000
0
VERTEX
8
L0D0
10
162.5
20
33000
0
VERTEX
8
L0D0
10
262.5
20
33000
0
VERTEX
8
L0D0
10
262.5
20
30000
0
SEQEND
0
POLYLINE
8
L0D0
70
1
40
0
41
0
66
1
0
VERTEX
8
L0D0
10
14375
20
19500
0
VERTEX
8
L0D0
10
14375
20
22500
0
VERTEX
8
L0D0
10
14675
20
22500
0
VERTEX
8
L0D0
10
14675
20
19500
0
SEQEND
0
POLYLINE
8
L0D0
70
1
40
0
41
0
66
1
0
VERTEX
8
L0D0
10
14925
20
19500
0
VERTEX
8
L0D0
10
14925
20
22500
0
VERTEX
8
L0D0
10
15225
20
22500
0
VERTEX
8
L0D0
10
15225
20
19500
0
SEQEND
0
POLYLINE
8
L0D0
70
1
40
0
41
0
66
1
0
VERTEX
8
L0D0
10
14362.5
20
23000
0
VERTEX
8
L0D0
10
14362.5
20
26000
0
VERTEX
8
L0D0
10
14662.5
20
26000
0
VERTEX
8
L0D0
10
14662.5
20
23000
0
SEQEND
0
POLYLINE
8
L0D0
70
1
40
0
41
0
66
1
0
VERTEX
8
L0D0
10
14937.5
20
23000
0
VERTEX
8
L0D0
10
14937.5
20
26000
0
VERTEX
8
L0D0
10
15237.5
20
26000
0
VERTEX
8
L0D0
10
15237.5
20
23000
0
SEQEND
0
POLYLINE
8
L0D0
70
1
40
0
41
0
66
1
0
VERTEX
8
L0D0
10
14350
20
26500
0
VERTEX
8
L0D0
10
14350
20
29500
0
VERTEX
8
L0D0
10
14650
20
29500
0
VERTEX
8
L0D0
10
14650
20
26500
0
SEQEND
0
POLYLINE
8
L0D0
70
1
40
0
41
0
66
1
0
VERTEX
8
L0D0
10
14950
20
26500
0
VERTEX
8
L0D0
10
14950
20
29500
0
VERTEX
8
L0D0
10
15250
20
29500
0
VERTEX
8
L0D0
10
15250
20
26500
0
SEQEND
0
POLYLINE
8
L0D0
70
1
40
0
41
0
66
1
0
VERTEX
8
L0D0
10
14337.5
20
30000
0
VERTEX
8
L0D0
10
14337.5
20
33000
0
VERTEX
8
L0D0
10
14637.5
20
33000
0
VERTEX
8
L0D0
10
14637.5
20
30000
0
SEQEND
0
POLYLINE
8
L0D0
70
1
40
0
41
0
66
1
0
VERTEX
8
L0D0
10
14962.5
20
30000
0
VERTEX
8
L0D0
10
14962.5
20
33000
0
VERTEX
8
L0D0
10
15262.5
20
33000
0
VERTEX
8
L0D0
10
15262.5
20
30000
0
SEQEND
0
POLYLINE
8
L0D0
70
1
40
0
41
0
66
1
0
VERTEX
8
L0D0
10
-225
20
19500
0
VERTEX
8
L0D0
10
-225
20
22500
0
VERTEX
8
L0D0
10
-125
20
22500
0
VERTEX
8
L0D0
10
-125
20
19500
0
SEQEND
0
POLYLINE
8
L0D0
70
1
40
0
41
0
66
1
0
VERTEX
8
L0D0
10
125
20
19500
0
VERTEX
8
L0D0
10
125
20
22500
0
VERTEX
8
L0D0
10
225
20
22500
0
VERTEX
8
L0D0
10
225
20
19500
0
SEQEND
0
POLYLINE
8
L0D0
70
1
40
0
41
0
66
1
0
VERTEX
8
L0D0
10
3425
20
19500
0
VERTEX
8
L0D0
10
3425
20
22500
0
VERTEX
8
L0D0
10
3575
20
22500
0
VERTEX
8
L0D0
10
3575
20
19500
0
SEQEND
0
POLYLINE
8
L0D0
70
1
40
0
41
0
66
1
0
VERTEX
8
L0D0
10
3825
20
19500
0
VERTEX
8
L0D0
10
3825
20
22500
0
VERTEX
8
L0D0
10
3975
20
22500
0
VERTEX
8
L0D0
10
3975
20
19500
0
SEQEND
0
POLYLINE
8
L0D0
70
1
40
0
41
0
66
1
0
VERTEX
8
L0D0
10
3412.5
20
23000
0
VERTEX
8
L0D0
10
3412.5
20
26000
0
VERTEX
8
L0D0
10
3562.5
20
26000
0
VERTEX
8
L0D0
10
3562.5
20
23000
0
SEQEND
0
POLYLINE
8
L0D0
70
1
40
0
41
0
66
1
0
VERTEX
8
L0D0
10
3837.5
20
23000
0
VERTEX
8
L0D0
10
3837.5
20
26000
0
VERTEX
8
L0D0
10
3987.5
20
26000
0
VERTEX
8
L0D0
10
3987.5
20
23000
0
SEQEND
0
POLYLINE
8
L0D0
70
1
40
0
41
0
66
1
0
VERTEX
8
L0D0
10
3400
20
26500
0
VERTEX
8
L0D0
10
3400
20
29500
0
VERTEX
8
L0D0
10
3550
20
29500
0
VERTEX
8
L0D0
10
3550
20
26500
0
SEQEND
0
POLYLINE
8
L0D0
70
1
40
0
41
0
66
1
0
VERTEX
8
L0D0
10
3850
20
26500
0
VERTEX
8
L0D0
10
3850
20
29500
0
VERTEX
8
L0D0
10
4000
20
29500
0
VERTEX
8
L0D0
10
4000
20
26500
0
SEQEND
0
POLYLINE
8
L0D0
70
1
40
0
41
0
66
1
0
VERTEX
8
L0D0
10
3387.5
20
30000
0
VERTEX
8
L0D0
10
3387.5
20
33000
0
VERTEX
8
L0D0
10
3537.5
20
33000
0
VERTEX
8
L0D0
10
3537.5
20
30000
0
SEQEND
0
POLYLINE
8
L0D0
70
1
40
0
41
0
66
1
0
VERTEX
8
L0D0
10
3862.5
20
30000
0
VERTEX
8
L0D0
10
3862.5
20
33000
0
VERTEX
8
L0D0
10
4012.5
20
33000
0
VERTEX
8
L0D0
10
4012.5
20
30000
0
SEQEND
0
POLYLINE
8
L0D0
70
1
40
0
41
0
66
1
0
VERTEX
8
L0D0
10
659.722
20
34411.111
0
VERTEX
8
L0D0
10
659.722
20
34633.333
0
VERTEX
8
L0D0
10
881.944
20
34633.333
0
VERTEX
8
L0D0
10
881.944
20
34411.111
0
SEQEND
0
POLYLINE
8
L0D0
70
1
40
0
41
0
66
1
0
VERTEX
8
L0D0
10
5837.5
20
34855.556
0
VERTEX
8
L0D0
10
5837.5
20
35077.778
0
VERTEX
8
L0D0
10
6059.722
20
35077.778
0
VERTEX
8
L0D0
10
6059.722
20
34855.556
0
SEQEND
0
POLYLINE
8
L0D0
70
1
40
0
41
0
66
1
0
VERTEX
8
L0D0
10
6504.167
20
34411.111
0
VERTEX
8
L0D0
10
6504.167
20
34633.333
0
VERTEX
8
L0D0
10
6726.389
20
34633.333
0
VERTEX
8
L0D0
10
6726.389
20
34411.111
0
SEQEND
0
POLYLINE
8
L0D0
70
1
40
0
41
0
66
1
0
VERTEX
8
L0D0
10
8059.722
20
34411.111
0
VERTEX
8
L0D0
10
8059.722
20
34633.333
0
VERTEX
8
L0D0
10
8281.944
20
34633.333
0
VERTEX
8
L0D0
10
8281.944
20
34411.111
0
SEQEND
0
POLYLINE
8
L0D0
70
1
40
0
41
0
66
1
0
VERTEX
8
L0D0
10
9537.5
20
34855.556
0
VERTEX
8
L0D0
10
9537.5
20
35077.778
0
VERTEX
8
L0D0
10
9759.722
20
35077.778
0
VERTEX
8
L0D0
10
9759.722
20
34855.556
0
SEQEND
0
POLYLINE
8
L0D0
70
1
40
0
41
0
66
1
0
VERTEX
8
L0D0
10
10204.167
20
34411.111
0
VERTEX
8
L0D0
10
10204.167
20
34633.333
0
VERTEX
8
L0D0
10
10426.389
20
34633.333
0
VERTEX
8
L0D0
10
10426.389
20
34411.111
0
SEQEND
0
POLYLINE
8
L0D0
70
1
40
0
41
0
66
1
0
VERTEX
8
L0D0
10
-237.5
20
23000
0
VERTEX
8
L0D0
10
-237.5
20
26000
0
VERTEX
8
L0D0
10
-137.5
20
26000
0
VERTEX
8
L0D0
10
-137.5
20
23000
0
SEQEND
0
POLYLINE
8
L0D0
70
1
40
0
41
0
66
1
0
VERTEX
8
L0D0
10
137.5
20
23000
0
VERTEX
8
L0D0
10
137.5
20
26000
0
VERTEX
8
L0D0
10
237.5
20
26000
0
VERTEX
8
L0D0
10
237.5
20
23000
0
SEQEND
0
POLYLINE
8
L0D0
70
1
40
0
41
0
66
1
0
VERTEX
8
L0D0
10
7075
20
19500
0
VERTEX
8
L0D0
10
7075
20
22500
0
VERTEX
8
L0D0
10
7275
20
22500
0
VERTEX
8
L0D0
10
7275
20
19500
0
SEQEND
0
POLYLINE
8
L0D0
70
1
40
0
41
0
66
1
0
VERTEX
8
L0D0
10
-3262.5
20
22555.556
0
VERTEX
8
L0D0
10
-3262.5
20
22777.778
0
VERTEX
8
L0D0
10
-3040.278
20
22777.778
0
VERTEX
8
L0D0
10
-3040.278
20
22555.556
0
SEQEND
0
POLYLINE
8
L0D0
70
1
40
0
41
0
66
1
0
VERTEX
8
L0D0
10
-2595.833
20
22111.111
0
VERTEX
8
L0D0
10
-2595.833
20
22333.333
0
VERTEX
8
L0D0
10
-2373.611
20
22333.333
0
VERTEX
8
L0D0
10
-2373.611
20
22111.111
0
SEQEND
0
POLYLINE
8
L0D0
70
1
40
0
41
0
66
1
0
VERTEX
8
L0D0
10
-2818.056
20
26666.667
0
VERTEX
8
L0D0
10
-2818.056
20
26888.889
0
VERTEX
8
L0D0
10
-2595.833
20
26888.889
0
VERTEX
8
L0D0
10
-2595.833
20
26666.667
0
SEQEND
0
POLYLINE
8
L0D0
70
1
40
0
41
0
66
1
0
VERTEX
8
L0D0
10
10787.5
20
2000
0
VERTEX
8
L0D0
10
10787.5
20
5000
0
VERTEX
8
L0D0
10
11037.5
20
5000
0
VERTEX
8
L0D0
10
11037.5
20
2000
0
SEQEND
0
POLYLINE
8
L0D0
70
1
40
0
41
0
66
1
0
VERTEX
8
L0D0
10
11162.5
20
2000
0
VERTEX
8
L0D0
10
11162.5
20
5000
0
VERTEX
8
L0D0
10
11412.5
20
5000
0
VERTEX
8
L0D0
10
11412.5
20
2000
0
SEQEND
0
POLYLINE
8
L0D0
70
1
40
0
41
0
66
1
0
VERTEX
8
L0D0
10
10775
20
5500
0
VERTEX
8
L0D0
10
10775
20
8500
0
VERTEX
8
L0D0
10
11025
20
8500
0
VERTEX
8
L0D0
10
11025
20
5500
0
SEQEND
0
POLYLINE
8
L0D0
70
1
40
0
41
0
66
1
0
VERTEX
8
L0D0
10
11175
20
5500
0
VERTEX
8
L0D0
10
11175
20
8500
0
VERTEX
8
L0D0
10
11425
20
8500
0
VERTEX
8
L0D0
10
11425
20
5500
0
SEQEND
0
POLYLINE
8
L0D0
70
1
40
0
41
0
66
1
0
VERTEX
8
L0D0
10
10762.5
20
9000
0
VERTEX
8
L0D0
10
10762.5
20
12000
0
VERTEX
8
L0D0
10
11012.5
20
12000
0
VERTEX
8
L0D0
10
11012.5
20
9000
0
SEQEND
0
POLYLINE
8
L0D0
70
1
40
0
41
0
66
1
0
VERTEX
8
L0D0
10
11187.5
20
9000
0
VERTEX
8
L0D0
10
11187.5
20
12000
0
VERTEX
8
L0D0
10
11437.5
20
12000
0
VERTEX
8
L0D0
10
11437.5
20
9000
0
SEQEND
0
POLYLINE
8
L0D0
70
1
40
0
41
0
66
1
0
VERTEX
8
L0D0
10
10750
20
12500
0
VERTEX
8
L0D0
10
10750
20
15500
0
VERTEX
8
L0D0
10
11000
20
15500
0
VERTEX
8
L0D0
10
11000
20
12500
0
SEQEND
0
POLYLINE
8
L0D0
70
1
40
0
41
0
66
1
0
VERTEX
8
L0D0
10
11200
20
12500
0
VERTEX
8
L0D0
10
11200
20
15500
0
VERTEX
8
L0D0
10
11450
20
15500
0
VERTEX
8
L0D0
10
11450
20
12500
0
SEQEND
0
POLYLINE
8
L0D0
70
1
40
0
41
0
66
1
0
VERTEX
8
L0D0
10
-150
20
-1500
0
VERTEX
8
L0D0
10
-150
20
1500
0
VERTEX
8
L0D0
10
-50
20
1500
0
VERTEX
8
L0D0
10
-50
20
-1500
0
SEQEND
0
POLYLINE
8
L0D0
70
1
40
0
41
0
66
1
0
VERTEX
8
L0D0
10
50
20
-1500
0
VERTEX
8
L0D0
10
50
20
1500
0
VERTEX
8
L0D0
10
150
20
1500
0
VERTEX
8
L0D0
10
150
20
-1500
0
SEQEND
0
POLYLINE
8
L0D0
70
1
40
0
41
0
66
1
0
VERTEX
8
L0D0
10
-162.5
20
2000
0
VERTEX
8
L0D0
10
-162.5
20
5000
0
VERTEX
8
L0D0
10
-62.5
20
5000
0
VERTEX
8
L0D0
10
-62.5
20
2000
0
SEQEND
0
POLYLINE
8
L0D0
70
1
40
0
41
0
66
1
0
VERTEX
8
L0D0
10
62.5
20
2000
0
VERTEX
8
L0D0
10
62.5
20
5000
0
VERTEX
8
L0D0
10
162.5
20
5000
0
VERTEX
8
L0D0
10
162.5
20
2000
0
SEQEND
0
POLYLINE
8
L0D0
70
1
40
0
41
0
66
1
0
VERTEX
8
L0D0
10
-175
20
5500
0
VERTEX
8
L0D0
10
-175
20
8500
0
VERTEX
8
L0D0
10
-75
20
8500
0
VERTEX
8
L0D0
10
-75
20
5500
0
SEQEND
0
POLYLINE
8
L0D0
70
1
40
0
41
0
66
1
0
VERTEX
8
L0D0
10
75
20
5500
0
VERTEX
8
L0D0
10
75
20
8500
0
VERTEX
8
L0D0
10
175
20
8500
0
VERTEX
8
L0D0
10
175
20
5500
0
SEQEND
0
POLYLINE
8
L0D0
70
1
40
0
41
0
66
1
0
VERTEX
8
L0D0
10
-187.5
20
9000
0
VERTEX
8
L0D0
10
-187.5
20
12000
0
VERTEX
8
L0D0
10
-87.5
20
12000
0
VERTEX
8
L0D0
10
-87.5
20
9000
0
SEQEND
0
POLYLINE
8
L0D0
70
1
40
0
41
0
66
1
0
VERTEX
8
L0D0
10
87.5
20
9000
0
VERTEX
8
L0D0
10
87.5
20
12000
0
VERTEX
8
L0D0
10
187.5
20
12000
0
VERTEX
8
L0D0
10
187.5
20
9000
0
SEQEND
0
POLYLINE
8
L0D0
70
1
40
0
41
0
66
1
0
VERTEX
8
L0D0
10
-200
20
12500
0
VERTEX
8
L0D0
10
-200
20
15500
0
VERTEX
8
L0D0
10
-100
20
15500
0
VERTEX
8
L0D0
10
-100
20
12500
0
SEQEND
0
POLYLINE
8
L0D0
70
1
40
0
41
0
66
1
0
VERTEX
8
L0D0
10
100
20
12500
0
VERTEX
8
L0D0
10
100
20
15500
0
VERTEX
8
L0D0
10
200
20
15500
0
VERTEX
8
L0D0
10
200
20
12500
0
SEQEND
0
POLYLINE
8
L0D0
70
1
40
0
41
0
66
1
0
VERTEX
8
L0D0
10
14450
20
-1500
0
VERTEX
8
L0D0
10
14450
20
1500
0
VERTEX
8
L0D0
10
14750
20
1500
0
VERTEX
8
L0D0
10
14750
20
-1500
0
SEQEND
0
POLYLINE
8
L0D0
70
1
40
0
41
0
66
1
0
VERTEX
8
L0D0
10
14850
20
-1500
0
VERTEX
8
L0D0
10
14850
20
1500
0
VERTEX
8
L0D0
10
15150
20
1500
0
VERTEX
8
L0D0
10
15150
20
-1500
0
SEQEND
0
POLYLINE
8
L0D0
70
1
40
0
41
0
66
1
0
VERTEX
8
L0D0
10
14437.5
20
2000
0
VERTEX
8
L0D0
10
14437.5
20
5000
0
VERTEX
8
L0D0
10
14737.5
20
5000
0
VERTEX
8
L0D0
10
14737.5
20
2000
0
SEQEND
0
POLYLINE
8
L0D0
70
1
40
0
41
0
66
1
0
VERTEX
8
L0D0
10
14862.5
20
2000
0
VERTEX
8
L0D0
10
14862.5
20
5000
0
VERTEX
8
L0D0
10
15162.5
20
5000
0
VERTEX
8
L0D0
10
15162.5
20
2000
0
SEQEND
0
POLYLINE
8
L0D0
70
1
40
0
41
0
66
1
0
VERTEX
8
L0D0
10
14425
20
5500
0
VERTEX
8
L0D0
10
14425
20
8500
0
VERTEX
8
L0D0
10
14725
20
8500
0
VERTEX
8
L0D0
10
14725
20
5500
0
SEQEND
0
POLYLINE
8
L0D0
70
1
40
0
41
0
66
1
0
VERTEX
8
L0D0
10
14875
20
5500
0
VERTEX
8
L0D0
10
14875
20
8500
0
VERTEX
8
L0D0
10
15175
20
8500
0
VERTEX
8
L0D0
10
15175
20
5500
0
SEQEND
0
POLYLINE
8
L0D0
70
1
40
0
41
0
66
1
0
VERTEX
8
L0D0
10
14412.5
20
9000
0
VERTEX
8
L0D0
10
14412.5
20
12000
0
VERTEX
8
L0D0
10
14712.5
20
12000
0
VERTEX
8
L0D0
10
14712.5
20
9000
0
SEQEND
0
POLYLINE
8
L0D0
70
1
40
0
41
0
66
1
0
VERTEX
8
L0D0
10
14887.5
20
9000
0
VERTEX
8
L0D0
10
14887.5
20
12000
0
VERTEX
8
L0D0
10
15187.5
20
12000
0
VERTEX
8
L0D0
10
15187.5
20
9000
0
SEQEND
0
POLYLINE
8
L0D0
70
1
40
0
41
0
66
1
0
VERTEX
8
L0D0
10
14400
20
12500
0
VERTEX
8
L0D0
10
14400
20
15500
0
VERTEX
8
L0D0
10
14700
20
15500
0
VERTEX
8
L0D0
10
14700
20
12500
0
SEQEND
0
POLYLINE
8
L0D0
70
1
40
0
41
0
66
1
0
VERTEX
8
L0D0
10
14900
20
12500
0
VERTEX
8
L0D0
10
14900
20
15500
0
VERTEX
8
L0D0
10
15200
20
15500
0
VERTEX
8
L0D0
10
15200
20
12500
0
SEQEND
0
POLYLINE
8
L0D0
70
1
40
0
41
0
66
1
0
VERTEX
8
L0D0
10
7150
20
-1500
0
VERTEX
8
L0D0
10
7150
20
1500
0
VERTEX
8
L0D0
10
7350
20
1500
0
VERTEX
8
L0D0
10
7350
20
-1500
0
SEQEND
0
POLYLINE
8
L0D0
70
1
40
0
41
0
66
1
0
VERTEX
8
L0D0
10
7450
20
-1500
0
VERTEX
8
L0D0
10
7450
20
1500
0
VERTEX
8
L0D0
10
7650
20
1500
0
VERTEX
8
L0D0
10
7650
20
-1500
0
SEQEND
0
POLYLINE
8
L0D0
70
1
40
0
41
0
66
1
0
VERTEX
8
L0D0
10
7137.5
20
2000
0
VERTEX
8
L0D0
10
7137.5
20
5000
0
VERTEX
8
L0D0
10
7337.5
20
5000
0
VERTEX
8
L0D0
10
7337.5
20
2000
0
SEQEND
0
POLYLINE
8
L0D0
70
1
40
0
41
0
66
1
0
VERTEX
8
L0D0
10
7462.5
20
2000
0
VERTEX
8
L0D0
10
7462.5
20
5000
0
VERTEX
8
L0D0
10
7662.5
20
5000
0
VERTEX
8
L0D0
10
7662.5
20
2000
0
SEQEND
0
POLYLINE
8
L0D0
70
1
40
0
41
0
66
1
0
VERTEX
8
L0D0
10
7125
20
5500
0
VERTEX
8
L0D0
10
7125
20
8500
0
VERTEX
8
L0D0
10
7325
20
8500
0
VERTEX
8
L0D0
10
7325
20
5500
0
SEQEND
0
POLYLINE
8
L0D0
70
1
40
0
41
0
66
1
0
VERTEX
8
L0D0
10
7475
20
5500
0
VERTEX
8
L0D0
10
7475
20
8500
0
VERTEX
8
L0D0
10
7675
20
8500
0
VERTEX
8
L0D0
10
7675
20
5500
0
SEQEND
0
POLYLINE
8
L0D0
70
1
40
0
41
0
66
1
0
VERTEX
8
L0D0
10
7112.5
20
9000
0
VERTEX
8
L0D0
10
7112.5
20
12000
0
VERTEX
8
L0D0
10
7312.5
20
12000
0
VERTEX
8
L0D0
10
7312.5
20
9000
0
SEQEND
0
POLYLINE
8
L0D0
70
1
40
0
41
0
66
1
0
VERTEX
8
L0D0
10
7487.5
20
9000
0
VERTEX
8
L0D0
10
7487.5
20
12000
0
VERTEX
8
L0D0
10
7687.5
20
12000
0
VERTEX
8
L0D0
10
7687.5
20
9000
0
SEQEND
0
POLYLINE
8
L0D0
70
1
40
0
41
0
66
1
0
VERTEX
8
L0D0
10
7100
20
12500
0
VERTEX
8
L0D0
10
7100
20
15500
0
VERTEX
8
L0D0
10
7300
20
15500
0
VERTEX
8
L0D0
10
7300
20
12500
0
SEQEND
0
POLYLINE
8
L0D0
70
1
40
0
41
0
66
1
0
VERTEX
8
L0D0
10
7500
20
12500
0
VERTEX
8
L0D0
10
7500
20
15500
0
VERTEX
8
L0D0
10
7700
20
15500
0
VERTEX
8
L0D0
10
7700
20
12500
0
SEQEND
0
POLYLINE
8
L0D0
70
1
40
0
41
0
66
1
0
VERTEX
8
L0D0
10
3500
20
-1500
0
VERTEX
8
L0D0
10
3500
20
1500
0
VERTEX
8
L0D0
10
3650
20
1500
0
VERTEX
8
L0D0
10
3650
20
-1500
0
SEQEND
0
POLYLINE
8
L0D0
70
1
40
0
41
0
66
1
0
VERTEX
8
L0D0
10
3750
20
-1500
0
VERTEX
8
L0D0
10
3750
20
1500
0
VERTEX
8
L0D0
10
3900
20
1500
0
VERTEX
8
L0D0
10
3900
20
-1500
0
SEQEND
0
POLYLINE
8
L0D0
70
1
40
0
41
0
66
1
0
VERTEX
8
L0D0
10
3487.5
20
2000
0
VERTEX
8
L0D0
10
3487.5
20
5000
0
VERTEX
8
L0D0
10
3637.5
20
5000
0
VERTEX
8
L0D0
10
3637.5
20
2000
0
SEQEND
0
POLYLINE
8
L0D0
70
1
40
0
41
0
66
1
0
VERTEX
8
L0D0
10
3762.5
20
2000
0
VERTEX
8
L0D0
10
3762.5
20
5000
0
VERTEX
8
L0D0
10
3912.5
20
5000
0
VERTEX
8
L0D0
10
3912.5
20
2000
0
SEQEND
0
POLYLINE
8
L0D0
70
1
40
0
41
0
66
1
0
VERTEX
8
L0D0
10
3475
20
5500
0
VERTEX
8
L0D0
10
3475
20
8500
0
VERTEX
8
L0D0
10
3625
20
8500
0
VERTEX
8
L0D0
10
3625
20
5500
0
SEQEND
0
POLYLINE
8
L0D0
70
1
40
0
41
0
66
1
0
VERTEX
8
L0D0
10
3775
20
5500
0
VERTEX
8
L0D0
10
3775
20
8500
0
VERTEX
8
L0D0
10
3925
20
8500
0
VERTEX
8
L0D0
10
3925
20
5500
0
SEQEND
0
POLYLINE
8
L0D0
70
1
40
0
41
0
66
1
0
VERTEX
8
L0D0
10
3462.5
20
9000
0
VERTEX
8
L0D0
10
3462.5
20
12000
0
VERTEX
8
L0D0
10
3612.5
20
12000
0
VERTEX
8
L0D0
10
3612.5
20
9000
0
SEQEND
0
POLYLINE
8
L0D0
70
1
40
0
41
0
66
1
0
VERTEX
8
L0D0
10
3787.5
20
9000
0
VERTEX
8
L0D0
10
3787.5
20
12000
0
VERTEX
8
L0D0
10
3937.5
20
12000
0
VERTEX
8
L0D0
10
3937.5
20
9000
0
SEQEND
0
POLYLINE
8
L0D0
70
1
40
0
41
0
66
1
0
VERTEX
8
L0D0
10
3450
20
12500
0
VERTEX
8
L0D0
10
3450
20
15500
0
VERTEX
8
L0D0
10
3600
20
15500
0
VERTEX
8
L0D0
10
3600
20
12500
0
SEQEND
0
POLYLINE
8
L0D0
70
1
40
0
41
0
66
1
0
VERTEX
8
L0D0
10
-2818.056
20
-1333.333
0
VERTEX
8
L0D0
10
-2818.056
20
-1111.111
0
VERTEX
8
L0D0
10
-2595.833
20
-1111.111
0
VERTEX
8
L0D0
10
-2595.833
20
-1333.333
0
SEQEND
0
POLYLINE
8
L0D0
70
1
40
0
41
0
66
1
0
VERTEX
8
L0D0
10
-3262.5
20
15555.556
0
VERTEX
8
L0D0
10
-3262.5
20
15777.778
0
VERTEX
8
L0D0
10
-3040.278
20
15777.778
0
VERTEX
8
L0D0
10
-3040.278
20
15555.556
0
SEQEND
0
POLYLINE
8
L0D0
70
1
40
0
41
0
66
1
0
VERTEX
8
L0D0
10
-2595.833
20
15111.111
0
VERTEX
8
L0D0
10
-2595.833
20
15333.333
0
VERTEX
8
L0D0
10
-2373.611
20
15333.333
0
VERTEX
8
L0D0
10
-2373.611
20
15111.111
0
SEQEND
0
POLYLINE
8
L0D0
70
1
40
0
41
0
66
1
0
VERTEX
8
L0D0
10
-2818.056
20
12666.667
0
VERTEX
8
L0D0
10
-2818.056
20
12888.889
0
VERTEX
8
L0D0
10
-2595.833
20
12888.889
0
VERTEX
8
L0D0
10
-2595.833
20
12666.667
0
SEQEND
0
POLYLINE
8
L0D0
70
1
40
0
41
0
66
1
0
VERTEX
8
L0D0
10
3800
20
12500
0
VERTEX
8
L0D0
10
3800
20
15500
0
VERTEX
8
L0D0
10
3950
20
15500
0
VERTEX
8
L0D0
10
3950
20
12500
0
SEQEND
0
POLYLINE
8
L0D0
70
1
40
0
41
0
66
1
0
VERTEX
8
L0D0
10
10800
20
-1500
0
VERTEX
8
L0D0
10
10800
20
1500
0
VERTEX
8
L0D0
10
11050
20
1500
0
VERTEX
8
L0D0
10
11050
20
-1500
0
SEQEND
0
POLYLINE
8
L0D0
70
1
40
0
41
0
66
1
0
VERTEX
8
L0D0
10
11150
20
-1500
0
VERTEX
8
L0D0
10
11150
20
1500
0
VERTEX
8
L0D0
10
11400
20
1500
0
VERTEX
8
L0D0
10
11400
20
-1500
0
SEQEND
0
POLYLINE
8
L0D0
70
1
40
0
41
0
66
1
0
VERTEX
8
L0D0
10
29012.5
20
9000
0
VERTEX
8
L0D0
10
29012.5
20
12000
0
VERTEX
8
L0D0
10
29512.5
20
12000
0
VERTEX
8
L0D0
10
29512.5
20
9000
0
SEQEND
0
POLYLINE
8
L0D0
70
1
40
0
41
0
66
1
0
VERTEX
8
L0D0
10
29687.5
20
9000
0
VERTEX
8
L0D0
10
29687.5
20
12000
0
VERTEX
8
L0D0
10
30187.5
20
12000
0
VERTEX
8
L0D0
10
30187.5
20
9000
0
SEQEND
0
POLYLINE
8
L0D0
70
1
40
0
41
0
66
1
0
VERTEX
8
L0D0
10
29000
20
12500
0
VERTEX
8
L0D0
10
29000
20
15500
0
VERTEX
8
L0D0
10
29500
20
15500
0
VERTEX
8
L0D0
10
29500
20
12500
0
SEQEND
0
POLYLINE
8
L0D0
70
1
40
0
41
0
66
1
0
VERTEX
8
L0D0
10
29700
20
12500
0
VERTEX
8
L0D0
10
29700
20
15500
0
VERTEX
8
L0D0
10
30200
20
15500
0
VERTEX
8
L0D0
10
30200
20
12500
0
SEQEND
0
POLYLINE
8
L0D0
70
1
40
0
41
0
66
1
0
VERTEX
8
L0D0
10
18100
20
-1500
0
VERTEX
8
L0D0
10
18100
20
1500
0
VERTEX
8
L0D0
10
18450
20
1500
0
VERTEX
8
L0D0
10
18450
20
-1500
0
SEQEND
0
POLYLINE
8
L0D0
70
1
40
0
41
0
66
1
0
VERTEX
8
L0D0
10
18550
20
-1500
0
VERTEX
8
L0D0
10
18550
20
1500
0
VERTEX
8
L0D0
10
18900
20
1500
0
VERTEX
8
L0D0
10
18900
20
-1500
0
SEQEND
0
POLYLINE
8
L0D0
70
1
40
0
41
0
66
1
0
VERTEX
8
L0D0
10
18087.5
20
2000
0
VERTEX
8
L0D0
10
18087.5
20
5000
0
VERTEX
8
L0D0
10
18437.5
20
5000
0
VERTEX
8
L0D0
10
18437.5
20
2000
0
SEQEND
0
POLYLINE
8
L0D0
70
1
40
0
41
0
66
1
0
VERTEX
8
L0D0
10
18562.5
20
2000
0
VERTEX
8
L0D0
10
18562.5
20
5000
0
VERTEX
8
L0D0
10
18912.5
20
5000
0
VERTEX
8
L0D0
10
18912.5
20
2000
0
SEQEND
0
POLYLINE
8
L0D0
70
1
40
0
41
0
66
1
0
VERTEX
8
L0D0
10
18075
20
5500
0
VERTEX
8
L0D0
10
18075
20
8500
0
VERTEX
8
L0D0
10
18425
20
8500
0
VERTEX
8
L0D0
10
18425
20
5500
0
SEQEND
0
POLYLINE
8
L0D0
70
1
40
0
41
0
66
1
0
VERTEX
8
L0D0
10
18575
20
5500
0
VERTEX
8
L0D0
10
18575
20
8500
0
VERTEX
8
L0D0
10
18925
20
8500
0
VERTEX
8
L0D0
10
18925
20
5500
0
SEQEND
0
POLYLINE
8
L0D0
70
1
40
0
41
0
66
1
0
VERTEX
8
L0D0
10
18062.5
20
9000
0
VERTEX
8
L0D0
10
18062.5
20
12000
0
VERTEX
8
L0D0
10
18412.5
20
12000
0
VERTEX
8
L0D0
10
18412.5
20
9000
0
SEQEND
0
POLYLINE
8
L0D0
70
1
40
0
41
0
66
1
0
VERTEX
8
L0D0
10
18587.5
20
9000
0
VERTEX
8
L0D0
10
18587.5
20
12000
0
VERTEX
8
L0D0
10
18937.5
20
12000
0
VERTEX
8
L0D0
10
18937.5
20
9000
0
SEQEND
0
POLYLINE
8
L0D0
70
1
40
0
41
0
66
1
0
VERTEX
8
L0D0
10
18050
20
12500
0
VERTEX
8
L0D0
10
18050
20
15500
0
VERTEX
8
L0D0
10
18400
20
15500
0
VERTEX
8
L0D0
10
18400
20
12500
0
SEQEND
0
POLYLINE
8
L0D0
70
1
40
0
41
0
66
1
0
VERTEX
8
L0D0
10
18600
20
12500
0
VERTEX
8
L0D0
10
18600
20
15500
0
VERTEX
8
L0D0
10
18950
20
15500
0
VERTEX
8
L0D0
10
18950
20
12500
0
SEQEND
0
POLYLINE
8
L0D0
70
1
40
0
41
0
66
1
0
VERTEX
8
L0D0
10
32700
20
-1500
0
VERTEX
8
L0D0
10
32700
20
1500
0
VERTEX
8
L0D0
10
33250
20
1500
0
VERTEX
8
L0D0
10
33250
20
-1500
0
SEQEND
0
POLYLINE
8
L0D0
70
1
40
0
41
0
66
1
0
VERTEX
8
L0D0
10
33350
20
-1500
0
VERTEX
8
L0D0
10
33350
20
1500
0
VERTEX
8
L0D0
10
33900
20
1500
0
VERTEX
8
L0D0
10
33900
20
-1500
0
SEQEND
0
POLYLINE
8
L0D0
70
1
40
0
41
0
66
1
0
VERTEX
8
L0D0
10
32687.5
20
2000
0
VERTEX
8
L0D0
10
32687.5
20
5000
0
VERTEX
8
L0D0
10
33237.5
20
5000
0
VERTEX
8
L0D0
10
33237.5
20
2000
0
SEQEND
0
POLYLINE
8
L0D0
70
1
40
0
41
0
66
1
0
VERTEX
8
L0D0
10
33362.5
20
2000
0
VERTEX
8
L0D0
10
33362.5
20
5000
0
VERTEX
8
L0D0
10
33912.5
20
5000
0
VERTEX
8
L0D0
10
33912.5
20
2000
0
SEQEND
0
POLYLINE
8
L0D0
70
1
40
0
41
0
66
1
0
VERTEX
8
L0D0
10
32675
20
5500
0
VERTEX
8
L0D0
10
32675
20
8500
0
VERTEX
8
L0D0
10
33225
20
8500
0
VERTEX
8
L0D0
10
33225
20
5500
0
SEQEND
0
POLYLINE
8
L0D0
70
1
40
0
41
0
66
1
0
VERTEX
8
L0D0
10
33375
20
5500
0
VERTEX
8
L0D0
10
33375
20
8500
0
VERTEX
8
L0D0
10
33925
20
8500
0
VERTEX
8
L0D0
10
33925
20
5500
0
SEQEND
0
POLYLINE
8
L0D0
70
1
40
0
41
0
66
1
0
VERTEX
8
L0D0
10
32662.5
20
9000
0
VERTEX
8
L0D0
10
32662.5
20
12000
0
VERTEX
8
L0D0
10
33212.5
20
12000
0
VERTEX
8
L0D0
10
33212.5
20
9000
0
SEQEND
0
POLYLINE
8
L0D0
70
1
40
0
41
0
66
1
0
VERTEX
8
L0D0
10
33387.5
20
9000
0
VERTEX
8
L0D0
10
33387.5
20
12000
0
VERTEX
8
L0D0
10
33937.5
20
12000
0
VERTEX
8
L0D0
10
33937.5
20
9000
0
SEQEND
0
POLYLINE
8
L0D0
70
1
40
0
41
0
66
1
0
VERTEX
8
L0D0
10
32650
20
12500
0
VERTEX
8
L0D0
10
32650
20
15500
0
VERTEX
8
L0D0
10
33200
20
15500
0
VERTEX
8
L0D0
10
33200
20
12500
0
SEQEND
0
POLYLINE
8
L0D0
70
1
40
0
41
0
66
1
0
VERTEX
8
L0D0
10
33400
20
12500
0
VERTEX
8
L0D0
10
33400
20
15500
0
VERTEX
8
L0D0
10
33950
20
15500
0
VERTEX
8
L0D0
10
33950
20
12500
0
SEQEND
0
POLYLINE
8
L0D0
70
1
40
0
41
0
66
1
0
VERTEX
8
L0D0
10
25400
20
-1500
0
VERTEX
8
L0D0
10
25400
20
1500
0
VERTEX
8
L0D0
10
25850
20
1500
0
VERTEX
8
L0D0
10
25850
20
-1500
0
SEQEND
0
POLYLINE
8
L0D0
70
1
40
0
41
0
66
1
0
VERTEX
8
L0D0
10
25950
20
-1500
0
VERTEX
8
L0D0
10
25950
20
1500
0
VERTEX
8
L0D0
10
26400
20
1500
0
VERTEX
8
L0D0
10
26400
20
-1500
0
SEQEND
0
POLYLINE
8
L0D0
70
1
40
0
41
0
66
1
0
VERTEX
8
L0D0
10
25387.5
20
2000
0
VERTEX
8
L0D0
10
25387.5
20
5000
0
VERTEX
8
L0D0
10
25837.5
20
5000
0
VERTEX
8
L0D0
10
25837.5
20
2000
0
SEQEND
0
POLYLINE
8
L0D0
70
1
40
0
41
0
66
1
0
VERTEX
8
L0D0
10
25962.5
20
2000
0
VERTEX
8
L0D0
10
25962.5
20
5000
0
VERTEX
8
L0D0
10
26412.5
20
5000
0
VERTEX
8
L0D0
10
26412.5
20
2000
0
SEQEND
0
POLYLINE
8
L0D0
70
1
40
0
41
0
66
1
0
VERTEX
8
L0D0
10
25375
20
5500
0
VERTEX
8
L0D0
10
25375
20
8500
0
VERTEX
8
L0D0
10
25825
20
8500
0
VERTEX
8
L0D0
10
25825
20
5500
0
SEQEND
0
POLYLINE
8
L0D0
70
1
40
0
41
0
66
1
0
VERTEX
8
L0D0
10
25975
20
5500
0
VERTEX
8
L0D0
10
25975
20
8500
0
VERTEX
8
L0D0
10
26425
20
8500
0
VERTEX
8
L0D0
10
26425
20
5500
0
SEQEND
0
POLYLINE
8
L0D0
70
1
40
0
41
0
66
1
0
VERTEX
8
L0D0
10
25362.5
20
9000
0
VERTEX
8
L0D0
10
25362.5
20
12000
0
VERTEX
8
L0D0
10
25812.5
20
12000
0
VERTEX
8
L0D0
10
25812.5
20
9000
0
SEQEND
0
POLYLINE
8
L0D0
70
1
40
0
41
0
66
1
0
VERTEX
8
L0D0
10
25987.5
20
9000
0
VERTEX
8
L0D0
10
25987.5
20
12000
0
VERTEX
8
L0D0
10
26437.5
20
12000
0
VERTEX
8
L0D0
10
26437.5
20
9000
0
SEQEND
0
POLYLINE
8
L0D0
70
1
40
0
41
0
66
1
0
VERTEX
8
L0D0
10
25350
20
12500
0
VERTEX
8
L0D0
10
25350
20
15500
0
VERTEX
8
L0D0
10
25800
20
15500
0
VERTEX
8
L0D0
10
25800
20
12500
0
SEQEND
0
POLYLINE
8
L0D0
70
1
40
0
41
0
66
1
0
VERTEX
8
L0D0
10
26000
20
12500
0
VERTEX
8
L0D0
10
26000
20
15500
0
VERTEX
8
L0D0
10
26450
20
15500
0
VERTEX
8
L0D0
10
26450
20
12500
0
SEQEND
0
POLYLINE
8
L0D0
70
1
40
0
41
0
66
1
0
VERTEX
8
L0D0
10
21750
20
-1500
0
VERTEX
8
L0D0
10
21750
20
1500
0
VERTEX
8
L0D0
10
22150
20
1500
0
VERTEX
8
L0D0
10
22150
20
-1500
0
SEQEND
0
POLYLINE
8
L0D0
70
1
40
0
41
0
66
1
0
VERTEX
8
L0D0
10
22250
20
-1500
0
VERTEX
8
L0D0
10
22250
20
1500
0
VERTEX
8
L0D0
10
22650
20
1500
0
VERTEX
8
L0D0
10
22650
20
-1500
0
SEQEND
0
POLYLINE
8
L0D0
70
1
40
0
41
0
66
1
0
VERTEX
8
L0D0
10
21737.5
20
2000
0
VERTEX
8
L0D0
10
21737.5
20
5000
0
VERTEX
8
L0D0
10
22137.5
20
5000
0
VERTEX
8
L0D0
10
22137.5
20
2000
0
SEQEND
0
POLYLINE
8
L0D0
70
1
40
0
41
0
66
1
0
VERTEX
8
L0D0
10
22262.5
20
2000
0
VERTEX
8
L0D0
10
22262.5
20
5000
0
VERTEX
8
L0D0
10
22662.5
20
5000
0
VERTEX
8
L0D0
10
22662.5
20
2000
0
SEQEND
0
POLYLINE
8
L0D0
70
1
40
0
41
0
66
1
0
VERTEX
8
L0D0
10
21725
20
5500
0
VERTEX
8
L0D0
10
21725
20
8500
0
VERTEX
8
L0D0
10
22125
20
8500
0
VERTEX
8
L0D0
10
22125
20
5500
0
SEQEND
0
POLYLINE
8
L0D0
70
1
40
0
41
0
66
1
0
VERTEX
8
L0D0
10
22275
20
5500
0
VERTEX
8
L0D0
10
22275
20
8500
0
VERTEX
8
L0D0
10
22675
20
8500
0
VERTEX
8
L0D0
10
22675
20
5500
0
SEQEND
0
POLYLINE
8
L0D0
70
1
40
0
41
0
66
1
0
VERTEX
8
L0D0
10
21712.5
20
9000
0
VERTEX
8
L0D0
10
21712.5
20
12000
0
VERTEX
8
L0D0
10
22112.5
20
12000
0
VERTEX
8
L0D0
10
22112.5
20
9000
0
SEQEND
0
POLYLINE
8
L0D0
70
1
40
0
41
0
66
1
0
VERTEX
8
L0D0
10
22287.5
20
9000
0
VERTEX
8
L0D0
10
22287.5
20
12000
0
VERTEX
8
L0D0
10
22687.5
20
12000
0
VERTEX
8
L0D0
10
22687.5
20
9000
0
SEQEND
0
POLYLINE
8
L0D0
70
1
40
0
41
0
66
1
0
VERTEX
8
L0D0
10
21700
20
12500
0
VERTEX
8
L0D0
10
21700
20
15500
0
VERTEX
8
L0D0
10
22100
20
15500
0
VERTEX
8
L0D0
10
22100
20
12500
0
SEQEND
0
POLYLINE
8
L0D0
70
1
40
0
41
0
66
1
0
VERTEX
8
L0D0
10
22300
20
12500
0
VERTEX
8
L0D0
10
22300
20
15500
0
VERTEX
8
L0D0
10
22700
20
15500
0
VERTEX
8
L0D0
10
22700
20
12500
0
SEQEND
0
POLYLINE
8
L0D0
70
1
40
0
41
0
66
1
0
VERTEX
8
L0D0
10
29050
20
-1500
0
VERTEX
8
L0D0
10
29050
20
1500
0
VERTEX
8
L0D0
10
29550
20
1500
0
VERTEX
8
L0D0
10
29550
20
-1500
0
SEQEND
0
POLYLINE
8
L0D0
70
1
40
0
41
0
66
1
0
VERTEX
8
L0D0
10
29650
20
-1500
0
VERTEX
8
L0D0
10
29650
20
1500
0
VERTEX
8
L0D0
10
30150
20
1500
0
VERTEX
8
L0D0
10
30150
20
-1500
0
SEQEND
0
POLYLINE
8
L0D0
70
1
40
0
41
0
66
1
0
VERTEX
8
L0D0
10
29037.5
20
2000
0
VERTEX
8
L0D0
10
29037.5
20
5000
0
VERTEX
8
L0D0
10
29537.5
20
5000
0
VERTEX
8
L0D0
10
29537.5
20
2000
0
SEQEND
0
POLYLINE
8
L0D0
70
1
40
0
41
0
66
1
0
VERTEX
8
L0D0
10
29662.5
20
2000
0
VERTEX
8
L0D0
10
29662.5
20
5000
0
VERTEX
8
L0D0
10
30162.5
20
5000
0
VERTEX
8
L0D0
10
30162.5
20
2000
0
SEQEND
0
POLYLINE
8
L0D0
70
1
40
0
41
0
66
1
0
VERTEX
8
L0D0
10
29025
20
5500
0
VERTEX
8
L0D0
10
29025
20
8500
0
VERTEX
8
L0D0
10
29525
20
8500
0
VERTEX
8
L0D0
10
29525
20
5500
0
SEQEND
0
POLYLINE
8
L0D0
70
1
40
0
41
0
66
1
0
VERTEX
8
L0D0
10
29675
20
5500
0
VERTEX
8
L0D0
10
29675
20
8500
0
VERTEX
8
L0D0
10
30175
20
8500
0
VERTEX
8
L0D0
10
30175
20
5500
0
SEQEND
0
ENDSEC
0
EOF
