G04 EAGLE Gerber RS-274X export*
G75*
%MOMM*%
%FSLAX34Y34*%
%LPD*%
%INTop Copper*%
%IPPOS*%
%AMOC8*
5,1,8,0,0,1.08239X$1,22.5*%
G01*
G04 Define Apertures*
%ADD10C,0.152400*%
D10*
X-6569075Y-4363156D02*
X-6569075Y-4080933D01*
X-6512631Y-4080933D01*
X-6512631Y-4363156D02*
X-6512631Y-4419600D01*
X-6512631Y-4363156D02*
X-6569075Y-4363156D01*
X-6512631Y-4363156D02*
X-6343297Y-4363156D01*
X-6512631Y-4363156D02*
X-6512631Y-4306711D01*
X-6512631Y-4250267D02*
X-6456186Y-4250267D01*
X-6512631Y-4250267D02*
X-6512631Y-4080933D01*
X-6512631Y-4024489D01*
X-6343297Y-4024489D01*
X-6456186Y-4306711D02*
X-6512631Y-4306711D01*
X-6456186Y-4306711D02*
X-6456186Y-4250267D01*
X-6456186Y-4193822D01*
X-6399742Y-4193822D01*
X-6399742Y-4250267D02*
X-6456186Y-4250267D01*
X-6399742Y-4250267D02*
X-6399742Y-4193822D01*
X-6399742Y-4137378D01*
X-6343297Y-4137378D01*
X-6343297Y-4419600D02*
X-6512631Y-4419600D01*
X-6343297Y-4419600D02*
X-6343297Y-4363156D01*
X-6343297Y-4193822D01*
X-6399742Y-4193822D01*
X-6343297Y-4137378D02*
X-6343297Y-4080933D01*
X-6512631Y-4080933D01*
X-6343297Y-4080933D02*
X-6286853Y-4080933D01*
X-6343297Y-4080933D02*
X-6343297Y-4024489D01*
X-6343297Y-4363156D02*
X-6286853Y-4363156D01*
X-6286853Y-4080933D01*
X-6569075Y-2641600D02*
X-6569075Y-2585156D01*
X-6343297Y-2585156D01*
X-6343297Y-2641600D02*
X-6569075Y-2641600D01*
X-6343297Y-2641600D02*
X-6343297Y-2585156D01*
X-6343297Y-2472267D01*
X-6569075Y-2472267D02*
X-6569075Y-2246489D01*
X-6286853Y-2246489D01*
X-6343297Y-2472267D02*
X-6569075Y-2472267D01*
X-6343297Y-2472267D02*
X-6286853Y-2472267D01*
X-6343297Y-2415822D02*
X-6512631Y-2415822D01*
X-6512631Y-2302933D01*
X-6343297Y-2415822D02*
X-6343297Y-2472267D01*
X-6343297Y-2585156D02*
X-6286853Y-2585156D01*
X-6286853Y-2472267D01*
X-6286853Y-2302933D02*
X-6512631Y-2302933D01*
X-6286853Y-2302933D02*
X-6286853Y-2246489D01*
X-6569075Y-807156D02*
X-6569075Y-524933D01*
X-6512631Y-524933D01*
X-6512631Y-807156D02*
X-6512631Y-863600D01*
X-6512631Y-807156D02*
X-6569075Y-807156D01*
X-6512631Y-807156D02*
X-6343297Y-807156D01*
X-6512631Y-807156D02*
X-6512631Y-750711D01*
X-6512631Y-694267D02*
X-6456186Y-694267D01*
X-6512631Y-694267D02*
X-6512631Y-524933D01*
X-6512631Y-468489D01*
X-6343297Y-468489D01*
X-6456186Y-750711D02*
X-6512631Y-750711D01*
X-6456186Y-750711D02*
X-6456186Y-694267D01*
X-6456186Y-637822D01*
X-6399742Y-637822D01*
X-6399742Y-694267D02*
X-6456186Y-694267D01*
X-6399742Y-694267D02*
X-6399742Y-637822D01*
X-6399742Y-581378D01*
X-6343297Y-581378D01*
X-6343297Y-863600D02*
X-6512631Y-863600D01*
X-6343297Y-863600D02*
X-6343297Y-807156D01*
X-6343297Y-637822D01*
X-6399742Y-637822D01*
X-6343297Y-581378D02*
X-6343297Y-524933D01*
X-6512631Y-524933D01*
X-6343297Y-524933D02*
X-6286853Y-524933D01*
X-6343297Y-524933D02*
X-6343297Y-468489D01*
X-6343297Y-807156D02*
X-6286853Y-807156D01*
X-6286853Y-524933D01*
X-6569075Y-242711D02*
X-6569075Y-129822D01*
X-6512631Y-129822D01*
X-6512631Y-186267D02*
X-6286853Y-186267D01*
X-6512631Y-186267D02*
X-6512631Y-129822D01*
X-6512631Y-73378D01*
X-6399742Y-73378D01*
X-6399742Y-129822D02*
X-6512631Y-129822D01*
X-6399742Y-129822D02*
X-6399742Y-73378D01*
X-6399742Y-16933D01*
X-6343297Y-16933D01*
X-6343297Y-73378D02*
X-6399742Y-73378D01*
X-6343297Y-73378D02*
X-6343297Y-16933D01*
X-6343297Y95956D01*
X-6569075Y95956D02*
X-6569075Y39511D01*
X-6569075Y95956D02*
X-6512631Y95956D01*
X-6512631Y39511D02*
X-6569075Y39511D01*
X-6512631Y39511D02*
X-6512631Y95956D01*
X-6512631Y152400D01*
X-6343297Y152400D01*
X-6343297Y95956D02*
X-6512631Y95956D01*
X-6343297Y95956D02*
X-6286853Y95956D01*
X-6343297Y95956D02*
X-6343297Y152400D01*
X-6286853Y-242711D02*
X-6569075Y-242711D01*
X-6286853Y-242711D02*
X-6286853Y-186267D01*
X-6286853Y-16933D02*
X-6343297Y-16933D01*
X-6286853Y-16933D02*
X-6286853Y95956D01*
X-6569075Y914400D02*
X-6569075Y970844D01*
X-6343297Y970844D01*
X-6343297Y914400D02*
X-6569075Y914400D01*
X-6343297Y914400D02*
X-6343297Y970844D01*
X-6343297Y1083733D01*
X-6569075Y1083733D02*
X-6569075Y1309511D01*
X-6286853Y1309511D01*
X-6343297Y1083733D02*
X-6569075Y1083733D01*
X-6343297Y1083733D02*
X-6286853Y1083733D01*
X-6343297Y1140178D02*
X-6512631Y1140178D01*
X-6512631Y1253067D01*
X-6343297Y1140178D02*
X-6343297Y1083733D01*
X-6343297Y970844D02*
X-6286853Y970844D01*
X-6286853Y1083733D01*
X-6286853Y1253067D02*
X-6512631Y1253067D01*
X-6286853Y1253067D02*
X-6286853Y1309511D01*
X-6569075Y1535289D02*
X-6569075Y1648178D01*
X-6512631Y1648178D01*
X-6512631Y1591733D02*
X-6286853Y1591733D01*
X-6512631Y1591733D02*
X-6512631Y1648178D01*
X-6512631Y1704622D01*
X-6399742Y1704622D01*
X-6399742Y1648178D02*
X-6512631Y1648178D01*
X-6399742Y1648178D02*
X-6399742Y1704622D01*
X-6399742Y1761067D01*
X-6343297Y1761067D01*
X-6343297Y1704622D02*
X-6399742Y1704622D01*
X-6343297Y1704622D02*
X-6343297Y1761067D01*
X-6343297Y1873956D01*
X-6569075Y1873956D02*
X-6569075Y1817511D01*
X-6569075Y1873956D02*
X-6512631Y1873956D01*
X-6512631Y1817511D02*
X-6569075Y1817511D01*
X-6512631Y1817511D02*
X-6512631Y1873956D01*
X-6512631Y1930400D01*
X-6343297Y1930400D01*
X-6343297Y1873956D02*
X-6512631Y1873956D01*
X-6343297Y1873956D02*
X-6286853Y1873956D01*
X-6343297Y1873956D02*
X-6343297Y1930400D01*
X-6286853Y1535289D02*
X-6569075Y1535289D01*
X-6286853Y1535289D02*
X-6286853Y1591733D01*
X-6286853Y1761067D02*
X-6343297Y1761067D01*
X-6286853Y1761067D02*
X-6286853Y1873956D01*
X-6569075Y2748844D02*
X-6569075Y3031067D01*
X-6512631Y3031067D01*
X-6512631Y2748844D02*
X-6512631Y2692400D01*
X-6512631Y2748844D02*
X-6569075Y2748844D01*
X-6512631Y2748844D02*
X-6343297Y2748844D01*
X-6512631Y2748844D02*
X-6512631Y2805289D01*
X-6512631Y2861733D02*
X-6456186Y2861733D01*
X-6512631Y2861733D02*
X-6512631Y3031067D01*
X-6512631Y3087511D01*
X-6343297Y3087511D01*
X-6456186Y2805289D02*
X-6512631Y2805289D01*
X-6456186Y2805289D02*
X-6456186Y2861733D01*
X-6456186Y2918178D01*
X-6399742Y2918178D01*
X-6399742Y2861733D02*
X-6456186Y2861733D01*
X-6399742Y2861733D02*
X-6399742Y2918178D01*
X-6399742Y2974622D01*
X-6343297Y2974622D01*
X-6343297Y2692400D02*
X-6512631Y2692400D01*
X-6343297Y2692400D02*
X-6343297Y2748844D01*
X-6343297Y2918178D01*
X-6399742Y2918178D01*
X-6343297Y2974622D02*
X-6343297Y3031067D01*
X-6512631Y3031067D01*
X-6343297Y3031067D02*
X-6286853Y3031067D01*
X-6343297Y3031067D02*
X-6343297Y3087511D01*
X-6343297Y2748844D02*
X-6286853Y2748844D01*
X-6286853Y3031067D01*
X-6569075Y3313289D02*
X-6569075Y3369733D01*
X-6343297Y3369733D01*
X-6343297Y3313289D02*
X-6569075Y3313289D01*
X-6343297Y3313289D02*
X-6343297Y3369733D01*
X-6343297Y3482622D01*
X-6512631Y3482622D02*
X-6512631Y3539067D01*
X-6343297Y3539067D01*
X-6343297Y3482622D02*
X-6512631Y3482622D01*
X-6343297Y3482622D02*
X-6286853Y3482622D01*
X-6343297Y3482622D02*
X-6343297Y3539067D01*
X-6343297Y3651956D01*
X-6569075Y3651956D02*
X-6569075Y3708400D01*
X-6343297Y3708400D01*
X-6343297Y3651956D02*
X-6569075Y3651956D01*
X-6343297Y3651956D02*
X-6286853Y3651956D01*
X-6343297Y3651956D02*
X-6343297Y3708400D01*
X-6343297Y3369733D02*
X-6286853Y3369733D01*
X-6286853Y3482622D01*
X-6286853Y3539067D02*
X-6343297Y3539067D01*
X-6286853Y3539067D02*
X-6286853Y3651956D01*
X-6512631Y-3742267D02*
X-6512631Y-3798711D01*
X-6512631Y-3742267D02*
X-6456186Y-3742267D01*
X-6456186Y-3516489D01*
X-6512631Y-3516489D02*
X-6512631Y-3460044D01*
X-6456186Y-3460044D01*
X-6456186Y-3516489D02*
X-6512631Y-3516489D01*
X-6456186Y-3460044D02*
X-6456186Y-3403600D01*
X-6399742Y-3403600D01*
X-6399742Y-3742267D02*
X-6343297Y-3742267D01*
X-6399742Y-3742267D02*
X-6399742Y-3403600D01*
X-6343297Y-3798711D02*
X-6512631Y-3798711D01*
X-6343297Y-3798711D02*
X-6343297Y-3742267D01*
X-6512631Y-2020711D02*
X-6512631Y-1964267D01*
X-6456186Y-1964267D01*
X-6456186Y-1738489D01*
X-6512631Y-1738489D02*
X-6512631Y-1682044D01*
X-6456186Y-1682044D01*
X-6456186Y-1738489D02*
X-6512631Y-1738489D01*
X-6456186Y-1682044D02*
X-6456186Y-1625600D01*
X-6399742Y-1625600D01*
X-6399742Y-1964267D02*
X-6343297Y-1964267D01*
X-6399742Y-1964267D02*
X-6399742Y-1625600D01*
X-6343297Y-2020711D02*
X-6512631Y-2020711D01*
X-6343297Y-2020711D02*
X-6343297Y-1964267D01*
X-6080831Y4659489D02*
X-6080831Y4715933D01*
X-6024386Y4715933D01*
X-6024386Y4941711D01*
X-6080831Y4941711D02*
X-6080831Y4998156D01*
X-6024386Y4998156D01*
X-6024386Y4941711D02*
X-6080831Y4941711D01*
X-6024386Y4998156D02*
X-6024386Y5054600D01*
X-5967942Y5054600D01*
X-5967942Y4715933D02*
X-5911497Y4715933D01*
X-5967942Y4715933D02*
X-5967942Y5054600D01*
X-5911497Y4659489D02*
X-6080831Y4659489D01*
X-5911497Y4659489D02*
X-5911497Y4715933D01*
X-6061075Y3962400D02*
X-6061075Y3708400D01*
X-6061075Y3962400D02*
X-5807075Y3962400D01*
X-5870575Y3708400D02*
X-6061075Y3708400D01*
X-5870575Y3708400D02*
X-5870575Y3835400D01*
X-5807075Y3835400D02*
X-5807075Y3708400D01*
X-5807075Y3835400D02*
X-5870575Y3835400D01*
X-5807075Y3962400D02*
X-5807075Y4216400D01*
X-6061075Y4216400D02*
X-6061075Y4470400D01*
X-5870575Y4470400D01*
X-5870575Y4343400D02*
X-5807075Y4343400D01*
X-5870575Y4343400D02*
X-5870575Y4470400D01*
X-5807075Y4216400D02*
X-6061075Y4216400D01*
X-5807075Y4343400D02*
X-5807075Y4470400D01*
X-5781675Y4470400D01*
X-5781675Y3708400D02*
X-5807075Y3708400D01*
X-5781675Y3708400D02*
X-5781675Y4470400D01*
X-6057900Y3073400D02*
X-6057900Y2819400D01*
X-6057900Y3073400D02*
X-5803900Y3073400D01*
X-5867400Y2819400D02*
X-6057900Y2819400D01*
X-5867400Y2819400D02*
X-5867400Y2946400D01*
X-5803900Y2946400D02*
X-5803900Y2819400D01*
X-5803900Y2946400D02*
X-5867400Y2946400D01*
X-5803900Y3073400D02*
X-5803900Y3327400D01*
X-6057900Y3327400D02*
X-6057900Y3581400D01*
X-5867400Y3581400D01*
X-5867400Y3454400D02*
X-5803900Y3454400D01*
X-5867400Y3454400D02*
X-5867400Y3581400D01*
X-5803900Y3327400D02*
X-6057900Y3327400D01*
X-5803900Y3454400D02*
X-5803900Y3581400D01*
X-5778500Y3581400D01*
X-5778500Y2819400D02*
X-5803900Y2819400D01*
X-5778500Y2819400D02*
X-5778500Y3581400D01*
X-6054725Y2184400D02*
X-6054725Y1930400D01*
X-6054725Y2184400D02*
X-5800725Y2184400D01*
X-5864225Y1930400D02*
X-6054725Y1930400D01*
X-5864225Y1930400D02*
X-5864225Y2057400D01*
X-5800725Y2057400D02*
X-5800725Y1930400D01*
X-5800725Y2057400D02*
X-5864225Y2057400D01*
X-5800725Y2184400D02*
X-5800725Y2438400D01*
X-6054725Y2438400D02*
X-6054725Y2692400D01*
X-5864225Y2692400D01*
X-5864225Y2565400D02*
X-5800725Y2565400D01*
X-5864225Y2565400D02*
X-5864225Y2692400D01*
X-5800725Y2438400D02*
X-6054725Y2438400D01*
X-5800725Y2565400D02*
X-5800725Y2692400D01*
X-5775325Y2692400D01*
X-5775325Y1930400D02*
X-5800725Y1930400D01*
X-5775325Y1930400D02*
X-5775325Y2692400D01*
X-6051550Y1295400D02*
X-6051550Y1041400D01*
X-6051550Y1295400D02*
X-5797550Y1295400D01*
X-5861050Y1041400D02*
X-6051550Y1041400D01*
X-5861050Y1041400D02*
X-5861050Y1168400D01*
X-5797550Y1168400D02*
X-5797550Y1041400D01*
X-5797550Y1168400D02*
X-5861050Y1168400D01*
X-5797550Y1295400D02*
X-5797550Y1549400D01*
X-6051550Y1549400D02*
X-6051550Y1803400D01*
X-5861050Y1803400D01*
X-5861050Y1676400D02*
X-5797550Y1676400D01*
X-5861050Y1676400D02*
X-5861050Y1803400D01*
X-5797550Y1549400D02*
X-6051550Y1549400D01*
X-5797550Y1676400D02*
X-5797550Y1803400D01*
X-5772150Y1803400D01*
X-5772150Y1041400D02*
X-5797550Y1041400D01*
X-5772150Y1041400D02*
X-5772150Y1803400D01*
X-6048375Y406400D02*
X-6048375Y152400D01*
X-6048375Y406400D02*
X-5794375Y406400D01*
X-5857875Y152400D02*
X-6048375Y152400D01*
X-5857875Y152400D02*
X-5857875Y279400D01*
X-5794375Y279400D02*
X-5794375Y152400D01*
X-5794375Y279400D02*
X-5857875Y279400D01*
X-5794375Y406400D02*
X-5794375Y660400D01*
X-6048375Y660400D02*
X-6048375Y914400D01*
X-5857875Y914400D01*
X-5857875Y787400D02*
X-5794375Y787400D01*
X-5857875Y787400D02*
X-5857875Y914400D01*
X-5794375Y660400D02*
X-6048375Y660400D01*
X-5794375Y787400D02*
X-5794375Y914400D01*
X-5768975Y914400D01*
X-5768975Y152400D02*
X-5794375Y152400D01*
X-5768975Y152400D02*
X-5768975Y914400D01*
X-6045200Y-482600D02*
X-6045200Y-736600D01*
X-6045200Y-482600D02*
X-5791200Y-482600D01*
X-5854700Y-736600D02*
X-6045200Y-736600D01*
X-5854700Y-736600D02*
X-5854700Y-609600D01*
X-5791200Y-609600D02*
X-5791200Y-736600D01*
X-5791200Y-609600D02*
X-5854700Y-609600D01*
X-5791200Y-482600D02*
X-5791200Y-228600D01*
X-6045200Y-228600D02*
X-6045200Y25400D01*
X-5854700Y25400D01*
X-5854700Y-101600D02*
X-5791200Y-101600D01*
X-5854700Y-101600D02*
X-5854700Y25400D01*
X-5791200Y-228600D02*
X-6045200Y-228600D01*
X-5791200Y-101600D02*
X-5791200Y25400D01*
X-5765800Y25400D01*
X-5765800Y-736600D02*
X-5791200Y-736600D01*
X-5765800Y-736600D02*
X-5765800Y25400D01*
X-6042025Y-1371600D02*
X-6042025Y-1625600D01*
X-6042025Y-1371600D02*
X-5788025Y-1371600D01*
X-5851525Y-1625600D02*
X-6042025Y-1625600D01*
X-5851525Y-1625600D02*
X-5851525Y-1498600D01*
X-5788025Y-1498600D02*
X-5788025Y-1625600D01*
X-5788025Y-1498600D02*
X-5851525Y-1498600D01*
X-5788025Y-1371600D02*
X-5788025Y-1117600D01*
X-6042025Y-1117600D02*
X-6042025Y-863600D01*
X-5851525Y-863600D01*
X-5851525Y-990600D02*
X-5788025Y-990600D01*
X-5851525Y-990600D02*
X-5851525Y-863600D01*
X-5788025Y-1117600D02*
X-6042025Y-1117600D01*
X-5788025Y-990600D02*
X-5788025Y-863600D01*
X-5762625Y-863600D01*
X-5762625Y-1625600D02*
X-5788025Y-1625600D01*
X-5762625Y-1625600D02*
X-5762625Y-863600D01*
X-6038850Y-2260600D02*
X-6038850Y-2514600D01*
X-6038850Y-2260600D02*
X-5784850Y-2260600D01*
X-5848350Y-2514600D02*
X-6038850Y-2514600D01*
X-5848350Y-2514600D02*
X-5848350Y-2387600D01*
X-5784850Y-2387600D02*
X-5784850Y-2514600D01*
X-5784850Y-2387600D02*
X-5848350Y-2387600D01*
X-5784850Y-2260600D02*
X-5784850Y-2006600D01*
X-6038850Y-2006600D02*
X-6038850Y-1752600D01*
X-5848350Y-1752600D01*
X-5848350Y-1879600D02*
X-5784850Y-1879600D01*
X-5848350Y-1879600D02*
X-5848350Y-1752600D01*
X-5784850Y-2006600D02*
X-6038850Y-2006600D01*
X-5784850Y-1879600D02*
X-5784850Y-1752600D01*
X-5759450Y-1752600D01*
X-5759450Y-2514600D02*
X-5784850Y-2514600D01*
X-5759450Y-2514600D02*
X-5759450Y-1752600D01*
X-6035675Y-3149600D02*
X-6035675Y-3403600D01*
X-6035675Y-3149600D02*
X-5781675Y-3149600D01*
X-5845175Y-3403600D02*
X-6035675Y-3403600D01*
X-5845175Y-3403600D02*
X-5845175Y-3276600D01*
X-5781675Y-3276600D02*
X-5781675Y-3403600D01*
X-5781675Y-3276600D02*
X-5845175Y-3276600D01*
X-5781675Y-3149600D02*
X-5781675Y-2895600D01*
X-6035675Y-2895600D02*
X-6035675Y-2641600D01*
X-5845175Y-2641600D01*
X-5845175Y-2768600D02*
X-5781675Y-2768600D01*
X-5845175Y-2768600D02*
X-5845175Y-2641600D01*
X-5781675Y-2895600D02*
X-6035675Y-2895600D01*
X-5781675Y-2768600D02*
X-5781675Y-2641600D01*
X-5756275Y-2641600D01*
X-5756275Y-3403600D02*
X-5781675Y-3403600D01*
X-5756275Y-3403600D02*
X-5756275Y-2641600D01*
X-6032500Y-4038600D02*
X-6032500Y-4292600D01*
X-6032500Y-4038600D02*
X-5778500Y-4038600D01*
X-5842000Y-4292600D02*
X-6032500Y-4292600D01*
X-5842000Y-4292600D02*
X-5842000Y-4165600D01*
X-5778500Y-4165600D02*
X-5778500Y-4292600D01*
X-5778500Y-4165600D02*
X-5842000Y-4165600D01*
X-5778500Y-4038600D02*
X-5778500Y-3784600D01*
X-6032500Y-3784600D02*
X-6032500Y-3530600D01*
X-5842000Y-3530600D01*
X-5842000Y-3657600D02*
X-5778500Y-3657600D01*
X-5842000Y-3657600D02*
X-5842000Y-3530600D01*
X-5778500Y-3784600D02*
X-6032500Y-3784600D01*
X-5778500Y-3657600D02*
X-5778500Y-3530600D01*
X-5753100Y-3530600D01*
X-5753100Y-4292600D02*
X-5778500Y-4292600D01*
X-5753100Y-4292600D02*
X-5753100Y-3530600D01*
X-5727700Y-3530600D02*
X-5727700Y-4292600D01*
X-5727700Y-3530600D02*
X-5702300Y-3530600D01*
X-5702300Y-4292600D02*
X-5727700Y-4292600D01*
X-5702300Y-4292600D02*
X-5702300Y-4165600D01*
X-5702300Y-3657600D02*
X-5638800Y-3657600D01*
X-5702300Y-3657600D02*
X-5702300Y-3530600D01*
X-5638800Y-4165600D02*
X-5638800Y-4292600D01*
X-5638800Y-4165600D02*
X-5702300Y-4165600D01*
X-5638800Y-3657600D02*
X-5638800Y-3530600D01*
X-5448300Y-3530600D01*
X-5448300Y-4292600D02*
X-5638800Y-4292600D01*
X-5702300Y-4038600D02*
X-5448300Y-4038600D01*
X-5702300Y-4038600D02*
X-5702300Y-3784600D01*
X-5448300Y-4038600D02*
X-5448300Y-4292600D01*
X-5448300Y-3784600D02*
X-5702300Y-3784600D01*
X-5448300Y-3784600D02*
X-5448300Y-3530600D01*
X-5724525Y-3403600D02*
X-5724525Y-2641600D01*
X-5699125Y-2641600D01*
X-5699125Y-3403600D02*
X-5724525Y-3403600D01*
X-5699125Y-3403600D02*
X-5699125Y-3276600D01*
X-5699125Y-2768600D02*
X-5635625Y-2768600D01*
X-5699125Y-2768600D02*
X-5699125Y-2641600D01*
X-5635625Y-3276600D02*
X-5635625Y-3403600D01*
X-5635625Y-3276600D02*
X-5699125Y-3276600D01*
X-5635625Y-2768600D02*
X-5635625Y-2641600D01*
X-5445125Y-2641600D01*
X-5445125Y-3403600D02*
X-5635625Y-3403600D01*
X-5699125Y-3149600D02*
X-5445125Y-3149600D01*
X-5699125Y-3149600D02*
X-5699125Y-2895600D01*
X-5445125Y-3149600D02*
X-5445125Y-3403600D01*
X-5445125Y-2895600D02*
X-5699125Y-2895600D01*
X-5445125Y-2895600D02*
X-5445125Y-2641600D01*
X-5721350Y-2514600D02*
X-5721350Y-1752600D01*
X-5695950Y-1752600D01*
X-5695950Y-2514600D02*
X-5721350Y-2514600D01*
X-5695950Y-2514600D02*
X-5695950Y-2387600D01*
X-5695950Y-1879600D02*
X-5632450Y-1879600D01*
X-5695950Y-1879600D02*
X-5695950Y-1752600D01*
X-5632450Y-2387600D02*
X-5632450Y-2514600D01*
X-5632450Y-2387600D02*
X-5695950Y-2387600D01*
X-5632450Y-1879600D02*
X-5632450Y-1752600D01*
X-5441950Y-1752600D01*
X-5441950Y-2514600D02*
X-5632450Y-2514600D01*
X-5695950Y-2260600D02*
X-5441950Y-2260600D01*
X-5695950Y-2260600D02*
X-5695950Y-2006600D01*
X-5441950Y-2260600D02*
X-5441950Y-2514600D01*
X-5441950Y-2006600D02*
X-5695950Y-2006600D01*
X-5441950Y-2006600D02*
X-5441950Y-1752600D01*
X-5718175Y-1625600D02*
X-5718175Y-863600D01*
X-5692775Y-863600D01*
X-5692775Y-1625600D02*
X-5718175Y-1625600D01*
X-5692775Y-1625600D02*
X-5692775Y-1498600D01*
X-5692775Y-990600D02*
X-5629275Y-990600D01*
X-5692775Y-990600D02*
X-5692775Y-863600D01*
X-5629275Y-1498600D02*
X-5629275Y-1625600D01*
X-5629275Y-1498600D02*
X-5692775Y-1498600D01*
X-5629275Y-990600D02*
X-5629275Y-863600D01*
X-5438775Y-863600D01*
X-5438775Y-1625600D02*
X-5629275Y-1625600D01*
X-5692775Y-1371600D02*
X-5438775Y-1371600D01*
X-5692775Y-1371600D02*
X-5692775Y-1117600D01*
X-5438775Y-1371600D02*
X-5438775Y-1625600D01*
X-5438775Y-1117600D02*
X-5692775Y-1117600D01*
X-5438775Y-1117600D02*
X-5438775Y-863600D01*
X-5715000Y-736600D02*
X-5715000Y25400D01*
X-5689600Y25400D01*
X-5689600Y-736600D02*
X-5715000Y-736600D01*
X-5689600Y-736600D02*
X-5689600Y-609600D01*
X-5689600Y-101600D02*
X-5626100Y-101600D01*
X-5689600Y-101600D02*
X-5689600Y25400D01*
X-5626100Y-609600D02*
X-5626100Y-736600D01*
X-5626100Y-609600D02*
X-5689600Y-609600D01*
X-5626100Y-101600D02*
X-5626100Y25400D01*
X-5435600Y25400D01*
X-5435600Y-736600D02*
X-5626100Y-736600D01*
X-5689600Y-482600D02*
X-5435600Y-482600D01*
X-5689600Y-482600D02*
X-5689600Y-228600D01*
X-5435600Y-482600D02*
X-5435600Y-736600D01*
X-5435600Y-228600D02*
X-5689600Y-228600D01*
X-5435600Y-228600D02*
X-5435600Y25400D01*
X-5711825Y152400D02*
X-5711825Y914400D01*
X-5686425Y914400D01*
X-5686425Y152400D02*
X-5711825Y152400D01*
X-5686425Y152400D02*
X-5686425Y279400D01*
X-5686425Y787400D02*
X-5622925Y787400D01*
X-5686425Y787400D02*
X-5686425Y914400D01*
X-5622925Y279400D02*
X-5622925Y152400D01*
X-5622925Y279400D02*
X-5686425Y279400D01*
X-5622925Y787400D02*
X-5622925Y914400D01*
X-5432425Y914400D01*
X-5432425Y152400D02*
X-5622925Y152400D01*
X-5686425Y406400D02*
X-5432425Y406400D01*
X-5686425Y406400D02*
X-5686425Y660400D01*
X-5432425Y406400D02*
X-5432425Y152400D01*
X-5432425Y660400D02*
X-5686425Y660400D01*
X-5432425Y660400D02*
X-5432425Y914400D01*
X-5708650Y1041400D02*
X-5708650Y1803400D01*
X-5683250Y1803400D01*
X-5683250Y1041400D02*
X-5708650Y1041400D01*
X-5683250Y1041400D02*
X-5683250Y1168400D01*
X-5683250Y1676400D02*
X-5619750Y1676400D01*
X-5683250Y1676400D02*
X-5683250Y1803400D01*
X-5619750Y1168400D02*
X-5619750Y1041400D01*
X-5619750Y1168400D02*
X-5683250Y1168400D01*
X-5619750Y1676400D02*
X-5619750Y1803400D01*
X-5429250Y1803400D01*
X-5429250Y1041400D02*
X-5619750Y1041400D01*
X-5683250Y1295400D02*
X-5429250Y1295400D01*
X-5683250Y1295400D02*
X-5683250Y1549400D01*
X-5429250Y1295400D02*
X-5429250Y1041400D01*
X-5429250Y1549400D02*
X-5683250Y1549400D01*
X-5429250Y1549400D02*
X-5429250Y1803400D01*
X-5705475Y1930400D02*
X-5705475Y2692400D01*
X-5680075Y2692400D01*
X-5680075Y1930400D02*
X-5705475Y1930400D01*
X-5680075Y1930400D02*
X-5680075Y2057400D01*
X-5680075Y2565400D02*
X-5616575Y2565400D01*
X-5680075Y2565400D02*
X-5680075Y2692400D01*
X-5616575Y2057400D02*
X-5616575Y1930400D01*
X-5616575Y2057400D02*
X-5680075Y2057400D01*
X-5616575Y2565400D02*
X-5616575Y2692400D01*
X-5426075Y2692400D01*
X-5426075Y1930400D02*
X-5616575Y1930400D01*
X-5680075Y2184400D02*
X-5426075Y2184400D01*
X-5680075Y2184400D02*
X-5680075Y2438400D01*
X-5426075Y2184400D02*
X-5426075Y1930400D01*
X-5426075Y2438400D02*
X-5680075Y2438400D01*
X-5426075Y2438400D02*
X-5426075Y2692400D01*
X-5702300Y2819400D02*
X-5702300Y3581400D01*
X-5676900Y3581400D01*
X-5676900Y2819400D02*
X-5702300Y2819400D01*
X-5676900Y2819400D02*
X-5676900Y2946400D01*
X-5676900Y3454400D02*
X-5613400Y3454400D01*
X-5676900Y3454400D02*
X-5676900Y3581400D01*
X-5613400Y2946400D02*
X-5613400Y2819400D01*
X-5613400Y2946400D02*
X-5676900Y2946400D01*
X-5613400Y3454400D02*
X-5613400Y3581400D01*
X-5422900Y3581400D01*
X-5422900Y2819400D02*
X-5613400Y2819400D01*
X-5676900Y3073400D02*
X-5422900Y3073400D01*
X-5676900Y3073400D02*
X-5676900Y3327400D01*
X-5422900Y3073400D02*
X-5422900Y2819400D01*
X-5422900Y3327400D02*
X-5676900Y3327400D01*
X-5422900Y3327400D02*
X-5422900Y3581400D01*
X-5699125Y3708400D02*
X-5699125Y4470400D01*
X-5673725Y4470400D01*
X-5673725Y3708400D02*
X-5699125Y3708400D01*
X-5673725Y3708400D02*
X-5673725Y3835400D01*
X-5673725Y4343400D02*
X-5610225Y4343400D01*
X-5673725Y4343400D02*
X-5673725Y4470400D01*
X-5610225Y3835400D02*
X-5610225Y3708400D01*
X-5610225Y3835400D02*
X-5673725Y3835400D01*
X-5610225Y4343400D02*
X-5610225Y4470400D01*
X-5419725Y4470400D01*
X-5419725Y3708400D02*
X-5610225Y3708400D01*
X-5673725Y3962400D02*
X-5419725Y3962400D01*
X-5673725Y3962400D02*
X-5673725Y4216400D01*
X-5419725Y3962400D02*
X-5419725Y3708400D01*
X-5419725Y4216400D02*
X-5673725Y4216400D01*
X-5419725Y4216400D02*
X-5419725Y4470400D01*
X-5685719Y4715933D02*
X-5685719Y4998156D01*
X-5629275Y4998156D01*
X-5629275Y4715933D02*
X-5629275Y4659489D01*
X-5629275Y4715933D02*
X-5685719Y4715933D01*
X-5629275Y4715933D02*
X-5459942Y4715933D01*
X-5629275Y4715933D02*
X-5629275Y4772378D01*
X-5629275Y4828822D02*
X-5572831Y4828822D01*
X-5629275Y4828822D02*
X-5629275Y4998156D01*
X-5629275Y5054600D01*
X-5459942Y5054600D01*
X-5572831Y4772378D02*
X-5629275Y4772378D01*
X-5572831Y4772378D02*
X-5572831Y4828822D01*
X-5572831Y4885267D01*
X-5516386Y4885267D01*
X-5516386Y4828822D02*
X-5572831Y4828822D01*
X-5516386Y4828822D02*
X-5516386Y4885267D01*
X-5516386Y4941711D01*
X-5459942Y4941711D01*
X-5459942Y4659489D02*
X-5629275Y4659489D01*
X-5459942Y4659489D02*
X-5459942Y4715933D01*
X-5459942Y4885267D01*
X-5516386Y4885267D01*
X-5459942Y4941711D02*
X-5459942Y4998156D01*
X-5629275Y4998156D01*
X-5459942Y4998156D02*
X-5403497Y4998156D01*
X-5459942Y4998156D02*
X-5459942Y5054600D01*
X-5459942Y4715933D02*
X-5403497Y4715933D01*
X-5403497Y4998156D01*
X-5141031Y4715933D02*
X-5141031Y4659489D01*
X-5141031Y4715933D02*
X-5084586Y4715933D01*
X-5084586Y4941711D01*
X-5141031Y4941711D02*
X-5141031Y4998156D01*
X-5084586Y4998156D01*
X-5084586Y4941711D02*
X-5141031Y4941711D01*
X-5084586Y4998156D02*
X-5084586Y5054600D01*
X-5028142Y5054600D01*
X-5028142Y4715933D02*
X-4971697Y4715933D01*
X-5028142Y4715933D02*
X-5028142Y5054600D01*
X-4971697Y4659489D02*
X-5141031Y4659489D01*
X-4971697Y4659489D02*
X-4971697Y4715933D01*
X-5133975Y3962400D02*
X-5133975Y3708400D01*
X-5133975Y3962400D02*
X-4879975Y3962400D01*
X-4943475Y3708400D02*
X-5133975Y3708400D01*
X-4943475Y3708400D02*
X-4943475Y3835400D01*
X-4879975Y3835400D02*
X-4879975Y3708400D01*
X-4879975Y3835400D02*
X-4943475Y3835400D01*
X-4879975Y3962400D02*
X-4879975Y4216400D01*
X-5133975Y4216400D02*
X-5133975Y4470400D01*
X-4943475Y4470400D01*
X-4943475Y4343400D02*
X-4879975Y4343400D01*
X-4943475Y4343400D02*
X-4943475Y4470400D01*
X-4879975Y4216400D02*
X-5133975Y4216400D01*
X-4879975Y4343400D02*
X-4879975Y4470400D01*
X-4841875Y4470400D01*
X-4841875Y3708400D02*
X-4879975Y3708400D01*
X-4841875Y3708400D02*
X-4841875Y4470400D01*
X-5130800Y3073400D02*
X-5130800Y2819400D01*
X-5130800Y3073400D02*
X-4876800Y3073400D01*
X-4940300Y2819400D02*
X-5130800Y2819400D01*
X-4940300Y2819400D02*
X-4940300Y2946400D01*
X-4876800Y2946400D02*
X-4876800Y2819400D01*
X-4876800Y2946400D02*
X-4940300Y2946400D01*
X-4876800Y3073400D02*
X-4876800Y3327400D01*
X-5130800Y3327400D02*
X-5130800Y3581400D01*
X-4940300Y3581400D01*
X-4940300Y3454400D02*
X-4876800Y3454400D01*
X-4940300Y3454400D02*
X-4940300Y3581400D01*
X-4876800Y3327400D02*
X-5130800Y3327400D01*
X-4876800Y3454400D02*
X-4876800Y3581400D01*
X-4838700Y3581400D01*
X-4838700Y2819400D02*
X-4876800Y2819400D01*
X-4838700Y2819400D02*
X-4838700Y3581400D01*
X-5127625Y2184400D02*
X-5127625Y1930400D01*
X-5127625Y2184400D02*
X-4873625Y2184400D01*
X-4937125Y1930400D02*
X-5127625Y1930400D01*
X-4937125Y1930400D02*
X-4937125Y2057400D01*
X-4873625Y2057400D02*
X-4873625Y1930400D01*
X-4873625Y2057400D02*
X-4937125Y2057400D01*
X-4873625Y2184400D02*
X-4873625Y2438400D01*
X-5127625Y2438400D02*
X-5127625Y2692400D01*
X-4937125Y2692400D01*
X-4937125Y2565400D02*
X-4873625Y2565400D01*
X-4937125Y2565400D02*
X-4937125Y2692400D01*
X-4873625Y2438400D02*
X-5127625Y2438400D01*
X-4873625Y2565400D02*
X-4873625Y2692400D01*
X-4835525Y2692400D01*
X-4835525Y1930400D02*
X-4873625Y1930400D01*
X-4835525Y1930400D02*
X-4835525Y2692400D01*
X-5124450Y1295400D02*
X-5124450Y1041400D01*
X-5124450Y1295400D02*
X-4870450Y1295400D01*
X-4933950Y1041400D02*
X-5124450Y1041400D01*
X-4933950Y1041400D02*
X-4933950Y1168400D01*
X-4870450Y1168400D02*
X-4870450Y1041400D01*
X-4870450Y1168400D02*
X-4933950Y1168400D01*
X-4870450Y1295400D02*
X-4870450Y1549400D01*
X-5124450Y1549400D02*
X-5124450Y1803400D01*
X-4933950Y1803400D01*
X-4933950Y1676400D02*
X-4870450Y1676400D01*
X-4933950Y1676400D02*
X-4933950Y1803400D01*
X-4870450Y1549400D02*
X-5124450Y1549400D01*
X-4870450Y1676400D02*
X-4870450Y1803400D01*
X-4832350Y1803400D01*
X-4832350Y1041400D02*
X-4870450Y1041400D01*
X-4832350Y1041400D02*
X-4832350Y1803400D01*
X-5121275Y406400D02*
X-5121275Y152400D01*
X-5121275Y406400D02*
X-4867275Y406400D01*
X-4930775Y152400D02*
X-5121275Y152400D01*
X-4930775Y152400D02*
X-4930775Y279400D01*
X-4867275Y279400D02*
X-4867275Y152400D01*
X-4867275Y279400D02*
X-4930775Y279400D01*
X-4867275Y406400D02*
X-4867275Y660400D01*
X-5121275Y660400D02*
X-5121275Y914400D01*
X-4930775Y914400D01*
X-4930775Y787400D02*
X-4867275Y787400D01*
X-4930775Y787400D02*
X-4930775Y914400D01*
X-4867275Y660400D02*
X-5121275Y660400D01*
X-4867275Y787400D02*
X-4867275Y914400D01*
X-4829175Y914400D01*
X-4829175Y152400D02*
X-4867275Y152400D01*
X-4829175Y152400D02*
X-4829175Y914400D01*
X-5118100Y-482600D02*
X-5118100Y-736600D01*
X-5118100Y-482600D02*
X-4864100Y-482600D01*
X-4927600Y-736600D02*
X-5118100Y-736600D01*
X-4927600Y-736600D02*
X-4927600Y-609600D01*
X-4864100Y-609600D02*
X-4864100Y-736600D01*
X-4864100Y-609600D02*
X-4927600Y-609600D01*
X-4864100Y-482600D02*
X-4864100Y-228600D01*
X-5118100Y-228600D02*
X-5118100Y25400D01*
X-4927600Y25400D01*
X-4927600Y-101600D02*
X-4864100Y-101600D01*
X-4927600Y-101600D02*
X-4927600Y25400D01*
X-4864100Y-228600D02*
X-5118100Y-228600D01*
X-4864100Y-101600D02*
X-4864100Y25400D01*
X-4826000Y25400D01*
X-4826000Y-736600D02*
X-4864100Y-736600D01*
X-4826000Y-736600D02*
X-4826000Y25400D01*
X-5114925Y-1371600D02*
X-5114925Y-1625600D01*
X-5114925Y-1371600D02*
X-4860925Y-1371600D01*
X-4924425Y-1625600D02*
X-5114925Y-1625600D01*
X-4924425Y-1625600D02*
X-4924425Y-1498600D01*
X-4860925Y-1498600D02*
X-4860925Y-1625600D01*
X-4860925Y-1498600D02*
X-4924425Y-1498600D01*
X-4860925Y-1371600D02*
X-4860925Y-1117600D01*
X-5114925Y-1117600D02*
X-5114925Y-863600D01*
X-4924425Y-863600D01*
X-4924425Y-990600D02*
X-4860925Y-990600D01*
X-4924425Y-990600D02*
X-4924425Y-863600D01*
X-4860925Y-1117600D02*
X-5114925Y-1117600D01*
X-4860925Y-990600D02*
X-4860925Y-863600D01*
X-4822825Y-863600D01*
X-4822825Y-1625600D02*
X-4860925Y-1625600D01*
X-4822825Y-1625600D02*
X-4822825Y-863600D01*
X-5111750Y-2260600D02*
X-5111750Y-2514600D01*
X-5111750Y-2260600D02*
X-4857750Y-2260600D01*
X-4921250Y-2514600D02*
X-5111750Y-2514600D01*
X-4921250Y-2514600D02*
X-4921250Y-2387600D01*
X-4857750Y-2387600D02*
X-4857750Y-2514600D01*
X-4857750Y-2387600D02*
X-4921250Y-2387600D01*
X-4857750Y-2260600D02*
X-4857750Y-2006600D01*
X-5111750Y-2006600D02*
X-5111750Y-1752600D01*
X-4921250Y-1752600D01*
X-4921250Y-1879600D02*
X-4857750Y-1879600D01*
X-4921250Y-1879600D02*
X-4921250Y-1752600D01*
X-4857750Y-2006600D02*
X-5111750Y-2006600D01*
X-4857750Y-1879600D02*
X-4857750Y-1752600D01*
X-4819650Y-1752600D01*
X-4819650Y-2514600D02*
X-4857750Y-2514600D01*
X-4819650Y-2514600D02*
X-4819650Y-1752600D01*
X-5108575Y-3149600D02*
X-5108575Y-3403600D01*
X-5108575Y-3149600D02*
X-4854575Y-3149600D01*
X-4918075Y-3403600D02*
X-5108575Y-3403600D01*
X-4918075Y-3403600D02*
X-4918075Y-3276600D01*
X-4854575Y-3276600D02*
X-4854575Y-3403600D01*
X-4854575Y-3276600D02*
X-4918075Y-3276600D01*
X-4854575Y-3149600D02*
X-4854575Y-2895600D01*
X-5108575Y-2895600D02*
X-5108575Y-2641600D01*
X-4918075Y-2641600D01*
X-4918075Y-2768600D02*
X-4854575Y-2768600D01*
X-4918075Y-2768600D02*
X-4918075Y-2641600D01*
X-4854575Y-2895600D02*
X-5108575Y-2895600D01*
X-4854575Y-2768600D02*
X-4854575Y-2641600D01*
X-4816475Y-2641600D01*
X-4816475Y-3403600D02*
X-4854575Y-3403600D01*
X-4816475Y-3403600D02*
X-4816475Y-2641600D01*
X-5105400Y-4038600D02*
X-5105400Y-4292600D01*
X-5105400Y-4038600D02*
X-4851400Y-4038600D01*
X-4914900Y-4292600D02*
X-5105400Y-4292600D01*
X-4914900Y-4292600D02*
X-4914900Y-4165600D01*
X-4851400Y-4165600D02*
X-4851400Y-4292600D01*
X-4851400Y-4165600D02*
X-4914900Y-4165600D01*
X-4851400Y-4038600D02*
X-4851400Y-3784600D01*
X-5105400Y-3784600D02*
X-5105400Y-3530600D01*
X-4914900Y-3530600D01*
X-4914900Y-3657600D02*
X-4851400Y-3657600D01*
X-4914900Y-3657600D02*
X-4914900Y-3530600D01*
X-4851400Y-3784600D02*
X-5105400Y-3784600D01*
X-4851400Y-3657600D02*
X-4851400Y-3530600D01*
X-4813300Y-3530600D01*
X-4813300Y-4292600D02*
X-4851400Y-4292600D01*
X-4813300Y-4292600D02*
X-4813300Y-3530600D01*
X-4787900Y-3530600D02*
X-4787900Y-4292600D01*
X-4787900Y-3530600D02*
X-4749800Y-3530600D01*
X-4749800Y-4292600D02*
X-4787900Y-4292600D01*
X-4749800Y-4292600D02*
X-4749800Y-4165600D01*
X-4749800Y-3657600D02*
X-4686300Y-3657600D01*
X-4749800Y-3657600D02*
X-4749800Y-3530600D01*
X-4686300Y-4165600D02*
X-4686300Y-4292600D01*
X-4686300Y-4165600D02*
X-4749800Y-4165600D01*
X-4686300Y-3657600D02*
X-4686300Y-3530600D01*
X-4495800Y-3530600D01*
X-4495800Y-4292600D02*
X-4686300Y-4292600D01*
X-4749800Y-4038600D02*
X-4495800Y-4038600D01*
X-4749800Y-4038600D02*
X-4749800Y-3784600D01*
X-4495800Y-4038600D02*
X-4495800Y-4292600D01*
X-4495800Y-3784600D02*
X-4749800Y-3784600D01*
X-4495800Y-3784600D02*
X-4495800Y-3530600D01*
X-4784725Y-3403600D02*
X-4784725Y-2641600D01*
X-4746625Y-2641600D01*
X-4746625Y-3403600D02*
X-4784725Y-3403600D01*
X-4746625Y-3403600D02*
X-4746625Y-3276600D01*
X-4746625Y-2768600D02*
X-4683125Y-2768600D01*
X-4746625Y-2768600D02*
X-4746625Y-2641600D01*
X-4683125Y-3276600D02*
X-4683125Y-3403600D01*
X-4683125Y-3276600D02*
X-4746625Y-3276600D01*
X-4683125Y-2768600D02*
X-4683125Y-2641600D01*
X-4492625Y-2641600D01*
X-4492625Y-3403600D02*
X-4683125Y-3403600D01*
X-4746625Y-3149600D02*
X-4492625Y-3149600D01*
X-4746625Y-3149600D02*
X-4746625Y-2895600D01*
X-4492625Y-3149600D02*
X-4492625Y-3403600D01*
X-4492625Y-2895600D02*
X-4746625Y-2895600D01*
X-4492625Y-2895600D02*
X-4492625Y-2641600D01*
X-4781550Y-2514600D02*
X-4781550Y-1752600D01*
X-4743450Y-1752600D01*
X-4743450Y-2514600D02*
X-4781550Y-2514600D01*
X-4743450Y-2514600D02*
X-4743450Y-2387600D01*
X-4743450Y-1879600D02*
X-4679950Y-1879600D01*
X-4743450Y-1879600D02*
X-4743450Y-1752600D01*
X-4679950Y-2387600D02*
X-4679950Y-2514600D01*
X-4679950Y-2387600D02*
X-4743450Y-2387600D01*
X-4679950Y-1879600D02*
X-4679950Y-1752600D01*
X-4489450Y-1752600D01*
X-4489450Y-2514600D02*
X-4679950Y-2514600D01*
X-4743450Y-2260600D02*
X-4489450Y-2260600D01*
X-4743450Y-2260600D02*
X-4743450Y-2006600D01*
X-4489450Y-2260600D02*
X-4489450Y-2514600D01*
X-4489450Y-2006600D02*
X-4743450Y-2006600D01*
X-4489450Y-2006600D02*
X-4489450Y-1752600D01*
X-4778375Y-1625600D02*
X-4778375Y-863600D01*
X-4740275Y-863600D01*
X-4740275Y-1625600D02*
X-4778375Y-1625600D01*
X-4740275Y-1625600D02*
X-4740275Y-1498600D01*
X-4740275Y-990600D02*
X-4676775Y-990600D01*
X-4740275Y-990600D02*
X-4740275Y-863600D01*
X-4676775Y-1498600D02*
X-4676775Y-1625600D01*
X-4676775Y-1498600D02*
X-4740275Y-1498600D01*
X-4676775Y-990600D02*
X-4676775Y-863600D01*
X-4486275Y-863600D01*
X-4486275Y-1625600D02*
X-4676775Y-1625600D01*
X-4740275Y-1371600D02*
X-4486275Y-1371600D01*
X-4740275Y-1371600D02*
X-4740275Y-1117600D01*
X-4486275Y-1371600D02*
X-4486275Y-1625600D01*
X-4486275Y-1117600D02*
X-4740275Y-1117600D01*
X-4486275Y-1117600D02*
X-4486275Y-863600D01*
X-4775200Y-736600D02*
X-4775200Y25400D01*
X-4737100Y25400D01*
X-4737100Y-736600D02*
X-4775200Y-736600D01*
X-4737100Y-736600D02*
X-4737100Y-609600D01*
X-4737100Y-101600D02*
X-4673600Y-101600D01*
X-4737100Y-101600D02*
X-4737100Y25400D01*
X-4673600Y-609600D02*
X-4673600Y-736600D01*
X-4673600Y-609600D02*
X-4737100Y-609600D01*
X-4673600Y-101600D02*
X-4673600Y25400D01*
X-4483100Y25400D01*
X-4483100Y-736600D02*
X-4673600Y-736600D01*
X-4737100Y-482600D02*
X-4483100Y-482600D01*
X-4737100Y-482600D02*
X-4737100Y-228600D01*
X-4483100Y-482600D02*
X-4483100Y-736600D01*
X-4483100Y-228600D02*
X-4737100Y-228600D01*
X-4483100Y-228600D02*
X-4483100Y25400D01*
X-4772025Y152400D02*
X-4772025Y914400D01*
X-4733925Y914400D01*
X-4733925Y152400D02*
X-4772025Y152400D01*
X-4733925Y152400D02*
X-4733925Y279400D01*
X-4733925Y787400D02*
X-4670425Y787400D01*
X-4733925Y787400D02*
X-4733925Y914400D01*
X-4670425Y279400D02*
X-4670425Y152400D01*
X-4670425Y279400D02*
X-4733925Y279400D01*
X-4670425Y787400D02*
X-4670425Y914400D01*
X-4479925Y914400D01*
X-4479925Y152400D02*
X-4670425Y152400D01*
X-4733925Y406400D02*
X-4479925Y406400D01*
X-4733925Y406400D02*
X-4733925Y660400D01*
X-4479925Y406400D02*
X-4479925Y152400D01*
X-4479925Y660400D02*
X-4733925Y660400D01*
X-4479925Y660400D02*
X-4479925Y914400D01*
X-4768850Y1041400D02*
X-4768850Y1803400D01*
X-4730750Y1803400D01*
X-4730750Y1041400D02*
X-4768850Y1041400D01*
X-4730750Y1041400D02*
X-4730750Y1168400D01*
X-4730750Y1676400D02*
X-4667250Y1676400D01*
X-4730750Y1676400D02*
X-4730750Y1803400D01*
X-4667250Y1168400D02*
X-4667250Y1041400D01*
X-4667250Y1168400D02*
X-4730750Y1168400D01*
X-4667250Y1676400D02*
X-4667250Y1803400D01*
X-4476750Y1803400D01*
X-4476750Y1041400D02*
X-4667250Y1041400D01*
X-4730750Y1295400D02*
X-4476750Y1295400D01*
X-4730750Y1295400D02*
X-4730750Y1549400D01*
X-4476750Y1295400D02*
X-4476750Y1041400D01*
X-4476750Y1549400D02*
X-4730750Y1549400D01*
X-4476750Y1549400D02*
X-4476750Y1803400D01*
X-4765675Y1930400D02*
X-4765675Y2692400D01*
X-4727575Y2692400D01*
X-4727575Y1930400D02*
X-4765675Y1930400D01*
X-4727575Y1930400D02*
X-4727575Y2057400D01*
X-4727575Y2565400D02*
X-4664075Y2565400D01*
X-4727575Y2565400D02*
X-4727575Y2692400D01*
X-4664075Y2057400D02*
X-4664075Y1930400D01*
X-4664075Y2057400D02*
X-4727575Y2057400D01*
X-4664075Y2565400D02*
X-4664075Y2692400D01*
X-4473575Y2692400D01*
X-4473575Y1930400D02*
X-4664075Y1930400D01*
X-4727575Y2184400D02*
X-4473575Y2184400D01*
X-4727575Y2184400D02*
X-4727575Y2438400D01*
X-4473575Y2184400D02*
X-4473575Y1930400D01*
X-4473575Y2438400D02*
X-4727575Y2438400D01*
X-4473575Y2438400D02*
X-4473575Y2692400D01*
X-4762500Y2819400D02*
X-4762500Y3581400D01*
X-4724400Y3581400D01*
X-4724400Y2819400D02*
X-4762500Y2819400D01*
X-4724400Y2819400D02*
X-4724400Y2946400D01*
X-4724400Y3454400D02*
X-4660900Y3454400D01*
X-4724400Y3454400D02*
X-4724400Y3581400D01*
X-4660900Y2946400D02*
X-4660900Y2819400D01*
X-4660900Y2946400D02*
X-4724400Y2946400D01*
X-4660900Y3454400D02*
X-4660900Y3581400D01*
X-4470400Y3581400D01*
X-4470400Y2819400D02*
X-4660900Y2819400D01*
X-4724400Y3073400D02*
X-4470400Y3073400D01*
X-4724400Y3073400D02*
X-4724400Y3327400D01*
X-4470400Y3073400D02*
X-4470400Y2819400D01*
X-4470400Y3327400D02*
X-4724400Y3327400D01*
X-4470400Y3327400D02*
X-4470400Y3581400D01*
X-4759325Y3708400D02*
X-4759325Y4470400D01*
X-4721225Y4470400D01*
X-4721225Y3708400D02*
X-4759325Y3708400D01*
X-4721225Y3708400D02*
X-4721225Y3835400D01*
X-4721225Y4343400D02*
X-4657725Y4343400D01*
X-4721225Y4343400D02*
X-4721225Y4470400D01*
X-4657725Y3835400D02*
X-4657725Y3708400D01*
X-4657725Y3835400D02*
X-4721225Y3835400D01*
X-4657725Y4343400D02*
X-4657725Y4470400D01*
X-4467225Y4470400D01*
X-4467225Y3708400D02*
X-4657725Y3708400D01*
X-4721225Y3962400D02*
X-4467225Y3962400D01*
X-4721225Y3962400D02*
X-4721225Y4216400D01*
X-4467225Y3962400D02*
X-4467225Y3708400D01*
X-4467225Y4216400D02*
X-4721225Y4216400D01*
X-4467225Y4216400D02*
X-4467225Y4470400D01*
X-4745919Y4659489D02*
X-4745919Y4715933D01*
X-4520142Y4715933D01*
X-4520142Y4659489D02*
X-4745919Y4659489D01*
X-4520142Y4659489D02*
X-4520142Y4715933D01*
X-4520142Y4828822D01*
X-4745919Y4828822D02*
X-4745919Y5054600D01*
X-4463697Y5054600D01*
X-4520142Y4828822D02*
X-4745919Y4828822D01*
X-4520142Y4828822D02*
X-4463697Y4828822D01*
X-4520142Y4885267D02*
X-4689475Y4885267D01*
X-4689475Y4998156D01*
X-4520142Y4885267D02*
X-4520142Y4828822D01*
X-4520142Y4715933D02*
X-4463697Y4715933D01*
X-4463697Y4828822D01*
X-4463697Y4998156D02*
X-4689475Y4998156D01*
X-4463697Y4998156D02*
X-4463697Y5054600D01*
X-4257675Y4772378D02*
X-4257675Y4659489D01*
X-4257675Y4772378D02*
X-4201231Y4772378D01*
X-4201231Y4715933D02*
X-3975453Y4715933D01*
X-4201231Y4715933D02*
X-4201231Y4772378D01*
X-4201231Y4828822D01*
X-4088342Y4828822D01*
X-4088342Y4772378D02*
X-4201231Y4772378D01*
X-4088342Y4772378D02*
X-4088342Y4828822D01*
X-4088342Y4885267D01*
X-4031897Y4885267D01*
X-4031897Y4828822D02*
X-4088342Y4828822D01*
X-4031897Y4828822D02*
X-4031897Y4885267D01*
X-4031897Y4998156D01*
X-4257675Y4998156D02*
X-4257675Y4941711D01*
X-4257675Y4998156D02*
X-4201231Y4998156D01*
X-4201231Y4941711D02*
X-4257675Y4941711D01*
X-4201231Y4941711D02*
X-4201231Y4998156D01*
X-4201231Y5054600D01*
X-4031897Y5054600D01*
X-4031897Y4998156D02*
X-4201231Y4998156D01*
X-4031897Y4998156D02*
X-3975453Y4998156D01*
X-4031897Y4998156D02*
X-4031897Y5054600D01*
X-3975453Y4659489D02*
X-4257675Y4659489D01*
X-3975453Y4659489D02*
X-3975453Y4715933D01*
X-3975453Y4885267D02*
X-4031897Y4885267D01*
X-3975453Y4885267D02*
X-3975453Y4998156D01*
X-4206875Y3962400D02*
X-4206875Y3708400D01*
X-4206875Y3962400D02*
X-3952875Y3962400D01*
X-4016375Y3708400D02*
X-4206875Y3708400D01*
X-4016375Y3708400D02*
X-4016375Y3835400D01*
X-3952875Y3835400D02*
X-3952875Y3708400D01*
X-3952875Y3835400D02*
X-4016375Y3835400D01*
X-3952875Y3962400D02*
X-3952875Y4216400D01*
X-4206875Y4216400D02*
X-4206875Y4470400D01*
X-4016375Y4470400D01*
X-4016375Y4343400D02*
X-3952875Y4343400D01*
X-4016375Y4343400D02*
X-4016375Y4470400D01*
X-3952875Y4216400D02*
X-4206875Y4216400D01*
X-3952875Y4343400D02*
X-3952875Y4470400D01*
X-3902075Y4470400D01*
X-3902075Y3708400D02*
X-3952875Y3708400D01*
X-3902075Y3708400D02*
X-3902075Y4470400D01*
X-4203700Y3073400D02*
X-4203700Y2819400D01*
X-4203700Y3073400D02*
X-3949700Y3073400D01*
X-4013200Y2819400D02*
X-4203700Y2819400D01*
X-4013200Y2819400D02*
X-4013200Y2946400D01*
X-3949700Y2946400D02*
X-3949700Y2819400D01*
X-3949700Y2946400D02*
X-4013200Y2946400D01*
X-3949700Y3073400D02*
X-3949700Y3327400D01*
X-4203700Y3327400D02*
X-4203700Y3581400D01*
X-4013200Y3581400D01*
X-4013200Y3454400D02*
X-3949700Y3454400D01*
X-4013200Y3454400D02*
X-4013200Y3581400D01*
X-3949700Y3327400D02*
X-4203700Y3327400D01*
X-3949700Y3454400D02*
X-3949700Y3581400D01*
X-3898900Y3581400D01*
X-3898900Y2819400D02*
X-3949700Y2819400D01*
X-3898900Y2819400D02*
X-3898900Y3581400D01*
X-4200525Y2184400D02*
X-4200525Y1930400D01*
X-4200525Y2184400D02*
X-3946525Y2184400D01*
X-4010025Y1930400D02*
X-4200525Y1930400D01*
X-4010025Y1930400D02*
X-4010025Y2057400D01*
X-3946525Y2057400D02*
X-3946525Y1930400D01*
X-3946525Y2057400D02*
X-4010025Y2057400D01*
X-3946525Y2184400D02*
X-3946525Y2438400D01*
X-4200525Y2438400D02*
X-4200525Y2692400D01*
X-4010025Y2692400D01*
X-4010025Y2565400D02*
X-3946525Y2565400D01*
X-4010025Y2565400D02*
X-4010025Y2692400D01*
X-3946525Y2438400D02*
X-4200525Y2438400D01*
X-3946525Y2565400D02*
X-3946525Y2692400D01*
X-3895725Y2692400D01*
X-3895725Y1930400D02*
X-3946525Y1930400D01*
X-3895725Y1930400D02*
X-3895725Y2692400D01*
X-4197350Y1295400D02*
X-4197350Y1041400D01*
X-4197350Y1295400D02*
X-3943350Y1295400D01*
X-4006850Y1041400D02*
X-4197350Y1041400D01*
X-4006850Y1041400D02*
X-4006850Y1168400D01*
X-3943350Y1168400D02*
X-3943350Y1041400D01*
X-3943350Y1168400D02*
X-4006850Y1168400D01*
X-3943350Y1295400D02*
X-3943350Y1549400D01*
X-4197350Y1549400D02*
X-4197350Y1803400D01*
X-4006850Y1803400D01*
X-4006850Y1676400D02*
X-3943350Y1676400D01*
X-4006850Y1676400D02*
X-4006850Y1803400D01*
X-3943350Y1549400D02*
X-4197350Y1549400D01*
X-3943350Y1676400D02*
X-3943350Y1803400D01*
X-3892550Y1803400D01*
X-3892550Y1041400D02*
X-3943350Y1041400D01*
X-3892550Y1041400D02*
X-3892550Y1803400D01*
X-4194175Y406400D02*
X-4194175Y152400D01*
X-4194175Y406400D02*
X-3940175Y406400D01*
X-4003675Y152400D02*
X-4194175Y152400D01*
X-4003675Y152400D02*
X-4003675Y279400D01*
X-3940175Y279400D02*
X-3940175Y152400D01*
X-3940175Y279400D02*
X-4003675Y279400D01*
X-3940175Y406400D02*
X-3940175Y660400D01*
X-4194175Y660400D02*
X-4194175Y914400D01*
X-4003675Y914400D01*
X-4003675Y787400D02*
X-3940175Y787400D01*
X-4003675Y787400D02*
X-4003675Y914400D01*
X-3940175Y660400D02*
X-4194175Y660400D01*
X-3940175Y787400D02*
X-3940175Y914400D01*
X-3889375Y914400D01*
X-3889375Y152400D02*
X-3940175Y152400D01*
X-3889375Y152400D02*
X-3889375Y914400D01*
X-4191000Y-482600D02*
X-4191000Y-736600D01*
X-4191000Y-482600D02*
X-3937000Y-482600D01*
X-4000500Y-736600D02*
X-4191000Y-736600D01*
X-4000500Y-736600D02*
X-4000500Y-609600D01*
X-3937000Y-609600D02*
X-3937000Y-736600D01*
X-3937000Y-609600D02*
X-4000500Y-609600D01*
X-3937000Y-482600D02*
X-3937000Y-228600D01*
X-4191000Y-228600D02*
X-4191000Y25400D01*
X-4000500Y25400D01*
X-4000500Y-101600D02*
X-3937000Y-101600D01*
X-4000500Y-101600D02*
X-4000500Y25400D01*
X-3937000Y-228600D02*
X-4191000Y-228600D01*
X-3937000Y-101600D02*
X-3937000Y25400D01*
X-3886200Y25400D01*
X-3886200Y-736600D02*
X-3937000Y-736600D01*
X-3886200Y-736600D02*
X-3886200Y25400D01*
X-4187825Y-1371600D02*
X-4187825Y-1625600D01*
X-4187825Y-1371600D02*
X-3933825Y-1371600D01*
X-3997325Y-1625600D02*
X-4187825Y-1625600D01*
X-3997325Y-1625600D02*
X-3997325Y-1498600D01*
X-3933825Y-1498600D02*
X-3933825Y-1625600D01*
X-3933825Y-1498600D02*
X-3997325Y-1498600D01*
X-3933825Y-1371600D02*
X-3933825Y-1117600D01*
X-4187825Y-1117600D02*
X-4187825Y-863600D01*
X-3997325Y-863600D01*
X-3997325Y-990600D02*
X-3933825Y-990600D01*
X-3997325Y-990600D02*
X-3997325Y-863600D01*
X-3933825Y-1117600D02*
X-4187825Y-1117600D01*
X-3933825Y-990600D02*
X-3933825Y-863600D01*
X-3883025Y-863600D01*
X-3883025Y-1625600D02*
X-3933825Y-1625600D01*
X-3883025Y-1625600D02*
X-3883025Y-863600D01*
X-4184650Y-2260600D02*
X-4184650Y-2514600D01*
X-4184650Y-2260600D02*
X-3930650Y-2260600D01*
X-3994150Y-2514600D02*
X-4184650Y-2514600D01*
X-3994150Y-2514600D02*
X-3994150Y-2387600D01*
X-3930650Y-2387600D02*
X-3930650Y-2514600D01*
X-3930650Y-2387600D02*
X-3994150Y-2387600D01*
X-3930650Y-2260600D02*
X-3930650Y-2006600D01*
X-4184650Y-2006600D02*
X-4184650Y-1752600D01*
X-3994150Y-1752600D01*
X-3994150Y-1879600D02*
X-3930650Y-1879600D01*
X-3994150Y-1879600D02*
X-3994150Y-1752600D01*
X-3930650Y-2006600D02*
X-4184650Y-2006600D01*
X-3930650Y-1879600D02*
X-3930650Y-1752600D01*
X-3879850Y-1752600D01*
X-3879850Y-2514600D02*
X-3930650Y-2514600D01*
X-3879850Y-2514600D02*
X-3879850Y-1752600D01*
X-4181475Y-3149600D02*
X-4181475Y-3403600D01*
X-4181475Y-3149600D02*
X-3927475Y-3149600D01*
X-3990975Y-3403600D02*
X-4181475Y-3403600D01*
X-3990975Y-3403600D02*
X-3990975Y-3276600D01*
X-3927475Y-3276600D02*
X-3927475Y-3403600D01*
X-3927475Y-3276600D02*
X-3990975Y-3276600D01*
X-3927475Y-3149600D02*
X-3927475Y-2895600D01*
X-4181475Y-2895600D02*
X-4181475Y-2641600D01*
X-3990975Y-2641600D01*
X-3990975Y-2768600D02*
X-3927475Y-2768600D01*
X-3990975Y-2768600D02*
X-3990975Y-2641600D01*
X-3927475Y-2895600D02*
X-4181475Y-2895600D01*
X-3927475Y-2768600D02*
X-3927475Y-2641600D01*
X-3876675Y-2641600D01*
X-3876675Y-3403600D02*
X-3927475Y-3403600D01*
X-3876675Y-3403600D02*
X-3876675Y-2641600D01*
X-4178300Y-4038600D02*
X-4178300Y-4292600D01*
X-4178300Y-4038600D02*
X-3924300Y-4038600D01*
X-3987800Y-4292600D02*
X-4178300Y-4292600D01*
X-3987800Y-4292600D02*
X-3987800Y-4165600D01*
X-3924300Y-4165600D02*
X-3924300Y-4292600D01*
X-3924300Y-4165600D02*
X-3987800Y-4165600D01*
X-3924300Y-4038600D02*
X-3924300Y-3784600D01*
X-4178300Y-3784600D02*
X-4178300Y-3530600D01*
X-3987800Y-3530600D01*
X-3987800Y-3657600D02*
X-3924300Y-3657600D01*
X-3987800Y-3657600D02*
X-3987800Y-3530600D01*
X-3924300Y-3784600D02*
X-4178300Y-3784600D01*
X-3924300Y-3657600D02*
X-3924300Y-3530600D01*
X-3873500Y-3530600D01*
X-3873500Y-4292600D02*
X-3924300Y-4292600D01*
X-3873500Y-4292600D02*
X-3873500Y-3530600D01*
X-3848100Y-3530600D02*
X-3848100Y-4292600D01*
X-3848100Y-3530600D02*
X-3797300Y-3530600D01*
X-3797300Y-4292600D02*
X-3848100Y-4292600D01*
X-3797300Y-4292600D02*
X-3797300Y-4165600D01*
X-3797300Y-3657600D02*
X-3733800Y-3657600D01*
X-3797300Y-3657600D02*
X-3797300Y-3530600D01*
X-3733800Y-4165600D02*
X-3733800Y-4292600D01*
X-3733800Y-4165600D02*
X-3797300Y-4165600D01*
X-3733800Y-3657600D02*
X-3733800Y-3530600D01*
X-3543300Y-3530600D01*
X-3543300Y-4292600D02*
X-3733800Y-4292600D01*
X-3797300Y-4038600D02*
X-3543300Y-4038600D01*
X-3797300Y-4038600D02*
X-3797300Y-3784600D01*
X-3543300Y-4038600D02*
X-3543300Y-4292600D01*
X-3543300Y-3784600D02*
X-3797300Y-3784600D01*
X-3543300Y-3784600D02*
X-3543300Y-3530600D01*
X-3844925Y-3403600D02*
X-3844925Y-2641600D01*
X-3794125Y-2641600D01*
X-3794125Y-3403600D02*
X-3844925Y-3403600D01*
X-3794125Y-3403600D02*
X-3794125Y-3276600D01*
X-3794125Y-2768600D02*
X-3730625Y-2768600D01*
X-3794125Y-2768600D02*
X-3794125Y-2641600D01*
X-3730625Y-3276600D02*
X-3730625Y-3403600D01*
X-3730625Y-3276600D02*
X-3794125Y-3276600D01*
X-3730625Y-2768600D02*
X-3730625Y-2641600D01*
X-3540125Y-2641600D01*
X-3540125Y-3403600D02*
X-3730625Y-3403600D01*
X-3794125Y-3149600D02*
X-3540125Y-3149600D01*
X-3794125Y-3149600D02*
X-3794125Y-2895600D01*
X-3540125Y-3149600D02*
X-3540125Y-3403600D01*
X-3540125Y-2895600D02*
X-3794125Y-2895600D01*
X-3540125Y-2895600D02*
X-3540125Y-2641600D01*
X-3841750Y-2514600D02*
X-3841750Y-1752600D01*
X-3790950Y-1752600D01*
X-3790950Y-2514600D02*
X-3841750Y-2514600D01*
X-3790950Y-2514600D02*
X-3790950Y-2387600D01*
X-3790950Y-1879600D02*
X-3727450Y-1879600D01*
X-3790950Y-1879600D02*
X-3790950Y-1752600D01*
X-3727450Y-2387600D02*
X-3727450Y-2514600D01*
X-3727450Y-2387600D02*
X-3790950Y-2387600D01*
X-3727450Y-1879600D02*
X-3727450Y-1752600D01*
X-3536950Y-1752600D01*
X-3536950Y-2514600D02*
X-3727450Y-2514600D01*
X-3790950Y-2260600D02*
X-3536950Y-2260600D01*
X-3790950Y-2260600D02*
X-3790950Y-2006600D01*
X-3536950Y-2260600D02*
X-3536950Y-2514600D01*
X-3536950Y-2006600D02*
X-3790950Y-2006600D01*
X-3536950Y-2006600D02*
X-3536950Y-1752600D01*
X-3838575Y-1625600D02*
X-3838575Y-863600D01*
X-3787775Y-863600D01*
X-3787775Y-1625600D02*
X-3838575Y-1625600D01*
X-3787775Y-1625600D02*
X-3787775Y-1498600D01*
X-3787775Y-990600D02*
X-3724275Y-990600D01*
X-3787775Y-990600D02*
X-3787775Y-863600D01*
X-3724275Y-1498600D02*
X-3724275Y-1625600D01*
X-3724275Y-1498600D02*
X-3787775Y-1498600D01*
X-3724275Y-990600D02*
X-3724275Y-863600D01*
X-3533775Y-863600D01*
X-3533775Y-1625600D02*
X-3724275Y-1625600D01*
X-3787775Y-1371600D02*
X-3533775Y-1371600D01*
X-3787775Y-1371600D02*
X-3787775Y-1117600D01*
X-3533775Y-1371600D02*
X-3533775Y-1625600D01*
X-3533775Y-1117600D02*
X-3787775Y-1117600D01*
X-3533775Y-1117600D02*
X-3533775Y-863600D01*
X-3835400Y-736600D02*
X-3835400Y25400D01*
X-3784600Y25400D01*
X-3784600Y-736600D02*
X-3835400Y-736600D01*
X-3784600Y-736600D02*
X-3784600Y-609600D01*
X-3784600Y-101600D02*
X-3721100Y-101600D01*
X-3784600Y-101600D02*
X-3784600Y25400D01*
X-3721100Y-609600D02*
X-3721100Y-736600D01*
X-3721100Y-609600D02*
X-3784600Y-609600D01*
X-3721100Y-101600D02*
X-3721100Y25400D01*
X-3530600Y25400D01*
X-3530600Y-736600D02*
X-3721100Y-736600D01*
X-3784600Y-482600D02*
X-3530600Y-482600D01*
X-3784600Y-482600D02*
X-3784600Y-228600D01*
X-3530600Y-482600D02*
X-3530600Y-736600D01*
X-3530600Y-228600D02*
X-3784600Y-228600D01*
X-3530600Y-228600D02*
X-3530600Y25400D01*
X-3832225Y152400D02*
X-3832225Y914400D01*
X-3781425Y914400D01*
X-3781425Y152400D02*
X-3832225Y152400D01*
X-3781425Y152400D02*
X-3781425Y279400D01*
X-3781425Y787400D02*
X-3717925Y787400D01*
X-3781425Y787400D02*
X-3781425Y914400D01*
X-3717925Y279400D02*
X-3717925Y152400D01*
X-3717925Y279400D02*
X-3781425Y279400D01*
X-3717925Y787400D02*
X-3717925Y914400D01*
X-3527425Y914400D01*
X-3527425Y152400D02*
X-3717925Y152400D01*
X-3781425Y406400D02*
X-3527425Y406400D01*
X-3781425Y406400D02*
X-3781425Y660400D01*
X-3527425Y406400D02*
X-3527425Y152400D01*
X-3527425Y660400D02*
X-3781425Y660400D01*
X-3527425Y660400D02*
X-3527425Y914400D01*
X-3829050Y1041400D02*
X-3829050Y1803400D01*
X-3778250Y1803400D01*
X-3778250Y1041400D02*
X-3829050Y1041400D01*
X-3778250Y1041400D02*
X-3778250Y1168400D01*
X-3778250Y1676400D02*
X-3714750Y1676400D01*
X-3778250Y1676400D02*
X-3778250Y1803400D01*
X-3714750Y1168400D02*
X-3714750Y1041400D01*
X-3714750Y1168400D02*
X-3778250Y1168400D01*
X-3714750Y1676400D02*
X-3714750Y1803400D01*
X-3524250Y1803400D01*
X-3524250Y1041400D02*
X-3714750Y1041400D01*
X-3778250Y1295400D02*
X-3524250Y1295400D01*
X-3778250Y1295400D02*
X-3778250Y1549400D01*
X-3524250Y1295400D02*
X-3524250Y1041400D01*
X-3524250Y1549400D02*
X-3778250Y1549400D01*
X-3524250Y1549400D02*
X-3524250Y1803400D01*
X-3825875Y1930400D02*
X-3825875Y2692400D01*
X-3775075Y2692400D01*
X-3775075Y1930400D02*
X-3825875Y1930400D01*
X-3775075Y1930400D02*
X-3775075Y2057400D01*
X-3775075Y2565400D02*
X-3711575Y2565400D01*
X-3775075Y2565400D02*
X-3775075Y2692400D01*
X-3711575Y2057400D02*
X-3711575Y1930400D01*
X-3711575Y2057400D02*
X-3775075Y2057400D01*
X-3711575Y2565400D02*
X-3711575Y2692400D01*
X-3521075Y2692400D01*
X-3521075Y1930400D02*
X-3711575Y1930400D01*
X-3775075Y2184400D02*
X-3521075Y2184400D01*
X-3775075Y2184400D02*
X-3775075Y2438400D01*
X-3521075Y2184400D02*
X-3521075Y1930400D01*
X-3521075Y2438400D02*
X-3775075Y2438400D01*
X-3521075Y2438400D02*
X-3521075Y2692400D01*
X-3822700Y2819400D02*
X-3822700Y3581400D01*
X-3771900Y3581400D01*
X-3771900Y2819400D02*
X-3822700Y2819400D01*
X-3771900Y2819400D02*
X-3771900Y2946400D01*
X-3771900Y3454400D02*
X-3708400Y3454400D01*
X-3771900Y3454400D02*
X-3771900Y3581400D01*
X-3708400Y2946400D02*
X-3708400Y2819400D01*
X-3708400Y2946400D02*
X-3771900Y2946400D01*
X-3708400Y3454400D02*
X-3708400Y3581400D01*
X-3517900Y3581400D01*
X-3517900Y2819400D02*
X-3708400Y2819400D01*
X-3771900Y3073400D02*
X-3517900Y3073400D01*
X-3771900Y3073400D02*
X-3771900Y3327400D01*
X-3517900Y3073400D02*
X-3517900Y2819400D01*
X-3517900Y3327400D02*
X-3771900Y3327400D01*
X-3517900Y3327400D02*
X-3517900Y3581400D01*
X-3819525Y3708400D02*
X-3819525Y4470400D01*
X-3768725Y4470400D01*
X-3768725Y3708400D02*
X-3819525Y3708400D01*
X-3768725Y3708400D02*
X-3768725Y3835400D01*
X-3768725Y4343400D02*
X-3705225Y4343400D01*
X-3768725Y4343400D02*
X-3768725Y4470400D01*
X-3705225Y3835400D02*
X-3705225Y3708400D01*
X-3705225Y3835400D02*
X-3768725Y3835400D01*
X-3705225Y4343400D02*
X-3705225Y4470400D01*
X-3514725Y4470400D01*
X-3514725Y3708400D02*
X-3705225Y3708400D01*
X-3768725Y3962400D02*
X-3514725Y3962400D01*
X-3768725Y3962400D02*
X-3768725Y4216400D01*
X-3514725Y3962400D02*
X-3514725Y3708400D01*
X-3514725Y4216400D02*
X-3768725Y4216400D01*
X-3514725Y4216400D02*
X-3514725Y4470400D01*
X-3806119Y4715933D02*
X-3806119Y4998156D01*
X-3749675Y4998156D01*
X-3749675Y4715933D02*
X-3749675Y4659489D01*
X-3749675Y4715933D02*
X-3806119Y4715933D01*
X-3749675Y4715933D02*
X-3580342Y4715933D01*
X-3749675Y4715933D02*
X-3749675Y4772378D01*
X-3749675Y4828822D02*
X-3693231Y4828822D01*
X-3749675Y4828822D02*
X-3749675Y4998156D01*
X-3749675Y5054600D01*
X-3580342Y5054600D01*
X-3693231Y4772378D02*
X-3749675Y4772378D01*
X-3693231Y4772378D02*
X-3693231Y4828822D01*
X-3693231Y4885267D01*
X-3636786Y4885267D01*
X-3636786Y4828822D02*
X-3693231Y4828822D01*
X-3636786Y4828822D02*
X-3636786Y4885267D01*
X-3636786Y4941711D01*
X-3580342Y4941711D01*
X-3580342Y4659489D02*
X-3749675Y4659489D01*
X-3580342Y4659489D02*
X-3580342Y4715933D01*
X-3580342Y4885267D01*
X-3636786Y4885267D01*
X-3580342Y4941711D02*
X-3580342Y4998156D01*
X-3749675Y4998156D01*
X-3580342Y4998156D02*
X-3523897Y4998156D01*
X-3580342Y4998156D02*
X-3580342Y5054600D01*
X-3580342Y4715933D02*
X-3523897Y4715933D01*
X-3523897Y4998156D01*
X-3317875Y4772378D02*
X-3317875Y4659489D01*
X-3317875Y4772378D02*
X-3261431Y4772378D01*
X-3261431Y4715933D02*
X-3035653Y4715933D01*
X-3261431Y4715933D02*
X-3261431Y4772378D01*
X-3261431Y4828822D01*
X-3148542Y4828822D01*
X-3148542Y4772378D02*
X-3261431Y4772378D01*
X-3148542Y4772378D02*
X-3148542Y4828822D01*
X-3148542Y4885267D01*
X-3092097Y4885267D01*
X-3092097Y4828822D02*
X-3148542Y4828822D01*
X-3092097Y4828822D02*
X-3092097Y4885267D01*
X-3092097Y4998156D01*
X-3317875Y4998156D02*
X-3317875Y4941711D01*
X-3317875Y4998156D02*
X-3261431Y4998156D01*
X-3261431Y4941711D02*
X-3317875Y4941711D01*
X-3261431Y4941711D02*
X-3261431Y4998156D01*
X-3261431Y5054600D01*
X-3092097Y5054600D01*
X-3092097Y4998156D02*
X-3261431Y4998156D01*
X-3092097Y4998156D02*
X-3035653Y4998156D01*
X-3092097Y4998156D02*
X-3092097Y5054600D01*
X-3035653Y4659489D02*
X-3317875Y4659489D01*
X-3035653Y4659489D02*
X-3035653Y4715933D01*
X-3035653Y4885267D02*
X-3092097Y4885267D01*
X-3035653Y4885267D02*
X-3035653Y4998156D01*
X-3279775Y3962400D02*
X-3279775Y3708400D01*
X-3279775Y3962400D02*
X-3025775Y3962400D01*
X-3089275Y3708400D02*
X-3279775Y3708400D01*
X-3089275Y3708400D02*
X-3089275Y3835400D01*
X-3025775Y3835400D02*
X-3025775Y3708400D01*
X-3025775Y3835400D02*
X-3089275Y3835400D01*
X-3025775Y3962400D02*
X-3025775Y4216400D01*
X-3279775Y4216400D02*
X-3279775Y4470400D01*
X-3089275Y4470400D01*
X-3089275Y4343400D02*
X-3025775Y4343400D01*
X-3089275Y4343400D02*
X-3089275Y4470400D01*
X-3025775Y4216400D02*
X-3279775Y4216400D01*
X-3025775Y4343400D02*
X-3025775Y4470400D01*
X-2962275Y4470400D01*
X-2962275Y3708400D02*
X-3025775Y3708400D01*
X-2962275Y3708400D02*
X-2962275Y4470400D01*
X-3276600Y3073400D02*
X-3276600Y2819400D01*
X-3276600Y3073400D02*
X-3022600Y3073400D01*
X-3086100Y2819400D02*
X-3276600Y2819400D01*
X-3086100Y2819400D02*
X-3086100Y2946400D01*
X-3022600Y2946400D02*
X-3022600Y2819400D01*
X-3022600Y2946400D02*
X-3086100Y2946400D01*
X-3022600Y3073400D02*
X-3022600Y3327400D01*
X-3276600Y3327400D02*
X-3276600Y3581400D01*
X-3086100Y3581400D01*
X-3086100Y3454400D02*
X-3022600Y3454400D01*
X-3086100Y3454400D02*
X-3086100Y3581400D01*
X-3022600Y3327400D02*
X-3276600Y3327400D01*
X-3022600Y3454400D02*
X-3022600Y3581400D01*
X-2959100Y3581400D01*
X-2959100Y2819400D02*
X-3022600Y2819400D01*
X-2959100Y2819400D02*
X-2959100Y3581400D01*
X-3273425Y2184400D02*
X-3273425Y1930400D01*
X-3273425Y2184400D02*
X-3019425Y2184400D01*
X-3082925Y1930400D02*
X-3273425Y1930400D01*
X-3082925Y1930400D02*
X-3082925Y2057400D01*
X-3019425Y2057400D02*
X-3019425Y1930400D01*
X-3019425Y2057400D02*
X-3082925Y2057400D01*
X-3019425Y2184400D02*
X-3019425Y2438400D01*
X-3273425Y2438400D02*
X-3273425Y2692400D01*
X-3082925Y2692400D01*
X-3082925Y2565400D02*
X-3019425Y2565400D01*
X-3082925Y2565400D02*
X-3082925Y2692400D01*
X-3019425Y2438400D02*
X-3273425Y2438400D01*
X-3019425Y2565400D02*
X-3019425Y2692400D01*
X-2955925Y2692400D01*
X-2955925Y1930400D02*
X-3019425Y1930400D01*
X-2955925Y1930400D02*
X-2955925Y2692400D01*
X-3270250Y1295400D02*
X-3270250Y1041400D01*
X-3270250Y1295400D02*
X-3016250Y1295400D01*
X-3079750Y1041400D02*
X-3270250Y1041400D01*
X-3079750Y1041400D02*
X-3079750Y1168400D01*
X-3016250Y1168400D02*
X-3016250Y1041400D01*
X-3016250Y1168400D02*
X-3079750Y1168400D01*
X-3016250Y1295400D02*
X-3016250Y1549400D01*
X-3270250Y1549400D02*
X-3270250Y1803400D01*
X-3079750Y1803400D01*
X-3079750Y1676400D02*
X-3016250Y1676400D01*
X-3079750Y1676400D02*
X-3079750Y1803400D01*
X-3016250Y1549400D02*
X-3270250Y1549400D01*
X-3016250Y1676400D02*
X-3016250Y1803400D01*
X-2952750Y1803400D01*
X-2952750Y1041400D02*
X-3016250Y1041400D01*
X-2952750Y1041400D02*
X-2952750Y1803400D01*
X-3267075Y406400D02*
X-3267075Y152400D01*
X-3267075Y406400D02*
X-3013075Y406400D01*
X-3076575Y152400D02*
X-3267075Y152400D01*
X-3076575Y152400D02*
X-3076575Y279400D01*
X-3013075Y279400D02*
X-3013075Y152400D01*
X-3013075Y279400D02*
X-3076575Y279400D01*
X-3013075Y406400D02*
X-3013075Y660400D01*
X-3267075Y660400D02*
X-3267075Y914400D01*
X-3076575Y914400D01*
X-3076575Y787400D02*
X-3013075Y787400D01*
X-3076575Y787400D02*
X-3076575Y914400D01*
X-3013075Y660400D02*
X-3267075Y660400D01*
X-3013075Y787400D02*
X-3013075Y914400D01*
X-2949575Y914400D01*
X-2949575Y152400D02*
X-3013075Y152400D01*
X-2949575Y152400D02*
X-2949575Y914400D01*
X-3263900Y-482600D02*
X-3263900Y-736600D01*
X-3263900Y-482600D02*
X-3009900Y-482600D01*
X-3073400Y-736600D02*
X-3263900Y-736600D01*
X-3073400Y-736600D02*
X-3073400Y-609600D01*
X-3009900Y-609600D02*
X-3009900Y-736600D01*
X-3009900Y-609600D02*
X-3073400Y-609600D01*
X-3009900Y-482600D02*
X-3009900Y-228600D01*
X-3263900Y-228600D02*
X-3263900Y25400D01*
X-3073400Y25400D01*
X-3073400Y-101600D02*
X-3009900Y-101600D01*
X-3073400Y-101600D02*
X-3073400Y25400D01*
X-3009900Y-228600D02*
X-3263900Y-228600D01*
X-3009900Y-101600D02*
X-3009900Y25400D01*
X-2946400Y25400D01*
X-2946400Y-736600D02*
X-3009900Y-736600D01*
X-2946400Y-736600D02*
X-2946400Y25400D01*
X-3260725Y-1371600D02*
X-3260725Y-1625600D01*
X-3260725Y-1371600D02*
X-3006725Y-1371600D01*
X-3070225Y-1625600D02*
X-3260725Y-1625600D01*
X-3070225Y-1625600D02*
X-3070225Y-1498600D01*
X-3006725Y-1498600D02*
X-3006725Y-1625600D01*
X-3006725Y-1498600D02*
X-3070225Y-1498600D01*
X-3006725Y-1371600D02*
X-3006725Y-1117600D01*
X-3260725Y-1117600D02*
X-3260725Y-863600D01*
X-3070225Y-863600D01*
X-3070225Y-990600D02*
X-3006725Y-990600D01*
X-3070225Y-990600D02*
X-3070225Y-863600D01*
X-3006725Y-1117600D02*
X-3260725Y-1117600D01*
X-3006725Y-990600D02*
X-3006725Y-863600D01*
X-2943225Y-863600D01*
X-2943225Y-1625600D02*
X-3006725Y-1625600D01*
X-2943225Y-1625600D02*
X-2943225Y-863600D01*
X-3257550Y-2260600D02*
X-3257550Y-2514600D01*
X-3257550Y-2260600D02*
X-3003550Y-2260600D01*
X-3067050Y-2514600D02*
X-3257550Y-2514600D01*
X-3067050Y-2514600D02*
X-3067050Y-2387600D01*
X-3003550Y-2387600D02*
X-3003550Y-2514600D01*
X-3003550Y-2387600D02*
X-3067050Y-2387600D01*
X-3003550Y-2260600D02*
X-3003550Y-2006600D01*
X-3257550Y-2006600D02*
X-3257550Y-1752600D01*
X-3067050Y-1752600D01*
X-3067050Y-1879600D02*
X-3003550Y-1879600D01*
X-3067050Y-1879600D02*
X-3067050Y-1752600D01*
X-3003550Y-2006600D02*
X-3257550Y-2006600D01*
X-3003550Y-1879600D02*
X-3003550Y-1752600D01*
X-2940050Y-1752600D01*
X-2940050Y-2514600D02*
X-3003550Y-2514600D01*
X-2940050Y-2514600D02*
X-2940050Y-1752600D01*
X-3254375Y-3149600D02*
X-3254375Y-3403600D01*
X-3254375Y-3149600D02*
X-3000375Y-3149600D01*
X-3063875Y-3403600D02*
X-3254375Y-3403600D01*
X-3063875Y-3403600D02*
X-3063875Y-3276600D01*
X-3000375Y-3276600D02*
X-3000375Y-3403600D01*
X-3000375Y-3276600D02*
X-3063875Y-3276600D01*
X-3000375Y-3149600D02*
X-3000375Y-2895600D01*
X-3254375Y-2895600D02*
X-3254375Y-2641600D01*
X-3063875Y-2641600D01*
X-3063875Y-2768600D02*
X-3000375Y-2768600D01*
X-3063875Y-2768600D02*
X-3063875Y-2641600D01*
X-3000375Y-2895600D02*
X-3254375Y-2895600D01*
X-3000375Y-2768600D02*
X-3000375Y-2641600D01*
X-2936875Y-2641600D01*
X-2936875Y-3403600D02*
X-3000375Y-3403600D01*
X-2936875Y-3403600D02*
X-2936875Y-2641600D01*
X-3251200Y-4038600D02*
X-3251200Y-4292600D01*
X-3251200Y-4038600D02*
X-2997200Y-4038600D01*
X-3060700Y-4292600D02*
X-3251200Y-4292600D01*
X-3060700Y-4292600D02*
X-3060700Y-4165600D01*
X-2997200Y-4165600D02*
X-2997200Y-4292600D01*
X-2997200Y-4165600D02*
X-3060700Y-4165600D01*
X-2997200Y-4038600D02*
X-2997200Y-3784600D01*
X-3251200Y-3784600D02*
X-3251200Y-3530600D01*
X-3060700Y-3530600D01*
X-3060700Y-3657600D02*
X-2997200Y-3657600D01*
X-3060700Y-3657600D02*
X-3060700Y-3530600D01*
X-2997200Y-3784600D02*
X-3251200Y-3784600D01*
X-2997200Y-3657600D02*
X-2997200Y-3530600D01*
X-2933700Y-3530600D01*
X-2933700Y-4292600D02*
X-2997200Y-4292600D01*
X-2933700Y-4292600D02*
X-2933700Y-3530600D01*
X-2908300Y-3530600D02*
X-2908300Y-4292600D01*
X-2908300Y-3530600D02*
X-2844800Y-3530600D01*
X-2844800Y-4292600D02*
X-2908300Y-4292600D01*
X-2844800Y-4292600D02*
X-2844800Y-4165600D01*
X-2844800Y-3657600D02*
X-2781300Y-3657600D01*
X-2844800Y-3657600D02*
X-2844800Y-3530600D01*
X-2781300Y-4165600D02*
X-2781300Y-4292600D01*
X-2781300Y-4165600D02*
X-2844800Y-4165600D01*
X-2781300Y-3657600D02*
X-2781300Y-3530600D01*
X-2590800Y-3530600D01*
X-2590800Y-4292600D02*
X-2781300Y-4292600D01*
X-2844800Y-4038600D02*
X-2590800Y-4038600D01*
X-2844800Y-4038600D02*
X-2844800Y-3784600D01*
X-2590800Y-4038600D02*
X-2590800Y-4292600D01*
X-2590800Y-3784600D02*
X-2844800Y-3784600D01*
X-2590800Y-3784600D02*
X-2590800Y-3530600D01*
X-2905125Y-3403600D02*
X-2905125Y-2641600D01*
X-2841625Y-2641600D01*
X-2841625Y-3403600D02*
X-2905125Y-3403600D01*
X-2841625Y-3403600D02*
X-2841625Y-3276600D01*
X-2841625Y-2768600D02*
X-2778125Y-2768600D01*
X-2841625Y-2768600D02*
X-2841625Y-2641600D01*
X-2778125Y-3276600D02*
X-2778125Y-3403600D01*
X-2778125Y-3276600D02*
X-2841625Y-3276600D01*
X-2778125Y-2768600D02*
X-2778125Y-2641600D01*
X-2587625Y-2641600D01*
X-2587625Y-3403600D02*
X-2778125Y-3403600D01*
X-2841625Y-3149600D02*
X-2587625Y-3149600D01*
X-2841625Y-3149600D02*
X-2841625Y-2895600D01*
X-2587625Y-3149600D02*
X-2587625Y-3403600D01*
X-2587625Y-2895600D02*
X-2841625Y-2895600D01*
X-2587625Y-2895600D02*
X-2587625Y-2641600D01*
X-2901950Y-2514600D02*
X-2901950Y-1752600D01*
X-2838450Y-1752600D01*
X-2838450Y-2514600D02*
X-2901950Y-2514600D01*
X-2838450Y-2514600D02*
X-2838450Y-2387600D01*
X-2838450Y-1879600D02*
X-2774950Y-1879600D01*
X-2838450Y-1879600D02*
X-2838450Y-1752600D01*
X-2774950Y-2387600D02*
X-2774950Y-2514600D01*
X-2774950Y-2387600D02*
X-2838450Y-2387600D01*
X-2774950Y-1879600D02*
X-2774950Y-1752600D01*
X-2584450Y-1752600D01*
X-2584450Y-2514600D02*
X-2774950Y-2514600D01*
X-2838450Y-2260600D02*
X-2584450Y-2260600D01*
X-2838450Y-2260600D02*
X-2838450Y-2006600D01*
X-2584450Y-2260600D02*
X-2584450Y-2514600D01*
X-2584450Y-2006600D02*
X-2838450Y-2006600D01*
X-2584450Y-2006600D02*
X-2584450Y-1752600D01*
X-2898775Y-1625600D02*
X-2898775Y-863600D01*
X-2835275Y-863600D01*
X-2835275Y-1625600D02*
X-2898775Y-1625600D01*
X-2835275Y-1625600D02*
X-2835275Y-1498600D01*
X-2835275Y-990600D02*
X-2771775Y-990600D01*
X-2835275Y-990600D02*
X-2835275Y-863600D01*
X-2771775Y-1498600D02*
X-2771775Y-1625600D01*
X-2771775Y-1498600D02*
X-2835275Y-1498600D01*
X-2771775Y-990600D02*
X-2771775Y-863600D01*
X-2581275Y-863600D01*
X-2581275Y-1625600D02*
X-2771775Y-1625600D01*
X-2835275Y-1371600D02*
X-2581275Y-1371600D01*
X-2835275Y-1371600D02*
X-2835275Y-1117600D01*
X-2581275Y-1371600D02*
X-2581275Y-1625600D01*
X-2581275Y-1117600D02*
X-2835275Y-1117600D01*
X-2581275Y-1117600D02*
X-2581275Y-863600D01*
X-2895600Y-736600D02*
X-2895600Y25400D01*
X-2832100Y25400D01*
X-2832100Y-736600D02*
X-2895600Y-736600D01*
X-2832100Y-736600D02*
X-2832100Y-609600D01*
X-2832100Y-101600D02*
X-2768600Y-101600D01*
X-2832100Y-101600D02*
X-2832100Y25400D01*
X-2768600Y-609600D02*
X-2768600Y-736600D01*
X-2768600Y-609600D02*
X-2832100Y-609600D01*
X-2768600Y-101600D02*
X-2768600Y25400D01*
X-2578100Y25400D01*
X-2578100Y-736600D02*
X-2768600Y-736600D01*
X-2832100Y-482600D02*
X-2578100Y-482600D01*
X-2832100Y-482600D02*
X-2832100Y-228600D01*
X-2578100Y-482600D02*
X-2578100Y-736600D01*
X-2578100Y-228600D02*
X-2832100Y-228600D01*
X-2578100Y-228600D02*
X-2578100Y25400D01*
X-2892425Y152400D02*
X-2892425Y914400D01*
X-2828925Y914400D01*
X-2828925Y152400D02*
X-2892425Y152400D01*
X-2828925Y152400D02*
X-2828925Y279400D01*
X-2828925Y787400D02*
X-2765425Y787400D01*
X-2828925Y787400D02*
X-2828925Y914400D01*
X-2765425Y279400D02*
X-2765425Y152400D01*
X-2765425Y279400D02*
X-2828925Y279400D01*
X-2765425Y787400D02*
X-2765425Y914400D01*
X-2574925Y914400D01*
X-2574925Y152400D02*
X-2765425Y152400D01*
X-2828925Y406400D02*
X-2574925Y406400D01*
X-2828925Y406400D02*
X-2828925Y660400D01*
X-2574925Y406400D02*
X-2574925Y152400D01*
X-2574925Y660400D02*
X-2828925Y660400D01*
X-2574925Y660400D02*
X-2574925Y914400D01*
X-2889250Y1041400D02*
X-2889250Y1803400D01*
X-2825750Y1803400D01*
X-2825750Y1041400D02*
X-2889250Y1041400D01*
X-2825750Y1041400D02*
X-2825750Y1168400D01*
X-2825750Y1676400D02*
X-2762250Y1676400D01*
X-2825750Y1676400D02*
X-2825750Y1803400D01*
X-2762250Y1168400D02*
X-2762250Y1041400D01*
X-2762250Y1168400D02*
X-2825750Y1168400D01*
X-2762250Y1676400D02*
X-2762250Y1803400D01*
X-2571750Y1803400D01*
X-2571750Y1041400D02*
X-2762250Y1041400D01*
X-2825750Y1295400D02*
X-2571750Y1295400D01*
X-2825750Y1295400D02*
X-2825750Y1549400D01*
X-2571750Y1295400D02*
X-2571750Y1041400D01*
X-2571750Y1549400D02*
X-2825750Y1549400D01*
X-2571750Y1549400D02*
X-2571750Y1803400D01*
X-2886075Y1930400D02*
X-2886075Y2692400D01*
X-2822575Y2692400D01*
X-2822575Y1930400D02*
X-2886075Y1930400D01*
X-2822575Y1930400D02*
X-2822575Y2057400D01*
X-2822575Y2565400D02*
X-2759075Y2565400D01*
X-2822575Y2565400D02*
X-2822575Y2692400D01*
X-2759075Y2057400D02*
X-2759075Y1930400D01*
X-2759075Y2057400D02*
X-2822575Y2057400D01*
X-2759075Y2565400D02*
X-2759075Y2692400D01*
X-2568575Y2692400D01*
X-2568575Y1930400D02*
X-2759075Y1930400D01*
X-2822575Y2184400D02*
X-2568575Y2184400D01*
X-2822575Y2184400D02*
X-2822575Y2438400D01*
X-2568575Y2184400D02*
X-2568575Y1930400D01*
X-2568575Y2438400D02*
X-2822575Y2438400D01*
X-2568575Y2438400D02*
X-2568575Y2692400D01*
X-2882900Y2819400D02*
X-2882900Y3581400D01*
X-2819400Y3581400D01*
X-2819400Y2819400D02*
X-2882900Y2819400D01*
X-2819400Y2819400D02*
X-2819400Y2946400D01*
X-2819400Y3454400D02*
X-2755900Y3454400D01*
X-2819400Y3454400D02*
X-2819400Y3581400D01*
X-2755900Y2946400D02*
X-2755900Y2819400D01*
X-2755900Y2946400D02*
X-2819400Y2946400D01*
X-2755900Y3454400D02*
X-2755900Y3581400D01*
X-2565400Y3581400D01*
X-2565400Y2819400D02*
X-2755900Y2819400D01*
X-2819400Y3073400D02*
X-2565400Y3073400D01*
X-2819400Y3073400D02*
X-2819400Y3327400D01*
X-2565400Y3073400D02*
X-2565400Y2819400D01*
X-2565400Y3327400D02*
X-2819400Y3327400D01*
X-2565400Y3327400D02*
X-2565400Y3581400D01*
X-2879725Y3708400D02*
X-2879725Y4470400D01*
X-2816225Y4470400D01*
X-2816225Y3708400D02*
X-2879725Y3708400D01*
X-2816225Y3708400D02*
X-2816225Y3835400D01*
X-2816225Y4343400D02*
X-2752725Y4343400D01*
X-2816225Y4343400D02*
X-2816225Y4470400D01*
X-2752725Y3835400D02*
X-2752725Y3708400D01*
X-2752725Y3835400D02*
X-2816225Y3835400D01*
X-2752725Y4343400D02*
X-2752725Y4470400D01*
X-2562225Y4470400D01*
X-2562225Y3708400D02*
X-2752725Y3708400D01*
X-2816225Y3962400D02*
X-2562225Y3962400D01*
X-2816225Y3962400D02*
X-2816225Y4216400D01*
X-2562225Y3962400D02*
X-2562225Y3708400D01*
X-2562225Y4216400D02*
X-2816225Y4216400D01*
X-2562225Y4216400D02*
X-2562225Y4470400D01*
X-2866319Y4659489D02*
X-2866319Y4715933D01*
X-2640542Y4715933D01*
X-2640542Y4659489D02*
X-2866319Y4659489D01*
X-2640542Y4659489D02*
X-2640542Y4715933D01*
X-2640542Y4828822D01*
X-2866319Y4828822D02*
X-2866319Y5054600D01*
X-2584097Y5054600D01*
X-2640542Y4828822D02*
X-2866319Y4828822D01*
X-2640542Y4828822D02*
X-2584097Y4828822D01*
X-2640542Y4885267D02*
X-2809875Y4885267D01*
X-2809875Y4998156D01*
X-2640542Y4885267D02*
X-2640542Y4828822D01*
X-2640542Y4715933D02*
X-2584097Y4715933D01*
X-2584097Y4828822D01*
X-2584097Y4998156D02*
X-2809875Y4998156D01*
X-2584097Y4998156D02*
X-2584097Y5054600D01*
X-2378075Y4715933D02*
X-2378075Y4659489D01*
X-2378075Y4715933D02*
X-2152297Y4715933D01*
X-2152297Y4659489D02*
X-2378075Y4659489D01*
X-2152297Y4659489D02*
X-2152297Y4715933D01*
X-2152297Y4828822D01*
X-2321631Y4828822D02*
X-2321631Y4885267D01*
X-2152297Y4885267D01*
X-2152297Y4828822D02*
X-2321631Y4828822D01*
X-2152297Y4828822D02*
X-2095853Y4828822D01*
X-2152297Y4828822D02*
X-2152297Y4885267D01*
X-2152297Y4998156D01*
X-2378075Y4998156D02*
X-2378075Y5054600D01*
X-2152297Y5054600D01*
X-2152297Y4998156D02*
X-2378075Y4998156D01*
X-2152297Y4998156D02*
X-2095853Y4998156D01*
X-2152297Y4998156D02*
X-2152297Y5054600D01*
X-2152297Y4715933D02*
X-2095853Y4715933D01*
X-2095853Y4828822D01*
X-2095853Y4885267D02*
X-2152297Y4885267D01*
X-2095853Y4885267D02*
X-2095853Y4998156D01*
X-2352675Y3962400D02*
X-2352675Y3708400D01*
X-2352675Y3962400D02*
X-2098675Y3962400D01*
X-2162175Y3708400D02*
X-2352675Y3708400D01*
X-2162175Y3708400D02*
X-2162175Y3835400D01*
X-2098675Y3835400D02*
X-2098675Y3708400D01*
X-2098675Y3835400D02*
X-2162175Y3835400D01*
X-2098675Y3962400D02*
X-2098675Y4216400D01*
X-2352675Y4216400D02*
X-2352675Y4470400D01*
X-2162175Y4470400D01*
X-2162175Y4343400D02*
X-2098675Y4343400D01*
X-2162175Y4343400D02*
X-2162175Y4470400D01*
X-2098675Y4216400D02*
X-2352675Y4216400D01*
X-2098675Y4343400D02*
X-2098675Y4470400D01*
X-2022475Y4470400D01*
X-2022475Y3708400D02*
X-2098675Y3708400D01*
X-2022475Y3708400D02*
X-2022475Y4470400D01*
X-2349500Y3073400D02*
X-2349500Y2819400D01*
X-2349500Y3073400D02*
X-2095500Y3073400D01*
X-2159000Y2819400D02*
X-2349500Y2819400D01*
X-2159000Y2819400D02*
X-2159000Y2946400D01*
X-2095500Y2946400D02*
X-2095500Y2819400D01*
X-2095500Y2946400D02*
X-2159000Y2946400D01*
X-2095500Y3073400D02*
X-2095500Y3327400D01*
X-2349500Y3327400D02*
X-2349500Y3581400D01*
X-2159000Y3581400D01*
X-2159000Y3454400D02*
X-2095500Y3454400D01*
X-2159000Y3454400D02*
X-2159000Y3581400D01*
X-2095500Y3327400D02*
X-2349500Y3327400D01*
X-2095500Y3454400D02*
X-2095500Y3581400D01*
X-2019300Y3581400D01*
X-2019300Y2819400D02*
X-2095500Y2819400D01*
X-2019300Y2819400D02*
X-2019300Y3581400D01*
X-2346325Y2184400D02*
X-2346325Y1930400D01*
X-2346325Y2184400D02*
X-2092325Y2184400D01*
X-2155825Y1930400D02*
X-2346325Y1930400D01*
X-2155825Y1930400D02*
X-2155825Y2057400D01*
X-2092325Y2057400D02*
X-2092325Y1930400D01*
X-2092325Y2057400D02*
X-2155825Y2057400D01*
X-2092325Y2184400D02*
X-2092325Y2438400D01*
X-2346325Y2438400D02*
X-2346325Y2692400D01*
X-2155825Y2692400D01*
X-2155825Y2565400D02*
X-2092325Y2565400D01*
X-2155825Y2565400D02*
X-2155825Y2692400D01*
X-2092325Y2438400D02*
X-2346325Y2438400D01*
X-2092325Y2565400D02*
X-2092325Y2692400D01*
X-2016125Y2692400D01*
X-2016125Y1930400D02*
X-2092325Y1930400D01*
X-2016125Y1930400D02*
X-2016125Y2692400D01*
X-2343150Y1295400D02*
X-2343150Y1041400D01*
X-2343150Y1295400D02*
X-2089150Y1295400D01*
X-2152650Y1041400D02*
X-2343150Y1041400D01*
X-2152650Y1041400D02*
X-2152650Y1168400D01*
X-2089150Y1168400D02*
X-2089150Y1041400D01*
X-2089150Y1168400D02*
X-2152650Y1168400D01*
X-2089150Y1295400D02*
X-2089150Y1549400D01*
X-2343150Y1549400D02*
X-2343150Y1803400D01*
X-2152650Y1803400D01*
X-2152650Y1676400D02*
X-2089150Y1676400D01*
X-2152650Y1676400D02*
X-2152650Y1803400D01*
X-2089150Y1549400D02*
X-2343150Y1549400D01*
X-2089150Y1676400D02*
X-2089150Y1803400D01*
X-2012950Y1803400D01*
X-2012950Y1041400D02*
X-2089150Y1041400D01*
X-2012950Y1041400D02*
X-2012950Y1803400D01*
X-2339975Y406400D02*
X-2339975Y152400D01*
X-2339975Y406400D02*
X-2085975Y406400D01*
X-2149475Y152400D02*
X-2339975Y152400D01*
X-2149475Y152400D02*
X-2149475Y279400D01*
X-2085975Y279400D02*
X-2085975Y152400D01*
X-2085975Y279400D02*
X-2149475Y279400D01*
X-2085975Y406400D02*
X-2085975Y660400D01*
X-2339975Y660400D02*
X-2339975Y914400D01*
X-2149475Y914400D01*
X-2149475Y787400D02*
X-2085975Y787400D01*
X-2149475Y787400D02*
X-2149475Y914400D01*
X-2085975Y660400D02*
X-2339975Y660400D01*
X-2085975Y787400D02*
X-2085975Y914400D01*
X-2009775Y914400D01*
X-2009775Y152400D02*
X-2085975Y152400D01*
X-2009775Y152400D02*
X-2009775Y914400D01*
X-2336800Y-482600D02*
X-2336800Y-736600D01*
X-2336800Y-482600D02*
X-2082800Y-482600D01*
X-2146300Y-736600D02*
X-2336800Y-736600D01*
X-2146300Y-736600D02*
X-2146300Y-609600D01*
X-2082800Y-609600D02*
X-2082800Y-736600D01*
X-2082800Y-609600D02*
X-2146300Y-609600D01*
X-2082800Y-482600D02*
X-2082800Y-228600D01*
X-2336800Y-228600D02*
X-2336800Y25400D01*
X-2146300Y25400D01*
X-2146300Y-101600D02*
X-2082800Y-101600D01*
X-2146300Y-101600D02*
X-2146300Y25400D01*
X-2082800Y-228600D02*
X-2336800Y-228600D01*
X-2082800Y-101600D02*
X-2082800Y25400D01*
X-2006600Y25400D01*
X-2006600Y-736600D02*
X-2082800Y-736600D01*
X-2006600Y-736600D02*
X-2006600Y25400D01*
X-2333625Y-1371600D02*
X-2333625Y-1625600D01*
X-2333625Y-1371600D02*
X-2079625Y-1371600D01*
X-2143125Y-1625600D02*
X-2333625Y-1625600D01*
X-2143125Y-1625600D02*
X-2143125Y-1498600D01*
X-2079625Y-1498600D02*
X-2079625Y-1625600D01*
X-2079625Y-1498600D02*
X-2143125Y-1498600D01*
X-2079625Y-1371600D02*
X-2079625Y-1117600D01*
X-2333625Y-1117600D02*
X-2333625Y-863600D01*
X-2143125Y-863600D01*
X-2143125Y-990600D02*
X-2079625Y-990600D01*
X-2143125Y-990600D02*
X-2143125Y-863600D01*
X-2079625Y-1117600D02*
X-2333625Y-1117600D01*
X-2079625Y-990600D02*
X-2079625Y-863600D01*
X-2003425Y-863600D01*
X-2003425Y-1625600D02*
X-2079625Y-1625600D01*
X-2003425Y-1625600D02*
X-2003425Y-863600D01*
X-2330450Y-2260600D02*
X-2330450Y-2514600D01*
X-2330450Y-2260600D02*
X-2076450Y-2260600D01*
X-2139950Y-2514600D02*
X-2330450Y-2514600D01*
X-2139950Y-2514600D02*
X-2139950Y-2387600D01*
X-2076450Y-2387600D02*
X-2076450Y-2514600D01*
X-2076450Y-2387600D02*
X-2139950Y-2387600D01*
X-2076450Y-2260600D02*
X-2076450Y-2006600D01*
X-2330450Y-2006600D02*
X-2330450Y-1752600D01*
X-2139950Y-1752600D01*
X-2139950Y-1879600D02*
X-2076450Y-1879600D01*
X-2139950Y-1879600D02*
X-2139950Y-1752600D01*
X-2076450Y-2006600D02*
X-2330450Y-2006600D01*
X-2076450Y-1879600D02*
X-2076450Y-1752600D01*
X-2000250Y-1752600D01*
X-2000250Y-2514600D02*
X-2076450Y-2514600D01*
X-2000250Y-2514600D02*
X-2000250Y-1752600D01*
X-2327275Y-3149600D02*
X-2327275Y-3403600D01*
X-2327275Y-3149600D02*
X-2073275Y-3149600D01*
X-2136775Y-3403600D02*
X-2327275Y-3403600D01*
X-2136775Y-3403600D02*
X-2136775Y-3276600D01*
X-2073275Y-3276600D02*
X-2073275Y-3403600D01*
X-2073275Y-3276600D02*
X-2136775Y-3276600D01*
X-2073275Y-3149600D02*
X-2073275Y-2895600D01*
X-2327275Y-2895600D02*
X-2327275Y-2641600D01*
X-2136775Y-2641600D01*
X-2136775Y-2768600D02*
X-2073275Y-2768600D01*
X-2136775Y-2768600D02*
X-2136775Y-2641600D01*
X-2073275Y-2895600D02*
X-2327275Y-2895600D01*
X-2073275Y-2768600D02*
X-2073275Y-2641600D01*
X-1997075Y-2641600D01*
X-1997075Y-3403600D02*
X-2073275Y-3403600D01*
X-1997075Y-3403600D02*
X-1997075Y-2641600D01*
X-2324100Y-4038600D02*
X-2324100Y-4292600D01*
X-2324100Y-4038600D02*
X-2070100Y-4038600D01*
X-2133600Y-4292600D02*
X-2324100Y-4292600D01*
X-2133600Y-4292600D02*
X-2133600Y-4165600D01*
X-2070100Y-4165600D02*
X-2070100Y-4292600D01*
X-2070100Y-4165600D02*
X-2133600Y-4165600D01*
X-2070100Y-4038600D02*
X-2070100Y-3784600D01*
X-2324100Y-3784600D02*
X-2324100Y-3530600D01*
X-2133600Y-3530600D01*
X-2133600Y-3657600D02*
X-2070100Y-3657600D01*
X-2133600Y-3657600D02*
X-2133600Y-3530600D01*
X-2070100Y-3784600D02*
X-2324100Y-3784600D01*
X-2070100Y-3657600D02*
X-2070100Y-3530600D01*
X-1993900Y-3530600D01*
X-1993900Y-4292600D02*
X-2070100Y-4292600D01*
X-1993900Y-4292600D02*
X-1993900Y-3530600D01*
X-1968500Y-3530600D02*
X-1968500Y-4292600D01*
X-1968500Y-3530600D02*
X-1892300Y-3530600D01*
X-1892300Y-4292600D02*
X-1968500Y-4292600D01*
X-1892300Y-4292600D02*
X-1892300Y-4165600D01*
X-1892300Y-3657600D02*
X-1828800Y-3657600D01*
X-1892300Y-3657600D02*
X-1892300Y-3530600D01*
X-1828800Y-4165600D02*
X-1828800Y-4292600D01*
X-1828800Y-4165600D02*
X-1892300Y-4165600D01*
X-1828800Y-3657600D02*
X-1828800Y-3530600D01*
X-1638300Y-3530600D01*
X-1638300Y-4292600D02*
X-1828800Y-4292600D01*
X-1892300Y-4038600D02*
X-1638300Y-4038600D01*
X-1892300Y-4038600D02*
X-1892300Y-3784600D01*
X-1638300Y-4038600D02*
X-1638300Y-4292600D01*
X-1638300Y-3784600D02*
X-1892300Y-3784600D01*
X-1638300Y-3784600D02*
X-1638300Y-3530600D01*
X-1965325Y-3403600D02*
X-1965325Y-2641600D01*
X-1889125Y-2641600D01*
X-1889125Y-3403600D02*
X-1965325Y-3403600D01*
X-1889125Y-3403600D02*
X-1889125Y-3276600D01*
X-1889125Y-2768600D02*
X-1825625Y-2768600D01*
X-1889125Y-2768600D02*
X-1889125Y-2641600D01*
X-1825625Y-3276600D02*
X-1825625Y-3403600D01*
X-1825625Y-3276600D02*
X-1889125Y-3276600D01*
X-1825625Y-2768600D02*
X-1825625Y-2641600D01*
X-1635125Y-2641600D01*
X-1635125Y-3403600D02*
X-1825625Y-3403600D01*
X-1889125Y-3149600D02*
X-1635125Y-3149600D01*
X-1889125Y-3149600D02*
X-1889125Y-2895600D01*
X-1635125Y-3149600D02*
X-1635125Y-3403600D01*
X-1635125Y-2895600D02*
X-1889125Y-2895600D01*
X-1635125Y-2895600D02*
X-1635125Y-2641600D01*
X-1962150Y-2514600D02*
X-1962150Y-1752600D01*
X-1885950Y-1752600D01*
X-1885950Y-2514600D02*
X-1962150Y-2514600D01*
X-1885950Y-2514600D02*
X-1885950Y-2387600D01*
X-1885950Y-1879600D02*
X-1822450Y-1879600D01*
X-1885950Y-1879600D02*
X-1885950Y-1752600D01*
X-1822450Y-2387600D02*
X-1822450Y-2514600D01*
X-1822450Y-2387600D02*
X-1885950Y-2387600D01*
X-1822450Y-1879600D02*
X-1822450Y-1752600D01*
X-1631950Y-1752600D01*
X-1631950Y-2514600D02*
X-1822450Y-2514600D01*
X-1885950Y-2260600D02*
X-1631950Y-2260600D01*
X-1885950Y-2260600D02*
X-1885950Y-2006600D01*
X-1631950Y-2260600D02*
X-1631950Y-2514600D01*
X-1631950Y-2006600D02*
X-1885950Y-2006600D01*
X-1631950Y-2006600D02*
X-1631950Y-1752600D01*
X-1958975Y-1625600D02*
X-1958975Y-863600D01*
X-1882775Y-863600D01*
X-1882775Y-1625600D02*
X-1958975Y-1625600D01*
X-1882775Y-1625600D02*
X-1882775Y-1498600D01*
X-1882775Y-990600D02*
X-1819275Y-990600D01*
X-1882775Y-990600D02*
X-1882775Y-863600D01*
X-1819275Y-1498600D02*
X-1819275Y-1625600D01*
X-1819275Y-1498600D02*
X-1882775Y-1498600D01*
X-1819275Y-990600D02*
X-1819275Y-863600D01*
X-1628775Y-863600D01*
X-1628775Y-1625600D02*
X-1819275Y-1625600D01*
X-1882775Y-1371600D02*
X-1628775Y-1371600D01*
X-1882775Y-1371600D02*
X-1882775Y-1117600D01*
X-1628775Y-1371600D02*
X-1628775Y-1625600D01*
X-1628775Y-1117600D02*
X-1882775Y-1117600D01*
X-1628775Y-1117600D02*
X-1628775Y-863600D01*
X-1955800Y-736600D02*
X-1955800Y25400D01*
X-1879600Y25400D01*
X-1879600Y-736600D02*
X-1955800Y-736600D01*
X-1879600Y-736600D02*
X-1879600Y-609600D01*
X-1879600Y-101600D02*
X-1816100Y-101600D01*
X-1879600Y-101600D02*
X-1879600Y25400D01*
X-1816100Y-609600D02*
X-1816100Y-736600D01*
X-1816100Y-609600D02*
X-1879600Y-609600D01*
X-1816100Y-101600D02*
X-1816100Y25400D01*
X-1625600Y25400D01*
X-1625600Y-736600D02*
X-1816100Y-736600D01*
X-1879600Y-482600D02*
X-1625600Y-482600D01*
X-1879600Y-482600D02*
X-1879600Y-228600D01*
X-1625600Y-482600D02*
X-1625600Y-736600D01*
X-1625600Y-228600D02*
X-1879600Y-228600D01*
X-1625600Y-228600D02*
X-1625600Y25400D01*
X-1952625Y152400D02*
X-1952625Y914400D01*
X-1876425Y914400D01*
X-1876425Y152400D02*
X-1952625Y152400D01*
X-1876425Y152400D02*
X-1876425Y279400D01*
X-1876425Y787400D02*
X-1812925Y787400D01*
X-1876425Y787400D02*
X-1876425Y914400D01*
X-1812925Y279400D02*
X-1812925Y152400D01*
X-1812925Y279400D02*
X-1876425Y279400D01*
X-1812925Y787400D02*
X-1812925Y914400D01*
X-1622425Y914400D01*
X-1622425Y152400D02*
X-1812925Y152400D01*
X-1876425Y406400D02*
X-1622425Y406400D01*
X-1876425Y406400D02*
X-1876425Y660400D01*
X-1622425Y406400D02*
X-1622425Y152400D01*
X-1622425Y660400D02*
X-1876425Y660400D01*
X-1622425Y660400D02*
X-1622425Y914400D01*
X-1949450Y1041400D02*
X-1949450Y1803400D01*
X-1873250Y1803400D01*
X-1873250Y1041400D02*
X-1949450Y1041400D01*
X-1873250Y1041400D02*
X-1873250Y1168400D01*
X-1873250Y1676400D02*
X-1809750Y1676400D01*
X-1873250Y1676400D02*
X-1873250Y1803400D01*
X-1809750Y1168400D02*
X-1809750Y1041400D01*
X-1809750Y1168400D02*
X-1873250Y1168400D01*
X-1809750Y1676400D02*
X-1809750Y1803400D01*
X-1619250Y1803400D01*
X-1619250Y1041400D02*
X-1809750Y1041400D01*
X-1873250Y1295400D02*
X-1619250Y1295400D01*
X-1873250Y1295400D02*
X-1873250Y1549400D01*
X-1619250Y1295400D02*
X-1619250Y1041400D01*
X-1619250Y1549400D02*
X-1873250Y1549400D01*
X-1619250Y1549400D02*
X-1619250Y1803400D01*
X-1946275Y1930400D02*
X-1946275Y2692400D01*
X-1870075Y2692400D01*
X-1870075Y1930400D02*
X-1946275Y1930400D01*
X-1870075Y1930400D02*
X-1870075Y2057400D01*
X-1870075Y2565400D02*
X-1806575Y2565400D01*
X-1870075Y2565400D02*
X-1870075Y2692400D01*
X-1806575Y2057400D02*
X-1806575Y1930400D01*
X-1806575Y2057400D02*
X-1870075Y2057400D01*
X-1806575Y2565400D02*
X-1806575Y2692400D01*
X-1616075Y2692400D01*
X-1616075Y1930400D02*
X-1806575Y1930400D01*
X-1870075Y2184400D02*
X-1616075Y2184400D01*
X-1870075Y2184400D02*
X-1870075Y2438400D01*
X-1616075Y2184400D02*
X-1616075Y1930400D01*
X-1616075Y2438400D02*
X-1870075Y2438400D01*
X-1616075Y2438400D02*
X-1616075Y2692400D01*
X-1943100Y2819400D02*
X-1943100Y3581400D01*
X-1866900Y3581400D01*
X-1866900Y2819400D02*
X-1943100Y2819400D01*
X-1866900Y2819400D02*
X-1866900Y2946400D01*
X-1866900Y3454400D02*
X-1803400Y3454400D01*
X-1866900Y3454400D02*
X-1866900Y3581400D01*
X-1803400Y2946400D02*
X-1803400Y2819400D01*
X-1803400Y2946400D02*
X-1866900Y2946400D01*
X-1803400Y3454400D02*
X-1803400Y3581400D01*
X-1612900Y3581400D01*
X-1612900Y2819400D02*
X-1803400Y2819400D01*
X-1866900Y3073400D02*
X-1612900Y3073400D01*
X-1866900Y3073400D02*
X-1866900Y3327400D01*
X-1612900Y3073400D02*
X-1612900Y2819400D01*
X-1612900Y3327400D02*
X-1866900Y3327400D01*
X-1612900Y3327400D02*
X-1612900Y3581400D01*
X-1939925Y3708400D02*
X-1939925Y4470400D01*
X-1863725Y4470400D01*
X-1863725Y3708400D02*
X-1939925Y3708400D01*
X-1863725Y3708400D02*
X-1863725Y3835400D01*
X-1863725Y4343400D02*
X-1800225Y4343400D01*
X-1863725Y4343400D02*
X-1863725Y4470400D01*
X-1800225Y3835400D02*
X-1800225Y3708400D01*
X-1800225Y3835400D02*
X-1863725Y3835400D01*
X-1800225Y4343400D02*
X-1800225Y4470400D01*
X-1609725Y4470400D01*
X-1609725Y3708400D02*
X-1800225Y3708400D01*
X-1863725Y3962400D02*
X-1609725Y3962400D01*
X-1863725Y3962400D02*
X-1863725Y4216400D01*
X-1609725Y3962400D02*
X-1609725Y3708400D01*
X-1609725Y4216400D02*
X-1863725Y4216400D01*
X-1609725Y4216400D02*
X-1609725Y4470400D01*
X-1926519Y4715933D02*
X-1926519Y4998156D01*
X-1870075Y4998156D01*
X-1870075Y4715933D02*
X-1870075Y4659489D01*
X-1870075Y4715933D02*
X-1926519Y4715933D01*
X-1870075Y4715933D02*
X-1700742Y4715933D01*
X-1870075Y4715933D02*
X-1870075Y4772378D01*
X-1870075Y4828822D02*
X-1813631Y4828822D01*
X-1870075Y4828822D02*
X-1870075Y4998156D01*
X-1870075Y5054600D01*
X-1700742Y5054600D01*
X-1813631Y4772378D02*
X-1870075Y4772378D01*
X-1813631Y4772378D02*
X-1813631Y4828822D01*
X-1813631Y4885267D01*
X-1757186Y4885267D01*
X-1757186Y4828822D02*
X-1813631Y4828822D01*
X-1757186Y4828822D02*
X-1757186Y4885267D01*
X-1757186Y4941711D01*
X-1700742Y4941711D01*
X-1700742Y4659489D02*
X-1870075Y4659489D01*
X-1700742Y4659489D02*
X-1700742Y4715933D01*
X-1700742Y4885267D01*
X-1757186Y4885267D01*
X-1700742Y4941711D02*
X-1700742Y4998156D01*
X-1870075Y4998156D01*
X-1700742Y4998156D02*
X-1644297Y4998156D01*
X-1700742Y4998156D02*
X-1700742Y5054600D01*
X-1700742Y4715933D02*
X-1644297Y4715933D01*
X-1644297Y4998156D01*
X-1438275Y4715933D02*
X-1438275Y4659489D01*
X-1438275Y4715933D02*
X-1212497Y4715933D01*
X-1212497Y4659489D02*
X-1438275Y4659489D01*
X-1212497Y4659489D02*
X-1212497Y4715933D01*
X-1212497Y4828822D01*
X-1381831Y4828822D02*
X-1381831Y4885267D01*
X-1212497Y4885267D01*
X-1212497Y4828822D02*
X-1381831Y4828822D01*
X-1212497Y4828822D02*
X-1156053Y4828822D01*
X-1212497Y4828822D02*
X-1212497Y4885267D01*
X-1212497Y4998156D01*
X-1438275Y4998156D02*
X-1438275Y5054600D01*
X-1212497Y5054600D01*
X-1212497Y4998156D02*
X-1438275Y4998156D01*
X-1212497Y4998156D02*
X-1156053Y4998156D01*
X-1212497Y4998156D02*
X-1212497Y5054600D01*
X-1212497Y4715933D02*
X-1156053Y4715933D01*
X-1156053Y4828822D01*
X-1156053Y4885267D02*
X-1212497Y4885267D01*
X-1156053Y4885267D02*
X-1156053Y4998156D01*
X-1425575Y3962400D02*
X-1425575Y3708400D01*
X-1425575Y3962400D02*
X-1171575Y3962400D01*
X-1235075Y3708400D02*
X-1425575Y3708400D01*
X-1235075Y3708400D02*
X-1235075Y3835400D01*
X-1171575Y3835400D02*
X-1171575Y3708400D01*
X-1171575Y3835400D02*
X-1235075Y3835400D01*
X-1171575Y3962400D02*
X-1171575Y4216400D01*
X-1425575Y4216400D02*
X-1425575Y4470400D01*
X-1235075Y4470400D01*
X-1235075Y4343400D02*
X-1171575Y4343400D01*
X-1235075Y4343400D02*
X-1235075Y4470400D01*
X-1171575Y4216400D02*
X-1425575Y4216400D01*
X-1171575Y4343400D02*
X-1171575Y4470400D01*
X-1082675Y4470400D01*
X-1082675Y3708400D02*
X-1171575Y3708400D01*
X-1082675Y3708400D02*
X-1082675Y4470400D01*
X-1422400Y3073400D02*
X-1422400Y2819400D01*
X-1422400Y3073400D02*
X-1168400Y3073400D01*
X-1231900Y2819400D02*
X-1422400Y2819400D01*
X-1231900Y2819400D02*
X-1231900Y2946400D01*
X-1168400Y2946400D02*
X-1168400Y2819400D01*
X-1168400Y2946400D02*
X-1231900Y2946400D01*
X-1168400Y3073400D02*
X-1168400Y3327400D01*
X-1422400Y3327400D02*
X-1422400Y3581400D01*
X-1231900Y3581400D01*
X-1231900Y3454400D02*
X-1168400Y3454400D01*
X-1231900Y3454400D02*
X-1231900Y3581400D01*
X-1168400Y3327400D02*
X-1422400Y3327400D01*
X-1168400Y3454400D02*
X-1168400Y3581400D01*
X-1079500Y3581400D01*
X-1079500Y2819400D02*
X-1168400Y2819400D01*
X-1079500Y2819400D02*
X-1079500Y3581400D01*
X-1419225Y2184400D02*
X-1419225Y1930400D01*
X-1419225Y2184400D02*
X-1165225Y2184400D01*
X-1228725Y1930400D02*
X-1419225Y1930400D01*
X-1228725Y1930400D02*
X-1228725Y2057400D01*
X-1165225Y2057400D02*
X-1165225Y1930400D01*
X-1165225Y2057400D02*
X-1228725Y2057400D01*
X-1165225Y2184400D02*
X-1165225Y2438400D01*
X-1419225Y2438400D02*
X-1419225Y2692400D01*
X-1228725Y2692400D01*
X-1228725Y2565400D02*
X-1165225Y2565400D01*
X-1228725Y2565400D02*
X-1228725Y2692400D01*
X-1165225Y2438400D02*
X-1419225Y2438400D01*
X-1165225Y2565400D02*
X-1165225Y2692400D01*
X-1076325Y2692400D01*
X-1076325Y1930400D02*
X-1165225Y1930400D01*
X-1076325Y1930400D02*
X-1076325Y2692400D01*
X-1416050Y1295400D02*
X-1416050Y1041400D01*
X-1416050Y1295400D02*
X-1162050Y1295400D01*
X-1225550Y1041400D02*
X-1416050Y1041400D01*
X-1225550Y1041400D02*
X-1225550Y1168400D01*
X-1162050Y1168400D02*
X-1162050Y1041400D01*
X-1162050Y1168400D02*
X-1225550Y1168400D01*
X-1162050Y1295400D02*
X-1162050Y1549400D01*
X-1416050Y1549400D02*
X-1416050Y1803400D01*
X-1225550Y1803400D01*
X-1225550Y1676400D02*
X-1162050Y1676400D01*
X-1225550Y1676400D02*
X-1225550Y1803400D01*
X-1162050Y1549400D02*
X-1416050Y1549400D01*
X-1162050Y1676400D02*
X-1162050Y1803400D01*
X-1073150Y1803400D01*
X-1073150Y1041400D02*
X-1162050Y1041400D01*
X-1073150Y1041400D02*
X-1073150Y1803400D01*
X-1412875Y406400D02*
X-1412875Y152400D01*
X-1412875Y406400D02*
X-1158875Y406400D01*
X-1222375Y152400D02*
X-1412875Y152400D01*
X-1222375Y152400D02*
X-1222375Y279400D01*
X-1158875Y279400D02*
X-1158875Y152400D01*
X-1158875Y279400D02*
X-1222375Y279400D01*
X-1158875Y406400D02*
X-1158875Y660400D01*
X-1412875Y660400D02*
X-1412875Y914400D01*
X-1222375Y914400D01*
X-1222375Y787400D02*
X-1158875Y787400D01*
X-1222375Y787400D02*
X-1222375Y914400D01*
X-1158875Y660400D02*
X-1412875Y660400D01*
X-1158875Y787400D02*
X-1158875Y914400D01*
X-1069975Y914400D01*
X-1069975Y152400D02*
X-1158875Y152400D01*
X-1069975Y152400D02*
X-1069975Y914400D01*
X-1409700Y-482600D02*
X-1409700Y-736600D01*
X-1409700Y-482600D02*
X-1155700Y-482600D01*
X-1219200Y-736600D02*
X-1409700Y-736600D01*
X-1219200Y-736600D02*
X-1219200Y-609600D01*
X-1155700Y-609600D02*
X-1155700Y-736600D01*
X-1155700Y-609600D02*
X-1219200Y-609600D01*
X-1155700Y-482600D02*
X-1155700Y-228600D01*
X-1409700Y-228600D02*
X-1409700Y25400D01*
X-1219200Y25400D01*
X-1219200Y-101600D02*
X-1155700Y-101600D01*
X-1219200Y-101600D02*
X-1219200Y25400D01*
X-1155700Y-228600D02*
X-1409700Y-228600D01*
X-1155700Y-101600D02*
X-1155700Y25400D01*
X-1066800Y25400D01*
X-1066800Y-736600D02*
X-1155700Y-736600D01*
X-1066800Y-736600D02*
X-1066800Y25400D01*
X-1406525Y-1371600D02*
X-1406525Y-1625600D01*
X-1406525Y-1371600D02*
X-1152525Y-1371600D01*
X-1216025Y-1625600D02*
X-1406525Y-1625600D01*
X-1216025Y-1625600D02*
X-1216025Y-1498600D01*
X-1152525Y-1498600D02*
X-1152525Y-1625600D01*
X-1152525Y-1498600D02*
X-1216025Y-1498600D01*
X-1152525Y-1371600D02*
X-1152525Y-1117600D01*
X-1406525Y-1117600D02*
X-1406525Y-863600D01*
X-1216025Y-863600D01*
X-1216025Y-990600D02*
X-1152525Y-990600D01*
X-1216025Y-990600D02*
X-1216025Y-863600D01*
X-1152525Y-1117600D02*
X-1406525Y-1117600D01*
X-1152525Y-990600D02*
X-1152525Y-863600D01*
X-1063625Y-863600D01*
X-1063625Y-1625600D02*
X-1152525Y-1625600D01*
X-1063625Y-1625600D02*
X-1063625Y-863600D01*
X-1403350Y-2260600D02*
X-1403350Y-2514600D01*
X-1403350Y-2260600D02*
X-1149350Y-2260600D01*
X-1212850Y-2514600D02*
X-1403350Y-2514600D01*
X-1212850Y-2514600D02*
X-1212850Y-2387600D01*
X-1149350Y-2387600D02*
X-1149350Y-2514600D01*
X-1149350Y-2387600D02*
X-1212850Y-2387600D01*
X-1149350Y-2260600D02*
X-1149350Y-2006600D01*
X-1403350Y-2006600D02*
X-1403350Y-1752600D01*
X-1212850Y-1752600D01*
X-1212850Y-1879600D02*
X-1149350Y-1879600D01*
X-1212850Y-1879600D02*
X-1212850Y-1752600D01*
X-1149350Y-2006600D02*
X-1403350Y-2006600D01*
X-1149350Y-1879600D02*
X-1149350Y-1752600D01*
X-1060450Y-1752600D01*
X-1060450Y-2514600D02*
X-1149350Y-2514600D01*
X-1060450Y-2514600D02*
X-1060450Y-1752600D01*
X-1400175Y-3149600D02*
X-1400175Y-3403600D01*
X-1400175Y-3149600D02*
X-1146175Y-3149600D01*
X-1209675Y-3403600D02*
X-1400175Y-3403600D01*
X-1209675Y-3403600D02*
X-1209675Y-3276600D01*
X-1146175Y-3276600D02*
X-1146175Y-3403600D01*
X-1146175Y-3276600D02*
X-1209675Y-3276600D01*
X-1146175Y-3149600D02*
X-1146175Y-2895600D01*
X-1400175Y-2895600D02*
X-1400175Y-2641600D01*
X-1209675Y-2641600D01*
X-1209675Y-2768600D02*
X-1146175Y-2768600D01*
X-1209675Y-2768600D02*
X-1209675Y-2641600D01*
X-1146175Y-2895600D02*
X-1400175Y-2895600D01*
X-1146175Y-2768600D02*
X-1146175Y-2641600D01*
X-1057275Y-2641600D01*
X-1057275Y-3403600D02*
X-1146175Y-3403600D01*
X-1057275Y-3403600D02*
X-1057275Y-2641600D01*
X-1397000Y-4038600D02*
X-1397000Y-4292600D01*
X-1397000Y-4038600D02*
X-1143000Y-4038600D01*
X-1206500Y-4292600D02*
X-1397000Y-4292600D01*
X-1206500Y-4292600D02*
X-1206500Y-4165600D01*
X-1143000Y-4165600D02*
X-1143000Y-4292600D01*
X-1143000Y-4165600D02*
X-1206500Y-4165600D01*
X-1143000Y-4038600D02*
X-1143000Y-3784600D01*
X-1397000Y-3784600D02*
X-1397000Y-3530600D01*
X-1206500Y-3530600D01*
X-1206500Y-3657600D02*
X-1143000Y-3657600D01*
X-1206500Y-3657600D02*
X-1206500Y-3530600D01*
X-1143000Y-3784600D02*
X-1397000Y-3784600D01*
X-1143000Y-3657600D02*
X-1143000Y-3530600D01*
X-1054100Y-3530600D01*
X-1054100Y-4292600D02*
X-1143000Y-4292600D01*
X-1054100Y-4292600D02*
X-1054100Y-3530600D01*
X-1028700Y-3530600D02*
X-1028700Y-4292600D01*
X-1028700Y-3530600D02*
X-939800Y-3530600D01*
X-939800Y-4292600D02*
X-1028700Y-4292600D01*
X-939800Y-4292600D02*
X-939800Y-4165600D01*
X-939800Y-3657600D02*
X-876300Y-3657600D01*
X-939800Y-3657600D02*
X-939800Y-3530600D01*
X-876300Y-4165600D02*
X-876300Y-4292600D01*
X-876300Y-4165600D02*
X-939800Y-4165600D01*
X-876300Y-3657600D02*
X-876300Y-3530600D01*
X-685800Y-3530600D01*
X-685800Y-4292600D02*
X-876300Y-4292600D01*
X-939800Y-4038600D02*
X-685800Y-4038600D01*
X-939800Y-4038600D02*
X-939800Y-3784600D01*
X-685800Y-4038600D02*
X-685800Y-4292600D01*
X-685800Y-3784600D02*
X-939800Y-3784600D01*
X-685800Y-3784600D02*
X-685800Y-3530600D01*
X-1025525Y-3403600D02*
X-1025525Y-2641600D01*
X-936625Y-2641600D01*
X-936625Y-3403600D02*
X-1025525Y-3403600D01*
X-936625Y-3403600D02*
X-936625Y-3276600D01*
X-936625Y-2768600D02*
X-873125Y-2768600D01*
X-936625Y-2768600D02*
X-936625Y-2641600D01*
X-873125Y-3276600D02*
X-873125Y-3403600D01*
X-873125Y-3276600D02*
X-936625Y-3276600D01*
X-873125Y-2768600D02*
X-873125Y-2641600D01*
X-682625Y-2641600D01*
X-682625Y-3403600D02*
X-873125Y-3403600D01*
X-936625Y-3149600D02*
X-682625Y-3149600D01*
X-936625Y-3149600D02*
X-936625Y-2895600D01*
X-682625Y-3149600D02*
X-682625Y-3403600D01*
X-682625Y-2895600D02*
X-936625Y-2895600D01*
X-682625Y-2895600D02*
X-682625Y-2641600D01*
X-1022350Y-2514600D02*
X-1022350Y-1752600D01*
X-933450Y-1752600D01*
X-933450Y-2514600D02*
X-1022350Y-2514600D01*
X-933450Y-2514600D02*
X-933450Y-2387600D01*
X-933450Y-1879600D02*
X-869950Y-1879600D01*
X-933450Y-1879600D02*
X-933450Y-1752600D01*
X-869950Y-2387600D02*
X-869950Y-2514600D01*
X-869950Y-2387600D02*
X-933450Y-2387600D01*
X-869950Y-1879600D02*
X-869950Y-1752600D01*
X-679450Y-1752600D01*
X-679450Y-2514600D02*
X-869950Y-2514600D01*
X-933450Y-2260600D02*
X-679450Y-2260600D01*
X-933450Y-2260600D02*
X-933450Y-2006600D01*
X-679450Y-2260600D02*
X-679450Y-2514600D01*
X-679450Y-2006600D02*
X-933450Y-2006600D01*
X-679450Y-2006600D02*
X-679450Y-1752600D01*
X-1019175Y-1625600D02*
X-1019175Y-863600D01*
X-930275Y-863600D01*
X-930275Y-1625600D02*
X-1019175Y-1625600D01*
X-930275Y-1625600D02*
X-930275Y-1498600D01*
X-930275Y-990600D02*
X-866775Y-990600D01*
X-930275Y-990600D02*
X-930275Y-863600D01*
X-866775Y-1498600D02*
X-866775Y-1625600D01*
X-866775Y-1498600D02*
X-930275Y-1498600D01*
X-866775Y-990600D02*
X-866775Y-863600D01*
X-676275Y-863600D01*
X-676275Y-1625600D02*
X-866775Y-1625600D01*
X-930275Y-1371600D02*
X-676275Y-1371600D01*
X-930275Y-1371600D02*
X-930275Y-1117600D01*
X-676275Y-1371600D02*
X-676275Y-1625600D01*
X-676275Y-1117600D02*
X-930275Y-1117600D01*
X-676275Y-1117600D02*
X-676275Y-863600D01*
X-1016000Y-736600D02*
X-1016000Y25400D01*
X-927100Y25400D01*
X-927100Y-736600D02*
X-1016000Y-736600D01*
X-927100Y-736600D02*
X-927100Y-609600D01*
X-927100Y-101600D02*
X-863600Y-101600D01*
X-927100Y-101600D02*
X-927100Y25400D01*
X-863600Y-609600D02*
X-863600Y-736600D01*
X-863600Y-609600D02*
X-927100Y-609600D01*
X-863600Y-101600D02*
X-863600Y25400D01*
X-673100Y25400D01*
X-673100Y-736600D02*
X-863600Y-736600D01*
X-927100Y-482600D02*
X-673100Y-482600D01*
X-927100Y-482600D02*
X-927100Y-228600D01*
X-673100Y-482600D02*
X-673100Y-736600D01*
X-673100Y-228600D02*
X-927100Y-228600D01*
X-673100Y-228600D02*
X-673100Y25400D01*
X-1012825Y152400D02*
X-1012825Y914400D01*
X-923925Y914400D01*
X-923925Y152400D02*
X-1012825Y152400D01*
X-923925Y152400D02*
X-923925Y279400D01*
X-923925Y787400D02*
X-860425Y787400D01*
X-923925Y787400D02*
X-923925Y914400D01*
X-860425Y279400D02*
X-860425Y152400D01*
X-860425Y279400D02*
X-923925Y279400D01*
X-860425Y787400D02*
X-860425Y914400D01*
X-669925Y914400D01*
X-669925Y152400D02*
X-860425Y152400D01*
X-923925Y406400D02*
X-669925Y406400D01*
X-923925Y406400D02*
X-923925Y660400D01*
X-669925Y406400D02*
X-669925Y152400D01*
X-669925Y660400D02*
X-923925Y660400D01*
X-669925Y660400D02*
X-669925Y914400D01*
X-1009650Y1041400D02*
X-1009650Y1803400D01*
X-920750Y1803400D01*
X-920750Y1041400D02*
X-1009650Y1041400D01*
X-920750Y1041400D02*
X-920750Y1168400D01*
X-920750Y1676400D02*
X-857250Y1676400D01*
X-920750Y1676400D02*
X-920750Y1803400D01*
X-857250Y1168400D02*
X-857250Y1041400D01*
X-857250Y1168400D02*
X-920750Y1168400D01*
X-857250Y1676400D02*
X-857250Y1803400D01*
X-666750Y1803400D01*
X-666750Y1041400D02*
X-857250Y1041400D01*
X-920750Y1295400D02*
X-666750Y1295400D01*
X-920750Y1295400D02*
X-920750Y1549400D01*
X-666750Y1295400D02*
X-666750Y1041400D01*
X-666750Y1549400D02*
X-920750Y1549400D01*
X-666750Y1549400D02*
X-666750Y1803400D01*
X-1006475Y1930400D02*
X-1006475Y2692400D01*
X-917575Y2692400D01*
X-917575Y1930400D02*
X-1006475Y1930400D01*
X-917575Y1930400D02*
X-917575Y2057400D01*
X-917575Y2565400D02*
X-854075Y2565400D01*
X-917575Y2565400D02*
X-917575Y2692400D01*
X-854075Y2057400D02*
X-854075Y1930400D01*
X-854075Y2057400D02*
X-917575Y2057400D01*
X-854075Y2565400D02*
X-854075Y2692400D01*
X-663575Y2692400D01*
X-663575Y1930400D02*
X-854075Y1930400D01*
X-917575Y2184400D02*
X-663575Y2184400D01*
X-917575Y2184400D02*
X-917575Y2438400D01*
X-663575Y2184400D02*
X-663575Y1930400D01*
X-663575Y2438400D02*
X-917575Y2438400D01*
X-663575Y2438400D02*
X-663575Y2692400D01*
X-1003300Y2819400D02*
X-1003300Y3581400D01*
X-914400Y3581400D01*
X-914400Y2819400D02*
X-1003300Y2819400D01*
X-914400Y2819400D02*
X-914400Y2946400D01*
X-914400Y3454400D02*
X-850900Y3454400D01*
X-914400Y3454400D02*
X-914400Y3581400D01*
X-850900Y2946400D02*
X-850900Y2819400D01*
X-850900Y2946400D02*
X-914400Y2946400D01*
X-850900Y3454400D02*
X-850900Y3581400D01*
X-660400Y3581400D01*
X-660400Y2819400D02*
X-850900Y2819400D01*
X-914400Y3073400D02*
X-660400Y3073400D01*
X-914400Y3073400D02*
X-914400Y3327400D01*
X-660400Y3073400D02*
X-660400Y2819400D01*
X-660400Y3327400D02*
X-914400Y3327400D01*
X-660400Y3327400D02*
X-660400Y3581400D01*
X-1000125Y3708400D02*
X-1000125Y4470400D01*
X-911225Y4470400D01*
X-911225Y3708400D02*
X-1000125Y3708400D01*
X-911225Y3708400D02*
X-911225Y3835400D01*
X-911225Y4343400D02*
X-847725Y4343400D01*
X-911225Y4343400D02*
X-911225Y4470400D01*
X-847725Y3835400D02*
X-847725Y3708400D01*
X-847725Y3835400D02*
X-911225Y3835400D01*
X-847725Y4343400D02*
X-847725Y4470400D01*
X-657225Y4470400D01*
X-657225Y3708400D02*
X-847725Y3708400D01*
X-911225Y3962400D02*
X-657225Y3962400D01*
X-911225Y3962400D02*
X-911225Y4216400D01*
X-657225Y3962400D02*
X-657225Y3708400D01*
X-657225Y4216400D02*
X-911225Y4216400D01*
X-657225Y4216400D02*
X-657225Y4470400D01*
X-986719Y4659489D02*
X-986719Y4715933D01*
X-760942Y4715933D01*
X-760942Y4659489D02*
X-986719Y4659489D01*
X-760942Y4659489D02*
X-760942Y4715933D01*
X-760942Y4828822D01*
X-986719Y4828822D02*
X-986719Y5054600D01*
X-704497Y5054600D01*
X-760942Y4828822D02*
X-986719Y4828822D01*
X-760942Y4828822D02*
X-704497Y4828822D01*
X-760942Y4885267D02*
X-930275Y4885267D01*
X-930275Y4998156D01*
X-760942Y4885267D02*
X-760942Y4828822D01*
X-760942Y4715933D02*
X-704497Y4715933D01*
X-704497Y4828822D01*
X-704497Y4998156D02*
X-930275Y4998156D01*
X-704497Y4998156D02*
X-704497Y5054600D01*
X-498475Y3962400D02*
X-498475Y3708400D01*
X-498475Y3962400D02*
X-244475Y3962400D01*
X-307975Y3708400D02*
X-498475Y3708400D01*
X-307975Y3708400D02*
X-307975Y3835400D01*
X-244475Y3835400D02*
X-244475Y3708400D01*
X-244475Y3835400D02*
X-307975Y3835400D01*
X-244475Y3962400D02*
X-244475Y4216400D01*
X-498475Y4216400D02*
X-498475Y4470400D01*
X-307975Y4470400D01*
X-307975Y4343400D02*
X-244475Y4343400D01*
X-307975Y4343400D02*
X-307975Y4470400D01*
X-244475Y4216400D02*
X-498475Y4216400D01*
X-244475Y4343400D02*
X-244475Y4470400D01*
X-142875Y4470400D01*
X-142875Y3708400D02*
X-244475Y3708400D01*
X-142875Y3708400D02*
X-142875Y4470400D01*
X-498475Y4772378D02*
X-498475Y4885267D01*
X-442031Y4885267D01*
X-442031Y4828822D02*
X-329142Y4828822D01*
X-442031Y4828822D02*
X-442031Y4885267D01*
X-442031Y4998156D01*
X-385586Y4998156D01*
X-385586Y4885267D02*
X-442031Y4885267D01*
X-385586Y4885267D02*
X-385586Y4998156D01*
X-385586Y5054600D01*
X-272697Y5054600D01*
X-329142Y4772378D02*
X-329142Y4659489D01*
X-329142Y4772378D02*
X-498475Y4772378D01*
X-329142Y4828822D02*
X-329142Y4998156D01*
X-385586Y4998156D01*
X-329142Y4659489D02*
X-272697Y4659489D01*
X-272697Y4772378D01*
X-272697Y4828822D02*
X-216253Y4828822D01*
X-272697Y4828822D02*
X-272697Y5054600D01*
X-272697Y4772378D02*
X-216253Y4772378D01*
X-216253Y4828822D01*
X-495300Y3073400D02*
X-495300Y2819400D01*
X-495300Y3073400D02*
X-241300Y3073400D01*
X-304800Y2819400D02*
X-495300Y2819400D01*
X-304800Y2819400D02*
X-304800Y2946400D01*
X-241300Y2946400D02*
X-241300Y2819400D01*
X-241300Y2946400D02*
X-304800Y2946400D01*
X-241300Y3073400D02*
X-241300Y3327400D01*
X-495300Y3327400D02*
X-495300Y3581400D01*
X-304800Y3581400D01*
X-304800Y3454400D02*
X-241300Y3454400D01*
X-304800Y3454400D02*
X-304800Y3581400D01*
X-241300Y3327400D02*
X-495300Y3327400D01*
X-241300Y3454400D02*
X-241300Y3581400D01*
X-139700Y3581400D01*
X-139700Y2819400D02*
X-241300Y2819400D01*
X-139700Y2819400D02*
X-139700Y3581400D01*
X-492125Y2184400D02*
X-492125Y1930400D01*
X-492125Y2184400D02*
X-238125Y2184400D01*
X-301625Y1930400D02*
X-492125Y1930400D01*
X-301625Y1930400D02*
X-301625Y2057400D01*
X-238125Y2057400D02*
X-238125Y1930400D01*
X-238125Y2057400D02*
X-301625Y2057400D01*
X-238125Y2184400D02*
X-238125Y2438400D01*
X-492125Y2438400D02*
X-492125Y2692400D01*
X-301625Y2692400D01*
X-301625Y2565400D02*
X-238125Y2565400D01*
X-301625Y2565400D02*
X-301625Y2692400D01*
X-238125Y2438400D02*
X-492125Y2438400D01*
X-238125Y2565400D02*
X-238125Y2692400D01*
X-136525Y2692400D01*
X-136525Y1930400D02*
X-238125Y1930400D01*
X-136525Y1930400D02*
X-136525Y2692400D01*
X-488950Y1295400D02*
X-488950Y1041400D01*
X-488950Y1295400D02*
X-234950Y1295400D01*
X-298450Y1041400D02*
X-488950Y1041400D01*
X-298450Y1041400D02*
X-298450Y1168400D01*
X-234950Y1168400D02*
X-234950Y1041400D01*
X-234950Y1168400D02*
X-298450Y1168400D01*
X-234950Y1295400D02*
X-234950Y1549400D01*
X-488950Y1549400D02*
X-488950Y1803400D01*
X-298450Y1803400D01*
X-298450Y1676400D02*
X-234950Y1676400D01*
X-298450Y1676400D02*
X-298450Y1803400D01*
X-234950Y1549400D02*
X-488950Y1549400D01*
X-234950Y1676400D02*
X-234950Y1803400D01*
X-133350Y1803400D01*
X-133350Y1041400D02*
X-234950Y1041400D01*
X-133350Y1041400D02*
X-133350Y1803400D01*
X-485775Y406400D02*
X-485775Y152400D01*
X-485775Y406400D02*
X-231775Y406400D01*
X-295275Y152400D02*
X-485775Y152400D01*
X-295275Y152400D02*
X-295275Y279400D01*
X-231775Y279400D02*
X-231775Y152400D01*
X-231775Y279400D02*
X-295275Y279400D01*
X-231775Y406400D02*
X-231775Y660400D01*
X-485775Y660400D02*
X-485775Y914400D01*
X-295275Y914400D01*
X-295275Y787400D02*
X-231775Y787400D01*
X-295275Y787400D02*
X-295275Y914400D01*
X-231775Y660400D02*
X-485775Y660400D01*
X-231775Y787400D02*
X-231775Y914400D01*
X-130175Y914400D01*
X-130175Y152400D02*
X-231775Y152400D01*
X-130175Y152400D02*
X-130175Y914400D01*
X-482600Y-482600D02*
X-482600Y-736600D01*
X-482600Y-482600D02*
X-228600Y-482600D01*
X-292100Y-736600D02*
X-482600Y-736600D01*
X-292100Y-736600D02*
X-292100Y-609600D01*
X-228600Y-609600D02*
X-228600Y-736600D01*
X-228600Y-609600D02*
X-292100Y-609600D01*
X-228600Y-482600D02*
X-228600Y-228600D01*
X-482600Y-228600D02*
X-482600Y25400D01*
X-292100Y25400D01*
X-292100Y-101600D02*
X-228600Y-101600D01*
X-292100Y-101600D02*
X-292100Y25400D01*
X-228600Y-228600D02*
X-482600Y-228600D01*
X-228600Y-101600D02*
X-228600Y25400D01*
X-127000Y25400D01*
X-127000Y-736600D02*
X-228600Y-736600D01*
X-127000Y-736600D02*
X-127000Y25400D01*
X-479425Y-1371600D02*
X-479425Y-1625600D01*
X-479425Y-1371600D02*
X-225425Y-1371600D01*
X-288925Y-1625600D02*
X-479425Y-1625600D01*
X-288925Y-1625600D02*
X-288925Y-1498600D01*
X-225425Y-1498600D02*
X-225425Y-1625600D01*
X-225425Y-1498600D02*
X-288925Y-1498600D01*
X-225425Y-1371600D02*
X-225425Y-1117600D01*
X-479425Y-1117600D02*
X-479425Y-863600D01*
X-288925Y-863600D01*
X-288925Y-990600D02*
X-225425Y-990600D01*
X-288925Y-990600D02*
X-288925Y-863600D01*
X-225425Y-1117600D02*
X-479425Y-1117600D01*
X-225425Y-990600D02*
X-225425Y-863600D01*
X-123825Y-863600D01*
X-123825Y-1625600D02*
X-225425Y-1625600D01*
X-123825Y-1625600D02*
X-123825Y-863600D01*
X-476250Y-2260600D02*
X-476250Y-2514600D01*
X-476250Y-2260600D02*
X-222250Y-2260600D01*
X-285750Y-2514600D02*
X-476250Y-2514600D01*
X-285750Y-2514600D02*
X-285750Y-2387600D01*
X-222250Y-2387600D02*
X-222250Y-2514600D01*
X-222250Y-2387600D02*
X-285750Y-2387600D01*
X-222250Y-2260600D02*
X-222250Y-2006600D01*
X-476250Y-2006600D02*
X-476250Y-1752600D01*
X-285750Y-1752600D01*
X-285750Y-1879600D02*
X-222250Y-1879600D01*
X-285750Y-1879600D02*
X-285750Y-1752600D01*
X-222250Y-2006600D02*
X-476250Y-2006600D01*
X-222250Y-1879600D02*
X-222250Y-1752600D01*
X-120650Y-1752600D01*
X-120650Y-2514600D02*
X-222250Y-2514600D01*
X-120650Y-2514600D02*
X-120650Y-1752600D01*
X-473075Y-3149600D02*
X-473075Y-3403600D01*
X-473075Y-3149600D02*
X-219075Y-3149600D01*
X-282575Y-3403600D02*
X-473075Y-3403600D01*
X-282575Y-3403600D02*
X-282575Y-3276600D01*
X-219075Y-3276600D02*
X-219075Y-3403600D01*
X-219075Y-3276600D02*
X-282575Y-3276600D01*
X-219075Y-3149600D02*
X-219075Y-2895600D01*
X-473075Y-2895600D02*
X-473075Y-2641600D01*
X-282575Y-2641600D01*
X-282575Y-2768600D02*
X-219075Y-2768600D01*
X-282575Y-2768600D02*
X-282575Y-2641600D01*
X-219075Y-2895600D02*
X-473075Y-2895600D01*
X-219075Y-2768600D02*
X-219075Y-2641600D01*
X-117475Y-2641600D01*
X-117475Y-3403600D02*
X-219075Y-3403600D01*
X-117475Y-3403600D02*
X-117475Y-2641600D01*
X-469900Y-4038600D02*
X-469900Y-4292600D01*
X-469900Y-4038600D02*
X-215900Y-4038600D01*
X-279400Y-4292600D02*
X-469900Y-4292600D01*
X-279400Y-4292600D02*
X-279400Y-4165600D01*
X-215900Y-4165600D02*
X-215900Y-4292600D01*
X-215900Y-4165600D02*
X-279400Y-4165600D01*
X-215900Y-4038600D02*
X-215900Y-3784600D01*
X-469900Y-3784600D02*
X-469900Y-3530600D01*
X-279400Y-3530600D01*
X-279400Y-3657600D02*
X-215900Y-3657600D01*
X-279400Y-3657600D02*
X-279400Y-3530600D01*
X-215900Y-3784600D02*
X-469900Y-3784600D01*
X-215900Y-3657600D02*
X-215900Y-3530600D01*
X-114300Y-3530600D01*
X-114300Y-4292600D02*
X-215900Y-4292600D01*
X-114300Y-4292600D02*
X-114300Y-3530600D01*
X-88900Y-3530600D02*
X-88900Y-4292600D01*
X-88900Y-3530600D02*
X12700Y-3530600D01*
X12700Y-4292600D02*
X-88900Y-4292600D01*
X12700Y-4292600D02*
X12700Y-4165600D01*
X12700Y-3657600D02*
X76200Y-3657600D01*
X12700Y-3657600D02*
X12700Y-3530600D01*
X76200Y-4165600D02*
X76200Y-4292600D01*
X76200Y-4165600D02*
X12700Y-4165600D01*
X76200Y-3657600D02*
X76200Y-3530600D01*
X266700Y-3530600D01*
X266700Y-4292600D02*
X76200Y-4292600D01*
X12700Y-4038600D02*
X266700Y-4038600D01*
X12700Y-4038600D02*
X12700Y-3784600D01*
X266700Y-4038600D02*
X266700Y-4292600D01*
X266700Y-3784600D02*
X12700Y-3784600D01*
X266700Y-3784600D02*
X266700Y-3530600D01*
X-85725Y-3403600D02*
X-85725Y-2641600D01*
X15875Y-2641600D01*
X15875Y-3403600D02*
X-85725Y-3403600D01*
X15875Y-3403600D02*
X15875Y-3276600D01*
X15875Y-2768600D02*
X79375Y-2768600D01*
X15875Y-2768600D02*
X15875Y-2641600D01*
X79375Y-3276600D02*
X79375Y-3403600D01*
X79375Y-3276600D02*
X15875Y-3276600D01*
X79375Y-2768600D02*
X79375Y-2641600D01*
X269875Y-2641600D01*
X269875Y-3403600D02*
X79375Y-3403600D01*
X15875Y-3149600D02*
X269875Y-3149600D01*
X15875Y-3149600D02*
X15875Y-2895600D01*
X269875Y-3149600D02*
X269875Y-3403600D01*
X269875Y-2895600D02*
X15875Y-2895600D01*
X269875Y-2895600D02*
X269875Y-2641600D01*
X-82550Y-2514600D02*
X-82550Y-1752600D01*
X19050Y-1752600D01*
X19050Y-2514600D02*
X-82550Y-2514600D01*
X19050Y-2514600D02*
X19050Y-2387600D01*
X19050Y-1879600D02*
X82550Y-1879600D01*
X19050Y-1879600D02*
X19050Y-1752600D01*
X82550Y-2387600D02*
X82550Y-2514600D01*
X82550Y-2387600D02*
X19050Y-2387600D01*
X82550Y-1879600D02*
X82550Y-1752600D01*
X273050Y-1752600D01*
X273050Y-2514600D02*
X82550Y-2514600D01*
X19050Y-2260600D02*
X273050Y-2260600D01*
X19050Y-2260600D02*
X19050Y-2006600D01*
X273050Y-2260600D02*
X273050Y-2514600D01*
X273050Y-2006600D02*
X19050Y-2006600D01*
X273050Y-2006600D02*
X273050Y-1752600D01*
X-79375Y-1625600D02*
X-79375Y-863600D01*
X22225Y-863600D01*
X22225Y-1625600D02*
X-79375Y-1625600D01*
X22225Y-1625600D02*
X22225Y-1498600D01*
X22225Y-990600D02*
X85725Y-990600D01*
X22225Y-990600D02*
X22225Y-863600D01*
X85725Y-1498600D02*
X85725Y-1625600D01*
X85725Y-1498600D02*
X22225Y-1498600D01*
X85725Y-990600D02*
X85725Y-863600D01*
X276225Y-863600D01*
X276225Y-1625600D02*
X85725Y-1625600D01*
X22225Y-1371600D02*
X276225Y-1371600D01*
X22225Y-1371600D02*
X22225Y-1117600D01*
X276225Y-1371600D02*
X276225Y-1625600D01*
X276225Y-1117600D02*
X22225Y-1117600D01*
X276225Y-1117600D02*
X276225Y-863600D01*
X-76200Y-736600D02*
X-76200Y25400D01*
X25400Y25400D01*
X25400Y-736600D02*
X-76200Y-736600D01*
X25400Y-736600D02*
X25400Y-609600D01*
X25400Y-101600D02*
X88900Y-101600D01*
X25400Y-101600D02*
X25400Y25400D01*
X88900Y-609600D02*
X88900Y-736600D01*
X88900Y-609600D02*
X25400Y-609600D01*
X88900Y-101600D02*
X88900Y25400D01*
X279400Y25400D01*
X279400Y-736600D02*
X88900Y-736600D01*
X25400Y-482600D02*
X279400Y-482600D01*
X25400Y-482600D02*
X25400Y-228600D01*
X279400Y-482600D02*
X279400Y-736600D01*
X279400Y-228600D02*
X25400Y-228600D01*
X279400Y-228600D02*
X279400Y25400D01*
X-73025Y152400D02*
X-73025Y914400D01*
X28575Y914400D01*
X28575Y152400D02*
X-73025Y152400D01*
X28575Y152400D02*
X28575Y279400D01*
X28575Y787400D02*
X92075Y787400D01*
X28575Y787400D02*
X28575Y914400D01*
X92075Y279400D02*
X92075Y152400D01*
X92075Y279400D02*
X28575Y279400D01*
X92075Y787400D02*
X92075Y914400D01*
X282575Y914400D01*
X282575Y152400D02*
X92075Y152400D01*
X28575Y406400D02*
X282575Y406400D01*
X28575Y406400D02*
X28575Y660400D01*
X282575Y406400D02*
X282575Y152400D01*
X282575Y660400D02*
X28575Y660400D01*
X282575Y660400D02*
X282575Y914400D01*
X-69850Y1041400D02*
X-69850Y1803400D01*
X31750Y1803400D01*
X31750Y1041400D02*
X-69850Y1041400D01*
X31750Y1041400D02*
X31750Y1168400D01*
X31750Y1676400D02*
X95250Y1676400D01*
X31750Y1676400D02*
X31750Y1803400D01*
X95250Y1168400D02*
X95250Y1041400D01*
X95250Y1168400D02*
X31750Y1168400D01*
X95250Y1676400D02*
X95250Y1803400D01*
X285750Y1803400D01*
X285750Y1041400D02*
X95250Y1041400D01*
X31750Y1295400D02*
X285750Y1295400D01*
X31750Y1295400D02*
X31750Y1549400D01*
X285750Y1295400D02*
X285750Y1041400D01*
X285750Y1549400D02*
X31750Y1549400D01*
X285750Y1549400D02*
X285750Y1803400D01*
X-66675Y1930400D02*
X-66675Y2692400D01*
X34925Y2692400D01*
X34925Y1930400D02*
X-66675Y1930400D01*
X34925Y1930400D02*
X34925Y2057400D01*
X34925Y2565400D02*
X98425Y2565400D01*
X34925Y2565400D02*
X34925Y2692400D01*
X98425Y2057400D02*
X98425Y1930400D01*
X98425Y2057400D02*
X34925Y2057400D01*
X98425Y2565400D02*
X98425Y2692400D01*
X288925Y2692400D01*
X288925Y1930400D02*
X98425Y1930400D01*
X34925Y2184400D02*
X288925Y2184400D01*
X34925Y2184400D02*
X34925Y2438400D01*
X288925Y2184400D02*
X288925Y1930400D01*
X288925Y2438400D02*
X34925Y2438400D01*
X288925Y2438400D02*
X288925Y2692400D01*
X-63500Y2819400D02*
X-63500Y3581400D01*
X38100Y3581400D01*
X38100Y2819400D02*
X-63500Y2819400D01*
X38100Y2819400D02*
X38100Y2946400D01*
X38100Y3454400D02*
X101600Y3454400D01*
X38100Y3454400D02*
X38100Y3581400D01*
X101600Y2946400D02*
X101600Y2819400D01*
X101600Y2946400D02*
X38100Y2946400D01*
X101600Y3454400D02*
X101600Y3581400D01*
X292100Y3581400D01*
X292100Y2819400D02*
X101600Y2819400D01*
X38100Y3073400D02*
X292100Y3073400D01*
X38100Y3073400D02*
X38100Y3327400D01*
X292100Y3073400D02*
X292100Y2819400D01*
X292100Y3327400D02*
X38100Y3327400D01*
X292100Y3327400D02*
X292100Y3581400D01*
X-60325Y3708400D02*
X-60325Y4470400D01*
X41275Y4470400D01*
X41275Y3708400D02*
X-60325Y3708400D01*
X41275Y3708400D02*
X41275Y3835400D01*
X41275Y4343400D02*
X104775Y4343400D01*
X41275Y4343400D02*
X41275Y4470400D01*
X104775Y3835400D02*
X104775Y3708400D01*
X104775Y3835400D02*
X41275Y3835400D01*
X104775Y4343400D02*
X104775Y4470400D01*
X295275Y4470400D01*
X295275Y3708400D02*
X104775Y3708400D01*
X41275Y3962400D02*
X295275Y3962400D01*
X41275Y3962400D02*
X41275Y4216400D01*
X295275Y3962400D02*
X295275Y3708400D01*
X295275Y4216400D02*
X41275Y4216400D01*
X295275Y4216400D02*
X295275Y4470400D01*
X-46919Y4715933D02*
X-46919Y4998156D01*
X9525Y4998156D01*
X9525Y4715933D02*
X9525Y4659489D01*
X9525Y4715933D02*
X-46919Y4715933D01*
X9525Y4715933D02*
X178858Y4715933D01*
X9525Y4715933D02*
X9525Y4772378D01*
X9525Y4828822D02*
X65969Y4828822D01*
X9525Y4828822D02*
X9525Y4998156D01*
X9525Y5054600D01*
X178858Y5054600D01*
X65969Y4772378D02*
X9525Y4772378D01*
X65969Y4772378D02*
X65969Y4828822D01*
X65969Y4885267D01*
X122414Y4885267D01*
X122414Y4828822D02*
X65969Y4828822D01*
X122414Y4828822D02*
X122414Y4885267D01*
X122414Y4941711D01*
X178858Y4941711D01*
X178858Y4659489D02*
X9525Y4659489D01*
X178858Y4659489D02*
X178858Y4715933D01*
X178858Y4885267D01*
X122414Y4885267D01*
X178858Y4941711D02*
X178858Y4998156D01*
X9525Y4998156D01*
X178858Y4998156D02*
X235303Y4998156D01*
X178858Y4998156D02*
X178858Y5054600D01*
X178858Y4715933D02*
X235303Y4715933D01*
X235303Y4998156D01*
X428625Y3962400D02*
X428625Y3708400D01*
X428625Y3962400D02*
X682625Y3962400D01*
X796925Y3708400D02*
X428625Y3708400D01*
X682625Y3962400D02*
X682625Y4216400D01*
X428625Y4216400D02*
X428625Y4470400D01*
X619125Y4470400D01*
X619125Y4343400D02*
X682625Y4343400D01*
X619125Y4343400D02*
X619125Y4470400D01*
X682625Y4216400D02*
X428625Y4216400D01*
X682625Y4343400D02*
X682625Y4470400D01*
X796925Y4470400D01*
X796925Y3708400D01*
X431800Y3073400D02*
X431800Y2819400D01*
X431800Y3073400D02*
X685800Y3073400D01*
X622300Y2819400D02*
X431800Y2819400D01*
X622300Y2819400D02*
X622300Y2946400D01*
X685800Y2946400D02*
X685800Y2819400D01*
X685800Y2946400D02*
X622300Y2946400D01*
X685800Y3073400D02*
X685800Y3327400D01*
X431800Y3327400D02*
X431800Y3581400D01*
X622300Y3581400D01*
X622300Y3454400D02*
X685800Y3454400D01*
X622300Y3454400D02*
X622300Y3581400D01*
X685800Y3327400D02*
X431800Y3327400D01*
X685800Y3454400D02*
X685800Y3581400D01*
X800100Y3581400D01*
X800100Y2819400D02*
X685800Y2819400D01*
X800100Y2819400D02*
X800100Y3581400D01*
X434975Y2184400D02*
X434975Y1930400D01*
X434975Y2184400D02*
X688975Y2184400D01*
X625475Y1930400D02*
X434975Y1930400D01*
X625475Y1930400D02*
X625475Y2057400D01*
X688975Y2057400D02*
X688975Y1930400D01*
X688975Y2057400D02*
X625475Y2057400D01*
X688975Y2184400D02*
X688975Y2438400D01*
X434975Y2438400D02*
X434975Y2692400D01*
X625475Y2692400D01*
X625475Y2565400D02*
X688975Y2565400D01*
X625475Y2565400D02*
X625475Y2692400D01*
X688975Y2438400D02*
X434975Y2438400D01*
X688975Y2565400D02*
X688975Y2692400D01*
X803275Y2692400D01*
X803275Y1930400D02*
X688975Y1930400D01*
X803275Y1930400D02*
X803275Y2692400D01*
X438150Y1295400D02*
X438150Y1041400D01*
X438150Y1295400D02*
X692150Y1295400D01*
X628650Y1041400D02*
X438150Y1041400D01*
X628650Y1041400D02*
X628650Y1168400D01*
X692150Y1168400D02*
X692150Y1041400D01*
X692150Y1168400D02*
X628650Y1168400D01*
X692150Y1295400D02*
X692150Y1549400D01*
X438150Y1549400D02*
X438150Y1803400D01*
X628650Y1803400D01*
X628650Y1676400D02*
X692150Y1676400D01*
X628650Y1676400D02*
X628650Y1803400D01*
X692150Y1549400D02*
X438150Y1549400D01*
X692150Y1676400D02*
X692150Y1803400D01*
X806450Y1803400D01*
X806450Y1041400D02*
X692150Y1041400D01*
X806450Y1041400D02*
X806450Y1803400D01*
X441325Y406400D02*
X441325Y152400D01*
X441325Y406400D02*
X695325Y406400D01*
X631825Y152400D02*
X441325Y152400D01*
X631825Y152400D02*
X631825Y279400D01*
X695325Y279400D02*
X695325Y152400D01*
X695325Y279400D02*
X631825Y279400D01*
X695325Y406400D02*
X695325Y660400D01*
X441325Y660400D02*
X441325Y914400D01*
X631825Y914400D01*
X631825Y787400D02*
X695325Y787400D01*
X631825Y787400D02*
X631825Y914400D01*
X695325Y660400D02*
X441325Y660400D01*
X695325Y787400D02*
X695325Y914400D01*
X809625Y914400D01*
X809625Y152400D02*
X695325Y152400D01*
X809625Y152400D02*
X809625Y914400D01*
X441325Y4772378D02*
X441325Y4885267D01*
X497769Y4885267D01*
X497769Y4828822D02*
X610658Y4828822D01*
X497769Y4828822D02*
X497769Y4885267D01*
X497769Y4998156D01*
X554214Y4998156D01*
X554214Y4885267D02*
X497769Y4885267D01*
X554214Y4885267D02*
X554214Y4998156D01*
X554214Y5054600D01*
X667103Y5054600D01*
X610658Y4772378D02*
X610658Y4659489D01*
X610658Y4772378D02*
X441325Y4772378D01*
X610658Y4828822D02*
X610658Y4998156D01*
X554214Y4998156D01*
X610658Y4659489D02*
X667103Y4659489D01*
X667103Y4772378D01*
X667103Y4828822D02*
X723547Y4828822D01*
X667103Y4828822D02*
X667103Y5054600D01*
X667103Y4772378D02*
X723547Y4772378D01*
X723547Y4828822D01*
X444500Y-482600D02*
X444500Y-736600D01*
X444500Y-482600D02*
X698500Y-482600D01*
X635000Y-736600D02*
X444500Y-736600D01*
X635000Y-736600D02*
X635000Y-609600D01*
X698500Y-609600D02*
X698500Y-736600D01*
X698500Y-609600D02*
X635000Y-609600D01*
X698500Y-482600D02*
X698500Y-228600D01*
X444500Y-228600D02*
X444500Y25400D01*
X635000Y25400D01*
X635000Y-101600D02*
X698500Y-101600D01*
X635000Y-101600D02*
X635000Y25400D01*
X698500Y-228600D02*
X444500Y-228600D01*
X698500Y-101600D02*
X698500Y25400D01*
X812800Y25400D01*
X812800Y-736600D02*
X698500Y-736600D01*
X812800Y-736600D02*
X812800Y25400D01*
X447675Y-1371600D02*
X447675Y-1625600D01*
X447675Y-1371600D02*
X701675Y-1371600D01*
X638175Y-1625600D02*
X447675Y-1625600D01*
X638175Y-1625600D02*
X638175Y-1498600D01*
X701675Y-1498600D02*
X701675Y-1625600D01*
X701675Y-1498600D02*
X638175Y-1498600D01*
X701675Y-1371600D02*
X701675Y-1117600D01*
X447675Y-1117600D02*
X447675Y-863600D01*
X638175Y-863600D01*
X638175Y-990600D02*
X701675Y-990600D01*
X638175Y-990600D02*
X638175Y-863600D01*
X701675Y-1117600D02*
X447675Y-1117600D01*
X701675Y-990600D02*
X701675Y-863600D01*
X815975Y-863600D01*
X815975Y-1625600D02*
X701675Y-1625600D01*
X815975Y-1625600D02*
X815975Y-863600D01*
X450850Y-2260600D02*
X450850Y-2514600D01*
X450850Y-2260600D02*
X704850Y-2260600D01*
X641350Y-2514600D02*
X450850Y-2514600D01*
X641350Y-2514600D02*
X641350Y-2387600D01*
X704850Y-2387600D02*
X704850Y-2514600D01*
X704850Y-2387600D02*
X641350Y-2387600D01*
X704850Y-2260600D02*
X704850Y-2006600D01*
X450850Y-2006600D02*
X450850Y-1752600D01*
X641350Y-1752600D01*
X641350Y-1879600D02*
X704850Y-1879600D01*
X641350Y-1879600D02*
X641350Y-1752600D01*
X704850Y-2006600D02*
X450850Y-2006600D01*
X704850Y-1879600D02*
X704850Y-1752600D01*
X819150Y-1752600D01*
X819150Y-2514600D02*
X704850Y-2514600D01*
X819150Y-2514600D02*
X819150Y-1752600D01*
X454025Y-3149600D02*
X454025Y-3403600D01*
X454025Y-3149600D02*
X708025Y-3149600D01*
X644525Y-3403600D02*
X454025Y-3403600D01*
X644525Y-3403600D02*
X644525Y-3276600D01*
X708025Y-3276600D02*
X708025Y-3403600D01*
X708025Y-3276600D02*
X644525Y-3276600D01*
X708025Y-3149600D02*
X708025Y-2895600D01*
X454025Y-2895600D02*
X454025Y-2641600D01*
X644525Y-2641600D01*
X644525Y-2768600D02*
X708025Y-2768600D01*
X644525Y-2768600D02*
X644525Y-2641600D01*
X708025Y-2895600D02*
X454025Y-2895600D01*
X708025Y-2768600D02*
X708025Y-2641600D01*
X822325Y-2641600D01*
X822325Y-3403600D02*
X708025Y-3403600D01*
X822325Y-3403600D02*
X822325Y-2641600D01*
X457200Y-4038600D02*
X457200Y-4292600D01*
X457200Y-4038600D02*
X711200Y-4038600D01*
X647700Y-4292600D02*
X457200Y-4292600D01*
X647700Y-4292600D02*
X647700Y-4165600D01*
X711200Y-4165600D02*
X711200Y-4292600D01*
X711200Y-4165600D02*
X647700Y-4165600D01*
X711200Y-4038600D02*
X711200Y-3784600D01*
X457200Y-3784600D02*
X457200Y-3530600D01*
X647700Y-3530600D01*
X647700Y-3657600D02*
X711200Y-3657600D01*
X647700Y-3657600D02*
X647700Y-3530600D01*
X711200Y-3784600D02*
X457200Y-3784600D01*
X711200Y-3657600D02*
X711200Y-3530600D01*
X825500Y-3530600D01*
X825500Y-4292600D02*
X711200Y-4292600D01*
X825500Y-4292600D02*
X825500Y-3530600D01*
X850900Y-3530600D02*
X850900Y-4292600D01*
X850900Y-3530600D02*
X965200Y-3530600D01*
X965200Y-4292600D02*
X850900Y-4292600D01*
X965200Y-4292600D02*
X965200Y-4165600D01*
X965200Y-3657600D02*
X1028700Y-3657600D01*
X965200Y-3657600D02*
X965200Y-3530600D01*
X1028700Y-4165600D02*
X1028700Y-4292600D01*
X1028700Y-4165600D02*
X965200Y-4165600D01*
X1028700Y-3657600D02*
X1028700Y-3530600D01*
X1219200Y-3530600D01*
X1219200Y-4292600D02*
X1028700Y-4292600D01*
X965200Y-4038600D02*
X1219200Y-4038600D01*
X965200Y-4038600D02*
X965200Y-3784600D01*
X1219200Y-4038600D02*
X1219200Y-4292600D01*
X1219200Y-3784600D02*
X965200Y-3784600D01*
X1219200Y-3784600D02*
X1219200Y-3530600D01*
X854075Y-3403600D02*
X854075Y-2641600D01*
X968375Y-2641600D01*
X968375Y-3403600D02*
X854075Y-3403600D01*
X968375Y-3403600D02*
X968375Y-3276600D01*
X968375Y-2768600D02*
X1031875Y-2768600D01*
X968375Y-2768600D02*
X968375Y-2641600D01*
X1031875Y-3276600D02*
X1031875Y-3403600D01*
X1031875Y-3276600D02*
X968375Y-3276600D01*
X1031875Y-2768600D02*
X1031875Y-2641600D01*
X1222375Y-2641600D01*
X1222375Y-3403600D02*
X1031875Y-3403600D01*
X968375Y-3149600D02*
X1222375Y-3149600D01*
X968375Y-3149600D02*
X968375Y-2895600D01*
X1222375Y-3149600D02*
X1222375Y-3403600D01*
X1222375Y-2895600D02*
X968375Y-2895600D01*
X1222375Y-2895600D02*
X1222375Y-2641600D01*
X857250Y-2514600D02*
X857250Y-1752600D01*
X971550Y-1752600D01*
X971550Y-2514600D02*
X857250Y-2514600D01*
X971550Y-2514600D02*
X971550Y-2387600D01*
X971550Y-1879600D02*
X1035050Y-1879600D01*
X971550Y-1879600D02*
X971550Y-1752600D01*
X1035050Y-2387600D02*
X1035050Y-2514600D01*
X1035050Y-2387600D02*
X971550Y-2387600D01*
X1035050Y-1879600D02*
X1035050Y-1752600D01*
X1225550Y-1752600D01*
X1225550Y-2514600D02*
X1035050Y-2514600D01*
X971550Y-2260600D02*
X1225550Y-2260600D01*
X971550Y-2260600D02*
X971550Y-2006600D01*
X1225550Y-2260600D02*
X1225550Y-2514600D01*
X1225550Y-2006600D02*
X971550Y-2006600D01*
X1225550Y-2006600D02*
X1225550Y-1752600D01*
X860425Y-1625600D02*
X860425Y-863600D01*
X974725Y-863600D01*
X974725Y-1625600D02*
X860425Y-1625600D01*
X974725Y-1625600D02*
X974725Y-1498600D01*
X974725Y-990600D02*
X1038225Y-990600D01*
X974725Y-990600D02*
X974725Y-863600D01*
X1038225Y-1498600D02*
X1038225Y-1625600D01*
X1038225Y-1498600D02*
X974725Y-1498600D01*
X1038225Y-990600D02*
X1038225Y-863600D01*
X1228725Y-863600D01*
X1228725Y-1625600D02*
X1038225Y-1625600D01*
X974725Y-1371600D02*
X1228725Y-1371600D01*
X974725Y-1371600D02*
X974725Y-1117600D01*
X1228725Y-1371600D02*
X1228725Y-1625600D01*
X1228725Y-1117600D02*
X974725Y-1117600D01*
X1228725Y-1117600D02*
X1228725Y-863600D01*
X863600Y-736600D02*
X863600Y25400D01*
X977900Y25400D01*
X977900Y-736600D02*
X863600Y-736600D01*
X977900Y-736600D02*
X977900Y-609600D01*
X977900Y-101600D02*
X1041400Y-101600D01*
X977900Y-101600D02*
X977900Y25400D01*
X1041400Y-609600D02*
X1041400Y-736600D01*
X1041400Y-609600D02*
X977900Y-609600D01*
X1041400Y-101600D02*
X1041400Y25400D01*
X1231900Y25400D01*
X1231900Y-736600D02*
X1041400Y-736600D01*
X977900Y-482600D02*
X1231900Y-482600D01*
X977900Y-482600D02*
X977900Y-228600D01*
X1231900Y-482600D02*
X1231900Y-736600D01*
X1231900Y-228600D02*
X977900Y-228600D01*
X1231900Y-228600D02*
X1231900Y25400D01*
X866775Y152400D02*
X866775Y914400D01*
X981075Y914400D01*
X981075Y152400D02*
X866775Y152400D01*
X981075Y152400D02*
X981075Y279400D01*
X981075Y787400D02*
X1044575Y787400D01*
X981075Y787400D02*
X981075Y914400D01*
X1044575Y279400D02*
X1044575Y152400D01*
X1044575Y279400D02*
X981075Y279400D01*
X1044575Y787400D02*
X1044575Y914400D01*
X1235075Y914400D01*
X1235075Y152400D02*
X1044575Y152400D01*
X981075Y406400D02*
X1235075Y406400D01*
X981075Y406400D02*
X981075Y660400D01*
X1235075Y406400D02*
X1235075Y152400D01*
X1235075Y660400D02*
X981075Y660400D01*
X1235075Y660400D02*
X1235075Y914400D01*
X869950Y1041400D02*
X869950Y1803400D01*
X984250Y1803400D01*
X984250Y1041400D02*
X869950Y1041400D01*
X984250Y1041400D02*
X984250Y1168400D01*
X984250Y1676400D02*
X1047750Y1676400D01*
X984250Y1676400D02*
X984250Y1803400D01*
X1047750Y1168400D02*
X1047750Y1041400D01*
X1047750Y1168400D02*
X984250Y1168400D01*
X1047750Y1676400D02*
X1047750Y1803400D01*
X1238250Y1803400D01*
X1238250Y1041400D02*
X1047750Y1041400D01*
X984250Y1295400D02*
X1238250Y1295400D01*
X984250Y1295400D02*
X984250Y1549400D01*
X1238250Y1295400D02*
X1238250Y1041400D01*
X1238250Y1549400D02*
X984250Y1549400D01*
X1238250Y1549400D02*
X1238250Y1803400D01*
X873125Y1930400D02*
X873125Y2692400D01*
X987425Y2692400D01*
X987425Y1930400D02*
X873125Y1930400D01*
X987425Y1930400D02*
X987425Y2057400D01*
X987425Y2565400D02*
X1050925Y2565400D01*
X987425Y2565400D02*
X987425Y2692400D01*
X1050925Y2057400D02*
X1050925Y1930400D01*
X1050925Y2057400D02*
X987425Y2057400D01*
X1050925Y2565400D02*
X1050925Y2692400D01*
X1241425Y2692400D01*
X1241425Y1930400D02*
X1050925Y1930400D01*
X987425Y2184400D02*
X1241425Y2184400D01*
X987425Y2184400D02*
X987425Y2438400D01*
X1241425Y2184400D02*
X1241425Y1930400D01*
X1241425Y2438400D02*
X987425Y2438400D01*
X1241425Y2438400D02*
X1241425Y2692400D01*
X876300Y2819400D02*
X876300Y3581400D01*
X990600Y3581400D01*
X990600Y2819400D02*
X876300Y2819400D01*
X990600Y2819400D02*
X990600Y2946400D01*
X990600Y3454400D02*
X1054100Y3454400D01*
X990600Y3454400D02*
X990600Y3581400D01*
X1054100Y2946400D02*
X1054100Y2819400D01*
X1054100Y2946400D02*
X990600Y2946400D01*
X1054100Y3454400D02*
X1054100Y3581400D01*
X1244600Y3581400D01*
X1244600Y2819400D02*
X1054100Y2819400D01*
X990600Y3073400D02*
X1244600Y3073400D01*
X990600Y3073400D02*
X990600Y3327400D01*
X1244600Y3073400D02*
X1244600Y2819400D01*
X1244600Y3327400D02*
X990600Y3327400D01*
X1244600Y3327400D02*
X1244600Y3581400D01*
X879475Y3708400D02*
X879475Y4470400D01*
X993775Y4470400D01*
X993775Y3708400D02*
X879475Y3708400D01*
X993775Y3708400D02*
X993775Y3835400D01*
X993775Y4343400D02*
X1057275Y4343400D01*
X993775Y4343400D02*
X993775Y4470400D01*
X1057275Y3835400D02*
X1057275Y3708400D01*
X1057275Y3835400D02*
X993775Y3835400D01*
X1057275Y4343400D02*
X1057275Y4470400D01*
X1247775Y4470400D01*
X1247775Y3708400D02*
X1057275Y3708400D01*
X993775Y3962400D02*
X1247775Y3962400D01*
X993775Y3962400D02*
X993775Y4216400D01*
X1247775Y3962400D02*
X1247775Y3708400D01*
X1247775Y4216400D02*
X993775Y4216400D01*
X1247775Y4216400D02*
X1247775Y4470400D01*
X892881Y4659489D02*
X892881Y4715933D01*
X1118658Y4715933D01*
X1118658Y4659489D02*
X892881Y4659489D01*
X1118658Y4659489D02*
X1118658Y4715933D01*
X1118658Y4828822D01*
X892881Y4828822D02*
X892881Y5054600D01*
X1175103Y5054600D01*
X1118658Y4828822D02*
X892881Y4828822D01*
X1118658Y4828822D02*
X1175103Y4828822D01*
X1118658Y4885267D02*
X949325Y4885267D01*
X949325Y4998156D01*
X1118658Y4885267D02*
X1118658Y4828822D01*
X1118658Y4715933D02*
X1175103Y4715933D01*
X1175103Y4828822D01*
X1175103Y4998156D02*
X949325Y4998156D01*
X1175103Y4998156D02*
X1175103Y5054600D01*
X1355725Y3962400D02*
X1355725Y3708400D01*
X1355725Y3962400D02*
X1609725Y3962400D01*
X1546225Y3708400D02*
X1355725Y3708400D01*
X1546225Y3708400D02*
X1546225Y3835400D01*
X1609725Y3835400D02*
X1609725Y3708400D01*
X1609725Y3835400D02*
X1546225Y3835400D01*
X1609725Y3962400D02*
X1609725Y4216400D01*
X1355725Y4216400D02*
X1355725Y4470400D01*
X1546225Y4470400D01*
X1546225Y4343400D02*
X1609725Y4343400D01*
X1546225Y4343400D02*
X1546225Y4470400D01*
X1609725Y4216400D02*
X1355725Y4216400D01*
X1609725Y4343400D02*
X1609725Y4470400D01*
X1736725Y4470400D01*
X1736725Y3708400D02*
X1609725Y3708400D01*
X1736725Y3708400D02*
X1736725Y4470400D01*
X1358900Y3073400D02*
X1358900Y2819400D01*
X1358900Y3073400D02*
X1612900Y3073400D01*
X1549400Y2819400D02*
X1358900Y2819400D01*
X1549400Y2819400D02*
X1549400Y2946400D01*
X1612900Y2946400D02*
X1612900Y2819400D01*
X1612900Y2946400D02*
X1549400Y2946400D01*
X1612900Y3073400D02*
X1612900Y3327400D01*
X1358900Y3327400D02*
X1358900Y3581400D01*
X1549400Y3581400D01*
X1549400Y3454400D02*
X1612900Y3454400D01*
X1549400Y3454400D02*
X1549400Y3581400D01*
X1612900Y3327400D02*
X1358900Y3327400D01*
X1612900Y3454400D02*
X1612900Y3581400D01*
X1739900Y3581400D01*
X1739900Y2819400D02*
X1612900Y2819400D01*
X1739900Y2819400D02*
X1739900Y3581400D01*
X1362075Y2184400D02*
X1362075Y1930400D01*
X1362075Y2184400D02*
X1616075Y2184400D01*
X1552575Y1930400D02*
X1362075Y1930400D01*
X1552575Y1930400D02*
X1552575Y2057400D01*
X1616075Y2057400D02*
X1616075Y1930400D01*
X1616075Y2057400D02*
X1552575Y2057400D01*
X1616075Y2184400D02*
X1616075Y2438400D01*
X1362075Y2438400D02*
X1362075Y2692400D01*
X1552575Y2692400D01*
X1552575Y2565400D02*
X1616075Y2565400D01*
X1552575Y2565400D02*
X1552575Y2692400D01*
X1616075Y2438400D02*
X1362075Y2438400D01*
X1616075Y2565400D02*
X1616075Y2692400D01*
X1743075Y2692400D01*
X1743075Y1930400D02*
X1616075Y1930400D01*
X1743075Y1930400D02*
X1743075Y2692400D01*
X1365250Y1295400D02*
X1365250Y1041400D01*
X1365250Y1295400D02*
X1619250Y1295400D01*
X1555750Y1041400D02*
X1365250Y1041400D01*
X1555750Y1041400D02*
X1555750Y1168400D01*
X1619250Y1168400D02*
X1619250Y1041400D01*
X1619250Y1168400D02*
X1555750Y1168400D01*
X1619250Y1295400D02*
X1619250Y1549400D01*
X1365250Y1549400D02*
X1365250Y1803400D01*
X1555750Y1803400D01*
X1555750Y1676400D02*
X1619250Y1676400D01*
X1555750Y1676400D02*
X1555750Y1803400D01*
X1619250Y1549400D02*
X1365250Y1549400D01*
X1619250Y1676400D02*
X1619250Y1803400D01*
X1746250Y1803400D01*
X1746250Y1041400D02*
X1619250Y1041400D01*
X1746250Y1041400D02*
X1746250Y1803400D01*
X1368425Y406400D02*
X1368425Y152400D01*
X1368425Y406400D02*
X1622425Y406400D01*
X1558925Y152400D02*
X1368425Y152400D01*
X1558925Y152400D02*
X1558925Y279400D01*
X1622425Y279400D02*
X1622425Y152400D01*
X1622425Y279400D02*
X1558925Y279400D01*
X1622425Y406400D02*
X1622425Y660400D01*
X1368425Y660400D02*
X1368425Y914400D01*
X1558925Y914400D01*
X1558925Y787400D02*
X1622425Y787400D01*
X1558925Y787400D02*
X1558925Y914400D01*
X1622425Y660400D02*
X1368425Y660400D01*
X1622425Y787400D02*
X1622425Y914400D01*
X1749425Y914400D01*
X1749425Y152400D02*
X1622425Y152400D01*
X1749425Y152400D02*
X1749425Y914400D01*
X1371600Y-482600D02*
X1371600Y-736600D01*
X1371600Y-482600D02*
X1625600Y-482600D01*
X1562100Y-736600D02*
X1371600Y-736600D01*
X1562100Y-736600D02*
X1562100Y-609600D01*
X1625600Y-609600D02*
X1625600Y-736600D01*
X1625600Y-609600D02*
X1562100Y-609600D01*
X1625600Y-482600D02*
X1625600Y-228600D01*
X1371600Y-228600D02*
X1371600Y25400D01*
X1562100Y25400D01*
X1562100Y-101600D02*
X1625600Y-101600D01*
X1562100Y-101600D02*
X1562100Y25400D01*
X1625600Y-228600D02*
X1371600Y-228600D01*
X1625600Y-101600D02*
X1625600Y25400D01*
X1752600Y25400D01*
X1752600Y-736600D02*
X1625600Y-736600D01*
X1752600Y-736600D02*
X1752600Y25400D01*
X1374775Y-1371600D02*
X1374775Y-1625600D01*
X1374775Y-1371600D02*
X1628775Y-1371600D01*
X1565275Y-1625600D02*
X1374775Y-1625600D01*
X1565275Y-1625600D02*
X1565275Y-1498600D01*
X1628775Y-1498600D02*
X1628775Y-1625600D01*
X1628775Y-1498600D02*
X1565275Y-1498600D01*
X1628775Y-1371600D02*
X1628775Y-1117600D01*
X1374775Y-1117600D02*
X1374775Y-863600D01*
X1565275Y-863600D01*
X1565275Y-990600D02*
X1628775Y-990600D01*
X1565275Y-990600D02*
X1565275Y-863600D01*
X1628775Y-1117600D02*
X1374775Y-1117600D01*
X1628775Y-990600D02*
X1628775Y-863600D01*
X1755775Y-863600D01*
X1755775Y-1625600D02*
X1628775Y-1625600D01*
X1755775Y-1625600D02*
X1755775Y-863600D01*
X1377950Y-2260600D02*
X1377950Y-2514600D01*
X1377950Y-2260600D02*
X1631950Y-2260600D01*
X1568450Y-2514600D02*
X1377950Y-2514600D01*
X1568450Y-2514600D02*
X1568450Y-2387600D01*
X1631950Y-2387600D02*
X1631950Y-2514600D01*
X1631950Y-2387600D02*
X1568450Y-2387600D01*
X1631950Y-2260600D02*
X1631950Y-2006600D01*
X1377950Y-2006600D02*
X1377950Y-1752600D01*
X1568450Y-1752600D01*
X1568450Y-1879600D02*
X1631950Y-1879600D01*
X1568450Y-1879600D02*
X1568450Y-1752600D01*
X1631950Y-2006600D02*
X1377950Y-2006600D01*
X1631950Y-1879600D02*
X1631950Y-1752600D01*
X1758950Y-1752600D01*
X1758950Y-2514600D02*
X1631950Y-2514600D01*
X1758950Y-2514600D02*
X1758950Y-1752600D01*
X1381125Y-3149600D02*
X1381125Y-3403600D01*
X1381125Y-3149600D02*
X1635125Y-3149600D01*
X1571625Y-3403600D02*
X1381125Y-3403600D01*
X1571625Y-3403600D02*
X1571625Y-3276600D01*
X1635125Y-3276600D02*
X1635125Y-3403600D01*
X1635125Y-3276600D02*
X1571625Y-3276600D01*
X1635125Y-3149600D02*
X1635125Y-2895600D01*
X1381125Y-2895600D02*
X1381125Y-2641600D01*
X1571625Y-2641600D01*
X1571625Y-2768600D02*
X1635125Y-2768600D01*
X1571625Y-2768600D02*
X1571625Y-2641600D01*
X1635125Y-2895600D02*
X1381125Y-2895600D01*
X1635125Y-2768600D02*
X1635125Y-2641600D01*
X1762125Y-2641600D01*
X1762125Y-3403600D02*
X1635125Y-3403600D01*
X1762125Y-3403600D02*
X1762125Y-2641600D01*
X1381125Y4659489D02*
X1381125Y4715933D01*
X1606903Y4715933D01*
X1606903Y4659489D02*
X1381125Y4659489D01*
X1606903Y4659489D02*
X1606903Y4715933D01*
X1606903Y4828822D01*
X1381125Y4828822D02*
X1381125Y5054600D01*
X1663347Y5054600D01*
X1606903Y4828822D02*
X1381125Y4828822D01*
X1606903Y4828822D02*
X1663347Y4828822D01*
X1606903Y4885267D02*
X1437569Y4885267D01*
X1437569Y4998156D01*
X1606903Y4885267D02*
X1606903Y4828822D01*
X1606903Y4715933D02*
X1663347Y4715933D01*
X1663347Y4828822D01*
X1663347Y4998156D02*
X1437569Y4998156D01*
X1663347Y4998156D02*
X1663347Y5054600D01*
X1384300Y-4038600D02*
X1384300Y-4292600D01*
X1384300Y-4038600D02*
X1638300Y-4038600D01*
X1574800Y-4292600D02*
X1384300Y-4292600D01*
X1574800Y-4292600D02*
X1574800Y-4165600D01*
X1638300Y-4165600D02*
X1638300Y-4292600D01*
X1638300Y-4165600D02*
X1574800Y-4165600D01*
X1638300Y-4038600D02*
X1638300Y-3784600D01*
X1384300Y-3784600D02*
X1384300Y-3530600D01*
X1574800Y-3530600D01*
X1574800Y-3657600D02*
X1638300Y-3657600D01*
X1574800Y-3657600D02*
X1574800Y-3530600D01*
X1638300Y-3784600D02*
X1384300Y-3784600D01*
X1638300Y-3657600D02*
X1638300Y-3530600D01*
X1765300Y-3530600D01*
X1765300Y-4292600D02*
X1638300Y-4292600D01*
X1765300Y-4292600D02*
X1765300Y-3530600D01*
X1790700Y-3530600D02*
X1790700Y-4292600D01*
X1790700Y-3530600D02*
X1917700Y-3530600D01*
X1917700Y-4292600D02*
X1790700Y-4292600D01*
X1917700Y-4292600D02*
X1917700Y-4165600D01*
X1917700Y-3657600D02*
X1981200Y-3657600D01*
X1917700Y-3657600D02*
X1917700Y-3530600D01*
X1981200Y-4165600D02*
X1981200Y-4292600D01*
X1981200Y-4165600D02*
X1917700Y-4165600D01*
X1981200Y-3657600D02*
X1981200Y-3530600D01*
X2171700Y-3530600D01*
X2171700Y-4292600D02*
X1981200Y-4292600D01*
X1917700Y-4038600D02*
X2171700Y-4038600D01*
X1917700Y-4038600D02*
X1917700Y-3784600D01*
X2171700Y-4038600D02*
X2171700Y-4292600D01*
X2171700Y-3784600D02*
X1917700Y-3784600D01*
X2171700Y-3784600D02*
X2171700Y-3530600D01*
X1793875Y-3403600D02*
X1793875Y-2641600D01*
X1920875Y-2641600D01*
X1920875Y-3403600D02*
X1793875Y-3403600D01*
X1920875Y-3403600D02*
X1920875Y-3276600D01*
X1920875Y-2768600D02*
X1984375Y-2768600D01*
X1920875Y-2768600D02*
X1920875Y-2641600D01*
X1984375Y-3276600D02*
X1984375Y-3403600D01*
X1984375Y-3276600D02*
X1920875Y-3276600D01*
X1984375Y-2768600D02*
X1984375Y-2641600D01*
X2174875Y-2641600D01*
X2174875Y-3403600D02*
X1984375Y-3403600D01*
X1920875Y-3149600D02*
X2174875Y-3149600D01*
X1920875Y-3149600D02*
X1920875Y-2895600D01*
X2174875Y-3149600D02*
X2174875Y-3403600D01*
X2174875Y-2895600D02*
X1920875Y-2895600D01*
X2174875Y-2895600D02*
X2174875Y-2641600D01*
X1797050Y-2514600D02*
X1797050Y-1752600D01*
X1924050Y-1752600D01*
X1924050Y-2514600D02*
X1797050Y-2514600D01*
X1924050Y-2514600D02*
X1924050Y-2387600D01*
X1924050Y-1879600D02*
X1987550Y-1879600D01*
X1924050Y-1879600D02*
X1924050Y-1752600D01*
X1987550Y-2387600D02*
X1987550Y-2514600D01*
X1987550Y-2387600D02*
X1924050Y-2387600D01*
X1987550Y-1879600D02*
X1987550Y-1752600D01*
X2178050Y-1752600D01*
X2178050Y-2514600D02*
X1987550Y-2514600D01*
X1924050Y-2260600D02*
X2178050Y-2260600D01*
X1924050Y-2260600D02*
X1924050Y-2006600D01*
X2178050Y-2260600D02*
X2178050Y-2514600D01*
X2178050Y-2006600D02*
X1924050Y-2006600D01*
X2178050Y-2006600D02*
X2178050Y-1752600D01*
X1800225Y-1625600D02*
X1800225Y-863600D01*
X1927225Y-863600D01*
X1927225Y-1625600D02*
X1800225Y-1625600D01*
X1927225Y-1625600D02*
X1927225Y-1498600D01*
X1927225Y-990600D02*
X1990725Y-990600D01*
X1927225Y-990600D02*
X1927225Y-863600D01*
X1990725Y-1498600D02*
X1990725Y-1625600D01*
X1990725Y-1498600D02*
X1927225Y-1498600D01*
X1990725Y-990600D02*
X1990725Y-863600D01*
X2181225Y-863600D01*
X2181225Y-1625600D02*
X1990725Y-1625600D01*
X1927225Y-1371600D02*
X2181225Y-1371600D01*
X1927225Y-1371600D02*
X1927225Y-1117600D01*
X2181225Y-1371600D02*
X2181225Y-1625600D01*
X2181225Y-1117600D02*
X1927225Y-1117600D01*
X2181225Y-1117600D02*
X2181225Y-863600D01*
X1803400Y-736600D02*
X1803400Y25400D01*
X1930400Y25400D01*
X1930400Y-736600D02*
X1803400Y-736600D01*
X1930400Y-736600D02*
X1930400Y-609600D01*
X1930400Y-101600D02*
X1993900Y-101600D01*
X1930400Y-101600D02*
X1930400Y25400D01*
X1993900Y-609600D02*
X1993900Y-736600D01*
X1993900Y-609600D02*
X1930400Y-609600D01*
X1993900Y-101600D02*
X1993900Y25400D01*
X2184400Y25400D01*
X2184400Y-736600D02*
X1993900Y-736600D01*
X1930400Y-482600D02*
X2184400Y-482600D01*
X1930400Y-482600D02*
X1930400Y-228600D01*
X2184400Y-482600D02*
X2184400Y-736600D01*
X2184400Y-228600D02*
X1930400Y-228600D01*
X2184400Y-228600D02*
X2184400Y25400D01*
X1806575Y152400D02*
X1806575Y914400D01*
X1933575Y914400D01*
X1933575Y152400D02*
X1806575Y152400D01*
X1933575Y152400D02*
X1933575Y279400D01*
X1933575Y787400D02*
X1997075Y787400D01*
X1933575Y787400D02*
X1933575Y914400D01*
X1997075Y279400D02*
X1997075Y152400D01*
X1997075Y279400D02*
X1933575Y279400D01*
X1997075Y787400D02*
X1997075Y914400D01*
X2187575Y914400D01*
X2187575Y152400D02*
X1997075Y152400D01*
X1933575Y406400D02*
X2187575Y406400D01*
X1933575Y406400D02*
X1933575Y660400D01*
X2187575Y406400D02*
X2187575Y152400D01*
X2187575Y660400D02*
X1933575Y660400D01*
X2187575Y660400D02*
X2187575Y914400D01*
X1809750Y1041400D02*
X1809750Y1803400D01*
X1936750Y1803400D01*
X1936750Y1041400D02*
X1809750Y1041400D01*
X1936750Y1041400D02*
X1936750Y1168400D01*
X1936750Y1676400D02*
X2000250Y1676400D01*
X1936750Y1676400D02*
X1936750Y1803400D01*
X2000250Y1168400D02*
X2000250Y1041400D01*
X2000250Y1168400D02*
X1936750Y1168400D01*
X2000250Y1676400D02*
X2000250Y1803400D01*
X2190750Y1803400D01*
X2190750Y1041400D02*
X2000250Y1041400D01*
X1936750Y1295400D02*
X2190750Y1295400D01*
X1936750Y1295400D02*
X1936750Y1549400D01*
X2190750Y1295400D02*
X2190750Y1041400D01*
X2190750Y1549400D02*
X1936750Y1549400D01*
X2190750Y1549400D02*
X2190750Y1803400D01*
X1812925Y1930400D02*
X1812925Y2692400D01*
X1939925Y2692400D01*
X1939925Y1930400D02*
X1812925Y1930400D01*
X1939925Y1930400D02*
X1939925Y2057400D01*
X1939925Y2565400D02*
X2003425Y2565400D01*
X1939925Y2565400D02*
X1939925Y2692400D01*
X2003425Y2057400D02*
X2003425Y1930400D01*
X2003425Y2057400D02*
X1939925Y2057400D01*
X2003425Y2565400D02*
X2003425Y2692400D01*
X2193925Y2692400D01*
X2193925Y1930400D02*
X2003425Y1930400D01*
X1939925Y2184400D02*
X2193925Y2184400D01*
X1939925Y2184400D02*
X1939925Y2438400D01*
X2193925Y2184400D02*
X2193925Y1930400D01*
X2193925Y2438400D02*
X1939925Y2438400D01*
X2193925Y2438400D02*
X2193925Y2692400D01*
X1816100Y2819400D02*
X1816100Y3581400D01*
X1943100Y3581400D01*
X1943100Y2819400D02*
X1816100Y2819400D01*
X1943100Y2819400D02*
X1943100Y2946400D01*
X1943100Y3454400D02*
X2006600Y3454400D01*
X1943100Y3454400D02*
X1943100Y3581400D01*
X2006600Y2946400D02*
X2006600Y2819400D01*
X2006600Y2946400D02*
X1943100Y2946400D01*
X2006600Y3454400D02*
X2006600Y3581400D01*
X2197100Y3581400D01*
X2197100Y2819400D02*
X2006600Y2819400D01*
X1943100Y3073400D02*
X2197100Y3073400D01*
X1943100Y3073400D02*
X1943100Y3327400D01*
X2197100Y3073400D02*
X2197100Y2819400D01*
X2197100Y3327400D02*
X1943100Y3327400D01*
X2197100Y3327400D02*
X2197100Y3581400D01*
X1819275Y3708400D02*
X1819275Y4470400D01*
X1946275Y4470400D01*
X1946275Y3708400D02*
X1819275Y3708400D01*
X1946275Y3708400D02*
X1946275Y3835400D01*
X1946275Y4343400D02*
X2009775Y4343400D01*
X1946275Y4343400D02*
X1946275Y4470400D01*
X2009775Y3835400D02*
X2009775Y3708400D01*
X2009775Y3835400D02*
X1946275Y3835400D01*
X2009775Y4343400D02*
X2009775Y4470400D01*
X2200275Y4470400D01*
X2200275Y3708400D02*
X2009775Y3708400D01*
X1946275Y3962400D02*
X2200275Y3962400D01*
X1946275Y3962400D02*
X1946275Y4216400D01*
X2200275Y3962400D02*
X2200275Y3708400D01*
X2200275Y4216400D02*
X1946275Y4216400D01*
X2200275Y4216400D02*
X2200275Y4470400D01*
X1832681Y4715933D02*
X1832681Y4998156D01*
X1889125Y4998156D01*
X1889125Y4715933D02*
X1889125Y4659489D01*
X1889125Y4715933D02*
X1832681Y4715933D01*
X1889125Y4715933D02*
X2058458Y4715933D01*
X1889125Y4715933D02*
X1889125Y4772378D01*
X1889125Y4828822D02*
X1945569Y4828822D01*
X1889125Y4828822D02*
X1889125Y4998156D01*
X1889125Y5054600D01*
X2058458Y5054600D01*
X1945569Y4772378D02*
X1889125Y4772378D01*
X1945569Y4772378D02*
X1945569Y4828822D01*
X1945569Y4885267D01*
X2002014Y4885267D01*
X2002014Y4828822D02*
X1945569Y4828822D01*
X2002014Y4828822D02*
X2002014Y4885267D01*
X2002014Y4941711D01*
X2058458Y4941711D01*
X2058458Y4659489D02*
X1889125Y4659489D01*
X2058458Y4659489D02*
X2058458Y4715933D01*
X2058458Y4885267D01*
X2002014Y4885267D01*
X2058458Y4941711D02*
X2058458Y4998156D01*
X1889125Y4998156D01*
X2058458Y4998156D02*
X2114903Y4998156D01*
X2058458Y4998156D02*
X2058458Y5054600D01*
X2058458Y4715933D02*
X2114903Y4715933D01*
X2114903Y4998156D01*
X2282825Y3962400D02*
X2282825Y3708400D01*
X2282825Y3962400D02*
X2536825Y3962400D01*
X2473325Y3708400D02*
X2282825Y3708400D01*
X2473325Y3708400D02*
X2473325Y3835400D01*
X2536825Y3835400D02*
X2536825Y3708400D01*
X2536825Y3835400D02*
X2473325Y3835400D01*
X2536825Y3962400D02*
X2536825Y4216400D01*
X2282825Y4216400D02*
X2282825Y4470400D01*
X2473325Y4470400D01*
X2473325Y4343400D02*
X2536825Y4343400D01*
X2473325Y4343400D02*
X2473325Y4470400D01*
X2536825Y4216400D02*
X2282825Y4216400D01*
X2536825Y4343400D02*
X2536825Y4470400D01*
X2676525Y4470400D01*
X2676525Y3708400D02*
X2536825Y3708400D01*
X2676525Y3708400D02*
X2676525Y4470400D01*
X2286000Y3073400D02*
X2286000Y2819400D01*
X2286000Y3073400D02*
X2540000Y3073400D01*
X2476500Y2819400D02*
X2286000Y2819400D01*
X2476500Y2819400D02*
X2476500Y2946400D01*
X2540000Y2946400D02*
X2540000Y2819400D01*
X2540000Y2946400D02*
X2476500Y2946400D01*
X2540000Y3073400D02*
X2540000Y3327400D01*
X2286000Y3327400D02*
X2286000Y3581400D01*
X2476500Y3581400D01*
X2476500Y3454400D02*
X2540000Y3454400D01*
X2476500Y3454400D02*
X2476500Y3581400D01*
X2540000Y3327400D02*
X2286000Y3327400D01*
X2540000Y3454400D02*
X2540000Y3581400D01*
X2679700Y3581400D01*
X2679700Y2819400D02*
X2540000Y2819400D01*
X2679700Y2819400D02*
X2679700Y3581400D01*
X2289175Y2184400D02*
X2289175Y1930400D01*
X2289175Y2184400D02*
X2543175Y2184400D01*
X2479675Y1930400D02*
X2289175Y1930400D01*
X2479675Y1930400D02*
X2479675Y2057400D01*
X2543175Y2057400D02*
X2543175Y1930400D01*
X2543175Y2057400D02*
X2479675Y2057400D01*
X2543175Y2184400D02*
X2543175Y2438400D01*
X2289175Y2438400D02*
X2289175Y2692400D01*
X2479675Y2692400D01*
X2479675Y2565400D02*
X2543175Y2565400D01*
X2479675Y2565400D02*
X2479675Y2692400D01*
X2543175Y2438400D02*
X2289175Y2438400D01*
X2543175Y2565400D02*
X2543175Y2692400D01*
X2682875Y2692400D01*
X2682875Y1930400D02*
X2543175Y1930400D01*
X2682875Y1930400D02*
X2682875Y2692400D01*
X2292350Y1295400D02*
X2292350Y1041400D01*
X2292350Y1295400D02*
X2546350Y1295400D01*
X2482850Y1041400D02*
X2292350Y1041400D01*
X2482850Y1041400D02*
X2482850Y1168400D01*
X2546350Y1168400D02*
X2546350Y1041400D01*
X2546350Y1168400D02*
X2482850Y1168400D01*
X2546350Y1295400D02*
X2546350Y1549400D01*
X2292350Y1549400D02*
X2292350Y1803400D01*
X2482850Y1803400D01*
X2482850Y1676400D02*
X2546350Y1676400D01*
X2482850Y1676400D02*
X2482850Y1803400D01*
X2546350Y1549400D02*
X2292350Y1549400D01*
X2546350Y1676400D02*
X2546350Y1803400D01*
X2686050Y1803400D01*
X2686050Y1041400D02*
X2546350Y1041400D01*
X2686050Y1041400D02*
X2686050Y1803400D01*
X2295525Y406400D02*
X2295525Y152400D01*
X2295525Y406400D02*
X2549525Y406400D01*
X2486025Y152400D02*
X2295525Y152400D01*
X2486025Y152400D02*
X2486025Y279400D01*
X2549525Y279400D02*
X2549525Y152400D01*
X2549525Y279400D02*
X2486025Y279400D01*
X2549525Y406400D02*
X2549525Y660400D01*
X2295525Y660400D02*
X2295525Y914400D01*
X2486025Y914400D01*
X2486025Y787400D02*
X2549525Y787400D01*
X2486025Y787400D02*
X2486025Y914400D01*
X2549525Y660400D02*
X2295525Y660400D01*
X2549525Y787400D02*
X2549525Y914400D01*
X2689225Y914400D01*
X2689225Y152400D02*
X2549525Y152400D01*
X2689225Y152400D02*
X2689225Y914400D01*
X2298700Y-482600D02*
X2298700Y-736600D01*
X2298700Y-482600D02*
X2552700Y-482600D01*
X2489200Y-736600D02*
X2298700Y-736600D01*
X2489200Y-736600D02*
X2489200Y-609600D01*
X2552700Y-609600D02*
X2552700Y-736600D01*
X2552700Y-609600D02*
X2489200Y-609600D01*
X2552700Y-482600D02*
X2552700Y-228600D01*
X2298700Y-228600D02*
X2298700Y25400D01*
X2489200Y25400D01*
X2489200Y-101600D02*
X2552700Y-101600D01*
X2489200Y-101600D02*
X2489200Y25400D01*
X2552700Y-228600D02*
X2298700Y-228600D01*
X2552700Y-101600D02*
X2552700Y25400D01*
X2692400Y25400D01*
X2692400Y-736600D02*
X2552700Y-736600D01*
X2692400Y-736600D02*
X2692400Y25400D01*
X2301875Y-1371600D02*
X2301875Y-1625600D01*
X2301875Y-1371600D02*
X2555875Y-1371600D01*
X2492375Y-1625600D02*
X2301875Y-1625600D01*
X2492375Y-1625600D02*
X2492375Y-1498600D01*
X2555875Y-1498600D02*
X2555875Y-1625600D01*
X2555875Y-1498600D02*
X2492375Y-1498600D01*
X2555875Y-1371600D02*
X2555875Y-1117600D01*
X2301875Y-1117600D02*
X2301875Y-863600D01*
X2492375Y-863600D01*
X2492375Y-990600D02*
X2555875Y-990600D01*
X2492375Y-990600D02*
X2492375Y-863600D01*
X2555875Y-1117600D02*
X2301875Y-1117600D01*
X2555875Y-990600D02*
X2555875Y-863600D01*
X2695575Y-863600D01*
X2695575Y-1625600D02*
X2555875Y-1625600D01*
X2695575Y-1625600D02*
X2695575Y-863600D01*
X2305050Y-2260600D02*
X2305050Y-2514600D01*
X2305050Y-2260600D02*
X2559050Y-2260600D01*
X2495550Y-2514600D02*
X2305050Y-2514600D01*
X2495550Y-2514600D02*
X2495550Y-2387600D01*
X2559050Y-2387600D02*
X2559050Y-2514600D01*
X2559050Y-2387600D02*
X2495550Y-2387600D01*
X2559050Y-2260600D02*
X2559050Y-2006600D01*
X2305050Y-2006600D02*
X2305050Y-1752600D01*
X2495550Y-1752600D01*
X2495550Y-1879600D02*
X2559050Y-1879600D01*
X2495550Y-1879600D02*
X2495550Y-1752600D01*
X2559050Y-2006600D02*
X2305050Y-2006600D01*
X2559050Y-1879600D02*
X2559050Y-1752600D01*
X2698750Y-1752600D01*
X2698750Y-2514600D02*
X2559050Y-2514600D01*
X2698750Y-2514600D02*
X2698750Y-1752600D01*
X2308225Y-3149600D02*
X2308225Y-3403600D01*
X2308225Y-3149600D02*
X2562225Y-3149600D01*
X2498725Y-3403600D02*
X2308225Y-3403600D01*
X2498725Y-3403600D02*
X2498725Y-3276600D01*
X2562225Y-3276600D02*
X2562225Y-3403600D01*
X2562225Y-3276600D02*
X2498725Y-3276600D01*
X2562225Y-3149600D02*
X2562225Y-2895600D01*
X2308225Y-2895600D02*
X2308225Y-2641600D01*
X2498725Y-2641600D01*
X2498725Y-2768600D02*
X2562225Y-2768600D01*
X2498725Y-2768600D02*
X2498725Y-2641600D01*
X2562225Y-2895600D02*
X2308225Y-2895600D01*
X2562225Y-2768600D02*
X2562225Y-2641600D01*
X2701925Y-2641600D01*
X2701925Y-3403600D02*
X2562225Y-3403600D01*
X2701925Y-3403600D02*
X2701925Y-2641600D01*
X2311400Y-4038600D02*
X2311400Y-4292600D01*
X2311400Y-4038600D02*
X2565400Y-4038600D01*
X2501900Y-4292600D02*
X2311400Y-4292600D01*
X2501900Y-4292600D02*
X2501900Y-4165600D01*
X2565400Y-4165600D02*
X2565400Y-4292600D01*
X2565400Y-4165600D02*
X2501900Y-4165600D01*
X2565400Y-4038600D02*
X2565400Y-3784600D01*
X2311400Y-3784600D02*
X2311400Y-3530600D01*
X2501900Y-3530600D01*
X2501900Y-3657600D02*
X2565400Y-3657600D01*
X2501900Y-3657600D02*
X2501900Y-3530600D01*
X2565400Y-3784600D02*
X2311400Y-3784600D01*
X2565400Y-3657600D02*
X2565400Y-3530600D01*
X2705100Y-3530600D01*
X2705100Y-4292600D02*
X2565400Y-4292600D01*
X2705100Y-4292600D02*
X2705100Y-3530600D01*
X2320925Y4659489D02*
X2320925Y4715933D01*
X2546703Y4715933D01*
X2546703Y4659489D02*
X2320925Y4659489D01*
X2546703Y4659489D02*
X2546703Y4715933D01*
X2546703Y4828822D01*
X2320925Y4828822D02*
X2320925Y5054600D01*
X2603147Y5054600D01*
X2546703Y4828822D02*
X2320925Y4828822D01*
X2546703Y4828822D02*
X2603147Y4828822D01*
X2546703Y4885267D02*
X2377369Y4885267D01*
X2377369Y4998156D01*
X2546703Y4885267D02*
X2546703Y4828822D01*
X2546703Y4715933D02*
X2603147Y4715933D01*
X2603147Y4828822D01*
X2603147Y4998156D02*
X2377369Y4998156D01*
X2603147Y4998156D02*
X2603147Y5054600D01*
X2730500Y-3530600D02*
X2730500Y-4292600D01*
X2730500Y-3530600D02*
X2870200Y-3530600D01*
X2870200Y-4292600D02*
X2730500Y-4292600D01*
X2870200Y-4292600D02*
X2870200Y-4165600D01*
X2870200Y-3657600D02*
X2933700Y-3657600D01*
X2870200Y-3657600D02*
X2870200Y-3530600D01*
X2933700Y-4165600D02*
X2933700Y-4292600D01*
X2933700Y-4165600D02*
X2870200Y-4165600D01*
X2933700Y-3657600D02*
X2933700Y-3530600D01*
X3124200Y-3530600D01*
X3124200Y-4292600D02*
X2933700Y-4292600D01*
X2870200Y-4038600D02*
X3124200Y-4038600D01*
X2870200Y-4038600D02*
X2870200Y-3784600D01*
X3124200Y-4038600D02*
X3124200Y-4292600D01*
X3124200Y-3784600D02*
X2870200Y-3784600D01*
X3124200Y-3784600D02*
X3124200Y-3530600D01*
X2733675Y-3403600D02*
X2733675Y-2641600D01*
X2873375Y-2641600D01*
X2873375Y-3403600D02*
X2733675Y-3403600D01*
X2873375Y-3403600D02*
X2873375Y-3276600D01*
X2873375Y-2768600D02*
X2936875Y-2768600D01*
X2873375Y-2768600D02*
X2873375Y-2641600D01*
X2936875Y-3276600D02*
X2936875Y-3403600D01*
X2936875Y-3276600D02*
X2873375Y-3276600D01*
X2936875Y-2768600D02*
X2936875Y-2641600D01*
X3127375Y-2641600D01*
X3127375Y-3403600D02*
X2936875Y-3403600D01*
X2873375Y-3149600D02*
X3127375Y-3149600D01*
X2873375Y-3149600D02*
X2873375Y-2895600D01*
X3127375Y-3149600D02*
X3127375Y-3403600D01*
X3127375Y-2895600D02*
X2873375Y-2895600D01*
X3127375Y-2895600D02*
X3127375Y-2641600D01*
X2736850Y-2514600D02*
X2736850Y-1752600D01*
X2876550Y-1752600D01*
X2876550Y-2514600D02*
X2736850Y-2514600D01*
X2876550Y-2514600D02*
X2876550Y-2387600D01*
X2876550Y-1879600D02*
X2940050Y-1879600D01*
X2876550Y-1879600D02*
X2876550Y-1752600D01*
X2940050Y-2387600D02*
X2940050Y-2514600D01*
X2940050Y-2387600D02*
X2876550Y-2387600D01*
X2940050Y-1879600D02*
X2940050Y-1752600D01*
X3130550Y-1752600D01*
X3130550Y-2514600D02*
X2940050Y-2514600D01*
X2876550Y-2260600D02*
X3130550Y-2260600D01*
X2876550Y-2260600D02*
X2876550Y-2006600D01*
X3130550Y-2260600D02*
X3130550Y-2514600D01*
X3130550Y-2006600D02*
X2876550Y-2006600D01*
X3130550Y-2006600D02*
X3130550Y-1752600D01*
X2740025Y-1625600D02*
X2740025Y-863600D01*
X2879725Y-863600D01*
X2879725Y-1625600D02*
X2740025Y-1625600D01*
X2879725Y-1625600D02*
X2879725Y-1498600D01*
X2879725Y-990600D02*
X2943225Y-990600D01*
X2879725Y-990600D02*
X2879725Y-863600D01*
X2943225Y-1498600D02*
X2943225Y-1625600D01*
X2943225Y-1498600D02*
X2879725Y-1498600D01*
X2943225Y-990600D02*
X2943225Y-863600D01*
X3133725Y-863600D01*
X3133725Y-1625600D02*
X2943225Y-1625600D01*
X2879725Y-1371600D02*
X3133725Y-1371600D01*
X2879725Y-1371600D02*
X2879725Y-1117600D01*
X3133725Y-1371600D02*
X3133725Y-1625600D01*
X3133725Y-1117600D02*
X2879725Y-1117600D01*
X3133725Y-1117600D02*
X3133725Y-863600D01*
X2743200Y-736600D02*
X2743200Y25400D01*
X2882900Y25400D01*
X2882900Y-736600D02*
X2743200Y-736600D01*
X2882900Y-736600D02*
X2882900Y-609600D01*
X2882900Y-101600D02*
X2946400Y-101600D01*
X2882900Y-101600D02*
X2882900Y25400D01*
X2946400Y-609600D02*
X2946400Y-736600D01*
X2946400Y-609600D02*
X2882900Y-609600D01*
X2946400Y-101600D02*
X2946400Y25400D01*
X3136900Y25400D01*
X3136900Y-736600D02*
X2946400Y-736600D01*
X2882900Y-482600D02*
X3136900Y-482600D01*
X2882900Y-482600D02*
X2882900Y-228600D01*
X3136900Y-482600D02*
X3136900Y-736600D01*
X3136900Y-228600D02*
X2882900Y-228600D01*
X3136900Y-228600D02*
X3136900Y25400D01*
X2746375Y152400D02*
X2746375Y914400D01*
X2886075Y914400D01*
X2886075Y152400D02*
X2746375Y152400D01*
X2886075Y152400D02*
X2886075Y279400D01*
X2886075Y787400D02*
X2949575Y787400D01*
X2886075Y787400D02*
X2886075Y914400D01*
X2949575Y279400D02*
X2949575Y152400D01*
X2949575Y279400D02*
X2886075Y279400D01*
X2949575Y787400D02*
X2949575Y914400D01*
X3140075Y914400D01*
X3140075Y152400D02*
X2949575Y152400D01*
X2886075Y406400D02*
X3140075Y406400D01*
X2886075Y406400D02*
X2886075Y660400D01*
X3140075Y406400D02*
X3140075Y152400D01*
X3140075Y660400D02*
X2886075Y660400D01*
X3140075Y660400D02*
X3140075Y914400D01*
X2749550Y1041400D02*
X2749550Y1803400D01*
X2889250Y1803400D01*
X2889250Y1041400D02*
X2749550Y1041400D01*
X2889250Y1041400D02*
X2889250Y1168400D01*
X2889250Y1676400D02*
X2952750Y1676400D01*
X2889250Y1676400D02*
X2889250Y1803400D01*
X2952750Y1168400D02*
X2952750Y1041400D01*
X2952750Y1168400D02*
X2889250Y1168400D01*
X2952750Y1676400D02*
X2952750Y1803400D01*
X3143250Y1803400D01*
X3143250Y1041400D02*
X2952750Y1041400D01*
X2889250Y1295400D02*
X3143250Y1295400D01*
X2889250Y1295400D02*
X2889250Y1549400D01*
X3143250Y1295400D02*
X3143250Y1041400D01*
X3143250Y1549400D02*
X2889250Y1549400D01*
X3143250Y1549400D02*
X3143250Y1803400D01*
X2752725Y1930400D02*
X2752725Y2692400D01*
X2892425Y2692400D01*
X2892425Y1930400D02*
X2752725Y1930400D01*
X2892425Y1930400D02*
X2892425Y2057400D01*
X2892425Y2565400D02*
X2955925Y2565400D01*
X2892425Y2565400D02*
X2892425Y2692400D01*
X2955925Y2057400D02*
X2955925Y1930400D01*
X2955925Y2057400D02*
X2892425Y2057400D01*
X2955925Y2565400D02*
X2955925Y2692400D01*
X3146425Y2692400D01*
X3146425Y1930400D02*
X2955925Y1930400D01*
X2892425Y2184400D02*
X3146425Y2184400D01*
X2892425Y2184400D02*
X2892425Y2438400D01*
X3146425Y2184400D02*
X3146425Y1930400D01*
X3146425Y2438400D02*
X2892425Y2438400D01*
X3146425Y2438400D02*
X3146425Y2692400D01*
X2755900Y2819400D02*
X2755900Y3581400D01*
X2895600Y3581400D01*
X2895600Y2819400D02*
X2755900Y2819400D01*
X2895600Y2819400D02*
X2895600Y2946400D01*
X2895600Y3454400D02*
X2959100Y3454400D01*
X2895600Y3454400D02*
X2895600Y3581400D01*
X2959100Y2946400D02*
X2959100Y2819400D01*
X2959100Y2946400D02*
X2895600Y2946400D01*
X2959100Y3454400D02*
X2959100Y3581400D01*
X3149600Y3581400D01*
X3149600Y2819400D02*
X2959100Y2819400D01*
X2895600Y3073400D02*
X3149600Y3073400D01*
X2895600Y3073400D02*
X2895600Y3327400D01*
X3149600Y3073400D02*
X3149600Y2819400D01*
X3149600Y3327400D02*
X2895600Y3327400D01*
X3149600Y3327400D02*
X3149600Y3581400D01*
X2759075Y3708400D02*
X2759075Y4470400D01*
X2898775Y4470400D01*
X2898775Y3708400D02*
X2759075Y3708400D01*
X2898775Y3708400D02*
X2898775Y3835400D01*
X2898775Y4343400D02*
X2962275Y4343400D01*
X2898775Y4343400D02*
X2898775Y4470400D01*
X2962275Y3835400D02*
X2962275Y3708400D01*
X2962275Y3835400D02*
X2898775Y3835400D01*
X2962275Y4343400D02*
X2962275Y4470400D01*
X3152775Y4470400D01*
X3152775Y3708400D02*
X2962275Y3708400D01*
X2898775Y3962400D02*
X3152775Y3962400D01*
X2898775Y3962400D02*
X2898775Y4216400D01*
X3152775Y3962400D02*
X3152775Y3708400D01*
X3152775Y4216400D02*
X2898775Y4216400D01*
X3152775Y4216400D02*
X3152775Y4470400D01*
X2772481Y4659489D02*
X2772481Y4715933D01*
X2998258Y4715933D01*
X2998258Y4659489D02*
X2772481Y4659489D01*
X2998258Y4659489D02*
X2998258Y4715933D01*
X2998258Y4828822D01*
X2772481Y4828822D02*
X2772481Y5054600D01*
X3054703Y5054600D01*
X2998258Y4828822D02*
X2772481Y4828822D01*
X2998258Y4828822D02*
X3054703Y4828822D01*
X2998258Y4885267D02*
X2828925Y4885267D01*
X2828925Y4998156D01*
X2998258Y4885267D02*
X2998258Y4828822D01*
X2998258Y4715933D02*
X3054703Y4715933D01*
X3054703Y4828822D01*
X3054703Y4998156D02*
X2828925Y4998156D01*
X3054703Y4998156D02*
X3054703Y5054600D01*
M02*
