G04 GERBER FILE EXPORTED BY LAYOUTEDITOR (HTTP://WWW.LAYOUTEDITOR.NET)*
%MOMM*%
%FSLAX46Y46*%
%INTop*%
%ADD010C,0.000000*%
D010*
G36*
G01X-5150000Y30000000D02*
X-4400000Y30000000D01*
X-4400000Y30500000D01*
X-4150000Y30500000D01*
X-4150000Y30000000D01*
X-4000000Y30000000D01*
X-4000000Y33000000D01*
X-4150000Y33000000D01*
X-4150000Y32500000D01*
X-4400000Y32500000D01*
X-4400000Y33000000D01*
X-5150000Y33000000D01*
X-5150000Y32000000D01*
X-4150000Y32000000D01*
X-4150000Y31000000D01*
X-5150000Y31000000D01*
X-5150000Y30000000D01*
G37*
G36*
G01X-5200000Y26500000D02*
X-4450000Y26500000D01*
X-4450000Y27000000D01*
X-4200000Y27000000D01*
X-4200000Y26500000D01*
X-4000000Y26500000D01*
X-4000000Y29500000D01*
X-4200000Y29500000D01*
X-4200000Y29000000D01*
X-4450000Y29000000D01*
X-4450000Y29500000D01*
X-5200000Y29500000D01*
X-5200000Y28500000D01*
X-4200000Y28500000D01*
X-4200000Y27500000D01*
X-5200000Y27500000D01*
X-5200000Y26500000D01*
G37*
G36*
G01X-5250000Y23000000D02*
X-4500000Y23000000D01*
X-4500000Y23500000D01*
X-4250000Y23500000D01*
X-4250000Y23000000D01*
X-4000000Y23000000D01*
X-4000000Y26000000D01*
X-4250000Y26000000D01*
X-4250000Y25500000D01*
X-4500000Y25500000D01*
X-4500000Y26000000D01*
X-5250000Y26000000D01*
X-5250000Y25000000D01*
X-4250000Y25000000D01*
X-4250000Y24000000D01*
X-5250000Y24000000D01*
X-5250000Y23000000D01*
G37*
G36*
G01X-5300000Y19500000D02*
X-4550000Y19500000D01*
X-4550000Y20000000D01*
X-4300000Y20000000D01*
X-4300000Y19500000D01*
X-4000000Y19500000D01*
X-4000000Y22500000D01*
X-4300000Y22500000D01*
X-4300000Y22000000D01*
X-4550000Y22000000D01*
X-4550000Y22500000D01*
X-5300000Y22500000D01*
X-5300000Y21500000D01*
X-4300000Y21500000D01*
X-4300000Y20500000D01*
X-5300000Y20500000D01*
X-5300000Y19500000D01*
G37*
G36*
G01X-5350000Y16000000D02*
X-4600000Y16000000D01*
X-4600000Y16500000D01*
X-4350000Y16500000D01*
X-4350000Y16000000D01*
X-4000000Y16000000D01*
X-4000000Y19000000D01*
X-4350000Y19000000D01*
X-4350000Y18500000D01*
X-4600000Y18500000D01*
X-4600000Y19000000D01*
X-5350000Y19000000D01*
X-5350000Y18000000D01*
X-4350000Y18000000D01*
X-4350000Y17000000D01*
X-5350000Y17000000D01*
X-5350000Y16000000D01*
G37*
G36*
G01X-5400000Y12500000D02*
X-4650000Y12500000D01*
X-4650000Y13000000D01*
X-4400000Y13000000D01*
X-4400000Y12500000D01*
X-4000000Y12500000D01*
X-4000000Y15500000D01*
X-4400000Y15500000D01*
X-4400000Y15000000D01*
X-4650000Y15000000D01*
X-4650000Y15500000D01*
X-5400000Y15500000D01*
X-5400000Y14500000D01*
X-4400000Y14500000D01*
X-4400000Y13500000D01*
X-5400000Y13500000D01*
X-5400000Y12500000D01*
G37*
G36*
G01X33400000Y-1500000D02*
X34150000Y-1500000D01*
X34150000Y-1000000D01*
X34400000Y-1000000D01*
X34400000Y-1500000D01*
X35000000Y-1500000D01*
X35000000Y1500000D01*
X34400000Y1500000D01*
X34400000Y1000000D01*
X34150000Y1000000D01*
X34150000Y1500000D01*
X33400000Y1500000D01*
X33400000Y500000D01*
X34400000Y500000D01*
X34400000Y-500000D01*
X33400000Y-500000D01*
X33400000Y-1500000D01*
G37*
G36*
G01X-5600000Y-1500000D02*
X-4850000Y-1500000D01*
X-4850000Y-1000000D01*
X-4600000Y-1000000D01*
X-4600000Y-1500000D01*
X-4000000Y-1500000D01*
X-4000000Y1500000D01*
X-4600000Y1500000D01*
X-4600000Y1000000D01*
X-4850000Y1000000D01*
X-4850000Y1500000D01*
X-5600000Y1500000D01*
X-5600000Y500000D01*
X-4600000Y500000D01*
X-4600000Y-500000D01*
X-5600000Y-500000D01*
X-5600000Y-1500000D01*
G37*
G36*
G01X-5550000Y2000000D02*
X-4800000Y2000000D01*
X-4800000Y2500000D01*
X-4550000Y2500000D01*
X-4550000Y2000000D01*
X-4000000Y2000000D01*
X-4000000Y5000000D01*
X-4550000Y5000000D01*
X-4550000Y4500000D01*
X-4800000Y4500000D01*
X-4800000Y5000000D01*
X-5550000Y5000000D01*
X-5550000Y4000000D01*
X-4550000Y4000000D01*
X-4550000Y3000000D01*
X-5550000Y3000000D01*
X-5550000Y2000000D01*
G37*
G36*
G01X-5500000Y5500000D02*
X-4750000Y5500000D01*
X-4750000Y6000000D01*
X-4500000Y6000000D01*
X-4500000Y5500000D01*
X-4000000Y5500000D01*
X-4000000Y8500000D01*
X-4500000Y8500000D01*
X-4500000Y8000000D01*
X-4750000Y8000000D01*
X-4750000Y8500000D01*
X-5500000Y8500000D01*
X-5500000Y7500000D01*
X-4500000Y7500000D01*
X-4500000Y6500000D01*
X-5500000Y6500000D01*
X-5500000Y5500000D01*
G37*
G36*
G01X-5450000Y9000000D02*
X-4700000Y9000000D01*
X-4700000Y9500000D01*
X-4450000Y9500000D01*
X-4450000Y9000000D01*
X-4000000Y9000000D01*
X-4000000Y12000000D01*
X-4450000Y12000000D01*
X-4450000Y11500000D01*
X-4700000Y11500000D01*
X-4700000Y12000000D01*
X-5450000Y12000000D01*
X-5450000Y11000000D01*
X-4450000Y11000000D01*
X-4450000Y10000000D01*
X-5450000Y10000000D01*
X-5450000Y9000000D01*
G37*
G36*
G01X-1312500Y16000000D02*
X-562500Y16000000D01*
X-562500Y16500000D01*
X-312500Y16500000D01*
X-312500Y16000000D01*
X-162500Y16000000D01*
X-162500Y19000000D01*
X-312500Y19000000D01*
X-312500Y18500000D01*
X-562500Y18500000D01*
X-562500Y19000000D01*
X-1312500Y19000000D01*
X-1312500Y18000000D01*
X-312500Y18000000D01*
X-312500Y17000000D01*
X-1312500Y17000000D01*
X-1312500Y16000000D01*
G37*
G36*
G01X162500Y16000000D02*
X312500Y16000000D01*
X312500Y16500000D01*
X562500Y16500000D01*
X562500Y16000000D01*
X1312500Y16000000D01*
X1312500Y17000000D01*
X312500Y17000000D01*
X312500Y18000000D01*
X1312500Y18000000D01*
X1312500Y19000000D01*
X562500Y19000000D01*
X562500Y18500000D01*
X312500Y18500000D01*
X312500Y19000000D01*
X162500Y19000000D01*
X162500Y16000000D01*
G37*
G36*
G01X2537500Y16000000D02*
X3287500Y16000000D01*
X3287500Y16500000D01*
X3537500Y16500000D01*
X3537500Y16000000D01*
X3737500Y16000000D01*
X3737500Y19000000D01*
X3537500Y19000000D01*
X3537500Y18500000D01*
X3287500Y18500000D01*
X3287500Y19000000D01*
X2537500Y19000000D01*
X2537500Y18000000D01*
X3537500Y18000000D01*
X3537500Y17000000D01*
X2537500Y17000000D01*
X2537500Y16000000D01*
G37*
G36*
G01X4062500Y16000000D02*
X4262500Y16000000D01*
X4262500Y16500000D01*
X4512500Y16500000D01*
X4512500Y16000000D01*
X5262500Y16000000D01*
X5262500Y17000000D01*
X4262500Y17000000D01*
X4262500Y18000000D01*
X5262500Y18000000D01*
X5262500Y19000000D01*
X4512500Y19000000D01*
X4512500Y18500000D01*
X4262500Y18500000D01*
X4262500Y19000000D01*
X4062500Y19000000D01*
X4062500Y16000000D01*
G37*
G36*
G01X6387500Y16000000D02*
X7137500Y16000000D01*
X7137500Y16500000D01*
X7387500Y16500000D01*
X7387500Y16000000D01*
X7637500Y16000000D01*
X7637500Y19000000D01*
X7387500Y19000000D01*
X7387500Y18500000D01*
X7137500Y18500000D01*
X7137500Y19000000D01*
X6387500Y19000000D01*
X6387500Y18000000D01*
X7387500Y18000000D01*
X7387500Y17000000D01*
X6387500Y17000000D01*
X6387500Y16000000D01*
G37*
G36*
G01X7962500Y16000000D02*
X8212500Y16000000D01*
X8212500Y16500000D01*
X8462500Y16500000D01*
X8462500Y16000000D01*
X9212500Y16000000D01*
X9212500Y17000000D01*
X8212500Y17000000D01*
X8212500Y18000000D01*
X9212500Y18000000D01*
X9212500Y19000000D01*
X8462500Y19000000D01*
X8462500Y18500000D01*
X8212500Y18500000D01*
X8212500Y19000000D01*
X7962500Y19000000D01*
X7962500Y16000000D01*
G37*
G36*
G01X10237500Y16000000D02*
X10987500Y16000000D01*
X10987500Y16500000D01*
X11237500Y16500000D01*
X11237500Y16000000D01*
X11537500Y16000000D01*
X11537500Y19000000D01*
X11237500Y19000000D01*
X11237500Y18500000D01*
X10987500Y18500000D01*
X10987500Y19000000D01*
X10237500Y19000000D01*
X10237500Y18000000D01*
X11237500Y18000000D01*
X11237500Y17000000D01*
X10237500Y17000000D01*
X10237500Y16000000D01*
G37*
G36*
G01X11862500Y16000000D02*
X12162500Y16000000D01*
X12162500Y16500000D01*
X12412500Y16500000D01*
X12412500Y16000000D01*
X13162500Y16000000D01*
X13162500Y17000000D01*
X12162500Y17000000D01*
X12162500Y18000000D01*
X13162500Y18000000D01*
X13162500Y19000000D01*
X12412500Y19000000D01*
X12412500Y18500000D01*
X12162500Y18500000D01*
X12162500Y19000000D01*
X11862500Y19000000D01*
X11862500Y16000000D01*
G37*
G36*
G01X14087500Y16000000D02*
X14837500Y16000000D01*
X14837500Y16500000D01*
X15087500Y16500000D01*
X15087500Y16000000D01*
X15437500Y16000000D01*
X15437500Y19000000D01*
X15087500Y19000000D01*
X15087500Y18500000D01*
X14837500Y18500000D01*
X14837500Y19000000D01*
X14087500Y19000000D01*
X14087500Y18000000D01*
X15087500Y18000000D01*
X15087500Y17000000D01*
X14087500Y17000000D01*
X14087500Y16000000D01*
G37*
G36*
G01X15762500Y16000000D02*
X16112500Y16000000D01*
X16112500Y16500000D01*
X16362500Y16500000D01*
X16362500Y16000000D01*
X17112500Y16000000D01*
X17112500Y17000000D01*
X16112500Y17000000D01*
X16112500Y18000000D01*
X17112500Y18000000D01*
X17112500Y19000000D01*
X16362500Y19000000D01*
X16362500Y18500000D01*
X16112500Y18500000D01*
X16112500Y19000000D01*
X15762500Y19000000D01*
X15762500Y16000000D01*
G37*
G36*
G01X17937500Y16000000D02*
X18687500Y16000000D01*
X18687500Y16500000D01*
X18937500Y16500000D01*
X18937500Y16000000D01*
X19337500Y16000000D01*
X19337500Y19000000D01*
X18937500Y19000000D01*
X18937500Y18500000D01*
X18687500Y18500000D01*
X18687500Y19000000D01*
X17937500Y19000000D01*
X17937500Y18000000D01*
X18937500Y18000000D01*
X18937500Y17000000D01*
X17937500Y17000000D01*
X17937500Y16000000D01*
G37*
G36*
G01X19662500Y16000000D02*
X20062500Y16000000D01*
X20062500Y16500000D01*
X20312500Y16500000D01*
X20312500Y16000000D01*
X21062500Y16000000D01*
X21062500Y17000000D01*
X20062500Y17000000D01*
X20062500Y18000000D01*
X21062500Y18000000D01*
X21062500Y19000000D01*
X20312500Y19000000D01*
X20312500Y18500000D01*
X20062500Y18500000D01*
X20062500Y19000000D01*
X19662500Y19000000D01*
X19662500Y16000000D01*
G37*
G36*
G01X21787500Y16000000D02*
X22537500Y16000000D01*
X22537500Y16500000D01*
X22787500Y16500000D01*
X22787500Y16000000D01*
X23237500Y16000000D01*
X23237500Y19000000D01*
X22787500Y19000000D01*
X22787500Y18500000D01*
X22537500Y18500000D01*
X22537500Y19000000D01*
X21787500Y19000000D01*
X21787500Y18000000D01*
X22787500Y18000000D01*
X22787500Y17000000D01*
X21787500Y17000000D01*
X21787500Y16000000D01*
G37*
G36*
G01X23562500Y16000000D02*
X24012500Y16000000D01*
X24012500Y16500000D01*
X24262500Y16500000D01*
X24262500Y16000000D01*
X25012500Y16000000D01*
X25012500Y17000000D01*
X24012500Y17000000D01*
X24012500Y18000000D01*
X25012500Y18000000D01*
X25012500Y19000000D01*
X24262500Y19000000D01*
X24262500Y18500000D01*
X24012500Y18500000D01*
X24012500Y19000000D01*
X23562500Y19000000D01*
X23562500Y16000000D01*
G37*
G36*
G01X25637500Y16000000D02*
X26387500Y16000000D01*
X26387500Y16500000D01*
X26637500Y16500000D01*
X26637500Y16000000D01*
X27137500Y16000000D01*
X27137500Y19000000D01*
X26637500Y19000000D01*
X26637500Y18500000D01*
X26387500Y18500000D01*
X26387500Y19000000D01*
X25637500Y19000000D01*
X25637500Y18000000D01*
X26637500Y18000000D01*
X26637500Y17000000D01*
X25637500Y17000000D01*
X25637500Y16000000D01*
G37*
G36*
G01X27462500Y16000000D02*
X27962500Y16000000D01*
X27962500Y16500000D01*
X28212500Y16500000D01*
X28212500Y16000000D01*
X28962500Y16000000D01*
X28962500Y17000000D01*
X27962500Y17000000D01*
X27962500Y18000000D01*
X28962500Y18000000D01*
X28962500Y19000000D01*
X28212500Y19000000D01*
X28212500Y18500000D01*
X27962500Y18500000D01*
X27962500Y19000000D01*
X27462500Y19000000D01*
X27462500Y16000000D01*
G37*
G36*
G01X29487500Y16000000D02*
X30237500Y16000000D01*
X30237500Y16500000D01*
X30487500Y16500000D01*
X30487500Y16000000D01*
X31037500Y16000000D01*
X31037500Y19000000D01*
X30487500Y19000000D01*
X30487500Y18500000D01*
X30237500Y18500000D01*
X30237500Y19000000D01*
X29487500Y19000000D01*
X29487500Y18000000D01*
X30487500Y18000000D01*
X30487500Y17000000D01*
X29487500Y17000000D01*
X29487500Y16000000D01*
G37*
G36*
G01X31362500Y16000000D02*
X31912500Y16000000D01*
X31912500Y16500000D01*
X32162500Y16500000D01*
X32162500Y16000000D01*
X32912500Y16000000D01*
X32912500Y17000000D01*
X31912500Y17000000D01*
X31912500Y18000000D01*
X32912500Y18000000D01*
X32912500Y19000000D01*
X32162500Y19000000D01*
X32162500Y18500000D01*
X31912500Y18500000D01*
X31912500Y19000000D01*
X31362500Y19000000D01*
X31362500Y16000000D01*
G37*
G36*
G01X33337500Y16000000D02*
X34087500Y16000000D01*
X34087500Y16500000D01*
X34337500Y16500000D01*
X34337500Y16000000D01*
X34937500Y16000000D01*
X34937500Y19000000D01*
X34337500Y19000000D01*
X34337500Y18500000D01*
X34087500Y18500000D01*
X34087500Y19000000D01*
X33337500Y19000000D01*
X33337500Y18000000D01*
X34337500Y18000000D01*
X34337500Y17000000D01*
X33337500Y17000000D01*
X33337500Y16000000D01*
G37*
G36*
G01X35262500Y16000000D02*
X35862500Y16000000D01*
X35862500Y16500000D01*
X36112500Y16500000D01*
X36112500Y16000000D01*
X36862500Y16000000D01*
X36862500Y17000000D01*
X35862500Y17000000D01*
X35862500Y18000000D01*
X36862500Y18000000D01*
X36862500Y19000000D01*
X36112500Y19000000D01*
X36112500Y18500000D01*
X35862500Y18500000D01*
X35862500Y19000000D01*
X35262500Y19000000D01*
X35262500Y16000000D01*
G37*
G36*
G01X14037500Y30000000D02*
X14787500Y30000000D01*
X14787500Y30500000D01*
X15037500Y30500000D01*
X15037500Y30000000D01*
X15387500Y30000000D01*
X15387500Y33000000D01*
X15037500Y33000000D01*
X15037500Y32500000D01*
X14787500Y32500000D01*
X14787500Y33000000D01*
X14037500Y33000000D01*
X14037500Y32000000D01*
X15037500Y32000000D01*
X15037500Y31000000D01*
X14037500Y31000000D01*
X14037500Y30000000D01*
G37*
G36*
G01X14062500Y23000000D02*
X14812500Y23000000D01*
X14812500Y23500000D01*
X15062500Y23500000D01*
X15062500Y23000000D01*
X15412500Y23000000D01*
X15412500Y26000000D01*
X15062500Y26000000D01*
X15062500Y25500000D01*
X14812500Y25500000D01*
X14812500Y26000000D01*
X14062500Y26000000D01*
X14062500Y25000000D01*
X15062500Y25000000D01*
X15062500Y24000000D01*
X14062500Y24000000D01*
X14062500Y23000000D01*
G37*
G36*
G01X14075000Y19500000D02*
X14825000Y19500000D01*
X14825000Y20000000D01*
X15075000Y20000000D01*
X15075000Y19500000D01*
X15425000Y19500000D01*
X15425000Y22500000D01*
X15075000Y22500000D01*
X15075000Y22000000D01*
X14825000Y22000000D01*
X14825000Y22500000D01*
X14075000Y22500000D01*
X14075000Y21500000D01*
X15075000Y21500000D01*
X15075000Y20500000D01*
X14075000Y20500000D01*
X14075000Y19500000D01*
G37*
G36*
G01X14050000Y26500000D02*
X14800000Y26500000D01*
X14800000Y27000000D01*
X15050000Y27000000D01*
X15050000Y26500000D01*
X15400000Y26500000D01*
X15400000Y29500000D01*
X15050000Y29500000D01*
X15050000Y29000000D01*
X14800000Y29000000D01*
X14800000Y29500000D01*
X14050000Y29500000D01*
X14050000Y28500000D01*
X15050000Y28500000D01*
X15050000Y27500000D01*
X14050000Y27500000D01*
X14050000Y26500000D01*
G37*
G36*
G01X14112500Y9000000D02*
X14862500Y9000000D01*
X14862500Y9500000D01*
X15112500Y9500000D01*
X15112500Y9000000D01*
X15462500Y9000000D01*
X15462500Y12000000D01*
X15112500Y12000000D01*
X15112500Y11500000D01*
X14862500Y11500000D01*
X14862500Y12000000D01*
X14112500Y12000000D01*
X14112500Y11000000D01*
X15112500Y11000000D01*
X15112500Y10000000D01*
X14112500Y10000000D01*
X14112500Y9000000D01*
G37*
G36*
G01X14100000Y12500000D02*
X14850000Y12500000D01*
X14850000Y13000000D01*
X15100000Y13000000D01*
X15100000Y12500000D01*
X15450000Y12500000D01*
X15450000Y15500000D01*
X15100000Y15500000D01*
X15100000Y15000000D01*
X14850000Y15000000D01*
X14850000Y15500000D01*
X14100000Y15500000D01*
X14100000Y14500000D01*
X15100000Y14500000D01*
X15100000Y13500000D01*
X14100000Y13500000D01*
X14100000Y12500000D01*
G37*
G36*
G01X14150000Y-1500000D02*
X14900000Y-1500000D01*
X14900000Y-1000000D01*
X15150000Y-1000000D01*
X15150000Y-1500000D01*
X15500000Y-1500000D01*
X15500000Y1500000D01*
X15150000Y1500000D01*
X15150000Y1000000D01*
X14900000Y1000000D01*
X14900000Y1500000D01*
X14150000Y1500000D01*
X14150000Y500000D01*
X15150000Y500000D01*
X15150000Y-500000D01*
X14150000Y-500000D01*
X14150000Y-1500000D01*
G37*
G36*
G01X14137500Y2000000D02*
X14887500Y2000000D01*
X14887500Y2500000D01*
X15137500Y2500000D01*
X15137500Y2000000D01*
X15487500Y2000000D01*
X15487500Y5000000D01*
X15137500Y5000000D01*
X15137500Y4500000D01*
X14887500Y4500000D01*
X14887500Y5000000D01*
X14137500Y5000000D01*
X14137500Y4000000D01*
X15137500Y4000000D01*
X15137500Y3000000D01*
X14137500Y3000000D01*
X14137500Y2000000D01*
G37*
G36*
G01X14125000Y5500000D02*
X14875000Y5500000D01*
X14875000Y6000000D01*
X15125000Y6000000D01*
X15125000Y5500000D01*
X15475000Y5500000D01*
X15475000Y8500000D01*
X15125000Y8500000D01*
X15125000Y8000000D01*
X14875000Y8000000D01*
X14875000Y8500000D01*
X14125000Y8500000D01*
X14125000Y7500000D01*
X15125000Y7500000D01*
X15125000Y6500000D01*
X14125000Y6500000D01*
X14125000Y5500000D01*
G37*
G36*
G01X17925000Y19500000D02*
X18675000Y19500000D01*
X18675000Y20000000D01*
X18925000Y20000000D01*
X18925000Y19500000D01*
X19325000Y19500000D01*
X19325000Y22500000D01*
X18925000Y22500000D01*
X18925000Y22000000D01*
X18675000Y22000000D01*
X18675000Y22500000D01*
X17925000Y22500000D01*
X17925000Y21500000D01*
X18925000Y21500000D01*
X18925000Y20500000D01*
X17925000Y20500000D01*
X17925000Y19500000D01*
G37*
G36*
G01X17912500Y23000000D02*
X18662500Y23000000D01*
X18662500Y23500000D01*
X18912500Y23500000D01*
X18912500Y23000000D01*
X19312500Y23000000D01*
X19312500Y26000000D01*
X18912500Y26000000D01*
X18912500Y25500000D01*
X18662500Y25500000D01*
X18662500Y26000000D01*
X17912500Y26000000D01*
X17912500Y25000000D01*
X18912500Y25000000D01*
X18912500Y24000000D01*
X17912500Y24000000D01*
X17912500Y23000000D01*
G37*
G36*
G01X19687500Y23000000D02*
X20087500Y23000000D01*
X20087500Y23500000D01*
X20337500Y23500000D01*
X20337500Y23000000D01*
X21087500Y23000000D01*
X21087500Y24000000D01*
X20087500Y24000000D01*
X20087500Y25000000D01*
X21087500Y25000000D01*
X21087500Y26000000D01*
X20337500Y26000000D01*
X20337500Y25500000D01*
X20087500Y25500000D01*
X20087500Y26000000D01*
X19687500Y26000000D01*
X19687500Y23000000D01*
G37*
G36*
G01X21762500Y23000000D02*
X22512500Y23000000D01*
X22512500Y23500000D01*
X22762500Y23500000D01*
X22762500Y23000000D01*
X23212500Y23000000D01*
X23212500Y26000000D01*
X22762500Y26000000D01*
X22762500Y25500000D01*
X22512500Y25500000D01*
X22512500Y26000000D01*
X21762500Y26000000D01*
X21762500Y25000000D01*
X22762500Y25000000D01*
X22762500Y24000000D01*
X21762500Y24000000D01*
X21762500Y23000000D01*
G37*
G36*
G01X23587500Y23000000D02*
X24037500Y23000000D01*
X24037500Y23500000D01*
X24287500Y23500000D01*
X24287500Y23000000D01*
X25037500Y23000000D01*
X25037500Y24000000D01*
X24037500Y24000000D01*
X24037500Y25000000D01*
X25037500Y25000000D01*
X25037500Y26000000D01*
X24287500Y26000000D01*
X24287500Y25500000D01*
X24037500Y25500000D01*
X24037500Y26000000D01*
X23587500Y26000000D01*
X23587500Y23000000D01*
G37*
G36*
G01X25612500Y23000000D02*
X26362500Y23000000D01*
X26362500Y23500000D01*
X26612500Y23500000D01*
X26612500Y23000000D01*
X27112500Y23000000D01*
X27112500Y26000000D01*
X26612500Y26000000D01*
X26612500Y25500000D01*
X26362500Y25500000D01*
X26362500Y26000000D01*
X25612500Y26000000D01*
X25612500Y25000000D01*
X26612500Y25000000D01*
X26612500Y24000000D01*
X25612500Y24000000D01*
X25612500Y23000000D01*
G37*
G36*
G01X27487500Y23000000D02*
X27987500Y23000000D01*
X27987500Y23500000D01*
X28237500Y23500000D01*
X28237500Y23000000D01*
X28987500Y23000000D01*
X28987500Y24000000D01*
X27987500Y24000000D01*
X27987500Y25000000D01*
X28987500Y25000000D01*
X28987500Y26000000D01*
X28237500Y26000000D01*
X28237500Y25500000D01*
X27987500Y25500000D01*
X27987500Y26000000D01*
X27487500Y26000000D01*
X27487500Y23000000D01*
G37*
G36*
G01X29462500Y23000000D02*
X30212500Y23000000D01*
X30212500Y23500000D01*
X30462500Y23500000D01*
X30462500Y23000000D01*
X31012500Y23000000D01*
X31012500Y26000000D01*
X30462500Y26000000D01*
X30462500Y25500000D01*
X30212500Y25500000D01*
X30212500Y26000000D01*
X29462500Y26000000D01*
X29462500Y25000000D01*
X30462500Y25000000D01*
X30462500Y24000000D01*
X29462500Y24000000D01*
X29462500Y23000000D01*
G37*
G36*
G01X31387500Y23000000D02*
X31937500Y23000000D01*
X31937500Y23500000D01*
X32187500Y23500000D01*
X32187500Y23000000D01*
X32937500Y23000000D01*
X32937500Y24000000D01*
X31937500Y24000000D01*
X31937500Y25000000D01*
X32937500Y25000000D01*
X32937500Y26000000D01*
X32187500Y26000000D01*
X32187500Y25500000D01*
X31937500Y25500000D01*
X31937500Y26000000D01*
X31387500Y26000000D01*
X31387500Y23000000D01*
G37*
G36*
G01X33312500Y23000000D02*
X34062500Y23000000D01*
X34062500Y23500000D01*
X34312500Y23500000D01*
X34312500Y23000000D01*
X34912500Y23000000D01*
X34912500Y26000000D01*
X34312500Y26000000D01*
X34312500Y25500000D01*
X34062500Y25500000D01*
X34062500Y26000000D01*
X33312500Y26000000D01*
X33312500Y25000000D01*
X34312500Y25000000D01*
X34312500Y24000000D01*
X33312500Y24000000D01*
X33312500Y23000000D01*
G37*
G36*
G01X35287500Y23000000D02*
X35887500Y23000000D01*
X35887500Y23500000D01*
X36137500Y23500000D01*
X36137500Y23000000D01*
X36887500Y23000000D01*
X36887500Y24000000D01*
X35887500Y24000000D01*
X35887500Y25000000D01*
X36887500Y25000000D01*
X36887500Y26000000D01*
X36137500Y26000000D01*
X36137500Y25500000D01*
X35887500Y25500000D01*
X35887500Y26000000D01*
X35287500Y26000000D01*
X35287500Y23000000D01*
G37*
G36*
G01X19675000Y19500000D02*
X20075000Y19500000D01*
X20075000Y20000000D01*
X20325000Y20000000D01*
X20325000Y19500000D01*
X21075000Y19500000D01*
X21075000Y20500000D01*
X20075000Y20500000D01*
X20075000Y21500000D01*
X21075000Y21500000D01*
X21075000Y22500000D01*
X20325000Y22500000D01*
X20325000Y22000000D01*
X20075000Y22000000D01*
X20075000Y22500000D01*
X19675000Y22500000D01*
X19675000Y19500000D01*
G37*
G36*
G01X17900000Y26500000D02*
X18650000Y26500000D01*
X18650000Y27000000D01*
X18900000Y27000000D01*
X18900000Y26500000D01*
X19300000Y26500000D01*
X19300000Y29500000D01*
X18900000Y29500000D01*
X18900000Y29000000D01*
X18650000Y29000000D01*
X18650000Y29500000D01*
X17900000Y29500000D01*
X17900000Y28500000D01*
X18900000Y28500000D01*
X18900000Y27500000D01*
X17900000Y27500000D01*
X17900000Y26500000D01*
G37*
G36*
G01X19700000Y26500000D02*
X20100000Y26500000D01*
X20100000Y27000000D01*
X20350000Y27000000D01*
X20350000Y26500000D01*
X21100000Y26500000D01*
X21100000Y27500000D01*
X20100000Y27500000D01*
X20100000Y28500000D01*
X21100000Y28500000D01*
X21100000Y29500000D01*
X20350000Y29500000D01*
X20350000Y29000000D01*
X20100000Y29000000D01*
X20100000Y29500000D01*
X19700000Y29500000D01*
X19700000Y26500000D01*
G37*
G36*
G01X21750000Y26500000D02*
X22500000Y26500000D01*
X22500000Y27000000D01*
X22750000Y27000000D01*
X22750000Y26500000D01*
X23200000Y26500000D01*
X23200000Y29500000D01*
X22750000Y29500000D01*
X22750000Y29000000D01*
X22500000Y29000000D01*
X22500000Y29500000D01*
X21750000Y29500000D01*
X21750000Y28500000D01*
X22750000Y28500000D01*
X22750000Y27500000D01*
X21750000Y27500000D01*
X21750000Y26500000D01*
G37*
G36*
G01X23600000Y26500000D02*
X24050000Y26500000D01*
X24050000Y27000000D01*
X24300000Y27000000D01*
X24300000Y26500000D01*
X25050000Y26500000D01*
X25050000Y27500000D01*
X24050000Y27500000D01*
X24050000Y28500000D01*
X25050000Y28500000D01*
X25050000Y29500000D01*
X24300000Y29500000D01*
X24300000Y29000000D01*
X24050000Y29000000D01*
X24050000Y29500000D01*
X23600000Y29500000D01*
X23600000Y26500000D01*
G37*
G36*
G01X25600000Y26500000D02*
X26350000Y26500000D01*
X26350000Y27000000D01*
X26600000Y27000000D01*
X26600000Y26500000D01*
X27100000Y26500000D01*
X27100000Y29500000D01*
X26600000Y29500000D01*
X26600000Y29000000D01*
X26350000Y29000000D01*
X26350000Y29500000D01*
X25600000Y29500000D01*
X25600000Y28500000D01*
X26600000Y28500000D01*
X26600000Y27500000D01*
X25600000Y27500000D01*
X25600000Y26500000D01*
G37*
G36*
G01X27500000Y26500000D02*
X28000000Y26500000D01*
X28000000Y27000000D01*
X28250000Y27000000D01*
X28250000Y26500000D01*
X29000000Y26500000D01*
X29000000Y27500000D01*
X28000000Y27500000D01*
X28000000Y28500000D01*
X29000000Y28500000D01*
X29000000Y29500000D01*
X28250000Y29500000D01*
X28250000Y29000000D01*
X28000000Y29000000D01*
X28000000Y29500000D01*
X27500000Y29500000D01*
X27500000Y26500000D01*
G37*
G36*
G01X29450000Y26500000D02*
X30200000Y26500000D01*
X30200000Y27000000D01*
X30450000Y27000000D01*
X30450000Y26500000D01*
X31000000Y26500000D01*
X31000000Y29500000D01*
X30450000Y29500000D01*
X30450000Y29000000D01*
X30200000Y29000000D01*
X30200000Y29500000D01*
X29450000Y29500000D01*
X29450000Y28500000D01*
X30450000Y28500000D01*
X30450000Y27500000D01*
X29450000Y27500000D01*
X29450000Y26500000D01*
G37*
G36*
G01X31400000Y26500000D02*
X31950000Y26500000D01*
X31950000Y27000000D01*
X32200000Y27000000D01*
X32200000Y26500000D01*
X32950000Y26500000D01*
X32950000Y27500000D01*
X31950000Y27500000D01*
X31950000Y28500000D01*
X32950000Y28500000D01*
X32950000Y29500000D01*
X32200000Y29500000D01*
X32200000Y29000000D01*
X31950000Y29000000D01*
X31950000Y29500000D01*
X31400000Y29500000D01*
X31400000Y26500000D01*
G37*
G36*
G01X33300000Y26500000D02*
X34050000Y26500000D01*
X34050000Y27000000D01*
X34300000Y27000000D01*
X34300000Y26500000D01*
X34900000Y26500000D01*
X34900000Y29500000D01*
X34300000Y29500000D01*
X34300000Y29000000D01*
X34050000Y29000000D01*
X34050000Y29500000D01*
X33300000Y29500000D01*
X33300000Y28500000D01*
X34300000Y28500000D01*
X34300000Y27500000D01*
X33300000Y27500000D01*
X33300000Y26500000D01*
G37*
G36*
G01X35300000Y26500000D02*
X35900000Y26500000D01*
X35900000Y27000000D01*
X36150000Y27000000D01*
X36150000Y26500000D01*
X36900000Y26500000D01*
X36900000Y27500000D01*
X35900000Y27500000D01*
X35900000Y28500000D01*
X36900000Y28500000D01*
X36900000Y29500000D01*
X36150000Y29500000D01*
X36150000Y29000000D01*
X35900000Y29000000D01*
X35900000Y29500000D01*
X35300000Y29500000D01*
X35300000Y26500000D01*
G37*
G36*
G01X21775000Y19500000D02*
X22525000Y19500000D01*
X22525000Y20000000D01*
X22775000Y20000000D01*
X22775000Y19500000D01*
X23225000Y19500000D01*
X23225000Y22500000D01*
X22775000Y22500000D01*
X22775000Y22000000D01*
X22525000Y22000000D01*
X22525000Y22500000D01*
X21775000Y22500000D01*
X21775000Y21500000D01*
X22775000Y21500000D01*
X22775000Y20500000D01*
X21775000Y20500000D01*
X21775000Y19500000D01*
G37*
G36*
G01X17887500Y30000000D02*
X18637500Y30000000D01*
X18637500Y30500000D01*
X18887500Y30500000D01*
X18887500Y30000000D01*
X19287500Y30000000D01*
X19287500Y33000000D01*
X18887500Y33000000D01*
X18887500Y32500000D01*
X18637500Y32500000D01*
X18637500Y33000000D01*
X17887500Y33000000D01*
X17887500Y32000000D01*
X18887500Y32000000D01*
X18887500Y31000000D01*
X17887500Y31000000D01*
X17887500Y30000000D01*
G37*
G36*
G01X19712500Y30000000D02*
X20112500Y30000000D01*
X20112500Y30500000D01*
X20362500Y30500000D01*
X20362500Y30000000D01*
X21112500Y30000000D01*
X21112500Y31000000D01*
X20112500Y31000000D01*
X20112500Y32000000D01*
X21112500Y32000000D01*
X21112500Y33000000D01*
X20362500Y33000000D01*
X20362500Y32500000D01*
X20112500Y32500000D01*
X20112500Y33000000D01*
X19712500Y33000000D01*
X19712500Y30000000D01*
G37*
G36*
G01X21737500Y30000000D02*
X22487500Y30000000D01*
X22487500Y30500000D01*
X22737500Y30500000D01*
X22737500Y30000000D01*
X23187500Y30000000D01*
X23187500Y33000000D01*
X22737500Y33000000D01*
X22737500Y32500000D01*
X22487500Y32500000D01*
X22487500Y33000000D01*
X21737500Y33000000D01*
X21737500Y32000000D01*
X22737500Y32000000D01*
X22737500Y31000000D01*
X21737500Y31000000D01*
X21737500Y30000000D01*
G37*
G36*
G01X23612500Y30000000D02*
X24062500Y30000000D01*
X24062500Y30500000D01*
X24312500Y30500000D01*
X24312500Y30000000D01*
X25062500Y30000000D01*
X25062500Y31000000D01*
X24062500Y31000000D01*
X24062500Y32000000D01*
X25062500Y32000000D01*
X25062500Y33000000D01*
X24312500Y33000000D01*
X24312500Y32500000D01*
X24062500Y32500000D01*
X24062500Y33000000D01*
X23612500Y33000000D01*
X23612500Y30000000D01*
G37*
G36*
G01X25587500Y30000000D02*
X26337500Y30000000D01*
X26337500Y30500000D01*
X26587500Y30500000D01*
X26587500Y30000000D01*
X27087500Y30000000D01*
X27087500Y33000000D01*
X26587500Y33000000D01*
X26587500Y32500000D01*
X26337500Y32500000D01*
X26337500Y33000000D01*
X25587500Y33000000D01*
X25587500Y32000000D01*
X26587500Y32000000D01*
X26587500Y31000000D01*
X25587500Y31000000D01*
X25587500Y30000000D01*
G37*
G36*
G01X27512500Y30000000D02*
X28012500Y30000000D01*
X28012500Y30500000D01*
X28262500Y30500000D01*
X28262500Y30000000D01*
X29012500Y30000000D01*
X29012500Y31000000D01*
X28012500Y31000000D01*
X28012500Y32000000D01*
X29012500Y32000000D01*
X29012500Y33000000D01*
X28262500Y33000000D01*
X28262500Y32500000D01*
X28012500Y32500000D01*
X28012500Y33000000D01*
X27512500Y33000000D01*
X27512500Y30000000D01*
G37*
G36*
G01X29437500Y30000000D02*
X30187500Y30000000D01*
X30187500Y30500000D01*
X30437500Y30500000D01*
X30437500Y30000000D01*
X30987500Y30000000D01*
X30987500Y33000000D01*
X30437500Y33000000D01*
X30437500Y32500000D01*
X30187500Y32500000D01*
X30187500Y33000000D01*
X29437500Y33000000D01*
X29437500Y32000000D01*
X30437500Y32000000D01*
X30437500Y31000000D01*
X29437500Y31000000D01*
X29437500Y30000000D01*
G37*
G36*
G01X31412500Y30000000D02*
X31962500Y30000000D01*
X31962500Y30500000D01*
X32212500Y30500000D01*
X32212500Y30000000D01*
X32962500Y30000000D01*
X32962500Y31000000D01*
X31962500Y31000000D01*
X31962500Y32000000D01*
X32962500Y32000000D01*
X32962500Y33000000D01*
X32212500Y33000000D01*
X32212500Y32500000D01*
X31962500Y32500000D01*
X31962500Y33000000D01*
X31412500Y33000000D01*
X31412500Y30000000D01*
G37*
G36*
G01X33287500Y30000000D02*
X34037500Y30000000D01*
X34037500Y30500000D01*
X34287500Y30500000D01*
X34287500Y30000000D01*
X34887500Y30000000D01*
X34887500Y33000000D01*
X34287500Y33000000D01*
X34287500Y32500000D01*
X34037500Y32500000D01*
X34037500Y33000000D01*
X33287500Y33000000D01*
X33287500Y32000000D01*
X34287500Y32000000D01*
X34287500Y31000000D01*
X33287500Y31000000D01*
X33287500Y30000000D01*
G37*
G36*
G01X35312500Y30000000D02*
X35912500Y30000000D01*
X35912500Y30500000D01*
X36162500Y30500000D01*
X36162500Y30000000D01*
X36912500Y30000000D01*
X36912500Y31000000D01*
X35912500Y31000000D01*
X35912500Y32000000D01*
X36912500Y32000000D01*
X36912500Y33000000D01*
X36162500Y33000000D01*
X36162500Y32500000D01*
X35912500Y32500000D01*
X35912500Y33000000D01*
X35312500Y33000000D01*
X35312500Y30000000D01*
G37*
G36*
G01X23575000Y19500000D02*
X24025000Y19500000D01*
X24025000Y20000000D01*
X24275000Y20000000D01*
X24275000Y19500000D01*
X25025000Y19500000D01*
X25025000Y20500000D01*
X24025000Y20500000D01*
X24025000Y21500000D01*
X25025000Y21500000D01*
X25025000Y22500000D01*
X24275000Y22500000D01*
X24275000Y22000000D01*
X24025000Y22000000D01*
X24025000Y22500000D01*
X23575000Y22500000D01*
X23575000Y19500000D01*
G37*
G36*
G01X19620833Y33800000D02*
X19787500Y33800000D01*
X19787500Y33966667D01*
X19954167Y33966667D01*
X19954167Y34133333D01*
X19787500Y34133333D01*
X19787500Y34633333D01*
X19620833Y34633333D01*
X19620833Y33800000D01*
G37*
G36*
G01X20287500Y33800000D02*
X20454167Y33800000D01*
X20454167Y34633333D01*
X20287500Y34633333D01*
X20287500Y34466667D01*
X20120833Y34466667D01*
X20120833Y34300000D01*
X20287500Y34300000D01*
X20287500Y33800000D01*
G37*
G36*
G01X27420833Y33800000D02*
X27587500Y33800000D01*
X27587500Y33966667D01*
X27754167Y33966667D01*
X27754167Y34133333D01*
X27587500Y34133333D01*
X27587500Y34633333D01*
X27420833Y34633333D01*
X27420833Y33800000D01*
G37*
G36*
G01X28087500Y33800000D02*
X28254167Y33800000D01*
X28254167Y34633333D01*
X28087500Y34633333D01*
X28087500Y34466667D01*
X27920833Y34466667D01*
X27920833Y34300000D01*
X28087500Y34300000D01*
X28087500Y33800000D01*
G37*
G36*
G01X33887500Y33800000D02*
X34054167Y33800000D01*
X34054167Y34133333D01*
X34554167Y34133333D01*
X34554167Y34300000D01*
X34054167Y34300000D01*
X34054167Y34633333D01*
X33887500Y34633333D01*
X33887500Y33800000D01*
G37*
G36*
G01X35220833Y33800000D02*
X35387500Y33800000D01*
X35387500Y33966667D01*
X35554167Y33966667D01*
X35554167Y34133333D01*
X35387500Y34133333D01*
X35387500Y34633333D01*
X35220833Y34633333D01*
X35220833Y33800000D01*
G37*
G36*
G01X35887500Y33800000D02*
X36054167Y33800000D01*
X36054167Y34633333D01*
X35887500Y34633333D01*
X35887500Y34466667D01*
X35720833Y34466667D01*
X35720833Y34300000D01*
X35887500Y34300000D01*
X35887500Y33800000D01*
G37*
G36*
G01X25625000Y19500000D02*
X26375000Y19500000D01*
X26375000Y20000000D01*
X26625000Y20000000D01*
X26625000Y19500000D01*
X27125000Y19500000D01*
X27125000Y22500000D01*
X26625000Y22500000D01*
X26625000Y22000000D01*
X26375000Y22000000D01*
X26375000Y22500000D01*
X25625000Y22500000D01*
X25625000Y21500000D01*
X26625000Y21500000D01*
X26625000Y20500000D01*
X25625000Y20500000D01*
X25625000Y19500000D01*
G37*
G36*
G01X18787500Y33633333D02*
X18954167Y33633333D01*
X18954167Y33966667D01*
X19120833Y33966667D01*
X19120833Y34133333D01*
X18954167Y34133333D01*
X18954167Y34800000D01*
X18620833Y34800000D01*
X18620833Y34633333D01*
X18787500Y34633333D01*
X18787500Y34133333D01*
X18454167Y34133333D01*
X18454167Y34300000D01*
X18287500Y34300000D01*
X18287500Y33966667D01*
X18787500Y33966667D01*
X18787500Y33633333D01*
G37*
G36*
G01X22687500Y33633333D02*
X22854167Y33633333D01*
X22854167Y33966667D01*
X23020833Y33966667D01*
X23020833Y34133333D01*
X22854167Y34133333D01*
X22854167Y34800000D01*
X22520833Y34800000D01*
X22520833Y34633333D01*
X22687500Y34633333D01*
X22687500Y34133333D01*
X22354167Y34133333D01*
X22354167Y34300000D01*
X22187500Y34300000D01*
X22187500Y33966667D01*
X22687500Y33966667D01*
X22687500Y33633333D01*
G37*
G36*
G01X23520833Y34133333D02*
X24187500Y34133333D01*
X24187500Y34300000D01*
X23687500Y34300000D01*
X23687500Y34633333D01*
X24354167Y34633333D01*
X24354167Y34800000D01*
X23520833Y34800000D01*
X23520833Y34133333D01*
G37*
G36*
G01X26087500Y34133333D02*
X26754167Y34133333D01*
X26754167Y34300000D01*
X26254167Y34300000D01*
X26254167Y34633333D01*
X26920833Y34633333D01*
X26920833Y34800000D01*
X26087500Y34800000D01*
X26087500Y34133333D01*
G37*
G36*
G01X29987500Y34133333D02*
X30654167Y34133333D01*
X30654167Y34300000D01*
X30154167Y34300000D01*
X30154167Y34633333D01*
X30820833Y34633333D01*
X30820833Y34800000D01*
X29987500Y34800000D01*
X29987500Y34133333D01*
G37*
G36*
G01X31320833Y34133333D02*
X31987500Y34133333D01*
X31987500Y34300000D01*
X31487500Y34300000D01*
X31487500Y34633333D01*
X32154167Y34633333D01*
X32154167Y34800000D01*
X31320833Y34800000D01*
X31320833Y34133333D01*
G37*
G36*
G01X27475000Y19500000D02*
X27975000Y19500000D01*
X27975000Y20000000D01*
X28225000Y20000000D01*
X28225000Y19500000D01*
X28975000Y19500000D01*
X28975000Y20500000D01*
X27975000Y20500000D01*
X27975000Y21500000D01*
X28975000Y21500000D01*
X28975000Y22500000D01*
X28225000Y22500000D01*
X28225000Y22000000D01*
X27975000Y22000000D01*
X27975000Y22500000D01*
X27475000Y22500000D01*
X27475000Y19500000D01*
G37*
G36*
G01X15775000Y19500000D02*
X16125000Y19500000D01*
X16125000Y20000000D01*
X16375000Y20000000D01*
X16375000Y19500000D01*
X17125000Y19500000D01*
X17125000Y20500000D01*
X16125000Y20500000D01*
X16125000Y21500000D01*
X17125000Y21500000D01*
X17125000Y22500000D01*
X16375000Y22500000D01*
X16375000Y22000000D01*
X16125000Y22000000D01*
X16125000Y22500000D01*
X15775000Y22500000D01*
X15775000Y19500000D01*
G37*
G36*
G01X15787500Y23000000D02*
X16137500Y23000000D01*
X16137500Y23500000D01*
X16387500Y23500000D01*
X16387500Y23000000D01*
X17137500Y23000000D01*
X17137500Y24000000D01*
X16137500Y24000000D01*
X16137500Y25000000D01*
X17137500Y25000000D01*
X17137500Y26000000D01*
X16387500Y26000000D01*
X16387500Y25500000D01*
X16137500Y25500000D01*
X16137500Y26000000D01*
X15787500Y26000000D01*
X15787500Y23000000D01*
G37*
G36*
G01X15800000Y26500000D02*
X16150000Y26500000D01*
X16150000Y27000000D01*
X16400000Y27000000D01*
X16400000Y26500000D01*
X17150000Y26500000D01*
X17150000Y27500000D01*
X16150000Y27500000D01*
X16150000Y28500000D01*
X17150000Y28500000D01*
X17150000Y29500000D01*
X16400000Y29500000D01*
X16400000Y29000000D01*
X16150000Y29000000D01*
X16150000Y29500000D01*
X15800000Y29500000D01*
X15800000Y26500000D01*
G37*
G36*
G01X15812500Y30000000D02*
X16162500Y30000000D01*
X16162500Y30500000D01*
X16412500Y30500000D01*
X16412500Y30000000D01*
X17162500Y30000000D01*
X17162500Y31000000D01*
X16162500Y31000000D01*
X16162500Y32000000D01*
X17162500Y32000000D01*
X17162500Y33000000D01*
X16412500Y33000000D01*
X16412500Y32500000D01*
X16162500Y32500000D01*
X16162500Y33000000D01*
X15812500Y33000000D01*
X15812500Y30000000D01*
G37*
G36*
G01X15720833Y34133333D02*
X16387500Y34133333D01*
X16387500Y34300000D01*
X15887500Y34300000D01*
X15887500Y34633333D01*
X16554167Y34633333D01*
X16554167Y34800000D01*
X15720833Y34800000D01*
X15720833Y34133333D01*
G37*
G36*
G01X29475000Y19500000D02*
X30225000Y19500000D01*
X30225000Y20000000D01*
X30475000Y20000000D01*
X30475000Y19500000D01*
X31025000Y19500000D01*
X31025000Y22500000D01*
X30475000Y22500000D01*
X30475000Y22000000D01*
X30225000Y22000000D01*
X30225000Y22500000D01*
X29475000Y22500000D01*
X29475000Y21500000D01*
X30475000Y21500000D01*
X30475000Y20500000D01*
X29475000Y20500000D01*
X29475000Y19500000D01*
G37*
G36*
G01X31375000Y19500000D02*
X31925000Y19500000D01*
X31925000Y20000000D01*
X32175000Y20000000D01*
X32175000Y19500000D01*
X32925000Y19500000D01*
X32925000Y20500000D01*
X31925000Y20500000D01*
X31925000Y21500000D01*
X32925000Y21500000D01*
X32925000Y22500000D01*
X32175000Y22500000D01*
X32175000Y22000000D01*
X31925000Y22000000D01*
X31925000Y22500000D01*
X31375000Y22500000D01*
X31375000Y19500000D01*
G37*
G36*
G01X33325000Y19500000D02*
X34075000Y19500000D01*
X34075000Y20000000D01*
X34325000Y20000000D01*
X34325000Y19500000D01*
X34925000Y19500000D01*
X34925000Y22500000D01*
X34325000Y22500000D01*
X34325000Y22000000D01*
X34075000Y22000000D01*
X34075000Y22500000D01*
X33325000Y22500000D01*
X33325000Y21500000D01*
X34325000Y21500000D01*
X34325000Y20500000D01*
X33325000Y20500000D01*
X33325000Y19500000D01*
G37*
G36*
G01X35275000Y19500000D02*
X35875000Y19500000D01*
X35875000Y20000000D01*
X36125000Y20000000D01*
X36125000Y19500000D01*
X36875000Y19500000D01*
X36875000Y20500000D01*
X35875000Y20500000D01*
X35875000Y21500000D01*
X36875000Y21500000D01*
X36875000Y22500000D01*
X36125000Y22500000D01*
X36125000Y22000000D01*
X35875000Y22000000D01*
X35875000Y22500000D01*
X35275000Y22500000D01*
X35275000Y19500000D01*
G37*
G36*
G01X11875000Y19500000D02*
X12175000Y19500000D01*
X12175000Y20000000D01*
X12425000Y20000000D01*
X12425000Y19500000D01*
X13175000Y19500000D01*
X13175000Y20500000D01*
X12175000Y20500000D01*
X12175000Y21500000D01*
X13175000Y21500000D01*
X13175000Y22500000D01*
X12425000Y22500000D01*
X12425000Y22000000D01*
X12175000Y22000000D01*
X12175000Y22500000D01*
X11875000Y22500000D01*
X11875000Y19500000D01*
G37*
G36*
G01X10212500Y23000000D02*
X10962500Y23000000D01*
X10962500Y23500000D01*
X11212500Y23500000D01*
X11212500Y23000000D01*
X11512500Y23000000D01*
X11512500Y26000000D01*
X11212500Y26000000D01*
X11212500Y25500000D01*
X10962500Y25500000D01*
X10962500Y26000000D01*
X10212500Y26000000D01*
X10212500Y25000000D01*
X11212500Y25000000D01*
X11212500Y24000000D01*
X10212500Y24000000D01*
X10212500Y23000000D01*
G37*
G36*
G01X-2862500Y20000000D02*
X-2195833Y20000000D01*
X-2195833Y20166667D01*
X-2695833Y20166667D01*
X-2695833Y20500000D01*
X-2029167Y20500000D01*
X-2029167Y20666667D01*
X-2862500Y20666667D01*
X-2862500Y20000000D01*
G37*
G36*
G01X-2862500Y26666667D02*
X-2695833Y26666667D01*
X-2695833Y26833333D01*
X-2529167Y26833333D01*
X-2529167Y27000000D01*
X-2695833Y27000000D01*
X-2695833Y27500000D01*
X-2862500Y27500000D01*
X-2862500Y26666667D01*
G37*
G36*
G01X-2195833Y26666667D02*
X-2029167Y26666667D01*
X-2029167Y27500000D01*
X-2195833Y27500000D01*
X-2195833Y27333333D01*
X-2362500Y27333333D01*
X-2362500Y27166667D01*
X-2195833Y27166667D01*
X-2195833Y26666667D01*
G37*
G36*
G01X2687500Y33633333D02*
X3520833Y33633333D01*
X3520833Y33800000D01*
X2854167Y33800000D01*
X2854167Y33966667D01*
X2687500Y33966667D01*
X2687500Y33633333D01*
G37*
G36*
G01X6587500Y33633333D02*
X7420833Y33633333D01*
X7420833Y33800000D01*
X6754167Y33800000D01*
X6754167Y33966667D01*
X6587500Y33966667D01*
X6587500Y33633333D01*
G37*
G36*
G01X-2362500Y28333333D02*
X-2195833Y28333333D01*
X-2195833Y28666667D01*
X-2029167Y28666667D01*
X-2029167Y28833333D01*
X-2195833Y28833333D01*
X-2195833Y29500000D01*
X-2529167Y29500000D01*
X-2529167Y29333333D01*
X-2362500Y29333333D01*
X-2362500Y28833333D01*
X-2695833Y28833333D01*
X-2695833Y29000000D01*
X-2862500Y29000000D01*
X-2862500Y28666667D01*
X-2362500Y28666667D01*
X-2362500Y28333333D01*
G37*
G36*
G01X-1350000Y26500000D02*
X-600000Y26500000D01*
X-600000Y27000000D01*
X-350000Y27000000D01*
X-350000Y26500000D01*
X-200000Y26500000D01*
X-200000Y29500000D01*
X-350000Y29500000D01*
X-350000Y29000000D01*
X-600000Y29000000D01*
X-600000Y29500000D01*
X-1350000Y29500000D01*
X-1350000Y28500000D01*
X-350000Y28500000D01*
X-350000Y27500000D01*
X-1350000Y27500000D01*
X-1350000Y26500000D01*
G37*
G36*
G01X200000Y26500000D02*
X350000Y26500000D01*
X350000Y27000000D01*
X600000Y27000000D01*
X600000Y26500000D01*
X1350000Y26500000D01*
X1350000Y27500000D01*
X350000Y27500000D01*
X350000Y28500000D01*
X1350000Y28500000D01*
X1350000Y29500000D01*
X600000Y29500000D01*
X600000Y29000000D01*
X350000Y29000000D01*
X350000Y29500000D01*
X200000Y29500000D01*
X200000Y26500000D01*
G37*
G36*
G01X2500000Y26500000D02*
X3250000Y26500000D01*
X3250000Y27000000D01*
X3500000Y27000000D01*
X3500000Y26500000D01*
X3700000Y26500000D01*
X3700000Y29500000D01*
X3500000Y29500000D01*
X3500000Y29000000D01*
X3250000Y29000000D01*
X3250000Y29500000D01*
X2500000Y29500000D01*
X2500000Y28500000D01*
X3500000Y28500000D01*
X3500000Y27500000D01*
X2500000Y27500000D01*
X2500000Y26500000D01*
G37*
G36*
G01X4100000Y26500000D02*
X4300000Y26500000D01*
X4300000Y27000000D01*
X4550000Y27000000D01*
X4550000Y26500000D01*
X5300000Y26500000D01*
X5300000Y27500000D01*
X4300000Y27500000D01*
X4300000Y28500000D01*
X5300000Y28500000D01*
X5300000Y29500000D01*
X4550000Y29500000D01*
X4550000Y29000000D01*
X4300000Y29000000D01*
X4300000Y29500000D01*
X4100000Y29500000D01*
X4100000Y26500000D01*
G37*
G36*
G01X6350000Y26500000D02*
X7100000Y26500000D01*
X7100000Y27000000D01*
X7350000Y27000000D01*
X7350000Y26500000D01*
X7600000Y26500000D01*
X7600000Y29500000D01*
X7350000Y29500000D01*
X7350000Y29000000D01*
X7100000Y29000000D01*
X7100000Y29500000D01*
X6350000Y29500000D01*
X6350000Y28500000D01*
X7350000Y28500000D01*
X7350000Y27500000D01*
X6350000Y27500000D01*
X6350000Y26500000D01*
G37*
G36*
G01X8000000Y26500000D02*
X8250000Y26500000D01*
X8250000Y27000000D01*
X8500000Y27000000D01*
X8500000Y26500000D01*
X9250000Y26500000D01*
X9250000Y27500000D01*
X8250000Y27500000D01*
X8250000Y28500000D01*
X9250000Y28500000D01*
X9250000Y29500000D01*
X8500000Y29500000D01*
X8500000Y29000000D01*
X8250000Y29000000D01*
X8250000Y29500000D01*
X8000000Y29500000D01*
X8000000Y26500000D01*
G37*
G36*
G01X10200000Y26500000D02*
X10950000Y26500000D01*
X10950000Y27000000D01*
X11200000Y27000000D01*
X11200000Y26500000D01*
X11500000Y26500000D01*
X11500000Y29500000D01*
X11200000Y29500000D01*
X11200000Y29000000D01*
X10950000Y29000000D01*
X10950000Y29500000D01*
X10200000Y29500000D01*
X10200000Y28500000D01*
X11200000Y28500000D01*
X11200000Y27500000D01*
X10200000Y27500000D01*
X10200000Y26500000D01*
G37*
G36*
G01X4020833Y33800000D02*
X4187500Y33800000D01*
X4187500Y33966667D01*
X4354167Y33966667D01*
X4354167Y34133333D01*
X4187500Y34133333D01*
X4187500Y34633333D01*
X4020833Y34633333D01*
X4020833Y33800000D01*
G37*
G36*
G01X4687500Y33800000D02*
X4854167Y33800000D01*
X4854167Y34633333D01*
X4687500Y34633333D01*
X4687500Y34466667D01*
X4520833Y34466667D01*
X4520833Y34300000D01*
X4687500Y34300000D01*
X4687500Y33800000D01*
G37*
G36*
G01X11820833Y33800000D02*
X11987500Y33800000D01*
X11987500Y33966667D01*
X12154167Y33966667D01*
X12154167Y34133333D01*
X11987500Y34133333D01*
X11987500Y34633333D01*
X11820833Y34633333D01*
X11820833Y33800000D01*
G37*
G36*
G01X12487500Y33800000D02*
X12654167Y33800000D01*
X12654167Y34633333D01*
X12487500Y34633333D01*
X12487500Y34466667D01*
X12320833Y34466667D01*
X12320833Y34300000D01*
X12487500Y34300000D01*
X12487500Y33800000D01*
G37*
G36*
G01X11900000Y26500000D02*
X12200000Y26500000D01*
X12200000Y27000000D01*
X12450000Y27000000D01*
X12450000Y26500000D01*
X13200000Y26500000D01*
X13200000Y27500000D01*
X12200000Y27500000D01*
X12200000Y28500000D01*
X13200000Y28500000D01*
X13200000Y29500000D01*
X12450000Y29500000D01*
X12450000Y29000000D01*
X12200000Y29000000D01*
X12200000Y29500000D01*
X11900000Y29500000D01*
X11900000Y26500000D01*
G37*
G36*
G01X11887500Y23000000D02*
X12187500Y23000000D01*
X12187500Y23500000D01*
X12437500Y23500000D01*
X12437500Y23000000D01*
X13187500Y23000000D01*
X13187500Y24000000D01*
X12187500Y24000000D01*
X12187500Y25000000D01*
X13187500Y25000000D01*
X13187500Y26000000D01*
X12437500Y26000000D01*
X12437500Y25500000D01*
X12187500Y25500000D01*
X12187500Y26000000D01*
X11887500Y26000000D01*
X11887500Y23000000D01*
G37*
G36*
G01X-1325000Y19500000D02*
X-575000Y19500000D01*
X-575000Y20000000D01*
X-325000Y20000000D01*
X-325000Y19500000D01*
X-175000Y19500000D01*
X-175000Y22500000D01*
X-325000Y22500000D01*
X-325000Y22000000D01*
X-575000Y22000000D01*
X-575000Y22500000D01*
X-1325000Y22500000D01*
X-1325000Y21500000D01*
X-325000Y21500000D01*
X-325000Y20500000D01*
X-1325000Y20500000D01*
X-1325000Y19500000D01*
G37*
G36*
G01X175000Y19500000D02*
X325000Y19500000D01*
X325000Y20000000D01*
X575000Y20000000D01*
X575000Y19500000D01*
X1325000Y19500000D01*
X1325000Y20500000D01*
X325000Y20500000D01*
X325000Y21500000D01*
X1325000Y21500000D01*
X1325000Y22500000D01*
X575000Y22500000D01*
X575000Y22000000D01*
X325000Y22000000D01*
X325000Y22500000D01*
X175000Y22500000D01*
X175000Y19500000D01*
G37*
G36*
G01X2525000Y19500000D02*
X3275000Y19500000D01*
X3275000Y20000000D01*
X3525000Y20000000D01*
X3525000Y19500000D01*
X3725000Y19500000D01*
X3725000Y22500000D01*
X3525000Y22500000D01*
X3525000Y22000000D01*
X3275000Y22000000D01*
X3275000Y22500000D01*
X2525000Y22500000D01*
X2525000Y21500000D01*
X3525000Y21500000D01*
X3525000Y20500000D01*
X2525000Y20500000D01*
X2525000Y19500000D01*
G37*
G36*
G01X-1337500Y23000000D02*
X-587500Y23000000D01*
X-587500Y23500000D01*
X-337500Y23500000D01*
X-337500Y23000000D01*
X-187500Y23000000D01*
X-187500Y26000000D01*
X-337500Y26000000D01*
X-337500Y25500000D01*
X-587500Y25500000D01*
X-587500Y26000000D01*
X-1337500Y26000000D01*
X-1337500Y25000000D01*
X-337500Y25000000D01*
X-337500Y24000000D01*
X-1337500Y24000000D01*
X-1337500Y23000000D01*
G37*
G36*
G01X-1045833Y33633333D02*
X-545833Y33633333D01*
X-545833Y33800000D01*
X-712500Y33800000D01*
X-712500Y34800000D01*
X-879167Y34800000D01*
X-879167Y34633333D01*
X-1045833Y34633333D01*
X-1045833Y34466667D01*
X-879167Y34466667D01*
X-879167Y33800000D01*
X-1045833Y33800000D01*
X-1045833Y33633333D01*
G37*
G36*
G01X120833Y34133333D02*
X787500Y34133333D01*
X787500Y34300000D01*
X287500Y34300000D01*
X287500Y34633333D01*
X954167Y34633333D01*
X954167Y34800000D01*
X120833Y34800000D01*
X120833Y34133333D01*
G37*
G36*
G01X7920833Y34133333D02*
X8587500Y34133333D01*
X8587500Y34300000D01*
X8087500Y34300000D01*
X8087500Y34633333D01*
X8754167Y34633333D01*
X8754167Y34800000D01*
X7920833Y34800000D01*
X7920833Y34133333D01*
G37*
G36*
G01X187500Y23000000D02*
X337500Y23000000D01*
X337500Y23500000D01*
X587500Y23500000D01*
X587500Y23000000D01*
X1337500Y23000000D01*
X1337500Y24000000D01*
X337500Y24000000D01*
X337500Y25000000D01*
X1337500Y25000000D01*
X1337500Y26000000D01*
X587500Y26000000D01*
X587500Y25500000D01*
X337500Y25500000D01*
X337500Y26000000D01*
X187500Y26000000D01*
X187500Y23000000D01*
G37*
G36*
G01X2512500Y23000000D02*
X3262500Y23000000D01*
X3262500Y23500000D01*
X3512500Y23500000D01*
X3512500Y23000000D01*
X3712500Y23000000D01*
X3712500Y26000000D01*
X3512500Y26000000D01*
X3512500Y25500000D01*
X3262500Y25500000D01*
X3262500Y26000000D01*
X2512500Y26000000D01*
X2512500Y25000000D01*
X3512500Y25000000D01*
X3512500Y24000000D01*
X2512500Y24000000D01*
X2512500Y23000000D01*
G37*
G36*
G01X4087500Y23000000D02*
X4287500Y23000000D01*
X4287500Y23500000D01*
X4537500Y23500000D01*
X4537500Y23000000D01*
X5287500Y23000000D01*
X5287500Y24000000D01*
X4287500Y24000000D01*
X4287500Y25000000D01*
X5287500Y25000000D01*
X5287500Y26000000D01*
X4537500Y26000000D01*
X4537500Y25500000D01*
X4287500Y25500000D01*
X4287500Y26000000D01*
X4087500Y26000000D01*
X4087500Y23000000D01*
G37*
G36*
G01X6362500Y23000000D02*
X7112500Y23000000D01*
X7112500Y23500000D01*
X7362500Y23500000D01*
X7362500Y23000000D01*
X7612500Y23000000D01*
X7612500Y26000000D01*
X7362500Y26000000D01*
X7362500Y25500000D01*
X7112500Y25500000D01*
X7112500Y26000000D01*
X6362500Y26000000D01*
X6362500Y25000000D01*
X7362500Y25000000D01*
X7362500Y24000000D01*
X6362500Y24000000D01*
X6362500Y23000000D01*
G37*
G36*
G01X-1362500Y30000000D02*
X-612500Y30000000D01*
X-612500Y30500000D01*
X-362500Y30500000D01*
X-362500Y30000000D01*
X-212500Y30000000D01*
X-212500Y33000000D01*
X-362500Y33000000D01*
X-362500Y32500000D01*
X-612500Y32500000D01*
X-612500Y33000000D01*
X-1362500Y33000000D01*
X-1362500Y32000000D01*
X-362500Y32000000D01*
X-362500Y31000000D01*
X-1362500Y31000000D01*
X-1362500Y30000000D01*
G37*
G36*
G01X212500Y30000000D02*
X362500Y30000000D01*
X362500Y30500000D01*
X612500Y30500000D01*
X612500Y30000000D01*
X1362500Y30000000D01*
X1362500Y31000000D01*
X362500Y31000000D01*
X362500Y32000000D01*
X1362500Y32000000D01*
X1362500Y33000000D01*
X612500Y33000000D01*
X612500Y32500000D01*
X362500Y32500000D01*
X362500Y33000000D01*
X212500Y33000000D01*
X212500Y30000000D01*
G37*
G36*
G01X2487500Y30000000D02*
X3237500Y30000000D01*
X3237500Y30500000D01*
X3487500Y30500000D01*
X3487500Y30000000D01*
X3687500Y30000000D01*
X3687500Y33000000D01*
X3487500Y33000000D01*
X3487500Y32500000D01*
X3237500Y32500000D01*
X3237500Y33000000D01*
X2487500Y33000000D01*
X2487500Y32000000D01*
X3487500Y32000000D01*
X3487500Y31000000D01*
X2487500Y31000000D01*
X2487500Y30000000D01*
G37*
G36*
G01X4112500Y30000000D02*
X4312500Y30000000D01*
X4312500Y30500000D01*
X4562500Y30500000D01*
X4562500Y30000000D01*
X5312500Y30000000D01*
X5312500Y31000000D01*
X4312500Y31000000D01*
X4312500Y32000000D01*
X5312500Y32000000D01*
X5312500Y33000000D01*
X4562500Y33000000D01*
X4562500Y32500000D01*
X4312500Y32500000D01*
X4312500Y33000000D01*
X4112500Y33000000D01*
X4112500Y30000000D01*
G37*
G36*
G01X6337500Y30000000D02*
X7087500Y30000000D01*
X7087500Y30500000D01*
X7337500Y30500000D01*
X7337500Y30000000D01*
X7587500Y30000000D01*
X7587500Y33000000D01*
X7337500Y33000000D01*
X7337500Y32500000D01*
X7087500Y32500000D01*
X7087500Y33000000D01*
X6337500Y33000000D01*
X6337500Y32000000D01*
X7337500Y32000000D01*
X7337500Y31000000D01*
X6337500Y31000000D01*
X6337500Y30000000D01*
G37*
G36*
G01X8012500Y30000000D02*
X8262500Y30000000D01*
X8262500Y30500000D01*
X8512500Y30500000D01*
X8512500Y30000000D01*
X9262500Y30000000D01*
X9262500Y31000000D01*
X8262500Y31000000D01*
X8262500Y32000000D01*
X9262500Y32000000D01*
X9262500Y33000000D01*
X8512500Y33000000D01*
X8512500Y32500000D01*
X8262500Y32500000D01*
X8262500Y33000000D01*
X8012500Y33000000D01*
X8012500Y30000000D01*
G37*
G36*
G01X10187500Y30000000D02*
X10937500Y30000000D01*
X10937500Y30500000D01*
X11187500Y30500000D01*
X11187500Y30000000D01*
X11487500Y30000000D01*
X11487500Y33000000D01*
X11187500Y33000000D01*
X11187500Y32500000D01*
X10937500Y32500000D01*
X10937500Y33000000D01*
X10187500Y33000000D01*
X10187500Y32000000D01*
X11187500Y32000000D01*
X11187500Y31000000D01*
X10187500Y31000000D01*
X10187500Y30000000D01*
G37*
G36*
G01X11912500Y30000000D02*
X12212500Y30000000D01*
X12212500Y30500000D01*
X12462500Y30500000D01*
X12462500Y30000000D01*
X13212500Y30000000D01*
X13212500Y31000000D01*
X12212500Y31000000D01*
X12212500Y32000000D01*
X13212500Y32000000D01*
X13212500Y33000000D01*
X12462500Y33000000D01*
X12462500Y32500000D01*
X12212500Y32500000D01*
X12212500Y33000000D01*
X11912500Y33000000D01*
X11912500Y30000000D01*
G37*
G36*
G01X7987500Y23000000D02*
X8237500Y23000000D01*
X8237500Y23500000D01*
X8487500Y23500000D01*
X8487500Y23000000D01*
X9237500Y23000000D01*
X9237500Y24000000D01*
X8237500Y24000000D01*
X8237500Y25000000D01*
X9237500Y25000000D01*
X9237500Y26000000D01*
X8487500Y26000000D01*
X8487500Y25500000D01*
X8237500Y25500000D01*
X8237500Y26000000D01*
X7987500Y26000000D01*
X7987500Y23000000D01*
G37*
G36*
G01X4075000Y19500000D02*
X4275000Y19500000D01*
X4275000Y20000000D01*
X4525000Y20000000D01*
X4525000Y19500000D01*
X5275000Y19500000D01*
X5275000Y20500000D01*
X4275000Y20500000D01*
X4275000Y21500000D01*
X5275000Y21500000D01*
X5275000Y22500000D01*
X4525000Y22500000D01*
X4525000Y22000000D01*
X4275000Y22000000D01*
X4275000Y22500000D01*
X4075000Y22500000D01*
X4075000Y19500000D01*
G37*
G36*
G01X6375000Y19500000D02*
X7125000Y19500000D01*
X7125000Y20000000D01*
X7375000Y20000000D01*
X7375000Y19500000D01*
X7625000Y19500000D01*
X7625000Y22500000D01*
X7375000Y22500000D01*
X7375000Y22000000D01*
X7125000Y22000000D01*
X7125000Y22500000D01*
X6375000Y22500000D01*
X6375000Y21500000D01*
X7375000Y21500000D01*
X7375000Y20500000D01*
X6375000Y20500000D01*
X6375000Y19500000D01*
G37*
G36*
G01X7975000Y19500000D02*
X8225000Y19500000D01*
X8225000Y20000000D01*
X8475000Y20000000D01*
X8475000Y19500000D01*
X9225000Y19500000D01*
X9225000Y20500000D01*
X8225000Y20500000D01*
X8225000Y21500000D01*
X9225000Y21500000D01*
X9225000Y22500000D01*
X8475000Y22500000D01*
X8475000Y22000000D01*
X8225000Y22000000D01*
X8225000Y22500000D01*
X7975000Y22500000D01*
X7975000Y19500000D01*
G37*
G36*
G01X10225000Y19500000D02*
X10975000Y19500000D01*
X10975000Y20000000D01*
X11225000Y20000000D01*
X11225000Y19500000D01*
X11525000Y19500000D01*
X11525000Y22500000D01*
X11225000Y22500000D01*
X11225000Y22000000D01*
X10975000Y22000000D01*
X10975000Y22500000D01*
X10225000Y22500000D01*
X10225000Y21500000D01*
X11225000Y21500000D01*
X11225000Y20500000D01*
X10225000Y20500000D01*
X10225000Y19500000D01*
G37*
G36*
G01X-6915000Y27600000D02*
X-6715000Y27600000D01*
X-6115000Y28400000D01*
X-7515000Y28400000D01*
X-6915000Y27600000D01*
G37*
G36*
G01X2562500Y9000000D02*
X3312500Y9000000D01*
X3312500Y9500000D01*
X3562500Y9500000D01*
X3562500Y9000000D01*
X3762500Y9000000D01*
X3762500Y12000000D01*
X3562500Y12000000D01*
X3562500Y11500000D01*
X3312500Y11500000D01*
X3312500Y12000000D01*
X2562500Y12000000D01*
X2562500Y11000000D01*
X3562500Y11000000D01*
X3562500Y10000000D01*
X2562500Y10000000D01*
X2562500Y9000000D01*
G37*
G36*
G01X-2195833Y-1333333D02*
X-2029167Y-1333333D01*
X-2029167Y-500000D01*
X-2195833Y-500000D01*
X-2195833Y-666667D01*
X-2362500Y-666667D01*
X-2362500Y-833333D01*
X-2195833Y-833333D01*
X-2195833Y-1333333D01*
G37*
G36*
G01X-2862500Y12666667D02*
X-2695833Y12666667D01*
X-2695833Y12833333D01*
X-2529167Y12833333D01*
X-2529167Y13000000D01*
X-2695833Y13000000D01*
X-2695833Y13500000D01*
X-2862500Y13500000D01*
X-2862500Y12666667D01*
G37*
G36*
G01X-2195833Y12666667D02*
X-2029167Y12666667D01*
X-2029167Y13500000D01*
X-2195833Y13500000D01*
X-2195833Y13333333D01*
X-2362500Y13333333D01*
X-2362500Y13166667D01*
X-2195833Y13166667D01*
X-2195833Y12666667D01*
G37*
G36*
G01X-1300000Y12500000D02*
X-550000Y12500000D01*
X-550000Y13000000D01*
X-300000Y13000000D01*
X-300000Y12500000D01*
X-150000Y12500000D01*
X-150000Y15500000D01*
X-300000Y15500000D01*
X-300000Y15000000D01*
X-550000Y15000000D01*
X-550000Y15500000D01*
X-1300000Y15500000D01*
X-1300000Y14500000D01*
X-300000Y14500000D01*
X-300000Y13500000D01*
X-1300000Y13500000D01*
X-1300000Y12500000D01*
G37*
G36*
G01X150000Y12500000D02*
X300000Y12500000D01*
X300000Y13000000D01*
X550000Y13000000D01*
X550000Y12500000D01*
X1300000Y12500000D01*
X1300000Y13500000D01*
X300000Y13500000D01*
X300000Y14500000D01*
X1300000Y14500000D01*
X1300000Y15500000D01*
X550000Y15500000D01*
X550000Y15000000D01*
X300000Y15000000D01*
X300000Y15500000D01*
X150000Y15500000D01*
X150000Y12500000D01*
G37*
G36*
G01X2550000Y12500000D02*
X3300000Y12500000D01*
X3300000Y13000000D01*
X3550000Y13000000D01*
X3550000Y12500000D01*
X3750000Y12500000D01*
X3750000Y15500000D01*
X3550000Y15500000D01*
X3550000Y15000000D01*
X3300000Y15000000D01*
X3300000Y15500000D01*
X2550000Y15500000D01*
X2550000Y14500000D01*
X3550000Y14500000D01*
X3550000Y13500000D01*
X2550000Y13500000D01*
X2550000Y12500000D01*
G37*
G36*
G01X4050000Y12500000D02*
X4250000Y12500000D01*
X4250000Y13000000D01*
X4500000Y13000000D01*
X4500000Y12500000D01*
X5250000Y12500000D01*
X5250000Y13500000D01*
X4250000Y13500000D01*
X4250000Y14500000D01*
X5250000Y14500000D01*
X5250000Y15500000D01*
X4500000Y15500000D01*
X4500000Y15000000D01*
X4250000Y15000000D01*
X4250000Y15500000D01*
X4050000Y15500000D01*
X4050000Y12500000D01*
G37*
G36*
G01X6400000Y12500000D02*
X7150000Y12500000D01*
X7150000Y13000000D01*
X7400000Y13000000D01*
X7400000Y12500000D01*
X7650000Y12500000D01*
X7650000Y15500000D01*
X7400000Y15500000D01*
X7400000Y15000000D01*
X7150000Y15000000D01*
X7150000Y15500000D01*
X6400000Y15500000D01*
X6400000Y14500000D01*
X7400000Y14500000D01*
X7400000Y13500000D01*
X6400000Y13500000D01*
X6400000Y12500000D01*
G37*
G36*
G01X7950000Y12500000D02*
X8200000Y12500000D01*
X8200000Y13000000D01*
X8450000Y13000000D01*
X8450000Y12500000D01*
X9200000Y12500000D01*
X9200000Y13500000D01*
X8200000Y13500000D01*
X8200000Y14500000D01*
X9200000Y14500000D01*
X9200000Y15500000D01*
X8450000Y15500000D01*
X8450000Y15000000D01*
X8200000Y15000000D01*
X8200000Y15500000D01*
X7950000Y15500000D01*
X7950000Y12500000D01*
G37*
G36*
G01X10250000Y12500000D02*
X11000000Y12500000D01*
X11000000Y13000000D01*
X11250000Y13000000D01*
X11250000Y12500000D01*
X11550000Y12500000D01*
X11550000Y15500000D01*
X11250000Y15500000D01*
X11250000Y15000000D01*
X11000000Y15000000D01*
X11000000Y15500000D01*
X10250000Y15500000D01*
X10250000Y14500000D01*
X11250000Y14500000D01*
X11250000Y13500000D01*
X10250000Y13500000D01*
X10250000Y12500000D01*
G37*
G36*
G01X11850000Y12500000D02*
X12150000Y12500000D01*
X12150000Y13000000D01*
X12400000Y13000000D01*
X12400000Y12500000D01*
X13150000Y12500000D01*
X13150000Y13500000D01*
X12150000Y13500000D01*
X12150000Y14500000D01*
X13150000Y14500000D01*
X13150000Y15500000D01*
X12400000Y15500000D01*
X12400000Y15000000D01*
X12150000Y15000000D01*
X12150000Y15500000D01*
X11850000Y15500000D01*
X11850000Y12500000D01*
G37*
G36*
G01X4037500Y9000000D02*
X4237500Y9000000D01*
X4237500Y9500000D01*
X4487500Y9500000D01*
X4487500Y9000000D01*
X5237500Y9000000D01*
X5237500Y10000000D01*
X4237500Y10000000D01*
X4237500Y11000000D01*
X5237500Y11000000D01*
X5237500Y12000000D01*
X4487500Y12000000D01*
X4487500Y11500000D01*
X4237500Y11500000D01*
X4237500Y12000000D01*
X4037500Y12000000D01*
X4037500Y9000000D01*
G37*
G36*
G01X-2862500Y333333D02*
X-2029167Y333333D01*
X-2029167Y500000D01*
X-2695833Y500000D01*
X-2695833Y666667D01*
X-2862500Y666667D01*
X-2862500Y333333D01*
G37*
G36*
G01X-1250000Y-1500000D02*
X-500000Y-1500000D01*
X-500000Y-1000000D01*
X-250000Y-1000000D01*
X-250000Y-1500000D01*
X-100000Y-1500000D01*
X-100000Y1500000D01*
X-250000Y1500000D01*
X-250000Y1000000D01*
X-500000Y1000000D01*
X-500000Y1500000D01*
X-1250000Y1500000D01*
X-1250000Y500000D01*
X-250000Y500000D01*
X-250000Y-500000D01*
X-1250000Y-500000D01*
X-1250000Y-1500000D01*
G37*
G36*
G01X100000Y-1500000D02*
X250000Y-1500000D01*
X250000Y-1000000D01*
X500000Y-1000000D01*
X500000Y-1500000D01*
X1250000Y-1500000D01*
X1250000Y-500000D01*
X250000Y-500000D01*
X250000Y500000D01*
X1250000Y500000D01*
X1250000Y1500000D01*
X500000Y1500000D01*
X500000Y1000000D01*
X250000Y1000000D01*
X250000Y1500000D01*
X100000Y1500000D01*
X100000Y-1500000D01*
G37*
G36*
G01X2600000Y-1500000D02*
X3350000Y-1500000D01*
X3350000Y-1000000D01*
X3600000Y-1000000D01*
X3600000Y-1500000D01*
X3800000Y-1500000D01*
X3800000Y1500000D01*
X3600000Y1500000D01*
X3600000Y1000000D01*
X3350000Y1000000D01*
X3350000Y1500000D01*
X2600000Y1500000D01*
X2600000Y500000D01*
X3600000Y500000D01*
X3600000Y-500000D01*
X2600000Y-500000D01*
X2600000Y-1500000D01*
G37*
G36*
G01X4000000Y-1500000D02*
X4200000Y-1500000D01*
X4200000Y-1000000D01*
X4450000Y-1000000D01*
X4450000Y-1500000D01*
X5200000Y-1500000D01*
X5200000Y-500000D01*
X4200000Y-500000D01*
X4200000Y500000D01*
X5200000Y500000D01*
X5200000Y1500000D01*
X4450000Y1500000D01*
X4450000Y1000000D01*
X4200000Y1000000D01*
X4200000Y1500000D01*
X4000000Y1500000D01*
X4000000Y-1500000D01*
G37*
G36*
G01X6450000Y-1500000D02*
X7200000Y-1500000D01*
X7200000Y-1000000D01*
X7450000Y-1000000D01*
X7450000Y-1500000D01*
X7700000Y-1500000D01*
X7700000Y1500000D01*
X7450000Y1500000D01*
X7450000Y1000000D01*
X7200000Y1000000D01*
X7200000Y1500000D01*
X6450000Y1500000D01*
X6450000Y500000D01*
X7450000Y500000D01*
X7450000Y-500000D01*
X6450000Y-500000D01*
X6450000Y-1500000D01*
G37*
G36*
G01X7900000Y-1500000D02*
X8150000Y-1500000D01*
X8150000Y-1000000D01*
X8400000Y-1000000D01*
X8400000Y-1500000D01*
X9150000Y-1500000D01*
X9150000Y-500000D01*
X8150000Y-500000D01*
X8150000Y500000D01*
X9150000Y500000D01*
X9150000Y1500000D01*
X8400000Y1500000D01*
X8400000Y1000000D01*
X8150000Y1000000D01*
X8150000Y1500000D01*
X7900000Y1500000D01*
X7900000Y-1500000D01*
G37*
G36*
G01X10300000Y-1500000D02*
X11050000Y-1500000D01*
X11050000Y-1000000D01*
X11300000Y-1000000D01*
X11300000Y-1500000D01*
X11600000Y-1500000D01*
X11600000Y1500000D01*
X11300000Y1500000D01*
X11300000Y1000000D01*
X11050000Y1000000D01*
X11050000Y1500000D01*
X10300000Y1500000D01*
X10300000Y500000D01*
X11300000Y500000D01*
X11300000Y-500000D01*
X10300000Y-500000D01*
X10300000Y-1500000D01*
G37*
G36*
G01X11800000Y-1500000D02*
X12100000Y-1500000D01*
X12100000Y-1000000D01*
X12350000Y-1000000D01*
X12350000Y-1500000D01*
X13100000Y-1500000D01*
X13100000Y-500000D01*
X12100000Y-500000D01*
X12100000Y500000D01*
X13100000Y500000D01*
X13100000Y1500000D01*
X12350000Y1500000D01*
X12350000Y1000000D01*
X12100000Y1000000D01*
X12100000Y1500000D01*
X11800000Y1500000D01*
X11800000Y-1500000D01*
G37*
G36*
G01X6412500Y9000000D02*
X7162500Y9000000D01*
X7162500Y9500000D01*
X7412500Y9500000D01*
X7412500Y9000000D01*
X7662500Y9000000D01*
X7662500Y12000000D01*
X7412500Y12000000D01*
X7412500Y11500000D01*
X7162500Y11500000D01*
X7162500Y12000000D01*
X6412500Y12000000D01*
X6412500Y11000000D01*
X7412500Y11000000D01*
X7412500Y10000000D01*
X6412500Y10000000D01*
X6412500Y9000000D01*
G37*
G36*
G01X-1262500Y2000000D02*
X-512500Y2000000D01*
X-512500Y2500000D01*
X-262500Y2500000D01*
X-262500Y2000000D01*
X-112500Y2000000D01*
X-112500Y5000000D01*
X-262500Y5000000D01*
X-262500Y4500000D01*
X-512500Y4500000D01*
X-512500Y5000000D01*
X-1262500Y5000000D01*
X-1262500Y4000000D01*
X-262500Y4000000D01*
X-262500Y3000000D01*
X-1262500Y3000000D01*
X-1262500Y2000000D01*
G37*
G36*
G01X112500Y2000000D02*
X262500Y2000000D01*
X262500Y2500000D01*
X512500Y2500000D01*
X512500Y2000000D01*
X1262500Y2000000D01*
X1262500Y3000000D01*
X262500Y3000000D01*
X262500Y4000000D01*
X1262500Y4000000D01*
X1262500Y5000000D01*
X512500Y5000000D01*
X512500Y4500000D01*
X262500Y4500000D01*
X262500Y5000000D01*
X112500Y5000000D01*
X112500Y2000000D01*
G37*
G36*
G01X2587500Y2000000D02*
X3337500Y2000000D01*
X3337500Y2500000D01*
X3587500Y2500000D01*
X3587500Y2000000D01*
X3787500Y2000000D01*
X3787500Y5000000D01*
X3587500Y5000000D01*
X3587500Y4500000D01*
X3337500Y4500000D01*
X3337500Y5000000D01*
X2587500Y5000000D01*
X2587500Y4000000D01*
X3587500Y4000000D01*
X3587500Y3000000D01*
X2587500Y3000000D01*
X2587500Y2000000D01*
G37*
G36*
G01X4012500Y2000000D02*
X4212500Y2000000D01*
X4212500Y2500000D01*
X4462500Y2500000D01*
X4462500Y2000000D01*
X5212500Y2000000D01*
X5212500Y3000000D01*
X4212500Y3000000D01*
X4212500Y4000000D01*
X5212500Y4000000D01*
X5212500Y5000000D01*
X4462500Y5000000D01*
X4462500Y4500000D01*
X4212500Y4500000D01*
X4212500Y5000000D01*
X4012500Y5000000D01*
X4012500Y2000000D01*
G37*
G36*
G01X6437500Y2000000D02*
X7187500Y2000000D01*
X7187500Y2500000D01*
X7437500Y2500000D01*
X7437500Y2000000D01*
X7687500Y2000000D01*
X7687500Y5000000D01*
X7437500Y5000000D01*
X7437500Y4500000D01*
X7187500Y4500000D01*
X7187500Y5000000D01*
X6437500Y5000000D01*
X6437500Y4000000D01*
X7437500Y4000000D01*
X7437500Y3000000D01*
X6437500Y3000000D01*
X6437500Y2000000D01*
G37*
G36*
G01X7912500Y2000000D02*
X8162500Y2000000D01*
X8162500Y2500000D01*
X8412500Y2500000D01*
X8412500Y2000000D01*
X9162500Y2000000D01*
X9162500Y3000000D01*
X8162500Y3000000D01*
X8162500Y4000000D01*
X9162500Y4000000D01*
X9162500Y5000000D01*
X8412500Y5000000D01*
X8412500Y4500000D01*
X8162500Y4500000D01*
X8162500Y5000000D01*
X7912500Y5000000D01*
X7912500Y2000000D01*
G37*
G36*
G01X10287500Y2000000D02*
X11037500Y2000000D01*
X11037500Y2500000D01*
X11287500Y2500000D01*
X11287500Y2000000D01*
X11587500Y2000000D01*
X11587500Y5000000D01*
X11287500Y5000000D01*
X11287500Y4500000D01*
X11037500Y4500000D01*
X11037500Y5000000D01*
X10287500Y5000000D01*
X10287500Y4000000D01*
X11287500Y4000000D01*
X11287500Y3000000D01*
X10287500Y3000000D01*
X10287500Y2000000D01*
G37*
G36*
G01X11812500Y2000000D02*
X12112500Y2000000D01*
X12112500Y2500000D01*
X12362500Y2500000D01*
X12362500Y2000000D01*
X13112500Y2000000D01*
X13112500Y3000000D01*
X12112500Y3000000D01*
X12112500Y4000000D01*
X13112500Y4000000D01*
X13112500Y5000000D01*
X12362500Y5000000D01*
X12362500Y4500000D01*
X12112500Y4500000D01*
X12112500Y5000000D01*
X11812500Y5000000D01*
X11812500Y2000000D01*
G37*
G36*
G01X7937500Y9000000D02*
X8187500Y9000000D01*
X8187500Y9500000D01*
X8437500Y9500000D01*
X8437500Y9000000D01*
X9187500Y9000000D01*
X9187500Y10000000D01*
X8187500Y10000000D01*
X8187500Y11000000D01*
X9187500Y11000000D01*
X9187500Y12000000D01*
X8437500Y12000000D01*
X8437500Y11500000D01*
X8187500Y11500000D01*
X8187500Y12000000D01*
X7937500Y12000000D01*
X7937500Y9000000D01*
G37*
G36*
G01X-2862500Y6000000D02*
X-2195833Y6000000D01*
X-2195833Y6166667D01*
X-2695833Y6166667D01*
X-2695833Y6500000D01*
X-2029167Y6500000D01*
X-2029167Y6666667D01*
X-2862500Y6666667D01*
X-2862500Y6000000D01*
G37*
G36*
G01X-2862500Y7333333D02*
X-2029167Y7333333D01*
X-2029167Y7500000D01*
X-2695833Y7500000D01*
X-2695833Y7666667D01*
X-2862500Y7666667D01*
X-2862500Y7333333D01*
G37*
G36*
G01X-1275000Y5500000D02*
X-525000Y5500000D01*
X-525000Y6000000D01*
X-275000Y6000000D01*
X-275000Y5500000D01*
X-125000Y5500000D01*
X-125000Y8500000D01*
X-275000Y8500000D01*
X-275000Y8000000D01*
X-525000Y8000000D01*
X-525000Y8500000D01*
X-1275000Y8500000D01*
X-1275000Y7500000D01*
X-275000Y7500000D01*
X-275000Y6500000D01*
X-1275000Y6500000D01*
X-1275000Y5500000D01*
G37*
G36*
G01X125000Y5500000D02*
X275000Y5500000D01*
X275000Y6000000D01*
X525000Y6000000D01*
X525000Y5500000D01*
X1275000Y5500000D01*
X1275000Y6500000D01*
X275000Y6500000D01*
X275000Y7500000D01*
X1275000Y7500000D01*
X1275000Y8500000D01*
X525000Y8500000D01*
X525000Y8000000D01*
X275000Y8000000D01*
X275000Y8500000D01*
X125000Y8500000D01*
X125000Y5500000D01*
G37*
G36*
G01X2575000Y5500000D02*
X3325000Y5500000D01*
X3325000Y6000000D01*
X3575000Y6000000D01*
X3575000Y5500000D01*
X3775000Y5500000D01*
X3775000Y8500000D01*
X3575000Y8500000D01*
X3575000Y8000000D01*
X3325000Y8000000D01*
X3325000Y8500000D01*
X2575000Y8500000D01*
X2575000Y7500000D01*
X3575000Y7500000D01*
X3575000Y6500000D01*
X2575000Y6500000D01*
X2575000Y5500000D01*
G37*
G36*
G01X4025000Y5500000D02*
X4225000Y5500000D01*
X4225000Y6000000D01*
X4475000Y6000000D01*
X4475000Y5500000D01*
X5225000Y5500000D01*
X5225000Y6500000D01*
X4225000Y6500000D01*
X4225000Y7500000D01*
X5225000Y7500000D01*
X5225000Y8500000D01*
X4475000Y8500000D01*
X4475000Y8000000D01*
X4225000Y8000000D01*
X4225000Y8500000D01*
X4025000Y8500000D01*
X4025000Y5500000D01*
G37*
G36*
G01X6425000Y5500000D02*
X7175000Y5500000D01*
X7175000Y6000000D01*
X7425000Y6000000D01*
X7425000Y5500000D01*
X7675000Y5500000D01*
X7675000Y8500000D01*
X7425000Y8500000D01*
X7425000Y8000000D01*
X7175000Y8000000D01*
X7175000Y8500000D01*
X6425000Y8500000D01*
X6425000Y7500000D01*
X7425000Y7500000D01*
X7425000Y6500000D01*
X6425000Y6500000D01*
X6425000Y5500000D01*
G37*
G36*
G01X7925000Y5500000D02*
X8175000Y5500000D01*
X8175000Y6000000D01*
X8425000Y6000000D01*
X8425000Y5500000D01*
X9175000Y5500000D01*
X9175000Y6500000D01*
X8175000Y6500000D01*
X8175000Y7500000D01*
X9175000Y7500000D01*
X9175000Y8500000D01*
X8425000Y8500000D01*
X8425000Y8000000D01*
X8175000Y8000000D01*
X8175000Y8500000D01*
X7925000Y8500000D01*
X7925000Y5500000D01*
G37*
G36*
G01X10275000Y5500000D02*
X11025000Y5500000D01*
X11025000Y6000000D01*
X11275000Y6000000D01*
X11275000Y5500000D01*
X11575000Y5500000D01*
X11575000Y8500000D01*
X11275000Y8500000D01*
X11275000Y8000000D01*
X11025000Y8000000D01*
X11025000Y8500000D01*
X10275000Y8500000D01*
X10275000Y7500000D01*
X11275000Y7500000D01*
X11275000Y6500000D01*
X10275000Y6500000D01*
X10275000Y5500000D01*
G37*
G36*
G01X11825000Y5500000D02*
X12125000Y5500000D01*
X12125000Y6000000D01*
X12375000Y6000000D01*
X12375000Y5500000D01*
X13125000Y5500000D01*
X13125000Y6500000D01*
X12125000Y6500000D01*
X12125000Y7500000D01*
X13125000Y7500000D01*
X13125000Y8500000D01*
X12375000Y8500000D01*
X12375000Y8000000D01*
X12125000Y8000000D01*
X12125000Y8500000D01*
X11825000Y8500000D01*
X11825000Y5500000D01*
G37*
G36*
G01X10262500Y9000000D02*
X11012500Y9000000D01*
X11012500Y9500000D01*
X11262500Y9500000D01*
X11262500Y9000000D01*
X11562500Y9000000D01*
X11562500Y12000000D01*
X11262500Y12000000D01*
X11262500Y11500000D01*
X11012500Y11500000D01*
X11012500Y12000000D01*
X10262500Y12000000D01*
X10262500Y11000000D01*
X11262500Y11000000D01*
X11262500Y10000000D01*
X10262500Y10000000D01*
X10262500Y9000000D01*
G37*
G36*
G01X-2862500Y-1333333D02*
X-2695833Y-1333333D01*
X-2695833Y-1166667D01*
X-2529167Y-1166667D01*
X-2529167Y-1000000D01*
X-2695833Y-1000000D01*
X-2695833Y-500000D01*
X-2862500Y-500000D01*
X-2862500Y-1333333D01*
G37*
G36*
G01X-1287500Y9000000D02*
X-537500Y9000000D01*
X-537500Y9500000D01*
X-287500Y9500000D01*
X-287500Y9000000D01*
X-137500Y9000000D01*
X-137500Y12000000D01*
X-287500Y12000000D01*
X-287500Y11500000D01*
X-537500Y11500000D01*
X-537500Y12000000D01*
X-1287500Y12000000D01*
X-1287500Y11000000D01*
X-287500Y11000000D01*
X-287500Y10000000D01*
X-1287500Y10000000D01*
X-1287500Y9000000D01*
G37*
G36*
G01X137500Y9000000D02*
X287500Y9000000D01*
X287500Y9500000D01*
X537500Y9500000D01*
X537500Y9000000D01*
X1287500Y9000000D01*
X1287500Y10000000D01*
X287500Y10000000D01*
X287500Y11000000D01*
X1287500Y11000000D01*
X1287500Y12000000D01*
X537500Y12000000D01*
X537500Y11500000D01*
X287500Y11500000D01*
X287500Y12000000D01*
X137500Y12000000D01*
X137500Y9000000D01*
G37*
G36*
G01X11837500Y9000000D02*
X12137500Y9000000D01*
X12137500Y9500000D01*
X12387500Y9500000D01*
X12387500Y9000000D01*
X13137500Y9000000D01*
X13137500Y10000000D01*
X12137500Y10000000D01*
X12137500Y11000000D01*
X13137500Y11000000D01*
X13137500Y12000000D01*
X12387500Y12000000D01*
X12387500Y11500000D01*
X12137500Y11500000D01*
X12137500Y12000000D01*
X11837500Y12000000D01*
X11837500Y9000000D01*
G37*
G36*
G01X15700000Y-1500000D02*
X16050000Y-1500000D01*
X16050000Y-1000000D01*
X16300000Y-1000000D01*
X16300000Y-1500000D01*
X17050000Y-1500000D01*
X17050000Y-500000D01*
X16050000Y-500000D01*
X16050000Y500000D01*
X17050000Y500000D01*
X17050000Y1500000D01*
X16300000Y1500000D01*
X16300000Y1000000D01*
X16050000Y1000000D01*
X16050000Y1500000D01*
X15700000Y1500000D01*
X15700000Y-1500000D01*
G37*
G36*
G01X15712500Y2000000D02*
X16062500Y2000000D01*
X16062500Y2500000D01*
X16312500Y2500000D01*
X16312500Y2000000D01*
X17062500Y2000000D01*
X17062500Y3000000D01*
X16062500Y3000000D01*
X16062500Y4000000D01*
X17062500Y4000000D01*
X17062500Y5000000D01*
X16312500Y5000000D01*
X16312500Y4500000D01*
X16062500Y4500000D01*
X16062500Y5000000D01*
X15712500Y5000000D01*
X15712500Y2000000D01*
G37*
G36*
G01X15725000Y5500000D02*
X16075000Y5500000D01*
X16075000Y6000000D01*
X16325000Y6000000D01*
X16325000Y5500000D01*
X17075000Y5500000D01*
X17075000Y6500000D01*
X16075000Y6500000D01*
X16075000Y7500000D01*
X17075000Y7500000D01*
X17075000Y8500000D01*
X16325000Y8500000D01*
X16325000Y8000000D01*
X16075000Y8000000D01*
X16075000Y8500000D01*
X15725000Y8500000D01*
X15725000Y5500000D01*
G37*
G36*
G01X15737500Y9000000D02*
X16087500Y9000000D01*
X16087500Y9500000D01*
X16337500Y9500000D01*
X16337500Y9000000D01*
X17087500Y9000000D01*
X17087500Y10000000D01*
X16087500Y10000000D01*
X16087500Y11000000D01*
X17087500Y11000000D01*
X17087500Y12000000D01*
X16337500Y12000000D01*
X16337500Y11500000D01*
X16087500Y11500000D01*
X16087500Y12000000D01*
X15737500Y12000000D01*
X15737500Y9000000D01*
G37*
G36*
G01X19600000Y-1500000D02*
X20000000Y-1500000D01*
X20000000Y-1000000D01*
X20250000Y-1000000D01*
X20250000Y-1500000D01*
X21000000Y-1500000D01*
X21000000Y-500000D01*
X20000000Y-500000D01*
X20000000Y500000D01*
X21000000Y500000D01*
X21000000Y1500000D01*
X20250000Y1500000D01*
X20250000Y1000000D01*
X20000000Y1000000D01*
X20000000Y1500000D01*
X19600000Y1500000D01*
X19600000Y-1500000D01*
G37*
G36*
G01X21850000Y-1500000D02*
X22600000Y-1500000D01*
X22600000Y-1000000D01*
X22850000Y-1000000D01*
X22850000Y-1500000D01*
X23300000Y-1500000D01*
X23300000Y1500000D01*
X22850000Y1500000D01*
X22850000Y1000000D01*
X22600000Y1000000D01*
X22600000Y1500000D01*
X21850000Y1500000D01*
X21850000Y500000D01*
X22850000Y500000D01*
X22850000Y-500000D01*
X21850000Y-500000D01*
X21850000Y-1500000D01*
G37*
G36*
G01X23500000Y-1500000D02*
X23950000Y-1500000D01*
X23950000Y-1000000D01*
X24200000Y-1000000D01*
X24200000Y-1500000D01*
X24950000Y-1500000D01*
X24950000Y-500000D01*
X23950000Y-500000D01*
X23950000Y500000D01*
X24950000Y500000D01*
X24950000Y1500000D01*
X24200000Y1500000D01*
X24200000Y1000000D01*
X23950000Y1000000D01*
X23950000Y1500000D01*
X23500000Y1500000D01*
X23500000Y-1500000D01*
G37*
G36*
G01X25700000Y-1500000D02*
X26450000Y-1500000D01*
X26450000Y-1000000D01*
X26700000Y-1000000D01*
X26700000Y-1500000D01*
X27200000Y-1500000D01*
X27200000Y1500000D01*
X26700000Y1500000D01*
X26700000Y1000000D01*
X26450000Y1000000D01*
X26450000Y1500000D01*
X25700000Y1500000D01*
X25700000Y500000D01*
X26700000Y500000D01*
X26700000Y-500000D01*
X25700000Y-500000D01*
X25700000Y-1500000D01*
G37*
G36*
G01X27400000Y-1500000D02*
X27900000Y-1500000D01*
X27900000Y-1000000D01*
X28150000Y-1000000D01*
X28150000Y-1500000D01*
X28900000Y-1500000D01*
X28900000Y-500000D01*
X27900000Y-500000D01*
X27900000Y500000D01*
X28900000Y500000D01*
X28900000Y1500000D01*
X28150000Y1500000D01*
X28150000Y1000000D01*
X27900000Y1000000D01*
X27900000Y1500000D01*
X27400000Y1500000D01*
X27400000Y-1500000D01*
G37*
G36*
G01X29550000Y-1500000D02*
X30300000Y-1500000D01*
X30300000Y-1000000D01*
X30550000Y-1000000D01*
X30550000Y-1500000D01*
X31100000Y-1500000D01*
X31100000Y1500000D01*
X30550000Y1500000D01*
X30550000Y1000000D01*
X30300000Y1000000D01*
X30300000Y1500000D01*
X29550000Y1500000D01*
X29550000Y500000D01*
X30550000Y500000D01*
X30550000Y-500000D01*
X29550000Y-500000D01*
X29550000Y-1500000D01*
G37*
G36*
G01X31300000Y-1500000D02*
X31850000Y-1500000D01*
X31850000Y-1000000D01*
X32100000Y-1000000D01*
X32100000Y-1500000D01*
X32850000Y-1500000D01*
X32850000Y-500000D01*
X31850000Y-500000D01*
X31850000Y500000D01*
X32850000Y500000D01*
X32850000Y1500000D01*
X32100000Y1500000D01*
X32100000Y1000000D01*
X31850000Y1000000D01*
X31850000Y1500000D01*
X31300000Y1500000D01*
X31300000Y-1500000D01*
G37*
G36*
G01X33400000Y-1500000D02*
X34150000Y-1500000D01*
X34150000Y-1000000D01*
X34400000Y-1000000D01*
X34400000Y-1500000D01*
X35000000Y-1500000D01*
X35000000Y1500000D01*
X34400000Y1500000D01*
X34400000Y1000000D01*
X34150000Y1000000D01*
X34150000Y1500000D01*
X33400000Y1500000D01*
X33400000Y500000D01*
X34400000Y500000D01*
X34400000Y-500000D01*
X33400000Y-500000D01*
X33400000Y-1500000D01*
G37*
G36*
G01X17962500Y9000000D02*
X18712500Y9000000D01*
X18712500Y9500000D01*
X18962500Y9500000D01*
X18962500Y9000000D01*
X19362500Y9000000D01*
X19362500Y12000000D01*
X18962500Y12000000D01*
X18962500Y11500000D01*
X18712500Y11500000D01*
X18712500Y12000000D01*
X17962500Y12000000D01*
X17962500Y11000000D01*
X18962500Y11000000D01*
X18962500Y10000000D01*
X17962500Y10000000D01*
X17962500Y9000000D01*
G37*
G36*
G01X19637500Y9000000D02*
X20037500Y9000000D01*
X20037500Y9500000D01*
X20287500Y9500000D01*
X20287500Y9000000D01*
X21037500Y9000000D01*
X21037500Y10000000D01*
X20037500Y10000000D01*
X20037500Y11000000D01*
X21037500Y11000000D01*
X21037500Y12000000D01*
X20287500Y12000000D01*
X20287500Y11500000D01*
X20037500Y11500000D01*
X20037500Y12000000D01*
X19637500Y12000000D01*
X19637500Y9000000D01*
G37*
G36*
G01X21812500Y9000000D02*
X22562500Y9000000D01*
X22562500Y9500000D01*
X22812500Y9500000D01*
X22812500Y9000000D01*
X23262500Y9000000D01*
X23262500Y12000000D01*
X22812500Y12000000D01*
X22812500Y11500000D01*
X22562500Y11500000D01*
X22562500Y12000000D01*
X21812500Y12000000D01*
X21812500Y11000000D01*
X22812500Y11000000D01*
X22812500Y10000000D01*
X21812500Y10000000D01*
X21812500Y9000000D01*
G37*
G36*
G01X23537500Y9000000D02*
X23987500Y9000000D01*
X23987500Y9500000D01*
X24237500Y9500000D01*
X24237500Y9000000D01*
X24987500Y9000000D01*
X24987500Y10000000D01*
X23987500Y10000000D01*
X23987500Y11000000D01*
X24987500Y11000000D01*
X24987500Y12000000D01*
X24237500Y12000000D01*
X24237500Y11500000D01*
X23987500Y11500000D01*
X23987500Y12000000D01*
X23537500Y12000000D01*
X23537500Y9000000D01*
G37*
G36*
G01X25662500Y9000000D02*
X26412500Y9000000D01*
X26412500Y9500000D01*
X26662500Y9500000D01*
X26662500Y9000000D01*
X27162500Y9000000D01*
X27162500Y12000000D01*
X26662500Y12000000D01*
X26662500Y11500000D01*
X26412500Y11500000D01*
X26412500Y12000000D01*
X25662500Y12000000D01*
X25662500Y11000000D01*
X26662500Y11000000D01*
X26662500Y10000000D01*
X25662500Y10000000D01*
X25662500Y9000000D01*
G37*
G36*
G01X27437500Y9000000D02*
X27937500Y9000000D01*
X27937500Y9500000D01*
X28187500Y9500000D01*
X28187500Y9000000D01*
X28937500Y9000000D01*
X28937500Y10000000D01*
X27937500Y10000000D01*
X27937500Y11000000D01*
X28937500Y11000000D01*
X28937500Y12000000D01*
X28187500Y12000000D01*
X28187500Y11500000D01*
X27937500Y11500000D01*
X27937500Y12000000D01*
X27437500Y12000000D01*
X27437500Y9000000D01*
G37*
G36*
G01X29512500Y9000000D02*
X30262500Y9000000D01*
X30262500Y9500000D01*
X30512500Y9500000D01*
X30512500Y9000000D01*
X31062500Y9000000D01*
X31062500Y12000000D01*
X30512500Y12000000D01*
X30512500Y11500000D01*
X30262500Y11500000D01*
X30262500Y12000000D01*
X29512500Y12000000D01*
X29512500Y11000000D01*
X30512500Y11000000D01*
X30512500Y10000000D01*
X29512500Y10000000D01*
X29512500Y9000000D01*
G37*
G36*
G01X31337500Y9000000D02*
X31887500Y9000000D01*
X31887500Y9500000D01*
X32137500Y9500000D01*
X32137500Y9000000D01*
X32887500Y9000000D01*
X32887500Y10000000D01*
X31887500Y10000000D01*
X31887500Y11000000D01*
X32887500Y11000000D01*
X32887500Y12000000D01*
X32137500Y12000000D01*
X32137500Y11500000D01*
X31887500Y11500000D01*
X31887500Y12000000D01*
X31337500Y12000000D01*
X31337500Y9000000D01*
G37*
G36*
G01X33362500Y9000000D02*
X34112500Y9000000D01*
X34112500Y9500000D01*
X34362500Y9500000D01*
X34362500Y9000000D01*
X34962500Y9000000D01*
X34962500Y12000000D01*
X34362500Y12000000D01*
X34362500Y11500000D01*
X34112500Y11500000D01*
X34112500Y12000000D01*
X33362500Y12000000D01*
X33362500Y11000000D01*
X34362500Y11000000D01*
X34362500Y10000000D01*
X33362500Y10000000D01*
X33362500Y9000000D01*
G37*
G36*
G01X35237500Y9000000D02*
X35837500Y9000000D01*
X35837500Y9500000D01*
X36087500Y9500000D01*
X36087500Y9000000D01*
X36837500Y9000000D01*
X36837500Y10000000D01*
X35837500Y10000000D01*
X35837500Y11000000D01*
X36837500Y11000000D01*
X36837500Y12000000D01*
X36087500Y12000000D01*
X36087500Y11500000D01*
X35837500Y11500000D01*
X35837500Y12000000D01*
X35237500Y12000000D01*
X35237500Y9000000D01*
G37*
G36*
G01X35200000Y-1500000D02*
X35800000Y-1500000D01*
X35800000Y-1000000D01*
X36050000Y-1000000D01*
X36050000Y-1500000D01*
X36800000Y-1500000D01*
X36800000Y-500000D01*
X35800000Y-500000D01*
X35800000Y500000D01*
X36800000Y500000D01*
X36800000Y1500000D01*
X36050000Y1500000D01*
X36050000Y1000000D01*
X35800000Y1000000D01*
X35800000Y1500000D01*
X35200000Y1500000D01*
X35200000Y-1500000D01*
G37*
G36*
G01X17987500Y2000000D02*
X18737500Y2000000D01*
X18737500Y2500000D01*
X18987500Y2500000D01*
X18987500Y2000000D01*
X19387500Y2000000D01*
X19387500Y5000000D01*
X18987500Y5000000D01*
X18987500Y4500000D01*
X18737500Y4500000D01*
X18737500Y5000000D01*
X17987500Y5000000D01*
X17987500Y4000000D01*
X18987500Y4000000D01*
X18987500Y3000000D01*
X17987500Y3000000D01*
X17987500Y2000000D01*
G37*
G36*
G01X19612500Y2000000D02*
X20012500Y2000000D01*
X20012500Y2500000D01*
X20262500Y2500000D01*
X20262500Y2000000D01*
X21012500Y2000000D01*
X21012500Y3000000D01*
X20012500Y3000000D01*
X20012500Y4000000D01*
X21012500Y4000000D01*
X21012500Y5000000D01*
X20262500Y5000000D01*
X20262500Y4500000D01*
X20012500Y4500000D01*
X20012500Y5000000D01*
X19612500Y5000000D01*
X19612500Y2000000D01*
G37*
G36*
G01X21837500Y2000000D02*
X22587500Y2000000D01*
X22587500Y2500000D01*
X22837500Y2500000D01*
X22837500Y2000000D01*
X23287500Y2000000D01*
X23287500Y5000000D01*
X22837500Y5000000D01*
X22837500Y4500000D01*
X22587500Y4500000D01*
X22587500Y5000000D01*
X21837500Y5000000D01*
X21837500Y4000000D01*
X22837500Y4000000D01*
X22837500Y3000000D01*
X21837500Y3000000D01*
X21837500Y2000000D01*
G37*
G36*
G01X23512500Y2000000D02*
X23962500Y2000000D01*
X23962500Y2500000D01*
X24212500Y2500000D01*
X24212500Y2000000D01*
X24962500Y2000000D01*
X24962500Y3000000D01*
X23962500Y3000000D01*
X23962500Y4000000D01*
X24962500Y4000000D01*
X24962500Y5000000D01*
X24212500Y5000000D01*
X24212500Y4500000D01*
X23962500Y4500000D01*
X23962500Y5000000D01*
X23512500Y5000000D01*
X23512500Y2000000D01*
G37*
G36*
G01X25687500Y2000000D02*
X26437500Y2000000D01*
X26437500Y2500000D01*
X26687500Y2500000D01*
X26687500Y2000000D01*
X27187500Y2000000D01*
X27187500Y5000000D01*
X26687500Y5000000D01*
X26687500Y4500000D01*
X26437500Y4500000D01*
X26437500Y5000000D01*
X25687500Y5000000D01*
X25687500Y4000000D01*
X26687500Y4000000D01*
X26687500Y3000000D01*
X25687500Y3000000D01*
X25687500Y2000000D01*
G37*
G36*
G01X27412500Y2000000D02*
X27912500Y2000000D01*
X27912500Y2500000D01*
X28162500Y2500000D01*
X28162500Y2000000D01*
X28912500Y2000000D01*
X28912500Y3000000D01*
X27912500Y3000000D01*
X27912500Y4000000D01*
X28912500Y4000000D01*
X28912500Y5000000D01*
X28162500Y5000000D01*
X28162500Y4500000D01*
X27912500Y4500000D01*
X27912500Y5000000D01*
X27412500Y5000000D01*
X27412500Y2000000D01*
G37*
G36*
G01X29537500Y2000000D02*
X30287500Y2000000D01*
X30287500Y2500000D01*
X30537500Y2500000D01*
X30537500Y2000000D01*
X31087500Y2000000D01*
X31087500Y5000000D01*
X30537500Y5000000D01*
X30537500Y4500000D01*
X30287500Y4500000D01*
X30287500Y5000000D01*
X29537500Y5000000D01*
X29537500Y4000000D01*
X30537500Y4000000D01*
X30537500Y3000000D01*
X29537500Y3000000D01*
X29537500Y2000000D01*
G37*
G36*
G01X31312500Y2000000D02*
X31862500Y2000000D01*
X31862500Y2500000D01*
X32112500Y2500000D01*
X32112500Y2000000D01*
X32862500Y2000000D01*
X32862500Y3000000D01*
X31862500Y3000000D01*
X31862500Y4000000D01*
X32862500Y4000000D01*
X32862500Y5000000D01*
X32112500Y5000000D01*
X32112500Y4500000D01*
X31862500Y4500000D01*
X31862500Y5000000D01*
X31312500Y5000000D01*
X31312500Y2000000D01*
G37*
G36*
G01X33387500Y2000000D02*
X34137500Y2000000D01*
X34137500Y2500000D01*
X34387500Y2500000D01*
X34387500Y2000000D01*
X34987500Y2000000D01*
X34987500Y5000000D01*
X34387500Y5000000D01*
X34387500Y4500000D01*
X34137500Y4500000D01*
X34137500Y5000000D01*
X33387500Y5000000D01*
X33387500Y4000000D01*
X34387500Y4000000D01*
X34387500Y3000000D01*
X33387500Y3000000D01*
X33387500Y2000000D01*
G37*
G36*
G01X17975000Y5500000D02*
X18725000Y5500000D01*
X18725000Y6000000D01*
X18975000Y6000000D01*
X18975000Y5500000D01*
X19375000Y5500000D01*
X19375000Y8500000D01*
X18975000Y8500000D01*
X18975000Y8000000D01*
X18725000Y8000000D01*
X18725000Y8500000D01*
X17975000Y8500000D01*
X17975000Y7500000D01*
X18975000Y7500000D01*
X18975000Y6500000D01*
X17975000Y6500000D01*
X17975000Y5500000D01*
G37*
G36*
G01X19625000Y5500000D02*
X20025000Y5500000D01*
X20025000Y6000000D01*
X20275000Y6000000D01*
X20275000Y5500000D01*
X21025000Y5500000D01*
X21025000Y6500000D01*
X20025000Y6500000D01*
X20025000Y7500000D01*
X21025000Y7500000D01*
X21025000Y8500000D01*
X20275000Y8500000D01*
X20275000Y8000000D01*
X20025000Y8000000D01*
X20025000Y8500000D01*
X19625000Y8500000D01*
X19625000Y5500000D01*
G37*
G36*
G01X21825000Y5500000D02*
X22575000Y5500000D01*
X22575000Y6000000D01*
X22825000Y6000000D01*
X22825000Y5500000D01*
X23275000Y5500000D01*
X23275000Y8500000D01*
X22825000Y8500000D01*
X22825000Y8000000D01*
X22575000Y8000000D01*
X22575000Y8500000D01*
X21825000Y8500000D01*
X21825000Y7500000D01*
X22825000Y7500000D01*
X22825000Y6500000D01*
X21825000Y6500000D01*
X21825000Y5500000D01*
G37*
G36*
G01X23525000Y5500000D02*
X23975000Y5500000D01*
X23975000Y6000000D01*
X24225000Y6000000D01*
X24225000Y5500000D01*
X24975000Y5500000D01*
X24975000Y6500000D01*
X23975000Y6500000D01*
X23975000Y7500000D01*
X24975000Y7500000D01*
X24975000Y8500000D01*
X24225000Y8500000D01*
X24225000Y8000000D01*
X23975000Y8000000D01*
X23975000Y8500000D01*
X23525000Y8500000D01*
X23525000Y5500000D01*
G37*
G36*
G01X25675000Y5500000D02*
X26425000Y5500000D01*
X26425000Y6000000D01*
X26675000Y6000000D01*
X26675000Y5500000D01*
X27175000Y5500000D01*
X27175000Y8500000D01*
X26675000Y8500000D01*
X26675000Y8000000D01*
X26425000Y8000000D01*
X26425000Y8500000D01*
X25675000Y8500000D01*
X25675000Y7500000D01*
X26675000Y7500000D01*
X26675000Y6500000D01*
X25675000Y6500000D01*
X25675000Y5500000D01*
G37*
G36*
G01X27425000Y5500000D02*
X27925000Y5500000D01*
X27925000Y6000000D01*
X28175000Y6000000D01*
X28175000Y5500000D01*
X28925000Y5500000D01*
X28925000Y6500000D01*
X27925000Y6500000D01*
X27925000Y7500000D01*
X28925000Y7500000D01*
X28925000Y8500000D01*
X28175000Y8500000D01*
X28175000Y8000000D01*
X27925000Y8000000D01*
X27925000Y8500000D01*
X27425000Y8500000D01*
X27425000Y5500000D01*
G37*
G36*
G01X29525000Y5500000D02*
X30275000Y5500000D01*
X30275000Y6000000D01*
X30525000Y6000000D01*
X30525000Y5500000D01*
X31075000Y5500000D01*
X31075000Y8500000D01*
X30525000Y8500000D01*
X30525000Y8000000D01*
X30275000Y8000000D01*
X30275000Y8500000D01*
X29525000Y8500000D01*
X29525000Y7500000D01*
X30525000Y7500000D01*
X30525000Y6500000D01*
X29525000Y6500000D01*
X29525000Y5500000D01*
G37*
G36*
G01X31325000Y5500000D02*
X31875000Y5500000D01*
X31875000Y6000000D01*
X32125000Y6000000D01*
X32125000Y5500000D01*
X32875000Y5500000D01*
X32875000Y6500000D01*
X31875000Y6500000D01*
X31875000Y7500000D01*
X32875000Y7500000D01*
X32875000Y8500000D01*
X32125000Y8500000D01*
X32125000Y8000000D01*
X31875000Y8000000D01*
X31875000Y8500000D01*
X31325000Y8500000D01*
X31325000Y5500000D01*
G37*
G36*
G01X33375000Y5500000D02*
X34125000Y5500000D01*
X34125000Y6000000D01*
X34375000Y6000000D01*
X34375000Y5500000D01*
X34975000Y5500000D01*
X34975000Y8500000D01*
X34375000Y8500000D01*
X34375000Y8000000D01*
X34125000Y8000000D01*
X34125000Y8500000D01*
X33375000Y8500000D01*
X33375000Y7500000D01*
X34375000Y7500000D01*
X34375000Y6500000D01*
X33375000Y6500000D01*
X33375000Y5500000D01*
G37*
G36*
G01X35225000Y5500000D02*
X35825000Y5500000D01*
X35825000Y6000000D01*
X36075000Y6000000D01*
X36075000Y5500000D01*
X36825000Y5500000D01*
X36825000Y6500000D01*
X35825000Y6500000D01*
X35825000Y7500000D01*
X36825000Y7500000D01*
X36825000Y8500000D01*
X36075000Y8500000D01*
X36075000Y8000000D01*
X35825000Y8000000D01*
X35825000Y8500000D01*
X35225000Y8500000D01*
X35225000Y5500000D01*
G37*
G36*
G01X17950000Y12500000D02*
X18700000Y12500000D01*
X18700000Y13000000D01*
X18950000Y13000000D01*
X18950000Y12500000D01*
X19350000Y12500000D01*
X19350000Y15500000D01*
X18950000Y15500000D01*
X18950000Y15000000D01*
X18700000Y15000000D01*
X18700000Y15500000D01*
X17950000Y15500000D01*
X17950000Y14500000D01*
X18950000Y14500000D01*
X18950000Y13500000D01*
X17950000Y13500000D01*
X17950000Y12500000D01*
G37*
G36*
G01X19650000Y12500000D02*
X20050000Y12500000D01*
X20050000Y13000000D01*
X20300000Y13000000D01*
X20300000Y12500000D01*
X21050000Y12500000D01*
X21050000Y13500000D01*
X20050000Y13500000D01*
X20050000Y14500000D01*
X21050000Y14500000D01*
X21050000Y15500000D01*
X20300000Y15500000D01*
X20300000Y15000000D01*
X20050000Y15000000D01*
X20050000Y15500000D01*
X19650000Y15500000D01*
X19650000Y12500000D01*
G37*
G36*
G01X21800000Y12500000D02*
X22550000Y12500000D01*
X22550000Y13000000D01*
X22800000Y13000000D01*
X22800000Y12500000D01*
X23250000Y12500000D01*
X23250000Y15500000D01*
X22800000Y15500000D01*
X22800000Y15000000D01*
X22550000Y15000000D01*
X22550000Y15500000D01*
X21800000Y15500000D01*
X21800000Y14500000D01*
X22800000Y14500000D01*
X22800000Y13500000D01*
X21800000Y13500000D01*
X21800000Y12500000D01*
G37*
G36*
G01X23550000Y12500000D02*
X24000000Y12500000D01*
X24000000Y13000000D01*
X24250000Y13000000D01*
X24250000Y12500000D01*
X25000000Y12500000D01*
X25000000Y13500000D01*
X24000000Y13500000D01*
X24000000Y14500000D01*
X25000000Y14500000D01*
X25000000Y15500000D01*
X24250000Y15500000D01*
X24250000Y15000000D01*
X24000000Y15000000D01*
X24000000Y15500000D01*
X23550000Y15500000D01*
X23550000Y12500000D01*
G37*
G36*
G01X25650000Y12500000D02*
X26400000Y12500000D01*
X26400000Y13000000D01*
X26650000Y13000000D01*
X26650000Y12500000D01*
X27150000Y12500000D01*
X27150000Y15500000D01*
X26650000Y15500000D01*
X26650000Y15000000D01*
X26400000Y15000000D01*
X26400000Y15500000D01*
X25650000Y15500000D01*
X25650000Y14500000D01*
X26650000Y14500000D01*
X26650000Y13500000D01*
X25650000Y13500000D01*
X25650000Y12500000D01*
G37*
G36*
G01X27450000Y12500000D02*
X27950000Y12500000D01*
X27950000Y13000000D01*
X28200000Y13000000D01*
X28200000Y12500000D01*
X28950000Y12500000D01*
X28950000Y13500000D01*
X27950000Y13500000D01*
X27950000Y14500000D01*
X28950000Y14500000D01*
X28950000Y15500000D01*
X28200000Y15500000D01*
X28200000Y15000000D01*
X27950000Y15000000D01*
X27950000Y15500000D01*
X27450000Y15500000D01*
X27450000Y12500000D01*
G37*
G36*
G01X29500000Y12500000D02*
X30250000Y12500000D01*
X30250000Y13000000D01*
X30500000Y13000000D01*
X30500000Y12500000D01*
X31050000Y12500000D01*
X31050000Y15500000D01*
X30500000Y15500000D01*
X30500000Y15000000D01*
X30250000Y15000000D01*
X30250000Y15500000D01*
X29500000Y15500000D01*
X29500000Y14500000D01*
X30500000Y14500000D01*
X30500000Y13500000D01*
X29500000Y13500000D01*
X29500000Y12500000D01*
G37*
G36*
G01X31350000Y12500000D02*
X31900000Y12500000D01*
X31900000Y13000000D01*
X32150000Y13000000D01*
X32150000Y12500000D01*
X32900000Y12500000D01*
X32900000Y13500000D01*
X31900000Y13500000D01*
X31900000Y14500000D01*
X32900000Y14500000D01*
X32900000Y15500000D01*
X32150000Y15500000D01*
X32150000Y15000000D01*
X31900000Y15000000D01*
X31900000Y15500000D01*
X31350000Y15500000D01*
X31350000Y12500000D01*
G37*
G36*
G01X33350000Y12500000D02*
X34100000Y12500000D01*
X34100000Y13000000D01*
X34350000Y13000000D01*
X34350000Y12500000D01*
X34950000Y12500000D01*
X34950000Y15500000D01*
X34350000Y15500000D01*
X34350000Y15000000D01*
X34100000Y15000000D01*
X34100000Y15500000D01*
X33350000Y15500000D01*
X33350000Y14500000D01*
X34350000Y14500000D01*
X34350000Y13500000D01*
X33350000Y13500000D01*
X33350000Y12500000D01*
G37*
G36*
G01X35250000Y12500000D02*
X35850000Y12500000D01*
X35850000Y13000000D01*
X36100000Y13000000D01*
X36100000Y12500000D01*
X36850000Y12500000D01*
X36850000Y13500000D01*
X35850000Y13500000D01*
X35850000Y14500000D01*
X36850000Y14500000D01*
X36850000Y15500000D01*
X36100000Y15500000D01*
X36100000Y15000000D01*
X35850000Y15000000D01*
X35850000Y15500000D01*
X35250000Y15500000D01*
X35250000Y12500000D01*
G37*
G36*
G01X35212500Y2000000D02*
X35812500Y2000000D01*
X35812500Y2500000D01*
X36062500Y2500000D01*
X36062500Y2000000D01*
X36812500Y2000000D01*
X36812500Y3000000D01*
X35812500Y3000000D01*
X35812500Y4000000D01*
X36812500Y4000000D01*
X36812500Y5000000D01*
X36062500Y5000000D01*
X36062500Y4500000D01*
X35812500Y4500000D01*
X35812500Y5000000D01*
X35212500Y5000000D01*
X35212500Y2000000D01*
G37*
G36*
G01X18000000Y-1500000D02*
X18750000Y-1500000D01*
X18750000Y-1000000D01*
X19000000Y-1000000D01*
X19000000Y-1500000D01*
X19400000Y-1500000D01*
X19400000Y1500000D01*
X19000000Y1500000D01*
X19000000Y1000000D01*
X18750000Y1000000D01*
X18750000Y1500000D01*
X18000000Y1500000D01*
X18000000Y500000D01*
X19000000Y500000D01*
X19000000Y-500000D01*
X18000000Y-500000D01*
X18000000Y-1500000D01*
G37*
G36*
G01X15750000Y12500000D02*
X16100000Y12500000D01*
X16100000Y13000000D01*
X16350000Y13000000D01*
X16350000Y12500000D01*
X17100000Y12500000D01*
X17100000Y13500000D01*
X16100000Y13500000D01*
X16100000Y14500000D01*
X17100000Y14500000D01*
X17100000Y15500000D01*
X16350000Y15500000D01*
X16350000Y15000000D01*
X16100000Y15000000D01*
X16100000Y15500000D01*
X15750000Y15500000D01*
X15750000Y12500000D01*
G37*
G36*
G01X15720833Y33633333D02*
X16387500Y33633333D01*
X16387500Y33800000D01*
X15720833Y33800000D01*
X15720833Y33633333D01*
G37*
G36*
G01X19787500Y33633333D02*
X20287500Y33633333D01*
X20287500Y33800000D01*
X19787500Y33800000D01*
X19787500Y33633333D01*
G37*
G36*
G01X23520833Y33633333D02*
X24187500Y33633333D01*
X24187500Y33800000D01*
X23520833Y33800000D01*
X23520833Y33633333D01*
G37*
G36*
G01X26087500Y33633333D02*
X26754167Y33633333D01*
X26754167Y33800000D01*
X26087500Y33800000D01*
X26087500Y33633333D01*
G37*
G36*
G01X27587500Y33633333D02*
X28087500Y33633333D01*
X28087500Y33800000D01*
X27587500Y33800000D01*
X27587500Y33633333D01*
G37*
G36*
G01X29987500Y33633333D02*
X30654167Y33633333D01*
X30654167Y33800000D01*
X29987500Y33800000D01*
X29987500Y33633333D01*
G37*
G36*
G01X31320833Y33633333D02*
X31987500Y33633333D01*
X31987500Y33800000D01*
X31320833Y33800000D01*
X31320833Y33633333D01*
G37*
G36*
G01X34054167Y33633333D02*
X34554167Y33633333D01*
X34554167Y33800000D01*
X34054167Y33800000D01*
X34054167Y33633333D01*
G37*
G36*
G01X35387500Y33633333D02*
X35887500Y33633333D01*
X35887500Y33800000D01*
X35387500Y33800000D01*
X35387500Y33633333D01*
G37*
G36*
G01X16387500Y33800000D02*
X16554167Y33800000D01*
X16554167Y34133333D01*
X16387500Y34133333D01*
X16387500Y33800000D01*
G37*
G36*
G01X24187500Y33800000D02*
X24354167Y33800000D01*
X24354167Y34133333D01*
X24187500Y34133333D01*
X24187500Y33800000D01*
G37*
G36*
G01X26754167Y33800000D02*
X26920833Y33800000D01*
X26920833Y34133333D01*
X26754167Y34133333D01*
X26754167Y33800000D01*
G37*
G36*
G01X30654167Y33800000D02*
X30820833Y33800000D01*
X30820833Y34133333D01*
X30654167Y34133333D01*
X30654167Y33800000D01*
G37*
G36*
G01X31987500Y33800000D02*
X32154167Y33800000D01*
X32154167Y34133333D01*
X31987500Y34133333D01*
X31987500Y33800000D01*
G37*
G36*
G01X34554167Y33800000D02*
X34720833Y33800000D01*
X34720833Y34133333D01*
X34554167Y34133333D01*
X34554167Y33800000D01*
G37*
G36*
G01X19954167Y34133333D02*
X20120833Y34133333D01*
X20120833Y34300000D01*
X19954167Y34300000D01*
X19954167Y34133333D01*
G37*
G36*
G01X27754167Y34133333D02*
X27920833Y34133333D01*
X27920833Y34300000D01*
X27754167Y34300000D01*
X27754167Y34133333D01*
G37*
G36*
G01X35554167Y34133333D02*
X35720833Y34133333D01*
X35720833Y34300000D01*
X35554167Y34300000D01*
X35554167Y34133333D01*
G37*
G36*
G01X18454167Y34300000D02*
X18620833Y34300000D01*
X18620833Y34633333D01*
X18454167Y34633333D01*
X18454167Y34300000D01*
G37*
G36*
G01X22354167Y34300000D02*
X22520833Y34300000D01*
X22520833Y34633333D01*
X22354167Y34633333D01*
X22354167Y34300000D01*
G37*
G36*
G01X19787500Y34633333D02*
X20287500Y34633333D01*
X20287500Y34800000D01*
X19787500Y34800000D01*
X19787500Y34633333D01*
G37*
G36*
G01X27587500Y34633333D02*
X28087500Y34633333D01*
X28087500Y34800000D01*
X27587500Y34800000D01*
X27587500Y34633333D01*
G37*
G36*
G01X34054167Y34633333D02*
X34554167Y34633333D01*
X34554167Y34800000D01*
X34054167Y34800000D01*
X34054167Y34633333D01*
G37*
G36*
G01X35387500Y34633333D02*
X35887500Y34633333D01*
X35887500Y34800000D01*
X35387500Y34800000D01*
X35387500Y34633333D01*
G37*
G36*
G01X-2862500Y19500000D02*
X-2195833Y19500000D01*
X-2195833Y19666667D01*
X-2862500Y19666667D01*
X-2862500Y19500000D01*
G37*
G36*
G01X120833Y33633333D02*
X787500Y33633333D01*
X787500Y33800000D01*
X120833Y33800000D01*
X120833Y33633333D01*
G37*
G36*
G01X4187500Y33633333D02*
X4687500Y33633333D01*
X4687500Y33800000D01*
X4187500Y33800000D01*
X4187500Y33633333D01*
G37*
G36*
G01X7920833Y33633333D02*
X8587500Y33633333D01*
X8587500Y33800000D01*
X7920833Y33800000D01*
X7920833Y33633333D01*
G37*
G36*
G01X10487500Y33633333D02*
X11154167Y33633333D01*
X11154167Y33800000D01*
X10487500Y33800000D01*
X10487500Y33633333D01*
G37*
G36*
G01X11987500Y33633333D02*
X12487500Y33633333D01*
X12487500Y33800000D01*
X11987500Y33800000D01*
X11987500Y33633333D01*
G37*
G36*
G01X14387500Y33633333D02*
X15054167Y33633333D01*
X15054167Y33800000D01*
X14387500Y33800000D01*
X14387500Y33633333D01*
G37*
G36*
G01X-2195833Y19666667D02*
X-2029167Y19666667D01*
X-2029167Y20000000D01*
X-2195833Y20000000D01*
X-2195833Y19666667D01*
G37*
G36*
G01X-2862500Y21333333D02*
X-2195833Y21333333D01*
X-2195833Y21500000D01*
X-2862500Y21500000D01*
X-2862500Y21333333D01*
G37*
G36*
G01X-2195833Y21500000D02*
X-2029167Y21500000D01*
X-2029167Y21833333D01*
X-2195833Y21833333D01*
X-2195833Y21500000D01*
G37*
G36*
G01X-2695833Y26500000D02*
X-2195833Y26500000D01*
X-2195833Y26666667D01*
X-2695833Y26666667D01*
X-2695833Y26500000D01*
G37*
G36*
G01X-2529167Y27000000D02*
X-2362500Y27000000D01*
X-2362500Y27166667D01*
X-2529167Y27166667D01*
X-2529167Y27000000D01*
G37*
G36*
G01X-2695833Y27500000D02*
X-2195833Y27500000D01*
X-2195833Y27666667D01*
X-2695833Y27666667D01*
X-2695833Y27500000D01*
G37*
G36*
G01X787500Y33800000D02*
X954167Y33800000D01*
X954167Y34133333D01*
X787500Y34133333D01*
X787500Y33800000D01*
G37*
G36*
G01X2854167Y33966667D02*
X3187500Y33966667D01*
X3187500Y34133333D01*
X2854167Y34133333D01*
X2854167Y33966667D01*
G37*
G36*
G01X6754167Y33966667D02*
X7087500Y33966667D01*
X7087500Y34133333D01*
X6754167Y34133333D01*
X6754167Y33966667D01*
G37*
G36*
G01X8587500Y33800000D02*
X8754167Y33800000D01*
X8754167Y34133333D01*
X8587500Y34133333D01*
X8587500Y33800000D01*
G37*
G36*
G01X11154167Y33800000D02*
X11320833Y33800000D01*
X11320833Y34133333D01*
X11154167Y34133333D01*
X11154167Y33800000D01*
G37*
G36*
G01X15054167Y33800000D02*
X15220833Y33800000D01*
X15220833Y34133333D01*
X15054167Y34133333D01*
X15054167Y33800000D01*
G37*
G36*
G01X-2695833Y29000000D02*
X-2529167Y29000000D01*
X-2529167Y29333333D01*
X-2695833Y29333333D01*
X-2695833Y29000000D01*
G37*
G36*
G01X3187500Y34133333D02*
X3354167Y34133333D01*
X3354167Y34300000D01*
X3187500Y34300000D01*
X3187500Y34133333D01*
G37*
G36*
G01X4354167Y34133333D02*
X4520833Y34133333D01*
X4520833Y34300000D01*
X4354167Y34300000D01*
X4354167Y34133333D01*
G37*
G36*
G01X7087500Y34133333D02*
X7254167Y34133333D01*
X7254167Y34300000D01*
X7087500Y34300000D01*
X7087500Y34133333D01*
G37*
G36*
G01X10654167Y34133333D02*
X11154167Y34133333D01*
X11154167Y34300000D01*
X10654167Y34300000D01*
X10654167Y34133333D01*
G37*
G36*
G01X12154167Y34133333D02*
X12320833Y34133333D01*
X12320833Y34300000D01*
X12154167Y34300000D01*
X12154167Y34133333D01*
G37*
G36*
G01X14554167Y34133333D02*
X15054167Y34133333D01*
X15054167Y34300000D01*
X14554167Y34300000D01*
X14554167Y34133333D01*
G37*
G36*
G01X2687500Y34466667D02*
X2854167Y34466667D01*
X2854167Y34633333D01*
X2687500Y34633333D01*
X2687500Y34466667D01*
G37*
G36*
G01X3354167Y34300000D02*
X3520833Y34300000D01*
X3520833Y34633333D01*
X3354167Y34633333D01*
X3354167Y34300000D01*
G37*
G36*
G01X6587500Y34466667D02*
X6754167Y34466667D01*
X6754167Y34633333D01*
X6587500Y34633333D01*
X6587500Y34466667D01*
G37*
G36*
G01X7254167Y34300000D02*
X7420833Y34300000D01*
X7420833Y34633333D01*
X7254167Y34633333D01*
X7254167Y34300000D01*
G37*
G36*
G01X11154167Y34300000D02*
X11320833Y34300000D01*
X11320833Y34633333D01*
X11154167Y34633333D01*
X11154167Y34300000D01*
G37*
G36*
G01X15054167Y34300000D02*
X15220833Y34300000D01*
X15220833Y34633333D01*
X15054167Y34633333D01*
X15054167Y34300000D01*
G37*
G36*
G01X-2695833Y21833333D02*
X-2195833Y21833333D01*
X-2195833Y22000000D01*
X-2695833Y22000000D01*
X-2695833Y21833333D01*
G37*
G36*
G01X-2195833Y22000000D02*
X-2029167Y22000000D01*
X-2029167Y22333333D01*
X-2195833Y22333333D01*
X-2195833Y22000000D01*
G37*
G36*
G01X-2862500Y22333333D02*
X-2195833Y22333333D01*
X-2195833Y22500000D01*
X-2862500Y22500000D01*
X-2862500Y22333333D01*
G37*
G36*
G01X2854167Y34633333D02*
X3354167Y34633333D01*
X3354167Y34800000D01*
X2854167Y34800000D01*
X2854167Y34633333D01*
G37*
G36*
G01X4187500Y34633333D02*
X4687500Y34633333D01*
X4687500Y34800000D01*
X4187500Y34800000D01*
X4187500Y34633333D01*
G37*
G36*
G01X6754167Y34633333D02*
X7254167Y34633333D01*
X7254167Y34800000D01*
X6754167Y34800000D01*
X6754167Y34633333D01*
G37*
G36*
G01X10487500Y34633333D02*
X11154167Y34633333D01*
X11154167Y34800000D01*
X10487500Y34800000D01*
X10487500Y34633333D01*
G37*
G36*
G01X11987500Y34633333D02*
X12487500Y34633333D01*
X12487500Y34800000D01*
X11987500Y34800000D01*
X11987500Y34633333D01*
G37*
G36*
G01X14387500Y34633333D02*
X15054167Y34633333D01*
X15054167Y34800000D01*
X14387500Y34800000D01*
X14387500Y34633333D01*
G37*
G36*
G01X-2695833Y12500000D02*
X-2195833Y12500000D01*
X-2195833Y12666667D01*
X-2695833Y12666667D01*
X-2695833Y12500000D01*
G37*
G36*
G01X-2529167Y13000000D02*
X-2362500Y13000000D01*
X-2362500Y13166667D01*
X-2529167Y13166667D01*
X-2529167Y13000000D01*
G37*
G36*
G01X-2695833Y13500000D02*
X-2195833Y13500000D01*
X-2195833Y13666667D01*
X-2695833Y13666667D01*
X-2695833Y13500000D01*
G37*
G36*
G01X-2862500Y14333333D02*
X-2195833Y14333333D01*
X-2195833Y14500000D01*
X-2862500Y14500000D01*
X-2862500Y14333333D01*
G37*
G36*
G01X-2195833Y14500000D02*
X-2029167Y14500000D01*
X-2029167Y14833333D01*
X-2195833Y14833333D01*
X-2195833Y14500000D01*
G37*
G36*
G01X-2695833Y14833333D02*
X-2195833Y14833333D01*
X-2195833Y15000000D01*
X-2695833Y15000000D01*
X-2695833Y14833333D01*
G37*
G36*
G01X-2195833Y15000000D02*
X-2029167Y15000000D01*
X-2029167Y15333333D01*
X-2195833Y15333333D01*
X-2195833Y15000000D01*
G37*
G36*
G01X-2862500Y15333333D02*
X-2195833Y15333333D01*
X-2195833Y15500000D01*
X-2862500Y15500000D01*
X-2862500Y15333333D01*
G37*
G36*
G01X-2695833Y-500000D02*
X-2195833Y-500000D01*
X-2195833Y-333333D01*
X-2695833Y-333333D01*
X-2695833Y-500000D01*
G37*
G36*
G01X-2695833Y666667D02*
X-2362500Y666667D01*
X-2362500Y833333D01*
X-2695833Y833333D01*
X-2695833Y666667D01*
G37*
G36*
G01X-2362500Y833333D02*
X-2195833Y833333D01*
X-2195833Y1000000D01*
X-2362500Y1000000D01*
X-2362500Y833333D01*
G37*
G36*
G01X-2862500Y1166667D02*
X-2695833Y1166667D01*
X-2695833Y1333333D01*
X-2862500Y1333333D01*
X-2862500Y1166667D01*
G37*
G36*
G01X-2195833Y1000000D02*
X-2029167Y1000000D01*
X-2029167Y1333333D01*
X-2195833Y1333333D01*
X-2195833Y1000000D01*
G37*
G36*
G01X-2695833Y1333333D02*
X-2195833Y1333333D01*
X-2195833Y1500000D01*
X-2695833Y1500000D01*
X-2695833Y1333333D01*
G37*
G36*
G01X-2695833Y-1500000D02*
X-2195833Y-1500000D01*
X-2195833Y-1333333D01*
X-2695833Y-1333333D01*
X-2695833Y-1500000D01*
G37*
G36*
G01X-2529167Y-1000000D02*
X-2362500Y-1000000D01*
X-2362500Y-833333D01*
X-2529167Y-833333D01*
X-2529167Y-1000000D01*
G37*
G36*
G01X-2862500Y5500000D02*
X-2195833Y5500000D01*
X-2195833Y5666667D01*
X-2862500Y5666667D01*
X-2862500Y5500000D01*
G37*
G36*
G01X-2195833Y5666667D02*
X-2029167Y5666667D01*
X-2029167Y6000000D01*
X-2195833Y6000000D01*
X-2195833Y5666667D01*
G37*
G36*
G01X-2695833Y7666667D02*
X-2362500Y7666667D01*
X-2362500Y7833333D01*
X-2695833Y7833333D01*
X-2695833Y7666667D01*
G37*
G36*
G01X-2362500Y7833333D02*
X-2195833Y7833333D01*
X-2195833Y8000000D01*
X-2362500Y8000000D01*
X-2362500Y7833333D01*
G37*
G36*
G01X-2862500Y8166667D02*
X-2695833Y8166667D01*
X-2695833Y8333333D01*
X-2862500Y8333333D01*
X-2862500Y8166667D01*
G37*
G36*
G01X-2195833Y8000000D02*
X-2029167Y8000000D01*
X-2029167Y8333333D01*
X-2195833Y8333333D01*
X-2195833Y8000000D01*
G37*
G36*
G01X-2695833Y8333333D02*
X-2195833Y8333333D01*
X-2195833Y8500000D01*
X-2695833Y8500000D01*
X-2695833Y8333333D01*
G37*
G36*
G01X-7115000Y28400000D02*
X-6515000Y28400000D01*
X-6515000Y33000000D01*
X-7115000Y33000000D01*
X-7115000Y28400000D01*
G37*
M02*
